# This file uses centimeters as units for non-parametric coordinates.

mtllib Floor_Paneled_001.mtl
g default
v -149.941589 0.000000 286.318115
v -134.953278 0.000000 286.318115
v -119.964966 0.000000 286.318115
v -104.976654 0.000000 286.318115
v -89.988327 0.000000 286.318115
v -75.000008 0.000000 286.318115
v -60.011688 0.000000 286.318115
v -45.023361 0.000000 286.318115
v -30.035049 0.000000 286.318115
v -15.046726 0.000000 286.318115
v -0.058412 0.000000 286.318115
v -149.941589 0.000001 257.834717
v -134.953278 0.000001 257.834717
v -119.964966 0.000001 257.834717
v -104.976654 0.000001 257.834717
v -89.988327 0.000001 257.834717
v -75.000008 0.000001 257.834717
v -60.011688 0.000001 257.834717
v -45.023361 0.000001 257.834717
v -30.035049 0.000001 257.834717
v -15.046726 0.000001 257.834717
v -0.058412 0.000001 257.834717
v -149.941589 0.000007 255.351318
v -134.953278 0.000001 255.351318
v -119.964966 0.000001 255.351318
v -104.976654 0.000001 255.351318
v -89.988327 0.000001 255.351318
v -75.000008 0.000001 255.351318
v -60.011688 0.000001 255.351318
v -45.023361 0.000001 255.351318
v -30.035049 0.000001 255.351318
v -15.046726 0.000001 255.351318
v -0.058412 0.000007 255.351318
v -149.941589 0.000001 226.867920
v -134.953278 0.000001 226.867935
v -119.964966 0.000001 226.867935
v -104.976654 0.000001 226.867935
v -89.988327 0.000001 226.867935
v -75.000008 0.000001 226.867935
v -60.011688 0.000001 226.867935
v -45.023361 0.000001 226.867935
v -30.035049 0.000001 226.867935
v -15.046726 0.000001 226.867935
v -0.058412 0.000001 226.867920
v -149.941589 0.000005 224.384552
v -134.953278 -0.000000 224.384552
v -119.964966 -0.000000 224.384552
v -104.976654 -0.000000 224.384552
v -89.988327 -0.000000 224.384552
v -75.000008 -0.000000 224.384552
v -60.011688 -0.000000 224.384552
v -45.023361 -0.000000 224.384552
v -30.035049 -0.000000 224.384552
v -15.046726 -0.000000 224.384552
v -0.058412 0.000005 224.384552
v -149.941589 -0.000000 195.901154
v -134.953278 -0.000000 195.901154
v -119.964966 -0.000000 195.901154
v -104.976654 -0.000000 195.901154
v -89.988327 -0.000000 195.901154
v -75.000008 -0.000000 195.901154
v -60.011688 -0.000000 195.901154
v -45.023361 -0.000000 195.901154
v -30.035049 -0.000000 195.901154
v -15.046726 -0.000000 195.901154
v -0.058412 -0.000000 195.901154
v -149.941589 0.000005 193.417755
v -134.953278 -0.000000 193.417755
v -119.964966 -0.000000 193.417755
v -104.976654 -0.000000 193.417755
v -89.988327 -0.000000 193.417755
v -75.000008 -0.000000 193.417755
v -60.011688 -0.000000 193.417755
v -45.023361 -0.000000 193.417755
v -30.035049 -0.000000 193.417755
v -15.046726 -0.000000 193.417755
v -0.058412 0.000005 193.417755
v -149.941589 -0.000000 164.934357
v -134.953278 -0.000000 164.934372
v -119.964966 -0.000000 164.934372
v -104.976654 -0.000000 164.934372
v -89.988327 -0.000000 164.934372
v -75.000008 -0.000000 164.934372
v -60.011688 -0.000000 164.934372
v -45.023361 -0.000000 164.934372
v -30.035049 -0.000000 164.934372
v -15.046726 -0.000000 164.934372
v -0.058412 -0.000000 164.934357
v -149.941589 0.000005 162.450974
v -134.953278 -0.000000 162.450989
v -119.964966 -0.000000 162.450989
v -104.976654 -0.000000 162.450989
v -89.988327 -0.000000 162.450989
v -75.000008 -0.000000 162.450989
v -60.011688 -0.000000 162.450989
v -45.023361 -0.000000 162.450989
v -30.035049 -0.000000 162.450989
v -15.046726 -0.000000 162.450989
v -0.058412 0.000005 162.450974
v -149.941589 0.000000 133.967575
v -134.953278 0.000000 133.967575
v -119.964966 0.000000 133.967575
v -104.976654 0.000000 133.967575
v -89.988327 0.000000 133.967575
v -75.000008 0.000000 133.967575
v -60.011688 0.000000 133.967575
v -45.023361 0.000000 133.967575
v -30.035049 0.000000 133.967575
v -15.046726 0.000000 133.967575
v -0.058412 0.000000 133.967575
v -149.941589 0.000000 131.484207
v -134.953278 0.000000 131.484207
v -119.964966 0.000000 131.484207
v -104.976654 0.000000 131.484207
v -89.988327 0.000000 131.484207
v -75.000008 0.000000 131.484207
v -60.011688 0.000000 131.484207
v -45.023361 0.000000 131.484207
v -30.035049 0.000000 131.484207
v -15.046726 0.000000 131.484207
v -0.058412 0.000000 131.484207
v -149.941589 2.218080 286.318115
v -134.953278 2.218080 286.318115
v -134.953278 2.218080 257.834717
v -149.941589 2.218080 257.834717
v -119.964966 2.218080 286.318115
v -119.964966 2.218080 257.834717
v -104.976654 2.218080 286.318115
v -104.976654 2.218080 257.834717
v -89.988327 2.218080 286.318115
v -89.988327 2.218080 257.834717
v -75.000008 2.218080 286.318115
v -75.000008 2.218080 257.834717
v -60.011688 2.218080 286.318115
v -60.011688 2.218080 257.834717
v -45.023361 2.218080 286.318115
v -45.023361 2.218080 257.834717
v -30.035049 2.218080 286.318115
v -30.035049 2.218080 257.834717
v -15.046726 2.218080 286.318115
v -15.046726 2.218080 257.834717
v -0.058412 2.218080 286.318115
v -0.058412 2.218080 257.834717
v -134.953278 2.218092 255.351318
v -149.941589 2.218092 255.351318
v -119.964966 2.218092 255.351318
v -104.976654 2.218092 255.351318
v -89.988327 2.218092 255.351318
v -75.000008 2.218092 255.351318
v -60.011688 2.218092 255.351318
v -45.023361 2.218092 255.351318
v -30.035049 2.218092 255.351318
v -15.046726 2.218092 255.351318
v -0.058412 2.218092 255.351318
v -134.953278 2.218080 226.867920
v -149.941589 2.218080 226.867920
v -119.964966 2.218080 226.867920
v -104.976654 2.218080 226.867920
v -89.988327 2.218080 226.867920
v -75.000008 2.218080 226.867920
v -60.011688 2.218080 226.867920
v -45.023361 2.218080 226.867920
v -30.035049 2.218080 226.867920
v -15.046726 2.218080 226.867920
v -0.058412 2.218080 226.867920
v -134.953278 2.218092 224.384552
v -149.941589 2.218092 224.384552
v -119.964966 2.218092 224.384552
v -104.976654 2.218092 224.384552
v -89.988327 2.218092 224.384552
v -75.000008 2.218092 224.384552
v -60.011688 2.218092 224.384552
v -45.023361 2.218092 224.384552
v -30.035049 2.218092 224.384552
v -15.046726 2.218092 224.384552
v -0.058412 2.218092 224.384552
v -134.953278 2.218080 195.901154
v -149.941589 2.218080 195.901154
v -119.964966 2.218080 195.901154
v -104.976654 2.218080 195.901154
v -89.988327 2.218080 195.901154
v -75.000008 2.218080 195.901154
v -60.011688 2.218080 195.901154
v -45.023361 2.218080 195.901154
v -30.035049 2.218080 195.901154
v -15.046726 2.218080 195.901154
v -0.058412 2.218080 195.901154
v -134.953278 2.218092 193.417755
v -149.941589 2.218092 193.417755
v -119.964966 2.218092 193.417755
v -104.976654 2.218092 193.417755
v -89.988327 2.218092 193.417755
v -75.000008 2.218092 193.417755
v -60.011688 2.218092 193.417755
v -45.023361 2.218092 193.417755
v -30.035049 2.218092 193.417755
v -15.046726 2.218092 193.417755
v -0.058412 2.218092 193.417755
v -134.953278 2.218080 164.934357
v -149.941589 2.218080 164.934357
v -119.964966 2.218080 164.934357
v -104.976654 2.218080 164.934357
v -89.988327 2.218080 164.934357
v -75.000008 2.218080 164.934357
v -60.011688 2.218080 164.934357
v -45.023361 2.218080 164.934357
v -30.035049 2.218080 164.934357
v -15.046726 2.218080 164.934357
v -0.058412 2.218080 164.934357
v -134.953278 2.218092 162.450974
v -149.941589 2.218092 162.450974
v -119.964966 2.218092 162.450974
v -104.976654 2.218092 162.450974
v -89.988327 2.218092 162.450974
v -75.000008 2.218092 162.450974
v -60.011688 2.218092 162.450974
v -45.023361 2.218092 162.450974
v -30.035049 2.218092 162.450974
v -15.046726 2.218092 162.450974
v -0.058412 2.218092 162.450974
v -134.953278 2.218080 133.967575
v -149.941589 2.218080 133.967575
v -119.964966 2.218080 133.967575
v -104.976654 2.218080 133.967575
v -89.988327 2.218080 133.967575
v -75.000008 2.218080 133.967575
v -60.011688 2.218080 133.967575
v -45.023361 2.218080 133.967575
v -30.035049 2.218080 133.967575
v -15.046726 2.218080 133.967575
v -0.058412 2.218080 133.967575
v -134.953278 2.218086 131.484207
v -149.941589 2.218086 131.484207
v -119.964966 2.218086 131.484207
v -104.976654 2.218086 131.484207
v -89.988327 2.218086 131.484207
v -75.000008 2.218086 131.484207
v -60.011688 2.218086 131.484207
v -45.023361 2.218086 131.484207
v -30.035049 2.218086 131.484207
v -15.046726 2.218086 131.484207
v -0.058412 2.218086 131.484207
v -149.941589 2.444166 286.318115
v -134.953278 2.444166 286.318115
v -134.953278 2.444166 257.834717
v -149.941589 2.444166 257.834717
v -119.964966 2.444166 286.318115
v -119.964966 2.444166 257.834717
v -104.976654 2.444166 286.318115
v -104.976654 2.444166 257.834717
v -89.988327 2.444166 286.318115
v -89.988327 2.444166 257.834717
v -75.000008 2.444166 286.318115
v -75.000008 2.444166 257.834717
v -60.011688 2.444166 286.318115
v -60.011688 2.444166 257.834717
v -45.023361 2.444166 286.318115
v -45.023361 2.444166 257.834717
v -30.035049 2.444166 286.318115
v -30.035049 2.444166 257.834717
v -15.046726 2.444166 286.318115
v -15.046726 2.444166 257.834717
v -0.058412 2.444166 286.318115
v -0.058412 2.444166 257.834717
v -149.941589 2.444216 255.351318
v -134.953278 2.444216 255.351318
v -134.953278 2.444166 226.867920
v -149.941589 2.444166 226.867920
v -119.964966 2.444216 255.351318
v -119.964966 2.444166 226.867920
v -104.976654 2.444216 255.351318
v -104.976654 2.444166 226.867920
v -89.988327 2.444216 255.351318
v -89.988327 2.444166 226.867920
v -75.000008 2.444216 255.351318
v -75.000008 2.444166 226.867920
v -60.011688 2.444216 255.351318
v -60.011688 2.444166 226.867920
v -45.023361 2.444216 255.351318
v -45.023361 2.444166 226.867920
v -30.035049 2.444216 255.351318
v -30.035049 2.444166 226.867920
v -15.046726 2.444216 255.351318
v -15.046726 2.444166 226.867920
v -0.058412 2.444216 255.351318
v -0.058412 2.444166 226.867920
v -149.941589 2.444216 224.384552
v -134.953278 2.444216 224.384552
v -134.953278 2.444166 195.901154
v -149.941589 2.444166 195.901154
v -119.964966 2.444216 224.384552
v -119.964966 2.444166 195.901154
v -104.976654 2.444216 224.384552
v -104.976654 2.444166 195.901154
v -89.988327 2.444216 224.384552
v -89.988327 2.444166 195.901154
v -75.000008 2.444216 224.384552
v -75.000008 2.444166 195.901154
v -60.011688 2.444216 224.384552
v -60.011688 2.444166 195.901154
v -45.023361 2.444216 224.384552
v -45.023361 2.444166 195.901154
v -30.035049 2.444216 224.384552
v -30.035049 2.444166 195.901154
v -15.046726 2.444216 224.384552
v -15.046726 2.444166 195.901154
v -0.058412 2.444216 224.384552
v -0.058412 2.444166 195.901154
v -149.941589 2.444216 193.417755
v -134.953278 2.444216 193.417755
v -134.953278 2.444166 164.934357
v -149.941589 2.444166 164.934357
v -119.964966 2.444216 193.417755
v -119.964966 2.444166 164.934357
v -104.976654 2.444216 193.417755
v -104.976654 2.444166 164.934357
v -89.988327 2.444216 193.417755
v -89.988327 2.444166 164.934357
v -75.000008 2.444216 193.417755
v -75.000008 2.444166 164.934357
v -60.011688 2.444216 193.417755
v -60.011688 2.444166 164.934357
v -45.023361 2.444216 193.417755
v -45.023361 2.444166 164.934357
v -30.035049 2.444216 193.417755
v -30.035049 2.444166 164.934357
v -15.046726 2.444216 193.417755
v -15.046726 2.444166 164.934357
v -0.058412 2.444216 193.417755
v -0.058412 2.444166 164.934357
v -149.941589 2.444216 162.450974
v -134.953278 2.444216 162.450974
v -134.953278 2.444166 133.967575
v -149.941589 2.444166 133.967575
v -119.964966 2.444216 162.450974
v -119.964966 2.444166 133.967575
v -104.976654 2.444216 162.450974
v -104.976654 2.444166 133.967575
v -89.988327 2.444216 162.450974
v -89.988327 2.444166 133.967575
v -75.000008 2.444216 162.450974
v -75.000008 2.444166 133.967575
v -60.011688 2.444216 162.450974
v -60.011688 2.444166 133.967575
v -45.023361 2.444216 162.450974
v -45.023361 2.444166 133.967575
v -30.035049 2.444216 162.450974
v -30.035049 2.444166 133.967575
v -15.046726 2.444216 162.450974
v -15.046726 2.444166 133.967575
v -0.058412 2.444216 162.450974
v -0.058412 2.444166 133.967575
v -149.941589 -0.226117 286.318115
v -134.953278 -0.226117 286.318115
v -134.953278 -0.226119 257.834717
v -149.941589 -0.226119 257.834717
v -119.964966 -0.226117 286.318115
v -119.964966 -0.226119 257.834717
v -104.976654 -0.226117 286.318115
v -104.976654 -0.226119 257.834717
v -89.988327 -0.226117 286.318115
v -89.988327 -0.226119 257.834717
v -75.000008 -0.226117 286.318115
v -75.000008 -0.226119 257.834717
v -60.011688 -0.226117 286.318115
v -60.011688 -0.226119 257.834717
v -45.023361 -0.226117 286.318115
v -45.023361 -0.226119 257.834717
v -30.035049 -0.226117 286.318115
v -30.035049 -0.226119 257.834717
v -15.046726 -0.226117 286.318115
v -15.046726 -0.226119 257.834717
v -0.058412 -0.226120 286.318115
v -0.058412 -0.226118 257.834717
v -149.941589 -0.226111 255.351318
v -134.953278 -0.226119 255.351318
v -134.953278 -0.226119 226.867935
v -149.941589 -0.226118 226.867920
v -119.964966 -0.226119 255.351318
v -119.964966 -0.226119 226.867935
v -104.976654 -0.226119 255.351318
v -104.976654 -0.226119 226.867935
v -89.988327 -0.226119 255.351318
v -89.988327 -0.226119 226.867935
v -75.000008 -0.226119 255.351318
v -75.000008 -0.226119 226.867935
v -60.011688 -0.226119 255.351318
v -60.011688 -0.226119 226.867935
v -45.023361 -0.226119 255.351318
v -45.023361 -0.226119 226.867935
v -30.035049 -0.226119 255.351318
v -30.035049 -0.226119 226.867935
v -15.046726 -0.226119 255.351318
v -15.046726 -0.226119 226.867935
v -0.058412 -0.226111 255.351318
v -0.058412 -0.226119 226.867920
v -149.941589 -0.226112 224.384552
v -134.953278 -0.226120 224.384552
v -134.953278 -0.226120 195.901154
v -149.941589 -0.226120 195.901154
v -119.964966 -0.226120 224.384552
v -119.964966 -0.226120 195.901154
v -104.976654 -0.226120 224.384552
v -104.976654 -0.226120 195.901154
v -89.988327 -0.226120 224.384552
v -89.988327 -0.226120 195.901154
v -75.000008 -0.226120 224.384552
v -75.000008 -0.226120 195.901154
v -60.011688 -0.226120 224.384552
v -60.011688 -0.226120 195.901154
v -45.023361 -0.226120 224.384552
v -45.023361 -0.226120 195.901154
v -30.035049 -0.226120 224.384552
v -30.035049 -0.226120 195.901154
v -15.046726 -0.226120 224.384552
v -15.046726 -0.226120 195.901154
v -0.058412 -0.226112 224.384552
v -0.058412 -0.226120 195.901154
v -149.941589 -0.226112 193.417755
v -134.953278 -0.226120 193.417755
v -134.953278 -0.226120 164.934372
v -149.941589 -0.226120 164.934357
v -119.964966 -0.226120 193.417755
v -119.964966 -0.226120 164.934372
v -104.976654 -0.226120 193.417755
v -104.976654 -0.226120 164.934372
v -89.988327 -0.226120 193.417755
v -89.988327 -0.226120 164.934372
v -75.000008 -0.226120 193.417755
v -75.000008 -0.226120 164.934372
v -60.011688 -0.226120 193.417755
v -60.011688 -0.226120 164.934372
v -45.023361 -0.226120 193.417755
v -45.023361 -0.226120 164.934372
v -30.035049 -0.226120 193.417755
v -30.035049 -0.226120 164.934372
v -15.046726 -0.226120 193.417755
v -15.046726 -0.226120 164.934372
v -0.058412 -0.226112 193.417755
v -0.058412 -0.226120 164.934357
v -149.941589 -0.226112 162.450974
v -134.953278 -0.226120 162.450989
v -134.953278 -0.226117 133.967575
v -149.941589 -0.226117 133.967575
v -119.964966 -0.226120 162.450989
v -119.964966 -0.226117 133.967575
v -104.976654 -0.226120 162.450989
v -104.976654 -0.226117 133.967575
v -89.988327 -0.226120 162.450989
v -89.988327 -0.226117 133.967575
v -75.000008 -0.226120 162.450989
v -75.000008 -0.226117 133.967575
v -60.011688 -0.226120 162.450989
v -60.011688 -0.226117 133.967575
v -45.023361 -0.226120 162.450989
v -45.023361 -0.226117 133.967575
v -30.035049 -0.226120 162.450989
v -30.035049 -0.226117 133.967575
v -15.046726 -0.226120 162.450989
v -15.046726 -0.226117 133.967575
v -0.058412 -0.226112 162.450974
v -0.058412 -0.226117 133.967575
vt 0.336283 0.210144
vt 0.367202 0.209101
vt 0.368678 0.267808
vt 0.337870 0.268761
vt 0.398198 0.208369
vt 0.399558 0.267094
vt 0.429179 0.207709
vt 0.430449 0.266447
vt 0.460142 0.207092
vt 0.461345 0.265835
vt 0.491086 0.206501
vt 0.492241 0.265244
vt 0.522016 0.205927
vt 0.523136 0.264667
vt 0.552934 0.205367
vt 0.554027 0.264102
vt 0.583842 0.204821
vt 0.584915 0.263549
vt 0.614737 0.204295
vt 0.615795 0.263032
vt 0.645525 0.204008
vt 0.646665 0.262691
vt 0.337505 0.268992
vt 0.368686 0.268271
vt 0.368798 0.273357
vt 0.337612 0.274174
vt 0.399569 0.267560
vt 0.399680 0.272678
vt 0.430459 0.266913
vt 0.430568 0.272035
vt 0.461355 0.266301
vt 0.461460 0.271423
vt 0.492250 0.265711
vt 0.492352 0.270833
vt 0.523144 0.265134
vt 0.523244 0.270255
vt 0.554036 0.264568
vt 0.554133 0.269688
vt 0.584923 0.264015
vt 0.585019 0.269133
vt 0.615804 0.263497
vt 0.615907 0.268582
vt 0.647042 0.262904
vt 0.647147 0.268099
vt 0.337989 0.274386
vt 0.368808 0.273822
vt 0.370018 0.332452
vt 0.339178 0.333253
vt 0.399690 0.273144
vt 0.400899 0.331820
vt 0.430578 0.272501
vt 0.431775 0.331217
vt 0.461469 0.271890
vt 0.462651 0.330626
vt 0.492361 0.271299
vt 0.493528 0.330041
vt 0.523253 0.270722
vt 0.524408 0.329458
vt 0.554142 0.270155
vt 0.555293 0.328874
vt 0.585028 0.269599
vt 0.586186 0.328289
vt 0.615915 0.269045
vt 0.617090 0.327713
vt 0.646781 0.268328
vt 0.647946 0.327293
vt 0.338813 0.333483
vt 0.370025 0.332914
vt 0.370122 0.337995
vt 0.338920 0.338683
vt 0.400908 0.332286
vt 0.401008 0.337399
vt 0.431784 0.331683
vt 0.431887 0.336802
vt 0.462660 0.331093
vt 0.462762 0.336214
vt 0.493537 0.330508
vt 0.493638 0.335629
vt 0.524417 0.329924
vt 0.524518 0.335045
vt 0.555302 0.329340
vt 0.555402 0.334460
vt 0.586195 0.328755
vt 0.586294 0.333870
vt 0.617099 0.328177
vt 0.617197 0.333263
vt 0.648323 0.327507
vt 0.648428 0.332716
vt 0.339297 0.338896
vt 0.370131 0.338460
vt 0.371269 0.397075
vt 0.340421 0.397797
vt 0.401018 0.337865
vt 0.402153 0.396522
vt 0.431896 0.337269
vt 0.433029 0.395975
vt 0.462771 0.336680
vt 0.463904 0.395415
vt 0.493647 0.336096
vt 0.494783 0.394839
vt 0.524527 0.335512
vt 0.525668 0.394248
vt 0.555412 0.334926
vt 0.556559 0.393642
vt 0.586303 0.334336
vt 0.587459 0.393023
vt 0.617203 0.333726
vt 0.618369 0.392408
vt 0.648063 0.332946
vt 0.649227 0.391959
vt 0.340055 0.398026
vt 0.371276 0.397537
vt 0.371369 0.402617
vt 0.340160 0.403223
vt 0.402162 0.396987
vt 0.402256 0.402101
vt 0.433037 0.396441
vt 0.433133 0.401561
vt 0.463913 0.395881
vt 0.464009 0.401003
vt 0.494792 0.395305
vt 0.494889 0.400428
vt 0.525677 0.394714
vt 0.525775 0.399836
vt 0.556568 0.394108
vt 0.556667 0.399228
vt 0.587467 0.393489
vt 0.587565 0.398605
vt 0.618378 0.392872
vt 0.618473 0.397959
vt 0.649604 0.392172
vt 0.649709 0.397381
vt 0.340536 0.403437
vt 0.371377 0.403081
vt 0.372412 0.461688
vt 0.341563 0.462257
vt 0.402265 0.402567
vt 0.403292 0.461247
vt 0.433142 0.402027
vt 0.434180 0.460759
vt 0.464018 0.401470
vt 0.465080 0.460222
vt 0.494898 0.400894
vt 0.495988 0.459649
vt 0.525784 0.400302
vt 0.526901 0.459048
vt 0.556676 0.399694
vt 0.557814 0.458421
vt 0.587574 0.399071
vt 0.588728 0.457766
vt 0.618480 0.398421
vt 0.619645 0.457093
vt 0.649343 0.397611
vt 0.650509 0.456572
vt 0.341196 0.462484
vt 0.372418 0.462151
vt 0.372498 0.467233
vt 0.341280 0.467660
vt 0.403299 0.461714
vt 0.403377 0.466833
vt 0.434188 0.461225
vt 0.434271 0.466349
vt 0.465088 0.460688
vt 0.465177 0.465812
vt 0.495997 0.460115
vt 0.496091 0.465239
vt 0.526910 0.459514
vt 0.527008 0.464637
vt 0.557824 0.458887
vt 0.557925 0.464008
vt 0.588738 0.458232
vt 0.588840 0.463350
vt 0.619654 0.457558
vt 0.619753 0.462644
vt 0.650886 0.456784
vt 0.650987 0.461978
vt 0.341655 0.467875
vt 0.372505 0.467698
vt 0.373166 0.526405
vt 0.342325 0.526511
vt 0.403385 0.467300
vt 0.404159 0.526044
vt 0.434278 0.466815
vt 0.435166 0.525567
vt 0.465185 0.466279
vt 0.466168 0.525030
vt 0.496099 0.465705
vt 0.497161 0.524454
vt 0.527017 0.465103
vt 0.528145 0.523848
vt 0.557935 0.464475
vt 0.559120 0.523213
vt 0.588850 0.463816
vt 0.590084 0.522542
vt 0.619760 0.463107
vt 0.621021 0.521804
vt 0.650621 0.462208
vt 0.651793 0.520926
vt 0.341955 0.526732
vt 0.373166 0.526871
vt 0.373164 0.531990
vt 0.667420 0.868059
vt 0.404164 0.526511
vt 0.404224 0.531634
vt 0.435173 0.526033
vt 0.435252 0.531155
vt 0.466176 0.525496
vt 0.466265 0.530618
vt 0.497169 0.524920
vt 0.497265 0.530042
vt 0.528154 0.524314
vt 0.528255 0.529435
vt 0.559130 0.523679
vt 0.559238 0.528800
vt 0.590095 0.523008
vt 0.590215 0.528132
vt 0.621036 0.522271
vt 0.621204 0.527384
vt 0.652170 0.521134
vt 0.348253 0.881053
vt 0.655589 0.542358
vt 0.624290 0.542532
vt 0.625118 0.602003
vt 0.656350 0.601755
vt 0.592880 0.542988
vt 0.593825 0.602496
vt 0.561479 0.543540
vt 0.562523 0.603063
vt 0.530096 0.544144
vt 0.531215 0.603670
vt 0.498731 0.544780
vt 0.499907 0.604305
vt 0.467380 0.545438
vt 0.468600 0.604959
vt 0.436041 0.546113
vt 0.437297 0.605629
vt 0.404714 0.546807
vt 0.406000 0.606317
vt 0.373408 0.547540
vt 0.374711 0.607046
vt 0.342254 0.548479
vt 0.343442 0.607943
vt 0.656729 0.601974
vt 0.625128 0.602472
vt 0.625218 0.607624
vt 0.656825 0.607220
vt 0.593833 0.602968
vt 0.593924 0.608154
vt 0.562531 0.603535
vt 0.562625 0.608725
vt 0.531224 0.604143
vt 0.531322 0.609333
vt 0.499916 0.604778
vt 0.500018 0.609968
vt 0.468610 0.605431
vt 0.468715 0.610621
vt 0.437307 0.606101
vt 0.437414 0.611290
vt 0.406010 0.606789
vt 0.406118 0.611975
vt 0.374720 0.607516
vt 0.374821 0.612668
vt 0.343069 0.608174
vt 0.343171 0.613438
vt 0.656452 0.607449
vt 0.625226 0.608095
vt 0.626348 0.667480
vt 0.657603 0.667062
vt 0.593932 0.608626
vt 0.595057 0.668070
vt 0.562634 0.609197
vt 0.563772 0.668688
vt 0.531331 0.609806
vt 0.532488 0.669321
vt 0.500028 0.610441
vt 0.501201 0.669962
vt 0.468724 0.611094
vt 0.469910 0.670610
vt 0.437424 0.611762
vt 0.438615 0.671262
vt 0.406128 0.612447
vt 0.407312 0.671916
vt 0.374832 0.613137
vt 0.375997 0.672581
vt 0.343550 0.613655
vt 0.344738 0.673403
vt 0.657982 0.667279
vt 0.626359 0.667948
vt 0.626465 0.673095
vt 0.658083 0.672541
vt 0.595067 0.668541
vt 0.595170 0.673722
vt 0.563782 0.669160
vt 0.563883 0.674347
vt 0.532497 0.669793
vt 0.532599 0.674982
vt 0.501210 0.670435
vt 0.501313 0.675624
vt 0.469920 0.671083
vt 0.470024 0.676272
vt 0.438625 0.671734
vt 0.438728 0.676921
vt 0.407321 0.672388
vt 0.407427 0.677571
vt 0.376007 0.673052
vt 0.376112 0.678205
vt 0.344365 0.673635
vt 0.344467 0.678913
vt 0.657711 0.672772
vt 0.626475 0.673565
vt 0.627684 0.732939
vt 0.658946 0.732431
vt 0.595180 0.674194
vt 0.596392 0.733614
vt 0.563893 0.674819
vt 0.565108 0.734293
vt 0.532609 0.675454
vt 0.533822 0.734959
vt 0.501323 0.676097
vt 0.502532 0.735612
vt 0.470033 0.676744
vt 0.471237 0.736254
vt 0.438738 0.677393
vt 0.439934 0.736885
vt 0.407436 0.678043
vt 0.408621 0.737506
vt 0.376123 0.678674
vt 0.377299 0.738134
vt 0.344846 0.679131
vt 0.346037 0.738929
vt 0.659325 0.732648
vt 0.627696 0.733408
vt 0.627807 0.738553
vt 0.659431 0.737909
vt 0.596402 0.734086
vt 0.596513 0.739266
vt 0.565117 0.734765
vt 0.565227 0.739951
vt 0.533832 0.735431
vt 0.533940 0.740620
vt 0.502542 0.736085
vt 0.502649 0.741274
vt 0.471246 0.736726
vt 0.471352 0.741915
vt 0.439943 0.737357
vt 0.440048 0.742544
vt 0.408631 0.737978
vt 0.408738 0.743161
vt 0.377309 0.738604
vt 0.377417 0.743758
vt 0.345664 0.739160
vt 0.345767 0.744438
vt 0.659058 0.738140
vt 0.627818 0.739024
vt 0.629129 0.798396
vt 0.660388 0.797733
vt 0.596523 0.739738
vt 0.597841 0.799179
vt 0.565237 0.740424
vt 0.566543 0.799916
vt 0.533950 0.741093
vt 0.535233 0.800608
vt 0.502659 0.741747
vt 0.503915 0.801267
vt 0.471362 0.742388
vt 0.472592 0.801902
vt 0.440058 0.743016
vt 0.441267 0.802513
vt 0.408747 0.743633
vt 0.409939 0.803102
vt 0.377428 0.744227
vt 0.378609 0.803677
vt 0.346146 0.744656
vt 0.347338 0.804401
vt 0.660768 0.797948
vt 0.629142 0.798865
vt 0.629264 0.804015
vt 0.660893 0.803191
vt 0.597852 0.799652
vt 0.597979 0.804837
vt 0.566554 0.800388
vt 0.566674 0.805577
vt 0.535244 0.801080
vt 0.535359 0.806270
vt 0.503925 0.801740
vt 0.504035 0.806930
vt 0.472602 0.802374
vt 0.472708 0.807564
vt 0.441276 0.802986
vt 0.441379 0.808174
vt 0.409948 0.803574
vt 0.410051 0.808759
vt 0.378618 0.804148
vt 0.378723 0.809301
vt 0.346965 0.804631
vt 0.347071 0.809895
vt 0.660522 0.803425
vt 0.629276 0.804485
vt 0.630941 0.863954
vt 0.662208 0.862823
vt 0.597990 0.805310
vt 0.599533 0.864805
vt 0.566686 0.806050
vt 0.568121 0.865559
vt 0.535369 0.806743
vt 0.536718 0.866258
vt 0.504045 0.807403
vt 0.505324 0.866920
vt 0.472718 0.808037
vt 0.473938 0.867553
vt 0.441389 0.808647
vt 0.442560 0.868159
vt 0.410061 0.809232
vt 0.411190 0.868735
vt 0.378734 0.809771
vt 0.379837 0.869260
vt 0.347452 0.810113
vt 0.348624 0.869614
vt 0.662592 0.863032
vt 0.630959 0.864426
vt 0.631285 0.869729
vt 0.662947 0.869059
vt 0.599545 0.865278
vt 0.599769 0.870378
vt 0.568132 0.866031
vt 0.568307 0.871040
vt 0.536728 0.866731
vt 0.536865 0.871705
vt 0.505334 0.867393
vt 0.505437 0.872370
vt 0.473948 0.868026
vt 0.474019 0.873036
vt 0.442569 0.868631
vt 0.442608 0.873703
vt 0.411198 0.869207
vt 0.411201 0.874372
vt 0.379842 0.869734
vt 0.379762 0.875056
vt 0.348251 0.869839
vt 0.348194 0.875723
vt 0.655965 0.542135
vt 0.624288 0.542059
vt 0.367188 0.208633
vt 0.335903 0.209939
vt 0.592873 0.542515
vt 0.398187 0.207903
vt 0.561471 0.543068
vt 0.429170 0.207242
vt 0.530087 0.543672
vt 0.460132 0.206626
vt 0.498721 0.544308
vt 0.491077 0.206035
vt 0.467370 0.544965
vt 0.522007 0.205461
vt 0.436030 0.545641
vt 0.552926 0.204900
vt 0.404703 0.546335
vt 0.583834 0.204354
vt 0.373393 0.547068
vt 0.614733 0.203829
vt 0.341873 0.548267
vt 0.645892 0.203784
vt 0.665526 0.803059
vt 0.665403 0.797840
vt 0.664065 0.737803
vt 0.663960 0.732553
vt 0.662718 0.672444
vt 0.662617 0.667192
vt 0.661459 0.607133
vt 0.661365 0.601914
vt 0.373245 0.542437
vt 0.341707 0.543633
vt 0.404596 0.541699
vt 0.435928 0.541006
vt 0.467270 0.540331
vt 0.498625 0.539673
vt 0.529995 0.539037
vt 0.561385 0.538433
vt 0.592799 0.537880
vt 0.624265 0.537424
vt 0.655961 0.537498
vt 0.660600 0.542081
vt 0.667226 0.862888
vt 0.663088 0.874539
vt 0.656736 0.521045
vt 0.656799 0.526168
vt 0.655571 0.461887
vt 0.655467 0.456693
vt 0.654284 0.397289
vt 0.654183 0.392080
vt 0.653002 0.332624
vt 0.652901 0.327415
vt 0.651722 0.268008
vt 0.651622 0.262814
vt 0.650442 0.203693
vt 0.379796 0.879829
vt 0.652298 0.526260
vt 0.411234 0.878987
vt 0.442660 0.878225
vt 0.474092 0.877497
vt 0.505532 0.876798
vt 0.536981 0.876130
vt 0.568444 0.875501
vt 0.599923 0.874931
vt 0.631434 0.874487
vt 0.341965 0.531855
vn 0.000000 1.000000 0.000000
vn 0.000000 1.000000 0.000000
vn 0.000000 1.000000 0.000000
vn 0.000000 1.000000 0.000000
vn 0.000000 1.000000 0.000000
vn 0.000000 1.000000 0.000000
vn 0.000000 1.000000 0.000000
vn 0.000000 1.000000 0.000000
vn 0.000000 1.000000 0.000000
vn 0.000000 1.000000 0.000000
vn 0.000000 1.000000 0.000000
vn 0.000000 1.000000 0.000000
vn 0.000000 1.000000 0.000000
vn 0.000000 1.000000 0.000000
vn 0.000000 1.000000 0.000000
vn 0.000000 1.000000 0.000000
vn 0.000000 1.000000 0.000000
vn 0.000000 1.000000 0.000000
vn 0.000000 1.000000 0.000000
vn 0.000000 1.000000 0.000000
vn 0.000000 1.000000 0.000000
vn 0.000000 1.000000 0.000000
vn 0.000000 1.000000 0.000005
vn 0.000000 1.000000 0.000005
vn 0.000000 1.000000 0.000005
vn 0.000000 1.000000 0.000005
vn 0.000000 1.000000 0.000005
vn 0.000000 1.000000 0.000005
vn 0.000000 1.000000 0.000005
vn 0.000000 1.000000 0.000005
vn 0.000000 1.000000 0.000005
vn 0.000000 1.000000 0.000005
vn 0.000000 1.000000 0.000005
vn 0.000000 1.000000 0.000005
vn 0.000000 1.000000 0.000005
vn 0.000000 1.000000 0.000005
vn 0.000000 1.000000 0.000005
vn 0.000000 1.000000 0.000005
vn 0.000000 1.000000 0.000005
vn 0.000000 1.000000 0.000005
vn 0.000000 1.000000 0.000005
vn 0.000000 1.000000 0.000005
vn 0.000000 1.000000 0.000005
vn 0.000000 1.000000 0.000005
vn 0.000000 1.000000 -0.000002
vn 0.000000 1.000000 -0.000002
vn 0.000000 1.000000 -0.000002
vn 0.000000 1.000000 -0.000002
vn 0.000000 1.000000 -0.000002
vn 0.000000 1.000000 -0.000002
vn 0.000000 1.000000 -0.000002
vn 0.000000 1.000000 -0.000002
vn 0.000000 1.000000 -0.000002
vn 0.000000 1.000000 -0.000002
vn 0.000000 1.000000 -0.000002
vn 0.000000 1.000000 -0.000002
vn 0.000000 1.000000 -0.000002
vn 0.000000 1.000000 -0.000002
vn 0.000000 1.000000 -0.000002
vn 0.000000 1.000000 -0.000002
vn 0.000000 1.000000 -0.000002
vn 0.000000 1.000000 -0.000002
vn 0.000000 1.000000 -0.000002
vn 0.000000 1.000000 -0.000002
vn 0.000000 1.000000 -0.000002
vn 0.000000 1.000000 -0.000002
vn 0.000000 1.000000 0.000005
vn 0.000000 1.000000 0.000005
vn 0.000000 1.000000 0.000005
vn 0.000000 1.000000 0.000005
vn 0.000000 1.000000 0.000005
vn 0.000000 1.000000 0.000005
vn 0.000000 1.000000 0.000005
vn 0.000000 1.000000 0.000005
vn 0.000000 1.000000 0.000005
vn 0.000000 1.000000 0.000005
vn 0.000000 1.000000 0.000005
vn 0.000000 1.000000 0.000005
vn 0.000000 1.000000 0.000005
vn 0.000000 1.000000 0.000005
vn 0.000000 1.000000 0.000005
vn 0.000000 1.000000 0.000005
vn 0.000000 1.000000 0.000005
vn 0.000000 1.000000 0.000005
vn 0.000000 1.000000 0.000005
vn 0.000000 1.000000 0.000005
vn 0.000000 1.000000 0.000005
vn 0.000000 1.000000 0.000005
vn 0.000000 1.000000 -0.000002
vn 0.000000 1.000000 -0.000002
vn 0.000000 1.000000 -0.000002
vn 0.000000 1.000000 -0.000002
vn 0.000000 1.000000 -0.000002
vn 0.000000 1.000000 -0.000002
vn 0.000000 1.000000 -0.000002
vn 0.000000 1.000000 -0.000002
vn 0.000000 1.000000 -0.000002
vn 0.000000 1.000000 -0.000002
vn 0.000000 1.000000 -0.000002
vn 0.000000 1.000000 -0.000002
vn 0.000000 1.000000 -0.000002
vn 0.000000 1.000000 -0.000002
vn 0.000000 1.000000 -0.000002
vn 0.000000 1.000000 -0.000002
vn 0.000000 1.000000 -0.000002
vn 0.000000 1.000000 -0.000002
vn 0.000000 1.000000 -0.000002
vn 0.000000 1.000000 -0.000002
vn 0.000000 1.000000 -0.000002
vn 0.000000 1.000000 -0.000002
vn 0.000000 1.000000 0.000005
vn 0.000000 1.000000 0.000005
vn 0.000000 1.000000 0.000005
vn 0.000000 1.000000 0.000005
vn 0.000000 1.000000 0.000005
vn 0.000000 1.000000 0.000005
vn 0.000000 1.000000 0.000005
vn 0.000000 1.000000 0.000005
vn 0.000000 1.000000 0.000005
vn 0.000000 1.000000 0.000005
vn 0.000000 1.000000 0.000005
vn 0.000000 1.000000 0.000005
vn 0.000000 1.000000 0.000005
vn 0.000000 1.000000 0.000005
vn 0.000000 1.000000 0.000005
vn 0.000000 1.000000 0.000005
vn 0.000000 1.000000 0.000005
vn 0.000000 1.000000 0.000005
vn 0.000000 1.000000 0.000005
vn 0.000000 1.000000 0.000005
vn 0.000000 1.000000 0.000005
vn 0.000000 1.000000 0.000005
vn 0.000000 1.000000 -0.000002
vn 0.000000 1.000000 -0.000002
vn 0.000000 1.000000 -0.000002
vn 0.000000 1.000000 -0.000002
vn 0.000000 1.000000 -0.000002
vn 0.000000 1.000000 -0.000002
vn 0.000000 1.000000 -0.000002
vn 0.000000 1.000000 -0.000002
vn 0.000000 1.000000 -0.000002
vn 0.000000 1.000000 -0.000002
vn 0.000000 1.000000 -0.000002
vn 0.000000 1.000000 -0.000002
vn 0.000000 1.000000 -0.000002
vn 0.000000 1.000000 -0.000002
vn 0.000000 1.000000 -0.000002
vn 0.000000 1.000000 -0.000002
vn 0.000000 1.000000 -0.000002
vn 0.000000 1.000000 -0.000002
vn 0.000000 1.000000 -0.000002
vn 0.000000 1.000000 -0.000002
vn 0.000000 1.000000 -0.000002
vn 0.000000 1.000000 -0.000002
vn 0.000000 1.000000 0.000005
vn 0.000000 1.000000 0.000005
vn 0.000000 1.000000 0.000005
vn 0.000000 1.000000 0.000005
vn 0.000000 1.000000 0.000005
vn 0.000000 1.000000 0.000005
vn 0.000000 1.000000 0.000005
vn 0.000000 1.000000 0.000005
vn 0.000000 1.000000 0.000005
vn 0.000000 1.000000 0.000005
vn 0.000000 1.000000 0.000005
vn 0.000000 1.000000 0.000005
vn 0.000000 1.000000 0.000005
vn 0.000000 1.000000 0.000005
vn 0.000000 1.000000 0.000005
vn 0.000000 1.000000 0.000005
vn 0.000000 1.000000 0.000005
vn 0.000000 1.000000 0.000005
vn 0.000000 1.000000 0.000005
vn 0.000000 1.000000 0.000005
vn 0.000000 1.000000 0.000005
vn 0.000000 1.000000 0.000005
vn 0.000000 1.000000 -0.000002
vn 0.000000 1.000000 -0.000002
vn 0.000000 1.000000 -0.000002
vn 0.000000 1.000000 -0.000002
vn 0.000000 1.000000 -0.000002
vn 0.000000 1.000000 -0.000002
vn 0.000000 1.000000 -0.000002
vn 0.000000 1.000000 -0.000002
vn 0.000000 1.000000 -0.000002
vn 0.000000 1.000000 -0.000002
vn 0.000000 1.000000 -0.000002
vn 0.000000 1.000000 -0.000002
vn 0.000000 1.000000 -0.000002
vn 0.000000 1.000000 -0.000002
vn 0.000000 1.000000 -0.000002
vn 0.000000 1.000000 -0.000002
vn 0.000000 1.000000 -0.000002
vn 0.000000 1.000000 -0.000002
vn 0.000000 1.000000 -0.000002
vn 0.000000 1.000000 -0.000002
vn 0.000000 1.000000 -0.000002
vn 0.000000 1.000000 -0.000002
vn 0.000000 1.000000 0.000003
vn 0.000000 1.000000 0.000003
vn 0.000000 1.000000 0.000003
vn 0.000000 1.000000 0.000003
vn 0.000000 1.000000 0.000003
vn 0.000000 1.000000 0.000003
vn 0.000000 1.000000 0.000003
vn 0.000000 1.000000 0.000003
vn 0.000000 1.000000 0.000003
vn 0.000000 1.000000 0.000003
vn 0.000000 1.000000 0.000003
vn 0.000000 1.000000 0.000003
vn 0.000000 1.000000 0.000003
vn 0.000000 1.000000 0.000003
vn 0.000000 1.000000 0.000003
vn 0.000000 1.000000 0.000003
vn 0.000000 1.000000 0.000003
vn 0.000000 1.000000 0.000003
vn 0.000000 1.000000 0.000003
vn 0.000000 1.000000 0.000003
vn 0.000000 1.000000 0.000003
vn 0.000000 1.000000 0.000003
vn 0.000000 -1.000000 0.000000
vn 0.000000 -1.000000 0.000000
vn 0.000000 -1.000000 0.000000
vn 0.000000 -1.000000 0.000000
vn 0.000000 -1.000000 0.000000
vn 0.000000 -1.000000 0.000000
vn 0.000000 -1.000000 0.000000
vn 0.000000 -1.000000 0.000000
vn 0.000000 -1.000000 0.000000
vn 0.000000 -1.000000 0.000000
vn 0.000000 -1.000000 0.000000
vn 0.000000 -1.000000 0.000000
vn 0.000000 -1.000000 0.000000
vn 0.000000 -1.000000 0.000000
vn 0.000000 -1.000000 0.000000
vn 0.000000 -1.000000 0.000000
vn 0.000000 -1.000000 0.000000
vn 0.000000 -1.000000 0.000000
vn -0.000000 -1.000000 0.000000
vn -0.000000 -1.000000 0.000000
vn -0.000000 -1.000000 0.000000
vn -0.000000 -1.000000 0.000000
vn -0.000000 -1.000000 -0.000001
vn -0.000000 -1.000000 -0.000001
vn -0.000000 -1.000000 -0.000001
vn -0.000000 -1.000000 -0.000001
vn 0.000000 -1.000000 0.000000
vn 0.000000 -1.000000 0.000000
vn 0.000000 -1.000000 0.000000
vn 0.000000 -1.000000 0.000000
vn 0.000000 -1.000000 0.000000
vn 0.000000 -1.000000 0.000000
vn 0.000000 -1.000000 0.000000
vn 0.000000 -1.000000 0.000000
vn 0.000000 -1.000000 0.000000
vn 0.000000 -1.000000 0.000000
vn 0.000000 -1.000000 0.000000
vn 0.000000 -1.000000 0.000000
vn 0.000000 -1.000000 0.000000
vn 0.000000 -1.000000 0.000000
vn 0.000000 -1.000000 -0.000001
vn 0.000000 -1.000000 -0.000001
vn 0.000000 -1.000000 -0.000001
vn 0.000000 -1.000000 -0.000001
vn -0.000000 -1.000000 0.000000
vn -0.000000 -1.000000 0.000000
vn -0.000000 -1.000000 0.000000
vn -0.000000 -1.000000 0.000000
vn 0.000000 -1.000000 0.000000
vn 0.000000 -1.000000 0.000000
vn 0.000000 -1.000000 0.000000
vn 0.000000 -1.000000 0.000000
vn 0.000000 -1.000000 0.000000
vn 0.000000 -1.000000 0.000000
vn 0.000000 -1.000000 0.000000
vn 0.000000 -1.000000 0.000000
vn 0.000000 -1.000000 0.000000
vn 0.000000 -1.000000 0.000000
vn 0.000000 -1.000000 0.000000
vn 0.000000 -1.000000 0.000000
vn 0.000000 -1.000000 0.000000
vn 0.000000 -1.000000 0.000000
vn 0.000000 -1.000000 0.000000
vn 0.000000 -1.000000 0.000000
vn 0.000000 -1.000000 0.000000
vn 0.000000 -1.000000 0.000000
vn -0.000000 -1.000000 -0.000001
vn -0.000000 -1.000000 -0.000001
vn -0.000000 -1.000000 -0.000000
vn -0.000000 -1.000000 -0.000000
vn 0.000000 -1.000000 0.000001
vn 0.000000 -1.000000 0.000001
vn 0.000000 -1.000000 0.000001
vn 0.000000 -1.000000 0.000001
vn 0.000000 -1.000000 0.000001
vn 0.000000 -1.000000 0.000001
vn 0.000000 -1.000000 0.000001
vn 0.000000 -1.000000 0.000001
vn 0.000000 -1.000000 0.000001
vn 0.000000 -1.000000 0.000001
vn 0.000000 -1.000000 0.000001
vn 0.000000 -1.000000 0.000001
vn 0.000000 -1.000000 0.000001
vn 0.000000 -1.000000 0.000001
vn 0.000000 -1.000000 -0.000000
vn 0.000000 -1.000000 -0.000000
vn 0.000000 -1.000000 -0.000001
vn 0.000000 -1.000000 -0.000001
vn -0.000000 -1.000000 0.000000
vn -0.000000 -1.000000 0.000000
vn -0.000000 -1.000000 0.000000
vn -0.000000 -1.000000 0.000000
vn 0.000000 -1.000000 0.000000
vn 0.000000 -1.000000 0.000000
vn 0.000000 -1.000000 0.000000
vn 0.000000 -1.000000 0.000000
vn 0.000000 -1.000000 0.000000
vn 0.000000 -1.000000 0.000000
vn 0.000000 -1.000000 0.000000
vn 0.000000 -1.000000 0.000000
vn 0.000000 -1.000000 0.000000
vn 0.000000 -1.000000 0.000000
vn 0.000000 -1.000000 0.000000
vn 0.000000 -1.000000 0.000000
vn 0.000000 -1.000000 0.000000
vn 0.000000 -1.000000 0.000000
vn 0.000000 -1.000000 0.000000
vn 0.000000 -1.000000 0.000000
vn 0.000000 -1.000000 0.000000
vn 0.000000 -1.000000 0.000000
vn -0.000000 -1.000000 -0.000001
vn -0.000000 -1.000000 -0.000001
vn -0.000000 -1.000000 -0.000001
vn -0.000000 -1.000000 -0.000001
vn 0.000000 -1.000000 0.000000
vn 0.000000 -1.000000 0.000000
vn 0.000000 -1.000000 0.000000
vn 0.000000 -1.000000 0.000000
vn 0.000000 -1.000000 0.000000
vn 0.000000 -1.000000 0.000000
vn 0.000000 -1.000000 0.000000
vn 0.000000 -1.000000 0.000000
vn 0.000000 -1.000000 0.000000
vn 0.000000 -1.000000 0.000000
vn 0.000000 -1.000000 0.000000
vn 0.000000 -1.000000 0.000000
vn 0.000000 -1.000000 0.000000
vn 0.000000 -1.000000 0.000000
vn 0.000000 -1.000000 -0.000001
vn 0.000000 -1.000000 -0.000001
vn 0.000000 -1.000000 -0.000001
vn 0.000000 -1.000000 -0.000001
vn -0.000000 -1.000000 0.000000
vn -0.000000 -1.000000 0.000000
vn -0.000000 -1.000000 0.000000
vn -0.000000 -1.000000 0.000000
vn 0.000000 -1.000000 0.000000
vn 0.000000 -1.000000 0.000000
vn 0.000000 -1.000000 0.000000
vn 0.000000 -1.000000 0.000000
vn 0.000000 -1.000000 0.000000
vn 0.000000 -1.000000 0.000000
vn 0.000000 -1.000000 0.000000
vn 0.000000 -1.000000 0.000000
vn 0.000000 -1.000000 0.000000
vn 0.000000 -1.000000 0.000000
vn 0.000000 -1.000000 0.000000
vn 0.000000 -1.000000 0.000000
vn 0.000000 -1.000000 0.000000
vn 0.000000 -1.000000 0.000000
vn 0.000000 -1.000000 0.000000
vn 0.000000 -1.000000 0.000000
vn 0.000000 -1.000000 0.000000
vn 0.000000 -1.000000 0.000000
vn -0.000000 -1.000000 -0.000001
vn -0.000000 -1.000000 -0.000001
vn -0.000000 -1.000000 -0.000001
vn -0.000000 -1.000000 -0.000001
vn 0.000000 -1.000000 0.000000
vn 0.000000 -1.000000 0.000000
vn 0.000000 -1.000000 0.000000
vn 0.000000 -1.000000 0.000000
vn 0.000000 -1.000000 0.000000
vn 0.000000 -1.000000 0.000000
vn 0.000000 -1.000000 0.000000
vn 0.000000 -1.000000 0.000000
vn 0.000000 -1.000000 0.000000
vn 0.000000 -1.000000 0.000000
vn 0.000000 -1.000000 0.000000
vn 0.000000 -1.000000 0.000000
vn 0.000000 -1.000000 0.000000
vn 0.000000 -1.000000 0.000000
vn 0.000000 -1.000000 -0.000001
vn 0.000000 -1.000000 -0.000001
vn 0.000000 -1.000000 -0.000001
vn 0.000000 -1.000000 -0.000001
vn -0.000000 -1.000000 0.000000
vn -0.000000 -1.000000 0.000000
vn -0.000000 -1.000000 -0.000000
vn -0.000000 -1.000000 -0.000000
vn 0.000000 -1.000000 -0.000000
vn 0.000000 -1.000000 -0.000000
vn 0.000000 -1.000000 -0.000000
vn 0.000000 -1.000000 -0.000000
vn 0.000000 -1.000000 -0.000000
vn 0.000000 -1.000000 -0.000000
vn 0.000000 -1.000000 -0.000000
vn 0.000000 -1.000000 -0.000000
vn 0.000000 -1.000000 -0.000000
vn 0.000000 -1.000000 -0.000000
vn 0.000000 -1.000000 -0.000000
vn 0.000000 -1.000000 -0.000000
vn 0.000000 -1.000000 -0.000000
vn 0.000000 -1.000000 -0.000000
vn 0.000000 -1.000000 -0.000000
vn 0.000000 -1.000000 -0.000000
vn 0.000000 -1.000000 0.000000
vn 0.000000 -1.000000 0.000000
vn 0.000000 -1.000000 0.000000
vn 0.000000 -1.000000 0.000000
vn 0.000000 -1.000000 0.000000
vn 0.000000 -1.000000 0.000000
vn 0.000000 -1.000000 0.000000
vn 0.000000 -1.000000 0.000000
vn 0.000000 -1.000000 0.000000
vn 0.000000 -1.000000 0.000000
vn 0.000000 -1.000000 0.000000
vn 0.000000 -1.000000 0.000000
vn 0.000000 -1.000000 0.000000
vn 0.000000 -1.000000 0.000000
vn 0.000000 -1.000000 0.000000
vn 0.000000 -1.000000 0.000000
vn 0.000000 -1.000000 0.000000
vn 0.000000 -1.000000 0.000000
vn 0.000000 -1.000000 0.000000
vn 0.000000 -1.000000 0.000000
vn 0.000000 -1.000000 0.000000
vn 0.000000 -1.000000 0.000000
vn 0.000000 -1.000000 0.000000
vn 0.000000 -1.000000 0.000000
vn 0.000000 0.000000 1.000000
vn 0.000000 0.000000 1.000000
vn 0.000000 0.000000 1.000000
vn 0.000000 0.000000 1.000000
vn -1.000000 0.000000 0.000000
vn -1.000000 0.000000 0.000000
vn -1.000000 0.000000 0.000000
vn -1.000000 0.000000 0.000000
vn 0.000000 0.000000 1.000000
vn 0.000000 0.000000 1.000000
vn 0.000000 0.000000 1.000000
vn 0.000000 0.000000 1.000000
vn 0.000000 0.000000 1.000000
vn 0.000000 0.000000 1.000000
vn 0.000000 0.000000 1.000000
vn 0.000000 0.000000 1.000000
vn 0.000000 0.000000 1.000000
vn 0.000000 0.000000 1.000000
vn 0.000000 0.000000 1.000000
vn 0.000000 0.000000 1.000000
vn 0.000000 0.000000 1.000000
vn 0.000000 0.000000 1.000000
vn 0.000000 0.000000 1.000000
vn 0.000000 0.000000 1.000000
vn 0.000000 0.000000 1.000000
vn 0.000000 0.000000 1.000000
vn 0.000000 0.000000 1.000000
vn 0.000000 0.000000 1.000000
vn 0.000000 0.000000 1.000000
vn 0.000000 0.000000 1.000000
vn 0.000000 0.000000 1.000000
vn 0.000000 0.000000 1.000000
vn 0.000000 0.000000 1.000000
vn 0.000000 0.000000 1.000000
vn 0.000000 0.000000 1.000000
vn 0.000000 0.000000 1.000000
vn 0.000000 0.000000 1.000000
vn 0.000000 0.000000 1.000000
vn 0.000000 0.000000 1.000000
vn 0.000000 0.000000 1.000000
vn 0.000000 0.000000 1.000000
vn 0.000000 0.000000 1.000000
vn 0.000000 0.000000 1.000000
vn 0.000000 0.000000 1.000000
vn 1.000000 0.000000 0.000000
vn 1.000000 0.000000 0.000000
vn 1.000000 0.000000 0.000000
vn 1.000000 0.000000 0.000000
vn -1.000000 0.000000 0.000000
vn -1.000000 0.000000 0.000000
vn -1.000000 0.000000 0.000000
vn -1.000000 0.000000 0.000000
vn 1.000000 0.000000 0.000000
vn 1.000000 0.000000 0.000000
vn 1.000000 0.000000 0.000000
vn 1.000000 0.000000 0.000000
vn -1.000000 0.000000 0.000000
vn -1.000000 0.000000 0.000000
vn -1.000000 0.000000 0.000000
vn -1.000000 0.000000 0.000000
vn 1.000000 0.000000 0.000000
vn 1.000000 0.000000 0.000000
vn 1.000000 0.000000 0.000000
vn 1.000000 0.000000 0.000000
vn -1.000000 0.000000 0.000000
vn -1.000000 0.000000 0.000000
vn -1.000000 0.000000 0.000000
vn -1.000000 0.000000 0.000000
vn 1.000000 0.000000 0.000000
vn 1.000000 0.000000 0.000000
vn 1.000000 0.000000 0.000000
vn 1.000000 0.000000 0.000000
vn -1.000000 0.000000 0.000000
vn -1.000000 0.000000 0.000000
vn -1.000000 0.000000 0.000000
vn -1.000000 0.000000 0.000000
vn 1.000000 0.000000 0.000000
vn 1.000000 0.000000 0.000000
vn 1.000000 0.000000 0.000000
vn 1.000000 0.000000 0.000000
vn -1.000000 0.000000 0.000000
vn -1.000000 0.000000 0.000000
vn -1.000000 0.000000 0.000000
vn -1.000000 0.000000 0.000000
vn 1.000000 0.000000 0.000000
vn 1.000000 0.000000 0.000000
vn 1.000000 0.000000 0.000000
vn 1.000000 0.000000 0.000000
vn -1.000000 0.000000 0.000000
vn -1.000000 0.000000 0.000000
vn -1.000000 0.000000 0.000000
vn -1.000000 0.000000 0.000000
vn 1.000000 0.000000 0.000000
vn 1.000000 0.000000 0.000000
vn 1.000000 0.000000 0.000000
vn 1.000000 0.000000 0.000000
vn -1.000000 0.000000 0.000000
vn -1.000000 0.000000 0.000000
vn -1.000000 0.000000 0.000000
vn -1.000000 0.000000 0.000000
vn 1.000000 0.000000 0.000000
vn 1.000000 0.000000 0.000000
vn 1.000000 0.000000 0.000000
vn 1.000000 0.000000 0.000000
vn -1.000000 0.000000 0.000000
vn -1.000000 0.000000 0.000000
vn -1.000000 0.000000 0.000000
vn -1.000000 0.000000 0.000000
vn 1.000000 0.000000 0.000000
vn 1.000000 0.000000 0.000000
vn 1.000000 0.000000 0.000000
vn 1.000000 0.000000 0.000000
vn 0.000000 0.000000 -1.000000
vn 0.000000 0.000000 -1.000000
vn 0.000000 0.000000 -1.000000
vn 0.000000 0.000000 -1.000000
vn -1.000000 0.000000 0.000000
vn -1.000000 0.000000 0.000000
vn -1.000000 0.000000 0.000000
vn -1.000000 0.000000 0.000000
vn 0.000000 0.000000 -1.000000
vn 0.000000 0.000000 -1.000000
vn 0.000000 0.000000 -1.000000
vn 0.000000 0.000000 -1.000000
vn 0.000000 0.000000 -1.000000
vn 0.000000 0.000000 -1.000000
vn 0.000000 0.000000 -1.000000
vn 0.000000 0.000000 -1.000000
vn 0.000000 0.000000 -1.000000
vn 0.000000 0.000000 -1.000000
vn 0.000000 0.000000 -1.000000
vn 0.000000 0.000000 -1.000000
vn 0.000000 0.000000 -1.000000
vn 0.000000 0.000000 -1.000000
vn 0.000000 0.000000 -1.000000
vn 0.000000 0.000000 -1.000000
vn 0.000000 0.000000 -1.000000
vn 0.000000 0.000000 -1.000000
vn 0.000000 0.000000 -1.000000
vn 0.000000 0.000000 -1.000000
vn 0.000000 0.000000 -1.000000
vn 0.000000 0.000000 -1.000000
vn 0.000000 0.000000 -1.000000
vn 0.000000 0.000000 -1.000000
vn 0.000000 0.000000 -1.000000
vn 0.000000 0.000000 -1.000000
vn 0.000000 0.000000 -1.000000
vn 0.000000 0.000000 -1.000000
vn 0.000000 0.000000 -1.000000
vn 0.000000 0.000000 -1.000000
vn 0.000000 0.000000 -1.000000
vn 0.000000 0.000000 -1.000000
vn 1.000000 0.000000 0.000000
vn 1.000000 0.000000 0.000000
vn 1.000000 0.000000 0.000000
vn 1.000000 0.000000 0.000000
vn 0.000000 0.000000 -1.000000
vn 0.000000 0.000000 -1.000000
vn 0.000000 0.000000 -1.000000
vn 0.000000 0.000000 -1.000000
vn 0.000000 0.000000 1.000000
vn 0.000000 0.000000 1.000000
vn 0.000000 0.000000 1.000000
vn 0.000000 0.000000 1.000000
vn 0.000000 0.000000 -1.000000
vn 0.000000 0.000000 -1.000000
vn 0.000000 0.000000 -1.000000
vn 0.000000 0.000000 -1.000000
vn -1.000000 0.000000 0.000000
vn -1.000000 0.000000 0.000000
vn -1.000000 0.000000 0.000000
vn -1.000000 0.000000 0.000000
vn 0.000000 0.000000 1.000000
vn 0.000000 0.000000 1.000000
vn 0.000000 0.000000 1.000000
vn 0.000000 0.000000 1.000000
vn 0.000000 0.000000 -1.000000
vn 0.000000 0.000000 -1.000000
vn 0.000000 0.000000 -1.000000
vn 0.000000 0.000000 -1.000000
vn 0.000000 0.000000 1.000000
vn 0.000000 0.000000 1.000000
vn 0.000000 0.000000 1.000000
vn 0.000000 0.000000 1.000000
vn 0.000000 0.000000 -1.000000
vn 0.000000 0.000000 -1.000000
vn 0.000000 0.000000 -1.000000
vn 0.000000 0.000000 -1.000000
vn 0.000000 0.000000 1.000000
vn 0.000000 0.000000 1.000000
vn 0.000000 0.000000 1.000000
vn 0.000000 0.000000 1.000000
vn 0.000000 0.000000 -1.000000
vn 0.000000 0.000000 -1.000000
vn 0.000000 0.000000 -1.000000
vn 0.000000 0.000000 -1.000000
vn 0.000000 0.000000 1.000000
vn 0.000000 0.000000 1.000000
vn 0.000000 0.000000 1.000000
vn 0.000000 0.000000 1.000000
vn 0.000000 0.000000 -1.000000
vn 0.000000 0.000000 -1.000000
vn 0.000000 0.000000 -1.000000
vn 0.000000 0.000000 -1.000000
vn 0.000000 0.000000 1.000000
vn 0.000000 0.000000 1.000000
vn 0.000000 0.000000 1.000000
vn 0.000000 0.000000 1.000000
vn 0.000000 0.000000 -1.000000
vn 0.000000 0.000000 -1.000000
vn 0.000000 0.000000 -1.000000
vn 0.000000 0.000000 -1.000000
vn 0.000000 0.000000 1.000000
vn 0.000000 0.000000 1.000000
vn 0.000000 0.000000 1.000000
vn 0.000000 0.000000 1.000000
vn 0.000000 0.000000 -1.000000
vn 0.000000 0.000000 -1.000000
vn 0.000000 0.000000 -1.000000
vn 0.000000 0.000000 -1.000000
vn 0.000000 0.000000 1.000000
vn 0.000000 0.000000 1.000000
vn 0.000000 0.000000 1.000000
vn 0.000000 0.000000 1.000000
vn 0.000000 0.000000 -1.000000
vn 0.000000 0.000000 -1.000000
vn 0.000000 0.000000 -1.000000
vn 0.000000 0.000000 -1.000000
vn 0.000000 0.000000 1.000000
vn 0.000000 0.000000 1.000000
vn 0.000000 0.000000 1.000000
vn 0.000000 0.000000 1.000000
vn 0.000000 0.000000 -1.000000
vn 0.000000 0.000000 -1.000000
vn 0.000000 0.000000 -1.000000
vn 0.000000 0.000000 -1.000000
vn 0.000000 0.000000 1.000000
vn 0.000000 0.000000 1.000000
vn 0.000000 0.000000 1.000000
vn 0.000000 0.000000 1.000000
vn 1.000000 0.000000 0.000000
vn 1.000000 0.000000 0.000000
vn 1.000000 0.000000 0.000000
vn 1.000000 0.000000 0.000000
vn 0.000000 0.000000 -1.000000
vn 0.000000 0.000000 -1.000000
vn 0.000000 0.000000 -1.000000
vn 0.000000 0.000000 -1.000000
vn 0.000000 0.000000 1.000000
vn 0.000000 0.000000 1.000000
vn 0.000000 0.000000 1.000000
vn 0.000000 0.000000 1.000000
vn 0.000000 0.000000 -1.000000
vn 0.000000 0.000000 -1.000000
vn 0.000000 0.000000 -1.000000
vn 0.000000 0.000000 -1.000000
vn -1.000000 0.000000 0.000000
vn -1.000000 0.000000 0.000000
vn -1.000000 0.000000 0.000000
vn -1.000000 0.000000 0.000000
vn 0.000000 0.000000 1.000000
vn 0.000000 0.000000 1.000000
vn 0.000000 0.000000 1.000000
vn 0.000000 0.000000 1.000000
vn 0.000000 0.000000 -1.000000
vn 0.000000 0.000000 -1.000000
vn 0.000000 0.000000 -1.000000
vn 0.000000 0.000000 -1.000000
vn 0.000000 0.000000 1.000000
vn 0.000000 0.000000 1.000000
vn 0.000000 0.000000 1.000000
vn 0.000000 0.000000 1.000000
vn 0.000000 0.000000 -1.000000
vn 0.000000 0.000000 -1.000000
vn 0.000000 0.000000 -1.000000
vn 0.000000 0.000000 -1.000000
vn 0.000000 0.000000 1.000000
vn 0.000000 0.000000 1.000000
vn 0.000000 0.000000 1.000000
vn 0.000000 0.000000 1.000000
vn 0.000000 0.000000 -1.000000
vn 0.000000 0.000000 -1.000000
vn 0.000000 0.000000 -1.000000
vn 0.000000 0.000000 -1.000000
vn 0.000000 0.000000 1.000000
vn 0.000000 0.000000 1.000000
vn 0.000000 0.000000 1.000000
vn 0.000000 0.000000 1.000000
vn 0.000000 0.000000 -1.000000
vn 0.000000 0.000000 -1.000000
vn 0.000000 0.000000 -1.000000
vn 0.000000 0.000000 -1.000000
vn 0.000000 0.000000 1.000000
vn 0.000000 0.000000 1.000000
vn 0.000000 0.000000 1.000000
vn 0.000000 0.000000 1.000000
vn 0.000000 0.000000 -1.000000
vn 0.000000 0.000000 -1.000000
vn 0.000000 0.000000 -1.000000
vn 0.000000 0.000000 -1.000000
vn 0.000000 0.000000 1.000000
vn 0.000000 0.000000 1.000000
vn 0.000000 0.000000 1.000000
vn 0.000000 0.000000 1.000000
vn 0.000000 0.000000 -1.000000
vn 0.000000 0.000000 -1.000000
vn 0.000000 0.000000 -1.000000
vn 0.000000 0.000000 -1.000000
vn 0.000000 0.000000 1.000000
vn 0.000000 0.000000 1.000000
vn 0.000000 0.000000 1.000000
vn 0.000000 0.000000 1.000000
vn 0.000000 0.000000 -1.000000
vn 0.000000 0.000000 -1.000000
vn 0.000000 0.000000 -1.000000
vn 0.000000 0.000000 -1.000000
vn 0.000000 0.000000 1.000000
vn 0.000000 0.000000 1.000000
vn 0.000000 0.000000 1.000000
vn 0.000000 0.000000 1.000000
vn 0.000000 0.000000 -1.000000
vn 0.000000 0.000000 -1.000000
vn 0.000000 0.000000 -1.000000
vn 0.000000 0.000000 -1.000000
vn 0.000000 0.000000 1.000000
vn 0.000000 0.000000 1.000000
vn 0.000000 0.000000 1.000000
vn 0.000000 0.000000 1.000000
vn 1.000000 0.000000 0.000000
vn 1.000000 0.000000 0.000000
vn 1.000000 0.000000 0.000000
vn 1.000000 0.000000 0.000000
vn 0.000000 0.000000 -1.000000
vn 0.000000 0.000000 -1.000000
vn 0.000000 0.000000 -1.000000
vn 0.000000 0.000000 -1.000000
vn 0.000000 0.000000 1.000000
vn 0.000000 0.000000 1.000000
vn 0.000000 0.000000 1.000000
vn 0.000000 0.000000 1.000000
vn 0.000000 0.000000 -1.000000
vn 0.000000 0.000000 -1.000000
vn 0.000000 0.000000 -1.000000
vn 0.000000 0.000000 -1.000000
vn -1.000000 0.000000 0.000000
vn -1.000000 0.000000 0.000000
vn -1.000000 0.000000 0.000000
vn -1.000000 0.000000 0.000000
vn 0.000000 0.000000 1.000000
vn 0.000000 0.000000 1.000000
vn 0.000000 0.000000 1.000000
vn 0.000000 0.000000 1.000000
vn 0.000000 0.000000 -1.000000
vn 0.000000 0.000000 -1.000000
vn 0.000000 0.000000 -1.000000
vn 0.000000 0.000000 -1.000000
vn 0.000000 0.000000 1.000000
vn 0.000000 0.000000 1.000000
vn 0.000000 0.000000 1.000000
vn 0.000000 0.000000 1.000000
vn 0.000000 0.000000 -1.000000
vn 0.000000 0.000000 -1.000000
vn 0.000000 0.000000 -1.000000
vn 0.000000 0.000000 -1.000000
vn 0.000000 0.000000 1.000000
vn 0.000000 0.000000 1.000000
vn 0.000000 0.000000 1.000000
vn 0.000000 0.000000 1.000000
vn 0.000000 0.000000 -1.000000
vn 0.000000 0.000000 -1.000000
vn 0.000000 0.000000 -1.000000
vn 0.000000 0.000000 -1.000000
vn 0.000000 0.000000 1.000000
vn 0.000000 0.000000 1.000000
vn 0.000000 0.000000 1.000000
vn 0.000000 0.000000 1.000000
vn 0.000000 0.000000 -1.000000
vn 0.000000 0.000000 -1.000000
vn 0.000000 0.000000 -1.000000
vn 0.000000 0.000000 -1.000000
vn 0.000000 0.000000 1.000000
vn 0.000000 0.000000 1.000000
vn 0.000000 0.000000 1.000000
vn 0.000000 0.000000 1.000000
vn 0.000000 0.000000 -1.000000
vn 0.000000 0.000000 -1.000000
vn 0.000000 0.000000 -1.000000
vn 0.000000 0.000000 -1.000000
vn 0.000000 0.000000 1.000000
vn 0.000000 0.000000 1.000000
vn 0.000000 0.000000 1.000000
vn 0.000000 0.000000 1.000000
vn 0.000000 0.000000 -1.000000
vn 0.000000 0.000000 -1.000000
vn 0.000000 0.000000 -1.000000
vn 0.000000 0.000000 -1.000000
vn 0.000000 0.000000 1.000000
vn 0.000000 0.000000 1.000000
vn 0.000000 0.000000 1.000000
vn 0.000000 0.000000 1.000000
vn 0.000000 0.000000 -1.000000
vn 0.000000 0.000000 -1.000000
vn 0.000000 0.000000 -1.000000
vn 0.000000 0.000000 -1.000000
vn 0.000000 0.000000 1.000000
vn 0.000000 0.000000 1.000000
vn 0.000000 0.000000 1.000000
vn 0.000000 0.000000 1.000000
vn 0.000000 0.000000 -1.000000
vn 0.000000 0.000000 -1.000000
vn 0.000000 0.000000 -1.000000
vn 0.000000 0.000000 -1.000000
vn 0.000000 0.000000 1.000000
vn 0.000000 0.000000 1.000000
vn 0.000000 0.000000 1.000000
vn 0.000000 0.000000 1.000000
vn 1.000000 0.000000 0.000000
vn 1.000000 0.000000 0.000000
vn 1.000000 0.000000 0.000000
vn 1.000000 0.000000 0.000000
vn 0.000000 0.000000 -1.000000
vn 0.000000 0.000000 -1.000000
vn 0.000000 0.000000 -1.000000
vn 0.000000 0.000000 -1.000000
vn 0.000000 0.000000 1.000000
vn 0.000000 0.000000 1.000000
vn 0.000000 0.000000 1.000000
vn 0.000000 0.000000 1.000000
vn 0.000000 0.000000 -1.000000
vn 0.000000 0.000000 -1.000000
vn 0.000000 0.000000 -1.000000
vn 0.000000 0.000000 -1.000000
vn -1.000000 0.000000 0.000000
vn -1.000000 0.000000 0.000000
vn -1.000000 0.000000 0.000000
vn -1.000000 0.000000 0.000000
vn 0.000000 0.000000 1.000000
vn 0.000000 0.000000 1.000000
vn 0.000000 0.000000 1.000000
vn 0.000000 0.000000 1.000000
vn 0.000000 0.000000 -1.000000
vn 0.000000 0.000000 -1.000000
vn 0.000000 0.000000 -1.000000
vn 0.000000 0.000000 -1.000000
vn 0.000000 0.000000 1.000000
vn 0.000000 0.000000 1.000000
vn 0.000000 0.000000 1.000000
vn 0.000000 0.000000 1.000000
vn 0.000000 0.000000 -1.000000
vn 0.000000 0.000000 -1.000000
vn 0.000000 0.000000 -1.000000
vn 0.000000 0.000000 -1.000000
vn 0.000000 0.000000 1.000000
vn 0.000000 0.000000 1.000000
vn 0.000000 0.000000 1.000000
vn 0.000000 0.000000 1.000000
vn 0.000000 0.000000 -1.000000
vn 0.000000 0.000000 -1.000000
vn 0.000000 0.000000 -1.000000
vn 0.000000 0.000000 -1.000000
vn 0.000000 0.000000 1.000000
vn 0.000000 0.000000 1.000000
vn 0.000000 0.000000 1.000000
vn 0.000000 0.000000 1.000000
vn 0.000000 0.000000 -1.000000
vn 0.000000 0.000000 -1.000000
vn 0.000000 0.000000 -1.000000
vn 0.000000 0.000000 -1.000000
vn 0.000000 0.000000 1.000000
vn 0.000000 0.000000 1.000000
vn 0.000000 0.000000 1.000000
vn 0.000000 0.000000 1.000000
vn 0.000000 0.000000 -1.000000
vn 0.000000 0.000000 -1.000000
vn 0.000000 0.000000 -1.000000
vn 0.000000 0.000000 -1.000000
vn 0.000000 0.000000 1.000000
vn 0.000000 0.000000 1.000000
vn 0.000000 0.000000 1.000000
vn 0.000000 0.000000 1.000000
vn 0.000000 0.000000 -1.000000
vn 0.000000 0.000000 -1.000000
vn 0.000000 0.000000 -1.000000
vn 0.000000 0.000000 -1.000000
vn 0.000000 0.000000 1.000000
vn 0.000000 0.000000 1.000000
vn 0.000000 0.000000 1.000000
vn 0.000000 0.000000 1.000000
vn 0.000000 0.000000 -1.000000
vn 0.000000 0.000000 -1.000000
vn 0.000000 0.000000 -1.000000
vn 0.000000 0.000000 -1.000000
vn 0.000000 0.000000 1.000000
vn 0.000000 0.000000 1.000000
vn 0.000000 0.000000 1.000000
vn 0.000000 0.000000 1.000000
vn 0.000000 0.000000 -1.000000
vn 0.000000 0.000000 -1.000000
vn 0.000000 0.000000 -1.000000
vn 0.000000 0.000000 -1.000000
vn 0.000000 0.000000 1.000000
vn 0.000000 0.000000 1.000000
vn 0.000000 0.000000 1.000000
vn 0.000000 0.000000 1.000000
vn 1.000000 0.000000 0.000000
vn 1.000000 0.000000 0.000000
vn 1.000000 0.000000 0.000000
vn 1.000000 0.000000 0.000000
vn 0.000000 0.000000 -1.000000
vn 0.000000 0.000000 -1.000000
vn 0.000000 0.000000 -1.000000
vn 0.000000 0.000000 -1.000000
vn 0.000000 0.000000 1.000000
vn 0.000000 0.000000 1.000000
vn 0.000000 0.000000 1.000000
vn 0.000000 0.000000 1.000000
vn 0.000000 0.000000 -1.000000
vn 0.000000 0.000000 -1.000000
vn 0.000000 0.000000 -1.000000
vn 0.000000 0.000000 -1.000000
vn -1.000000 0.000000 0.000000
vn -1.000000 0.000000 0.000000
vn -1.000000 0.000000 0.000000
vn -1.000000 0.000000 0.000000
vn 0.000000 0.000000 1.000000
vn 0.000000 0.000000 1.000000
vn 0.000000 0.000000 1.000000
vn 0.000000 0.000000 1.000000
vn 0.000000 0.000000 -1.000000
vn 0.000000 0.000000 -1.000000
vn 0.000000 0.000000 -1.000000
vn 0.000000 0.000000 -1.000000
vn 0.000000 0.000000 1.000000
vn 0.000000 0.000000 1.000000
vn 0.000000 0.000000 1.000000
vn 0.000000 0.000000 1.000000
vn 0.000000 0.000000 -1.000000
vn 0.000000 0.000000 -1.000000
vn 0.000000 0.000000 -1.000000
vn 0.000000 0.000000 -1.000000
vn 0.000000 0.000000 1.000000
vn 0.000000 0.000000 1.000000
vn 0.000000 0.000000 1.000000
vn 0.000000 0.000000 1.000000
vn 0.000000 0.000000 -1.000000
vn 0.000000 0.000000 -1.000000
vn 0.000000 0.000000 -1.000000
vn 0.000000 0.000000 -1.000000
vn 0.000000 0.000000 1.000000
vn 0.000000 0.000000 1.000000
vn 0.000000 0.000000 1.000000
vn 0.000000 0.000000 1.000000
vn 0.000000 0.000000 -1.000000
vn 0.000000 0.000000 -1.000000
vn 0.000000 0.000000 -1.000000
vn 0.000000 0.000000 -1.000000
vn 0.000000 0.000000 1.000000
vn 0.000000 0.000000 1.000000
vn 0.000000 0.000000 1.000000
vn 0.000000 0.000000 1.000000
vn 0.000000 0.000000 -1.000000
vn 0.000000 0.000000 -1.000000
vn 0.000000 0.000000 -1.000000
vn 0.000000 0.000000 -1.000000
vn 0.000000 0.000000 1.000000
vn 0.000000 0.000000 1.000000
vn 0.000000 0.000000 1.000000
vn 0.000000 0.000000 1.000000
vn 0.000000 0.000000 -1.000000
vn 0.000000 0.000000 -1.000000
vn 0.000000 0.000000 -1.000000
vn 0.000000 0.000000 -1.000000
vn 0.000000 0.000000 1.000000
vn 0.000000 0.000000 1.000000
vn 0.000000 0.000000 1.000000
vn 0.000000 0.000000 1.000000
vn 0.000000 0.000000 -1.000000
vn 0.000000 0.000000 -1.000000
vn 0.000000 0.000000 -1.000000
vn 0.000000 0.000000 -1.000000
vn 0.000000 0.000000 1.000000
vn 0.000000 0.000000 1.000000
vn 0.000000 0.000000 1.000000
vn 0.000000 0.000000 1.000000
vn 0.000000 0.000000 -1.000000
vn 0.000000 0.000000 -1.000000
vn 0.000000 0.000000 -1.000000
vn 0.000000 0.000000 -1.000000
vn 0.000000 0.000000 1.000000
vn 0.000000 0.000000 1.000000
vn 0.000000 0.000000 1.000000
vn 0.000000 0.000000 1.000000
vn 1.000000 0.000000 0.000000
vn 1.000000 0.000000 0.000000
vn 1.000000 0.000000 0.000000
vn 1.000000 0.000000 0.000000
vn 0.000000 0.000000 -1.000000
vn 0.000000 0.000000 -1.000000
vn 0.000000 0.000000 -1.000000
vn 0.000000 0.000000 -1.000000
vn 0.000000 0.000000 1.000000
vn 0.000000 0.000000 1.000000
vn 0.000000 0.000000 1.000000
vn 0.000000 0.000000 1.000000
vn 0.000000 0.000000 -1.000000
vn 0.000000 0.000000 -1.000000
vn 0.000000 0.000000 -1.000000
vn 0.000000 0.000000 -1.000000
vn -1.000000 0.000000 0.000000
vn -1.000000 0.000000 0.000000
vn -1.000000 0.000000 0.000000
vn -1.000000 0.000000 0.000000
vn 0.000000 0.000000 1.000000
vn 0.000000 0.000000 1.000000
vn 0.000000 0.000000 1.000000
vn 0.000000 0.000000 1.000000
vn 0.000000 0.000000 -1.000000
vn 0.000000 0.000000 -1.000000
vn 0.000000 0.000000 -1.000000
vn 0.000000 0.000000 -1.000000
vn 0.000000 0.000000 1.000000
vn 0.000000 0.000000 1.000000
vn 0.000000 0.000000 1.000000
vn 0.000000 0.000000 1.000000
vn 0.000000 0.000000 -1.000000
vn 0.000000 0.000000 -1.000000
vn 0.000000 0.000000 -1.000000
vn 0.000000 0.000000 -1.000000
vn 0.000000 0.000000 1.000000
vn 0.000000 0.000000 1.000000
vn 0.000000 0.000000 1.000000
vn 0.000000 0.000000 1.000000
vn 0.000000 0.000000 -1.000000
vn 0.000000 0.000000 -1.000000
vn 0.000000 0.000000 -1.000000
vn 0.000000 0.000000 -1.000000
vn 0.000000 0.000000 1.000000
vn 0.000000 0.000000 1.000000
vn 0.000000 0.000000 1.000000
vn 0.000000 0.000000 1.000000
vn 0.000000 0.000000 -1.000000
vn 0.000000 0.000000 -1.000000
vn 0.000000 0.000000 -1.000000
vn 0.000000 0.000000 -1.000000
vn 0.000000 0.000000 1.000000
vn 0.000000 0.000000 1.000000
vn 0.000000 0.000000 1.000000
vn 0.000000 0.000000 1.000000
vn 0.000000 0.000000 -1.000000
vn 0.000000 0.000000 -1.000000
vn 0.000000 0.000000 -1.000000
vn 0.000000 0.000000 -1.000000
vn 0.000000 0.000000 1.000000
vn 0.000000 0.000000 1.000000
vn 0.000000 0.000000 1.000000
vn 0.000000 0.000000 1.000000
vn 0.000000 0.000000 -1.000000
vn 0.000000 0.000000 -1.000000
vn 0.000000 0.000000 -1.000000
vn 0.000000 0.000000 -1.000000
vn 0.000000 0.000000 1.000000
vn 0.000000 0.000000 1.000000
vn 0.000000 0.000000 1.000000
vn 0.000000 0.000000 1.000000
vn 0.000000 0.000000 -1.000000
vn 0.000000 0.000000 -1.000000
vn 0.000000 0.000000 -1.000000
vn 0.000000 0.000000 -1.000000
vn 0.000000 0.000000 1.000000
vn 0.000000 0.000000 1.000000
vn 0.000000 0.000000 1.000000
vn 0.000000 0.000000 1.000000
vn 0.000000 0.000000 -1.000000
vn 0.000000 0.000000 -1.000000
vn 0.000000 0.000000 -1.000000
vn 0.000000 0.000000 -1.000000
vn 0.000001 0.000000 1.000000
vn 0.000001 0.000000 1.000000
vn 0.000001 0.000000 1.000000
vn 0.000001 0.000000 1.000000
vn 1.000000 0.000000 0.000000
vn 1.000000 0.000000 0.000000
vn 1.000000 0.000000 0.000000
vn 1.000000 0.000000 0.000000
vn 0.000000 0.000000 -1.000000
vn 0.000000 0.000000 -1.000000
vn 0.000000 0.000000 -1.000000
vn 0.000000 0.000000 -1.000000
vn -0.000000 0.000000 1.000000
vn -0.000000 0.000000 1.000000
vn -0.000000 0.000000 1.000000
vn -0.000000 0.000000 1.000000
vn 0.000001 0.000000 -1.000000
vn 0.000001 0.000000 -1.000000
vn 0.000001 0.000000 -1.000000
vn 0.000001 0.000000 -1.000000
vn -1.000000 0.000000 0.000000
vn -1.000000 0.000000 0.000000
vn -1.000000 0.000000 0.000000
vn -1.000000 0.000000 0.000000
vn 0.000000 0.000000 1.000000
vn 0.000000 0.000000 1.000000
vn 0.000000 0.000000 1.000000
vn 0.000000 0.000000 1.000000
vn 0.000000 0.000000 -1.000000
vn 0.000000 0.000000 -1.000000
vn 0.000000 0.000000 -1.000000
vn 0.000000 0.000000 -1.000000
vn 0.000000 0.000000 1.000000
vn 0.000000 0.000000 1.000000
vn 0.000000 0.000000 1.000000
vn 0.000000 0.000000 1.000000
vn 0.000000 0.000000 -1.000000
vn 0.000000 0.000000 -1.000000
vn 0.000000 0.000000 -1.000000
vn 0.000000 0.000000 -1.000000
vn 0.000000 0.000000 1.000000
vn 0.000000 0.000000 1.000000
vn 0.000000 0.000000 1.000000
vn 0.000000 0.000000 1.000000
vn 0.000000 0.000000 -1.000000
vn 0.000000 0.000000 -1.000000
vn 0.000000 0.000000 -1.000000
vn 0.000000 0.000000 -1.000000
vn 0.000000 0.000000 1.000000
vn 0.000000 0.000000 1.000000
vn 0.000000 0.000000 1.000000
vn 0.000000 0.000000 1.000000
vn 0.000000 0.000000 -1.000000
vn 0.000000 0.000000 -1.000000
vn 0.000000 0.000000 -1.000000
vn 0.000000 0.000000 -1.000000
vn 0.000000 0.000000 1.000000
vn 0.000000 0.000000 1.000000
vn 0.000000 0.000000 1.000000
vn 0.000000 0.000000 1.000000
vn 0.000000 0.000000 -1.000000
vn 0.000000 0.000000 -1.000000
vn 0.000000 0.000000 -1.000000
vn 0.000000 0.000000 -1.000000
vn 0.000000 0.000000 1.000000
vn 0.000000 0.000000 1.000000
vn 0.000000 0.000000 1.000000
vn 0.000000 0.000000 1.000000
vn 0.000000 0.000000 -1.000000
vn 0.000000 0.000000 -1.000000
vn 0.000000 0.000000 -1.000000
vn 0.000000 0.000000 -1.000000
vn 0.000000 0.000000 1.000000
vn 0.000000 0.000000 1.000000
vn 0.000000 0.000000 1.000000
vn 0.000000 0.000000 1.000000
vn 0.000000 0.000000 -1.000000
vn 0.000000 0.000000 -1.000000
vn 0.000000 0.000000 -1.000000
vn 0.000000 0.000000 -1.000000
vn 0.000000 0.000000 1.000000
vn 0.000000 0.000000 1.000000
vn 0.000000 0.000000 1.000000
vn 0.000000 0.000000 1.000000
vn 0.000000 0.000000 -1.000000
vn 0.000000 0.000000 -1.000000
vn 0.000000 0.000000 -1.000000
vn 0.000000 0.000000 -1.000000
vn 0.000000 0.000000 1.000000
vn 0.000000 0.000000 1.000000
vn 0.000000 0.000000 1.000000
vn 0.000000 0.000000 1.000000
vn 1.000000 0.000000 0.000000
vn 1.000000 0.000000 0.000000
vn 1.000000 0.000000 0.000000
vn 1.000000 0.000000 0.000000
vn -0.000001 0.000000 -1.000000
vn -0.000001 0.000000 -1.000000
vn -0.000001 0.000000 -1.000000
vn -0.000001 0.000000 -1.000000
vn -0.000000 0.000000 1.000000
vn -0.000000 0.000000 1.000000
vn -0.000000 0.000000 1.000000
vn -0.000000 0.000000 1.000000
vn 0.000000 0.000000 -1.000000
vn 0.000000 0.000000 -1.000000
vn 0.000000 0.000000 -1.000000
vn 0.000000 0.000000 -1.000000
vn -1.000000 0.000000 0.000000
vn -1.000000 0.000000 0.000000
vn -1.000000 0.000000 0.000000
vn -1.000000 0.000000 0.000000
vn 0.000000 0.000000 1.000000
vn 0.000000 0.000000 1.000000
vn 0.000000 0.000000 1.000000
vn 0.000000 0.000000 1.000000
vn 0.000000 0.000000 -1.000000
vn 0.000000 0.000000 -1.000000
vn 0.000000 0.000000 -1.000000
vn 0.000000 0.000000 -1.000000
vn 0.000000 0.000000 1.000000
vn 0.000000 0.000000 1.000000
vn 0.000000 0.000000 1.000000
vn 0.000000 0.000000 1.000000
vn 0.000000 0.000000 -1.000000
vn 0.000000 0.000000 -1.000000
vn 0.000000 0.000000 -1.000000
vn 0.000000 0.000000 -1.000000
vn 0.000000 0.000000 1.000000
vn 0.000000 0.000000 1.000000
vn 0.000000 0.000000 1.000000
vn 0.000000 0.000000 1.000000
vn 0.000000 0.000000 -1.000000
vn 0.000000 0.000000 -1.000000
vn 0.000000 0.000000 -1.000000
vn 0.000000 0.000000 -1.000000
vn 0.000000 0.000000 1.000000
vn 0.000000 0.000000 1.000000
vn 0.000000 0.000000 1.000000
vn 0.000000 0.000000 1.000000
vn 0.000000 0.000000 -1.000000
vn 0.000000 0.000000 -1.000000
vn 0.000000 0.000000 -1.000000
vn 0.000000 0.000000 -1.000000
vn 0.000000 0.000000 1.000000
vn 0.000000 0.000000 1.000000
vn 0.000000 0.000000 1.000000
vn 0.000000 0.000000 1.000000
vn 0.000000 0.000000 -1.000000
vn 0.000000 0.000000 -1.000000
vn 0.000000 0.000000 -1.000000
vn 0.000000 0.000000 -1.000000
vn 0.000000 0.000000 1.000000
vn 0.000000 0.000000 1.000000
vn 0.000000 0.000000 1.000000
vn 0.000000 0.000000 1.000000
vn 0.000000 0.000000 -1.000000
vn 0.000000 0.000000 -1.000000
vn 0.000000 0.000000 -1.000000
vn 0.000000 0.000000 -1.000000
vn 0.000000 0.000000 1.000000
vn 0.000000 0.000000 1.000000
vn 0.000000 0.000000 1.000000
vn 0.000000 0.000000 1.000000
vn 0.000000 0.000000 -1.000000
vn 0.000000 0.000000 -1.000000
vn 0.000000 0.000000 -1.000000
vn 0.000000 0.000000 -1.000000
vn 0.000000 0.000000 1.000000
vn 0.000000 0.000000 1.000000
vn 0.000000 0.000000 1.000000
vn 0.000000 0.000000 1.000000
vn 0.000000 0.000000 -1.000000
vn 0.000000 0.000000 -1.000000
vn 0.000000 0.000000 -1.000000
vn 0.000000 0.000000 -1.000000
vn 0.000000 0.000000 1.000000
vn 0.000000 0.000000 1.000000
vn 0.000000 0.000000 1.000000
vn 0.000000 0.000000 1.000000
vn 1.000000 0.000000 0.000000
vn 1.000000 0.000000 0.000000
vn 1.000000 0.000000 0.000000
vn 1.000000 0.000000 0.000000
vn 0.000000 0.000000 -1.000000
vn 0.000000 0.000000 -1.000000
vn 0.000000 0.000000 -1.000000
vn 0.000000 0.000000 -1.000000
vn -0.000000 0.000000 1.000000
vn -0.000000 0.000000 1.000000
vn -0.000000 0.000000 1.000000
vn -0.000000 0.000000 1.000000
vn 0.000001 0.000000 -1.000000
vn 0.000001 0.000000 -1.000000
vn 0.000001 0.000000 -1.000000
vn 0.000001 0.000000 -1.000000
vn -1.000000 0.000000 0.000000
vn -1.000000 0.000000 0.000000
vn -1.000000 0.000000 0.000000
vn -1.000000 0.000000 0.000000
vn 0.000000 0.000000 1.000000
vn 0.000000 0.000000 1.000000
vn 0.000000 0.000000 1.000000
vn 0.000000 0.000000 1.000000
vn 0.000000 0.000000 -1.000000
vn 0.000000 0.000000 -1.000000
vn 0.000000 0.000000 -1.000000
vn 0.000000 0.000000 -1.000000
vn 0.000000 0.000000 1.000000
vn 0.000000 0.000000 1.000000
vn 0.000000 0.000000 1.000000
vn 0.000000 0.000000 1.000000
vn 0.000000 0.000000 -1.000000
vn 0.000000 0.000000 -1.000000
vn 0.000000 0.000000 -1.000000
vn 0.000000 0.000000 -1.000000
vn 0.000000 0.000000 1.000000
vn 0.000000 0.000000 1.000000
vn 0.000000 0.000000 1.000000
vn 0.000000 0.000000 1.000000
vn 0.000000 0.000000 -1.000000
vn 0.000000 0.000000 -1.000000
vn 0.000000 0.000000 -1.000000
vn 0.000000 0.000000 -1.000000
vn 0.000000 0.000000 1.000000
vn 0.000000 0.000000 1.000000
vn 0.000000 0.000000 1.000000
vn 0.000000 0.000000 1.000000
vn 0.000000 0.000000 -1.000000
vn 0.000000 0.000000 -1.000000
vn 0.000000 0.000000 -1.000000
vn 0.000000 0.000000 -1.000000
vn 0.000000 0.000000 1.000000
vn 0.000000 0.000000 1.000000
vn 0.000000 0.000000 1.000000
vn 0.000000 0.000000 1.000000
vn 0.000000 0.000000 -1.000000
vn 0.000000 0.000000 -1.000000
vn 0.000000 0.000000 -1.000000
vn 0.000000 0.000000 -1.000000
vn 0.000000 0.000000 1.000000
vn 0.000000 0.000000 1.000000
vn 0.000000 0.000000 1.000000
vn 0.000000 0.000000 1.000000
vn 0.000000 0.000000 -1.000000
vn 0.000000 0.000000 -1.000000
vn 0.000000 0.000000 -1.000000
vn 0.000000 0.000000 -1.000000
vn 0.000000 0.000000 1.000000
vn 0.000000 0.000000 1.000000
vn 0.000000 0.000000 1.000000
vn 0.000000 0.000000 1.000000
vn 0.000000 0.000000 -1.000000
vn 0.000000 0.000000 -1.000000
vn 0.000000 0.000000 -1.000000
vn 0.000000 0.000000 -1.000000
vn 0.000000 0.000000 1.000000
vn 0.000000 0.000000 1.000000
vn 0.000000 0.000000 1.000000
vn 0.000000 0.000000 1.000000
vn 0.000000 0.000000 -1.000000
vn 0.000000 0.000000 -1.000000
vn 0.000000 0.000000 -1.000000
vn 0.000000 0.000000 -1.000000
vn 0.000000 0.000000 1.000000
vn 0.000000 0.000000 1.000000
vn 0.000000 0.000000 1.000000
vn 0.000000 0.000000 1.000000
vn 1.000000 0.000000 0.000000
vn 1.000000 0.000000 0.000000
vn 1.000000 0.000000 0.000000
vn 1.000000 0.000000 0.000000
vn -0.000001 0.000000 -1.000000
vn -0.000001 0.000000 -1.000000
vn -0.000001 0.000000 -1.000000
vn -0.000001 0.000000 -1.000000
vn -0.000001 0.000000 1.000000
vn -0.000001 0.000000 1.000000
vn -0.000001 0.000000 1.000000
vn -0.000001 0.000000 1.000000
vn 0.000000 0.000000 -1.000000
vn 0.000000 0.000000 -1.000000
vn 0.000000 0.000000 -1.000000
vn 0.000000 0.000000 -1.000000
vn -1.000000 0.000000 0.000000
vn -1.000000 0.000000 0.000000
vn -1.000000 0.000000 0.000000
vn -1.000000 0.000000 0.000000
vn 0.000000 0.000000 1.000000
vn 0.000000 0.000000 1.000000
vn 0.000000 0.000000 1.000000
vn 0.000000 0.000000 1.000000
vn 0.000000 0.000000 -1.000000
vn 0.000000 0.000000 -1.000000
vn 0.000000 0.000000 -1.000000
vn 0.000000 0.000000 -1.000000
vn 0.000000 0.000000 1.000000
vn 0.000000 0.000000 1.000000
vn 0.000000 0.000000 1.000000
vn 0.000000 0.000000 1.000000
vn 0.000000 0.000000 -1.000000
vn 0.000000 0.000000 -1.000000
vn 0.000000 0.000000 -1.000000
vn 0.000000 0.000000 -1.000000
vn 0.000000 0.000000 1.000000
vn 0.000000 0.000000 1.000000
vn 0.000000 0.000000 1.000000
vn 0.000000 0.000000 1.000000
vn 0.000000 0.000000 -1.000000
vn 0.000000 0.000000 -1.000000
vn 0.000000 0.000000 -1.000000
vn 0.000000 0.000000 -1.000000
vn 0.000000 0.000000 1.000000
vn 0.000000 0.000000 1.000000
vn 0.000000 0.000000 1.000000
vn 0.000000 0.000000 1.000000
vn 0.000000 0.000000 -1.000000
vn 0.000000 0.000000 -1.000000
vn 0.000000 0.000000 -1.000000
vn 0.000000 0.000000 -1.000000
vn 0.000000 0.000000 1.000000
vn 0.000000 0.000000 1.000000
vn 0.000000 0.000000 1.000000
vn 0.000000 0.000000 1.000000
vn 0.000000 0.000000 -1.000000
vn 0.000000 0.000000 -1.000000
vn 0.000000 0.000000 -1.000000
vn 0.000000 0.000000 -1.000000
vn 0.000000 0.000000 1.000000
vn 0.000000 0.000000 1.000000
vn 0.000000 0.000000 1.000000
vn 0.000000 0.000000 1.000000
vn 0.000000 0.000000 -1.000000
vn 0.000000 0.000000 -1.000000
vn 0.000000 0.000000 -1.000000
vn 0.000000 0.000000 -1.000000
vn 0.000000 0.000000 1.000000
vn 0.000000 0.000000 1.000000
vn 0.000000 0.000000 1.000000
vn 0.000000 0.000000 1.000000
vn 0.000000 0.000000 -1.000000
vn 0.000000 0.000000 -1.000000
vn 0.000000 0.000000 -1.000000
vn 0.000000 0.000000 -1.000000
vn 0.000000 0.000000 1.000000
vn 0.000000 0.000000 1.000000
vn 0.000000 0.000000 1.000000
vn 0.000000 0.000000 1.000000
vn 0.000000 0.000000 -1.000000
vn 0.000000 0.000000 -1.000000
vn 0.000000 0.000000 -1.000000
vn 0.000000 0.000000 -1.000000
vn 0.000001 0.000000 1.000000
vn 0.000001 0.000000 1.000000
vn 0.000001 0.000000 1.000000
vn 0.000001 0.000000 1.000000
vn 1.000000 0.000000 0.000000
vn 1.000000 0.000000 0.000000
vn 1.000000 0.000000 0.000000
vn 1.000000 0.000000 0.000000
vn 0.000000 0.000000 -1.000000
vn 0.000000 0.000000 -1.000000
vn 0.000000 0.000000 -1.000000
vn 0.000000 0.000000 -1.000000
s 1
g Floor_Paneled
usemtl openPBRSurface8SG
f 243/1/1 244/2/2 245/3/3 246/4/4
f 244/2/2 247/5/5 248/6/6 245/3/3
f 247/5/5 249/7/7 250/8/8 248/6/6
f 249/7/7 251/9/9 252/10/10 250/8/8
f 251/9/9 253/11/11 254/12/12 252/10/10
f 253/11/11 255/13/13 256/14/14 254/12/12
f 255/13/13 257/15/15 258/16/16 256/14/14
f 257/15/15 259/17/17 260/18/18 258/16/16
f 259/17/17 261/19/19 262/20/20 260/18/18
f 261/19/19 263/21/21 264/22/22 262/20/20
s 2
f 125/23/23 124/24/24 144/25/25 145/26/26
f 124/24/24 127/27/27 146/28/28 144/25/25
f 127/27/27 129/29/29 147/30/30 146/28/28
f 129/29/29 131/31/31 148/32/32 147/30/30
f 131/31/31 133/33/33 149/34/34 148/32/32
f 133/33/33 135/35/35 150/36/36 149/34/34
f 135/35/35 137/37/37 151/38/38 150/36/36
f 137/37/37 139/39/39 152/40/40 151/38/38
f 139/39/39 141/41/41 153/42/42 152/40/40
f 141/41/41 143/43/43 154/44/44 153/42/42
s 3
f 265/45/45 266/46/46 267/47/47 268/48/48
f 266/46/46 269/49/49 270/50/50 267/47/47
f 269/49/49 271/51/51 272/52/52 270/50/50
f 271/51/51 273/53/53 274/54/54 272/52/52
f 273/53/53 275/55/55 276/56/56 274/54/54
f 275/55/55 277/57/57 278/58/58 276/56/56
f 277/57/57 279/59/59 280/60/60 278/58/58
f 279/59/59 281/61/61 282/62/62 280/60/60
f 281/61/61 283/63/63 284/64/64 282/62/62
f 283/63/63 285/65/65 286/66/66 284/64/64
s 4
f 156/67/67 155/68/68 166/69/69 167/70/70
f 155/68/68 157/71/71 168/72/72 166/69/69
f 157/71/71 158/73/73 169/74/74 168/72/72
f 158/73/73 159/75/75 170/76/76 169/74/74
f 159/75/75 160/77/77 171/78/78 170/76/76
f 160/77/77 161/79/79 172/80/80 171/78/78
f 161/79/79 162/81/81 173/82/82 172/80/80
f 162/81/81 163/83/83 174/84/84 173/82/82
f 163/83/83 164/85/85 175/86/86 174/84/84
f 164/85/85 165/87/87 176/88/88 175/86/86
s 5
f 287/89/89 288/90/90 289/91/91 290/92/92
f 288/90/90 291/93/93 292/94/94 289/91/91
f 291/93/93 293/95/95 294/96/96 292/94/94
f 293/95/95 295/97/97 296/98/98 294/96/96
f 295/97/97 297/99/99 298/100/100 296/98/98
f 297/99/99 299/101/101 300/102/102 298/100/100
f 299/101/101 301/103/103 302/104/104 300/102/102
f 301/103/103 303/105/105 304/106/106 302/104/104
f 303/105/105 305/107/107 306/108/108 304/106/106
f 305/107/107 307/109/109 308/110/110 306/108/108
s 6
f 178/111/111 177/112/112 188/113/113 189/114/114
f 177/112/112 179/115/115 190/116/116 188/113/113
f 179/115/115 180/117/117 191/118/118 190/116/116
f 180/117/117 181/119/119 192/120/120 191/118/118
f 181/119/119 182/121/121 193/122/122 192/120/120
f 182/121/121 183/123/123 194/124/124 193/122/122
f 183/123/123 184/125/125 195/126/126 194/124/124
f 184/125/125 185/127/127 196/128/128 195/126/126
f 185/127/127 186/129/129 197/130/130 196/128/128
f 186/129/129 187/131/131 198/132/132 197/130/130
s 7
f 309/133/133 310/134/134 311/135/135 312/136/136
f 310/134/134 313/137/137 314/138/138 311/135/135
f 313/137/137 315/139/139 316/140/140 314/138/138
f 315/139/139 317/141/141 318/142/142 316/140/140
f 317/141/141 319/143/143 320/144/144 318/142/142
f 319/143/143 321/145/145 322/146/146 320/144/144
f 321/145/145 323/147/147 324/148/148 322/146/146
f 323/147/147 325/149/149 326/150/150 324/148/148
f 325/149/149 327/151/151 328/152/152 326/150/150
f 327/151/151 329/153/153 330/154/154 328/152/152
s 8
f 200/155/155 199/156/156 210/157/157 211/158/158
f 199/156/156 201/159/159 212/160/160 210/157/157
f 201/159/159 202/161/161 213/162/162 212/160/160
f 202/161/161 203/163/163 214/164/164 213/162/162
f 203/163/163 204/165/165 215/166/166 214/164/164
f 204/165/165 205/167/167 216/168/168 215/166/166
f 205/167/167 206/169/169 217/170/170 216/168/168
f 206/169/169 207/171/171 218/172/172 217/170/170
f 207/171/171 208/173/173 219/174/174 218/172/172
f 208/173/173 209/175/175 220/176/176 219/174/174
s 9
f 331/177/177 332/178/178 333/179/179 334/180/180
f 332/178/178 335/181/181 336/182/182 333/179/179
f 335/181/181 337/183/183 338/184/184 336/182/182
f 337/183/183 339/185/185 340/186/186 338/184/184
f 339/185/185 341/187/187 342/188/188 340/186/186
f 341/187/187 343/189/189 344/190/190 342/188/188
f 343/189/189 345/191/191 346/192/192 344/190/190
f 345/191/191 347/193/193 348/194/194 346/192/192
f 347/193/193 349/195/195 350/196/196 348/194/194
f 349/195/195 351/197/197 352/198/198 350/196/196
s 10
f 222/199/199 221/200/200 232/201/201 233/506/202
f 221/200/200 223/203/203 234/204/204 232/201/201
f 223/203/203 224/205/205 235/206/206 234/204/204
f 224/205/205 225/207/207 236/208/208 235/206/206
f 225/207/207 226/209/209 237/210/210 236/208/208
f 226/209/209 227/211/211 238/212/212 237/210/210
f 227/211/211 228/213/213 239/214/214 238/212/212
f 228/213/213 229/215/215 240/216/216 239/214/214
f 229/215/215 230/217/217 241/218/218 240/216/216
f 230/217/217 231/219/219 242/497/220 241/218/218
s 11
f 353/221/221 356/224/222 355/223/223 354/222/224
f 354/222/224 355/223/223 358/226/225 357/225/226
f 357/225/226 358/226/225 360/228/227 359/227/228
f 359/227/228 360/228/227 362/230/229 361/229/230
f 361/229/230 362/230/229 364/232/231 363/231/232
f 363/231/232 364/232/231 366/234/233 365/233/234
f 365/233/234 366/234/233 368/236/235 367/235/236
f 367/235/236 368/236/235 370/238/237 369/237/238
f 369/237/238 370/238/237 372/240/239 371/239/240
f 371/239/240 372/240/239 374/242/241 373/241/242
s 12
f 12/243/243 23/246/244 24/245/245 13/244/246
f 13/244/246 24/245/245 25/248/247 14/247/248
f 14/247/248 25/248/247 26/250/249 15/249/250
f 15/249/250 26/250/249 27/252/251 16/251/252
f 16/251/252 27/252/251 28/254/253 17/253/254
f 17/253/254 28/254/253 29/256/255 18/255/256
f 18/255/256 29/256/255 30/258/257 19/257/258
f 19/257/258 30/258/257 31/260/259 20/259/260
f 20/259/260 31/260/259 32/262/261 21/261/262
f 21/261/262 32/262/261 33/264/263 22/263/264
s 13
f 375/265/265 378/268/266 377/267/267 376/266/268
f 376/266/268 377/267/267 380/270/269 379/269/270
f 379/269/270 380/270/269 382/272/271 381/271/272
f 381/271/272 382/272/271 384/274/273 383/273/274
f 383/273/274 384/274/273 386/276/275 385/275/276
f 385/275/276 386/276/275 388/278/277 387/277/278
f 387/277/278 388/278/277 390/280/279 389/279/280
f 389/279/280 390/280/279 392/282/281 391/281/282
f 391/281/282 392/282/281 394/284/283 393/283/284
f 393/283/284 394/284/283 396/286/285 395/285/286
s 14
f 34/287/287 45/290/288 46/289/289 35/288/290
f 35/288/290 46/289/289 47/292/291 36/291/292
f 36/291/292 47/292/291 48/294/293 37/293/294
f 37/293/294 48/294/293 49/296/295 38/295/296
f 38/295/296 49/296/295 50/298/297 39/297/298
f 39/297/298 50/298/297 51/300/299 40/299/300
f 40/299/300 51/300/299 52/302/301 41/301/302
f 41/301/302 52/302/301 53/304/303 42/303/304
f 42/303/304 53/304/303 54/306/305 43/305/306
f 43/305/306 54/306/305 55/308/307 44/307/308
s 15
f 397/309/309 400/312/310 399/311/311 398/310/312
f 398/310/312 399/311/311 402/314/313 401/313/314
f 401/313/314 402/314/313 404/316/315 403/315/316
f 403/315/316 404/316/315 406/318/317 405/317/318
f 405/317/318 406/318/317 408/320/319 407/319/320
f 407/319/320 408/320/319 410/322/321 409/321/322
f 409/321/322 410/322/321 412/324/323 411/323/324
f 411/323/324 412/324/323 414/326/325 413/325/326
f 413/325/326 414/326/325 416/328/327 415/327/328
f 415/327/328 416/328/327 418/330/329 417/329/330
s 16
f 56/331/331 67/334/332 68/333/333 57/332/334
f 57/332/334 68/333/333 69/336/335 58/335/336
f 58/335/336 69/336/335 70/338/337 59/337/338
f 59/337/338 70/338/337 71/340/339 60/339/340
f 60/339/340 71/340/339 72/342/341 61/341/342
f 61/341/342 72/342/341 73/344/343 62/343/344
f 62/343/344 73/344/343 74/346/345 63/345/346
f 63/345/346 74/346/345 75/348/347 64/347/348
f 64/347/348 75/348/347 76/350/349 65/349/350
f 65/349/350 76/350/349 77/352/351 66/351/352
s 17
f 419/353/353 422/356/354 421/355/355 420/354/356
f 420/354/356 421/355/355 424/358/357 423/357/358
f 423/357/358 424/358/357 426/360/359 425/359/360
f 425/359/360 426/360/359 428/362/361 427/361/362
f 427/361/362 428/362/361 430/364/363 429/363/364
f 429/363/364 430/364/363 432/366/365 431/365/366
f 431/365/366 432/366/365 434/368/367 433/367/368
f 433/367/368 434/368/367 436/370/369 435/369/370
f 435/369/370 436/370/369 438/372/371 437/371/372
f 437/371/372 438/372/371 440/374/373 439/373/374
s 18
f 78/375/375 89/378/376 90/377/377 79/376/378
f 79/376/378 90/377/377 91/380/379 80/379/380
f 80/379/380 91/380/379 92/382/381 81/381/382
f 81/381/382 92/382/381 93/384/383 82/383/384
f 82/383/384 93/384/383 94/386/385 83/385/386
f 83/385/386 94/386/385 95/388/387 84/387/388
f 84/387/388 95/388/387 96/390/389 85/389/390
f 85/389/390 96/390/389 97/392/391 86/391/392
f 86/391/392 97/392/391 98/394/393 87/393/394
f 87/393/394 98/394/393 99/396/395 88/395/396
s 19
f 441/397/397 444/400/398 443/399/399 442/398/400
f 442/398/400 443/399/399 446/402/401 445/401/402
f 445/401/402 446/402/401 448/404/403 447/403/404
f 447/403/404 448/404/403 450/406/405 449/405/406
f 449/405/406 450/406/405 452/408/407 451/407/408
f 451/407/408 452/408/407 454/410/409 453/409/410
f 453/409/410 454/410/409 456/412/411 455/411/412
f 455/411/412 456/412/411 458/414/413 457/413/414
f 457/413/414 458/414/413 460/416/415 459/415/416
f 459/415/416 460/416/415 462/418/417 461/417/418
s 20
f 100/419/419 111/422/420 112/421/421 101/420/422
f 101/420/422 112/421/421 113/424/423 102/423/424
f 102/423/424 113/424/423 114/426/425 103/425/426
f 103/425/426 114/426/425 115/428/427 104/427/428
f 104/427/428 115/428/427 116/430/429 105/429/430
f 105/429/430 116/430/429 117/432/431 106/431/432
f 106/431/432 117/432/431 118/434/433 107/433/434
f 107/433/434 118/434/433 119/436/435 108/435/436
f 108/435/436 119/436/435 120/438/437 109/437/438
f 109/437/438 120/438/437 121/440/439 110/439/440
s off
f 1/441/441 2/442/442 123/480/443 122/481/444
f 12/243/445 1/441/446 122/482/447 125/470/448
f 2/442/449 3/445/450 126/479/451 123/480/452
f 3/445/453 4/447/454 128/478/455 126/479/456
f 4/447/457 5/449/458 130/477/459 128/478/460
f 5/449/461 6/451/462 132/476/463 130/477/464
f 6/451/465 7/453/466 134/475/467 132/476/468
f 7/453/469 8/455/470 136/474/471 134/475/472
f 8/455/473 9/457/474 138/473/475 136/474/476
f 9/457/477 10/459/478 140/471/479 138/473/480
f 10/459/481 11/461/482 142/472/483 140/471/484
f 11/495/485 22/494/486 143/43/487 142/462/488
f 23/246/489 12/243/490 125/470/491 145/469/492
f 22/494/493 33/493/494 154/44/495 143/43/496
f 34/287/497 23/246/498 145/469/499 156/468/500
f 33/493/501 44/492/502 165/87/503 154/44/504
f 45/290/505 34/287/506 156/468/507 167/467/508
f 44/492/509 55/491/510 176/88/511 165/87/512
f 56/331/513 45/290/514 167/467/515 178/466/516
f 55/491/517 66/490/518 187/131/519 176/88/520
f 67/334/521 56/331/522 178/466/523 189/465/524
f 66/490/525 77/489/526 198/132/527 187/131/528
f 78/375/529 67/334/530 189/465/531 200/464/532
f 77/489/533 88/488/534 209/175/535 198/132/536
f 89/378/537 78/375/538 200/464/539 211/463/540
f 88/488/541 99/487/542 220/176/543 209/175/544
f 100/419/545 89/378/546 211/463/547 222/483/548
f 99/487/549 110/485/550 231/219/551 220/176/552
f 112/421/553 111/422/554 233/484/555 232/505/556
f 111/422/557 100/419/558 222/483/559 233/202/560
f 113/424/561 112/421/562 232/505/563 234/504/564
f 114/426/565 113/424/566 234/504/567 235/503/568
f 115/428/569 114/426/570 235/503/571 236/502/572
f 116/430/573 115/428/574 236/502/575 237/501/576
f 117/432/577 116/430/578 237/501/579 238/500/580
f 118/434/581 117/432/582 238/500/583 239/499/584
f 119/436/585 118/434/586 239/499/587 240/498/588
f 120/438/589 119/436/590 240/498/591 241/496/592
f 110/485/593 121/486/594 242/497/595 231/219/596
f 121/440/597 120/438/598 241/496/599 242/220/600
f 122/444/601 123/443/602 244/2/603 243/1/604
f 124/24/605 125/23/606 246/4/607 245/3/608
f 125/23/609 122/444/610 243/1/611 246/4/612
f 123/443/613 126/446/614 247/5/615 244/2/616
f 127/27/617 124/24/618 245/3/619 248/6/620
f 126/446/621 128/448/622 249/7/623 247/5/624
f 129/29/625 127/27/626 248/6/627 250/8/628
f 128/448/629 130/450/630 251/9/631 249/7/632
f 131/31/633 129/29/634 250/8/635 252/10/636
f 130/450/637 132/452/638 253/11/639 251/9/640
f 133/33/641 131/31/642 252/10/643 254/12/644
f 132/452/645 134/454/646 255/13/647 253/11/648
f 135/35/649 133/33/650 254/12/651 256/14/652
f 134/454/653 136/456/654 257/15/655 255/13/656
f 137/37/657 135/35/658 256/14/659 258/16/660
f 136/456/661 138/458/662 259/17/663 257/15/664
f 139/39/665 137/37/666 258/16/667 260/18/668
f 138/458/669 140/460/670 261/19/671 259/17/672
f 141/41/673 139/39/674 260/18/675 262/20/676
f 140/460/677 142/462/678 263/21/679 261/19/680
f 142/462/681 143/43/682 264/22/683 263/21/684
f 143/43/685 141/41/686 262/20/687 264/22/688
f 145/26/689 144/25/690 266/46/691 265/45/692
f 155/68/693 156/67/694 268/48/695 267/47/696
f 156/67/697 145/26/698 265/45/699 268/48/700
f 144/25/701 146/28/702 269/49/703 266/46/704
f 157/71/705 155/68/706 267/47/707 270/50/708
f 146/28/709 147/30/710 271/51/711 269/49/712
f 158/73/713 157/71/714 270/50/715 272/52/716
f 147/30/717 148/32/718 273/53/719 271/51/720
f 159/75/721 158/73/722 272/52/723 274/54/724
f 148/32/725 149/34/726 275/55/727 273/53/728
f 160/77/729 159/75/730 274/54/731 276/56/732
f 149/34/733 150/36/734 277/57/735 275/55/736
f 161/79/737 160/77/738 276/56/739 278/58/740
f 150/36/741 151/38/742 279/59/743 277/57/744
f 162/81/745 161/79/746 278/58/747 280/60/748
f 151/38/749 152/40/750 281/61/751 279/59/752
f 163/83/753 162/81/754 280/60/755 282/62/756
f 152/40/757 153/42/758 283/63/759 281/61/760
f 164/85/761 163/83/762 282/62/763 284/64/764
f 153/42/765 154/44/766 285/65/767 283/63/768
f 154/44/769 165/87/770 286/66/771 285/65/772
f 165/87/773 164/85/774 284/64/775 286/66/776
f 167/70/777 166/69/778 288/90/779 287/89/780
f 177/112/781 178/111/782 290/92/783 289/91/784
f 178/111/785 167/70/786 287/89/787 290/92/788
f 166/69/789 168/72/790 291/93/791 288/90/792
f 179/115/793 177/112/794 289/91/795 292/94/796
f 168/72/797 169/74/798 293/95/799 291/93/800
f 180/117/801 179/115/802 292/94/803 294/96/804
f 169/74/805 170/76/806 295/97/807 293/95/808
f 181/119/809 180/117/810 294/96/811 296/98/812
f 170/76/813 171/78/814 297/99/815 295/97/816
f 182/121/817 181/119/818 296/98/819 298/100/820
f 171/78/821 172/80/822 299/101/823 297/99/824
f 183/123/825 182/121/826 298/100/827 300/102/828
f 172/80/829 173/82/830 301/103/831 299/101/832
f 184/125/833 183/123/834 300/102/835 302/104/836
f 173/82/837 174/84/838 303/105/839 301/103/840
f 185/127/841 184/125/842 302/104/843 304/106/844
f 174/84/845 175/86/846 305/107/847 303/105/848
f 186/129/849 185/127/850 304/106/851 306/108/852
f 175/86/853 176/88/854 307/109/855 305/107/856
f 176/88/857 187/131/858 308/110/859 307/109/860
f 187/131/861 186/129/862 306/108/863 308/110/864
f 189/114/865 188/113/866 310/134/867 309/133/868
f 199/156/869 200/155/870 312/136/871 311/135/872
f 200/155/873 189/114/874 309/133/875 312/136/876
f 188/113/877 190/116/878 313/137/879 310/134/880
f 201/159/881 199/156/882 311/135/883 314/138/884
f 190/116/885 191/118/886 315/139/887 313/137/888
f 202/161/889 201/159/890 314/138/891 316/140/892
f 191/118/893 192/120/894 317/141/895 315/139/896
f 203/163/897 202/161/898 316/140/899 318/142/900
f 192/120/901 193/122/902 319/143/903 317/141/904
f 204/165/905 203/163/906 318/142/907 320/144/908
f 193/122/909 194/124/910 321/145/911 319/143/912
f 205/167/913 204/165/914 320/144/915 322/146/916
f 194/124/917 195/126/918 323/147/919 321/145/920
f 206/169/921 205/167/922 322/146/923 324/148/924
f 195/126/925 196/128/926 325/149/927 323/147/928
f 207/171/929 206/169/930 324/148/931 326/150/932
f 196/128/933 197/130/934 327/151/935 325/149/936
f 208/173/937 207/171/938 326/150/939 328/152/940
f 197/130/941 198/132/942 329/153/943 327/151/944
f 198/132/945 209/175/946 330/154/947 329/153/948
f 209/175/949 208/173/950 328/152/951 330/154/952
f 211/158/953 210/157/954 332/178/955 331/177/956
f 221/200/957 222/199/958 334/180/959 333/179/960
f 222/199/961 211/158/962 331/177/963 334/180/964
f 210/157/965 212/160/966 335/181/967 332/178/968
f 223/203/969 221/200/970 333/179/971 336/182/972
f 212/160/973 213/162/974 337/183/975 335/181/976
f 224/205/977 223/203/978 336/182/979 338/184/980
f 213/162/981 214/164/982 339/185/983 337/183/984
f 225/207/985 224/205/986 338/184/987 340/186/988
f 214/164/989 215/166/990 341/187/991 339/185/992
f 226/209/993 225/207/994 340/186/995 342/188/996
f 215/166/997 216/168/998 343/189/999 341/187/1000
f 227/211/1001 226/209/1002 342/188/1003 344/190/1004
f 216/168/1005 217/170/1006 345/191/1007 343/189/1008
f 228/213/1009 227/211/1010 344/190/1011 346/192/1012
f 217/170/1013 218/172/1014 347/193/1015 345/191/1016
f 229/215/1017 228/213/1018 346/192/1019 348/194/1020
f 218/172/1021 219/174/1022 349/195/1023 347/193/1024
f 230/217/1025 229/215/1026 348/194/1027 350/196/1028
f 219/174/1029 220/176/1030 351/197/1031 349/195/1032
f 220/176/1033 231/219/1034 352/198/1035 351/197/1036
f 231/219/1037 230/217/1038 350/196/1039 352/198/1040
f 1/441/1041 353/221/1042 354/222/1043 2/442/1044
f 13/244/1045 355/223/1046 356/224/1047 12/243/1048
f 12/243/1049 356/224/1050 353/221/1051 1/441/1052
f 2/442/1053 354/222/1054 357/225/1055 3/445/1056
f 14/247/1057 358/226/1058 355/223/1059 13/244/1060
f 3/445/1061 357/225/1062 359/227/1063 4/447/1064
f 15/249/1065 360/228/1066 358/226/1067 14/247/1068
f 4/447/1069 359/227/1070 361/229/1071 5/449/1072
f 16/251/1073 362/230/1074 360/228/1075 15/249/1076
f 5/449/1077 361/229/1078 363/231/1079 6/451/1080
f 17/253/1081 364/232/1082 362/230/1083 16/251/1084
f 6/451/1085 363/231/1086 365/233/1087 7/453/1088
f 18/255/1089 366/234/1090 364/232/1091 17/253/1092
f 7/453/1093 365/233/1094 367/235/1095 8/455/1096
f 19/257/1097 368/236/1098 366/234/1099 18/255/1100
f 8/455/1101 367/235/1102 369/237/1103 9/457/1104
f 20/259/1105 370/238/1106 368/236/1107 19/257/1108
f 9/457/1109 369/237/1110 371/239/1111 10/459/1112
f 21/261/1113 372/240/1114 370/238/1115 20/259/1116
f 10/459/1117 371/239/1118 373/241/1119 11/461/1120
f 11/461/1121 373/241/1122 374/242/1123 22/263/1124
f 22/263/1125 374/242/1126 372/240/1127 21/261/1128
f 23/246/1129 375/265/1130 376/266/1131 24/245/1132
f 35/288/1133 377/267/1134 378/268/1135 34/287/1136
f 34/287/1137 378/268/1138 375/265/1139 23/246/1140
f 24/245/1141 376/266/1142 379/269/1143 25/248/1144
f 36/291/1145 380/270/1146 377/267/1147 35/288/1148
f 25/248/1149 379/269/1150 381/271/1151 26/250/1152
f 37/293/1153 382/272/1154 380/270/1155 36/291/1156
f 26/250/1157 381/271/1158 383/273/1159 27/252/1160
f 38/295/1161 384/274/1162 382/272/1163 37/293/1164
f 27/252/1165 383/273/1166 385/275/1167 28/254/1168
f 39/297/1169 386/276/1170 384/274/1171 38/295/1172
f 28/254/1173 385/275/1174 387/277/1175 29/256/1176
f 40/299/1177 388/278/1178 386/276/1179 39/297/1180
f 29/256/1181 387/277/1182 389/279/1183 30/258/1184
f 41/301/1185 390/280/1186 388/278/1187 40/299/1188
f 30/258/1189 389/279/1190 391/281/1191 31/260/1192
f 42/303/1193 392/282/1194 390/280/1195 41/301/1196
f 31/260/1197 391/281/1198 393/283/1199 32/262/1200
f 43/305/1201 394/284/1202 392/282/1203 42/303/1204
f 32/262/1205 393/283/1206 395/285/1207 33/264/1208
f 33/264/1209 395/285/1210 396/286/1211 44/307/1212
f 44/307/1213 396/286/1214 394/284/1215 43/305/1216
f 45/290/1217 397/309/1218 398/310/1219 46/289/1220
f 57/332/1221 399/311/1222 400/312/1223 56/331/1224
f 56/331/1225 400/312/1226 397/309/1227 45/290/1228
f 46/289/1229 398/310/1230 401/313/1231 47/292/1232
f 58/335/1233 402/314/1234 399/311/1235 57/332/1236
f 47/292/1237 401/313/1238 403/315/1239 48/294/1240
f 59/337/1241 404/316/1242 402/314/1243 58/335/1244
f 48/294/1245 403/315/1246 405/317/1247 49/296/1248
f 60/339/1249 406/318/1250 404/316/1251 59/337/1252
f 49/296/1253 405/317/1254 407/319/1255 50/298/1256
f 61/341/1257 408/320/1258 406/318/1259 60/339/1260
f 50/298/1261 407/319/1262 409/321/1263 51/300/1264
f 62/343/1265 410/322/1266 408/320/1267 61/341/1268
f 51/300/1269 409/321/1270 411/323/1271 52/302/1272
f 63/345/1273 412/324/1274 410/322/1275 62/343/1276
f 52/302/1277 411/323/1278 413/325/1279 53/304/1280
f 64/347/1281 414/326/1282 412/324/1283 63/345/1284
f 53/304/1285 413/325/1286 415/327/1287 54/306/1288
f 65/349/1289 416/328/1290 414/326/1291 64/347/1292
f 54/306/1293 415/327/1294 417/329/1295 55/308/1296
f 55/308/1297 417/329/1298 418/330/1299 66/351/1300
f 66/351/1301 418/330/1302 416/328/1303 65/349/1304
f 67/334/1305 419/353/1306 420/354/1307 68/333/1308
f 79/376/1309 421/355/1310 422/356/1311 78/375/1312
f 78/375/1313 422/356/1314 419/353/1315 67/334/1316
f 68/333/1317 420/354/1318 423/357/1319 69/336/1320
f 80/379/1321 424/358/1322 421/355/1323 79/376/1324
f 69/336/1325 423/357/1326 425/359/1327 70/338/1328
f 81/381/1329 426/360/1330 424/358/1331 80/379/1332
f 70/338/1333 425/359/1334 427/361/1335 71/340/1336
f 82/383/1337 428/362/1338 426/360/1339 81/381/1340
f 71/340/1341 427/361/1342 429/363/1343 72/342/1344
f 83/385/1345 430/364/1346 428/362/1347 82/383/1348
f 72/342/1349 429/363/1350 431/365/1351 73/344/1352
f 84/387/1353 432/366/1354 430/364/1355 83/385/1356
f 73/344/1357 431/365/1358 433/367/1359 74/346/1360
f 85/389/1361 434/368/1362 432/366/1363 84/387/1364
f 74/346/1365 433/367/1366 435/369/1367 75/348/1368
f 86/391/1369 436/370/1370 434/368/1371 85/389/1372
f 75/348/1373 435/369/1374 437/371/1375 76/350/1376
f 87/393/1377 438/372/1378 436/370/1379 86/391/1380
f 76/350/1381 437/371/1382 439/373/1383 77/352/1384
f 77/352/1385 439/373/1386 440/374/1387 88/395/1388
f 88/395/1389 440/374/1390 438/372/1391 87/393/1392
f 89/378/1393 441/397/1394 442/398/1395 90/377/1396
f 101/420/1397 443/399/1398 444/400/1399 100/419/1400
f 100/419/1401 444/400/1402 441/397/1403 89/378/1404
f 90/377/1405 442/398/1406 445/401/1407 91/380/1408
f 102/423/1409 446/402/1410 443/399/1411 101/420/1412
f 91/380/1413 445/401/1414 447/403/1415 92/382/1416
f 103/425/1417 448/404/1418 446/402/1419 102/423/1420
f 92/382/1421 447/403/1422 449/405/1423 93/384/1424
f 104/427/1425 450/406/1426 448/404/1427 103/425/1428
f 93/384/1429 449/405/1430 451/407/1431 94/386/1432
f 105/429/1433 452/408/1434 450/406/1435 104/427/1436
f 94/386/1437 451/407/1438 453/409/1439 95/388/1440
f 106/431/1441 454/410/1442 452/408/1443 105/429/1444
f 95/388/1445 453/409/1446 455/411/1447 96/390/1448
f 107/433/1449 456/412/1450 454/410/1451 106/431/1452
f 96/390/1453 455/411/1454 457/413/1455 97/392/1456
f 108/435/1457 458/414/1458 456/412/1459 107/433/1460
f 97/392/1461 457/413/1462 459/415/1463 98/394/1464
f 109/437/1465 460/416/1466 458/414/1467 108/435/1468
f 98/394/1469 459/415/1470 461/417/1471 99/396/1472
f 99/396/1473 461/417/1474 462/418/1475 110/439/1476
f 110/439/1477 462/418/1478 460/416/1479 109/437/1480
