# This file uses centimeters as units for non-parametric coordinates.

mtllib Pillar_2_001.mtl
g default
v 34.693642 -0.000031 -193.365372
v 32.251842 -0.000031 -198.157669
v 28.448643 -0.000031 -201.960861
v 23.656340 -0.000031 -204.402664
v 18.344028 -0.000031 -205.244049
v 13.031719 -0.000031 -204.402664
v 8.239417 -0.000031 -201.960861
v 4.436225 -0.000031 -198.157669
v 1.994423 -0.000031 -193.365356
v 1.153038 -0.000031 -188.053055
v 1.994423 -0.000031 -182.740738
v 4.436225 -0.000031 -177.948441
v 8.239416 -0.000031 -174.145248
v 13.031721 -0.000031 -171.703445
v 18.344028 -0.000031 -170.862061
v 23.656336 -0.000031 -171.703445
v 28.448639 -0.000031 -174.145248
v 32.251831 -0.000031 -177.948441
v 34.693630 -0.000031 -182.740753
v 35.535019 -0.000031 -188.053055
v 35.025803 460.964355 -193.473297
v 32.534397 460.964355 -198.362961
v 28.653934 460.964355 -202.243423
v 23.764267 460.964355 -204.734833
v 18.344028 460.964355 -205.593307
v 12.923792 460.964355 -204.734833
v 8.034127 460.964355 -202.243423
v 4.153669 460.964355 -198.362961
v 1.662260 460.964355 -193.473282
v 0.803778 460.964355 -188.053055
v 1.662260 460.964355 -182.632812
v 4.153669 460.964355 -177.743149
v 8.034130 460.964355 -173.862701
v 12.923794 460.964355 -171.371292
v 18.344028 460.964355 -170.512802
v 23.764263 460.964355 -171.371292
v 28.653927 460.964355 -173.862701
v 32.534386 460.964355 -177.743149
v 35.025795 460.964355 -182.632812
v 35.884277 460.964355 -188.053055
v 18.344028 -0.000031 -188.053055
v 18.344028 460.964355 -188.053055
v 9.330440 40.376480 -181.504303
v 7.747918 40.376480 -184.610168
v 7.202621 40.376480 -188.053055
v 7.747918 40.376480 -191.495941
v 9.330439 40.376480 -194.601807
v 11.795272 40.376480 -197.066650
v 14.901143 40.376480 -198.649170
v 18.344028 40.376480 -199.194458
v 21.786913 40.376480 -198.649170
v 24.892786 40.376480 -197.066650
v 27.357620 40.376480 -194.601807
v 28.940142 40.376480 -191.495941
v 29.485435 40.376480 -188.053055
v 28.940136 40.376480 -184.610168
v 27.357616 40.376480 -181.504303
v 24.892782 40.376480 -179.039459
v 21.786913 40.376480 -177.456940
v 18.344028 40.376480 -176.911652
v 14.901144 40.376480 -177.456940
v 11.795273 40.376480 -179.039459
v 11.795273 420.669617 -179.039459
v 9.330440 420.669617 -181.504303
v 7.747918 420.669617 -184.610168
v 7.202621 420.669617 -188.053055
v 7.747918 420.669617 -191.495941
v 9.330440 420.669617 -194.601807
v 11.795272 420.669617 -197.066650
v 14.901143 420.669617 -198.649170
v 18.344028 420.669617 -199.194458
v 21.786915 420.669617 -198.649170
v 24.892786 420.669617 -197.066650
v 27.357620 420.669617 -194.601807
v 28.940142 420.669617 -191.495941
v 29.485435 420.669617 -188.053055
v 28.940136 420.669617 -184.610168
v 27.357616 420.669617 -181.504303
v 24.892782 420.669617 -179.039459
v 21.786913 420.669617 -177.456940
v 18.344028 420.669617 -176.911652
v 14.901144 420.669617 -177.456940
v 9.871925 420.669617 -176.392197
v 6.683177 420.669617 -179.580948
v 5.006145 460.964355 -169.695038
v -0.013994 460.964355 -174.715164
v 4.635874 420.669617 -183.598999
v -3.237125 460.964355 -181.040909
v 3.930422 420.669617 -188.053055
v -4.347740 460.964355 -188.053055
v 4.635874 420.669617 -192.507111
v -3.237125 460.964355 -195.065201
v 6.683177 420.669617 -196.525162
v -0.013994 460.964355 -201.390945
v 9.871922 420.669617 -199.713913
v 5.006142 460.964355 -206.411072
v 13.889978 420.669617 -201.761215
v 11.331886 460.964355 -209.634216
v 18.344028 420.669617 -202.466660
v 18.344030 460.964355 -210.744827
v 22.798080 420.669617 -201.761215
v 25.356174 460.964355 -209.634216
v 26.816137 420.669617 -199.713913
v 31.681921 460.964355 -206.411087
v 30.004887 420.669617 -196.525162
v 36.702065 460.964355 -201.390945
v 32.052193 420.669617 -192.507111
v 39.925194 460.964355 -195.065201
v 32.757633 420.669617 -188.053055
v 41.035789 460.964355 -188.053055
v 32.052181 420.669617 -183.598999
v 39.925175 460.964355 -181.040909
v 30.004879 420.669617 -179.580948
v 36.702049 460.964355 -174.715164
v 26.816132 420.669617 -176.392197
v 31.681913 460.964355 -169.695038
v 22.798077 420.669617 -174.344910
v 25.356169 460.964355 -166.471893
v 18.344028 420.669617 -173.639450
v 18.344028 460.964355 -165.361282
v 13.889979 420.669617 -174.344910
v 11.331889 460.964355 -166.471893
v 39.563843 -0.000031 -194.947784
v 36.394680 -0.000031 -201.167618
v 30.042576 40.376480 -196.552551
v 32.096497 40.376480 -192.521500
v 31.458595 -0.000031 -206.103699
v 26.843521 40.376480 -199.751602
v 25.238766 -0.000031 -209.272858
v 22.812477 40.376480 -201.805527
v 18.344030 -0.000031 -210.364883
v 18.344028 40.376480 -202.513245
v 11.449297 -0.000031 -209.272858
v 13.875582 40.376480 -201.805527
v 5.229471 -0.000031 -206.103699
v 9.844538 40.376480 -199.751602
v 0.293386 -0.000031 -201.167603
v 6.645483 40.376480 -196.552551
v -2.875771 -0.000031 -194.947784
v 4.591567 40.376480 -192.521500
v -3.967791 -0.000031 -188.053055
v 3.883833 40.376480 -188.053055
v -2.875771 -0.000031 -181.158325
v 4.591567 40.376480 -183.584610
v 0.293386 -0.000031 -174.938492
v 6.645487 40.376480 -179.553558
v 5.229472 -0.000031 -170.002411
v 9.844541 40.376480 -176.354507
v 11.449299 -0.000031 -166.833252
v 13.875583 40.376480 -174.300598
v 18.344028 -0.000031 -165.741241
v 18.344028 40.376480 -173.592865
v 25.238760 -0.000031 -166.833252
v 22.812473 40.376480 -174.300598
v 31.458584 -0.000031 -170.002411
v 26.843517 40.376480 -176.354507
v 36.394669 -0.000031 -174.938492
v 30.042572 40.376480 -179.553558
v 39.563828 -0.000031 -181.158325
v 32.096489 40.376480 -183.584610
v 40.655846 -0.000031 -188.053055
v 32.804218 40.376480 -188.053055
vt 0.900122 0.012929
vt 0.890199 0.012776
vt 0.880715 0.015696
vt 0.872597 0.021404
vt 0.866640 0.029342
vt 0.863428 0.038732
vt 0.863274 0.048655
vt 0.866194 0.058139
vt 0.871903 0.066257
vt 0.879840 0.072214
vt 0.889230 0.075426
vt 0.899153 0.075580
vt 0.908637 0.072660
vt 0.916755 0.066951
vt 0.922712 0.059014
vt 0.925924 0.049624
vt 0.926078 0.039701
vt 0.923158 0.030217
vt 0.917449 0.022099
vt 0.909512 0.016142
vt 0.787828 0.089262
vt 0.797506 0.087852
vt 0.807782 0.085399
vt 0.818218 0.082971
vt 0.828642 0.080847
vt 0.838978 0.079093
vt 0.849202 0.077711
vt 0.859317 0.076677
vt 0.869342 0.075965
vt 0.879303 0.075553
vt 0.909103 0.076017
vt 0.919110 0.076751
vt 0.929201 0.077800
vt 0.939395 0.079190
vt 0.949700 0.080940
vt 0.960094 0.083049
vt 0.970511 0.085447
vt 0.980797 0.087872
vt 0.990666 0.089432
vt 0.791294 0.905311
vt 0.801325 0.907079
vt 0.811758 0.909703
vt 0.822318 0.912272
vt 0.832853 0.914521
vt 0.843294 0.916383
vt 0.853624 0.917859
vt 0.863847 0.918973
vt 0.873986 0.919751
vt 0.884066 0.920217
vt 0.894119 0.920383
vt 0.904177 0.920253
vt 0.914272 0.919821
vt 0.924432 0.919071
vt 0.934685 0.917979
vt 0.945049 0.916516
vt 0.955530 0.914656
vt 0.966101 0.912394
vt 0.976686 0.909798
vt 0.987113 0.907147
vt 0.996956 0.905538
vt 0.922584 0.974508
vt 0.928391 0.966294
vt 0.931376 0.956688
vt 0.931246 0.946630
vt 0.928014 0.937105
vt 0.921997 0.929044
vt 0.913783 0.923237
vt 0.884594 0.923615
vt 0.876533 0.929632
vt 0.870727 0.937845
vt 0.867742 0.947451
vt 0.867872 0.957509
vt 0.871104 0.967035
vt 0.877121 0.975095
vt 0.885335 0.980902
vt 0.894940 0.983886
vt 0.904999 0.983756
vt 0.914524 0.980525
vt 0.894676 0.044178
vt 0.899559 0.952070
vt 0.895303 0.164618
vt 0.888946 0.164628
vt 0.882588 0.164708
vt 0.876234 0.164858
vt 0.869888 0.165078
vt 0.863555 0.165367
vt 0.857238 0.165725
vt 0.850945 0.166151
vt 0.844681 0.166644
vt 0.838459 0.167208
vt 0.832291 0.167858
vt 0.951698 0.167661
vt 0.826201 0.168633
vt 0.945604 0.167006
vt 0.939435 0.166466
vt 0.933212 0.166002
vt 0.926948 0.165605
vt 0.920654 0.165272
vt 0.914337 0.165006
vt 0.908003 0.164807
vt 0.901657 0.164678
vt 0.907150 0.830815
vt 0.900793 0.830970
vt 0.894433 0.831052
vt 0.888072 0.831060
vt 0.881715 0.830996
vt 0.875367 0.830859
vt 0.869031 0.830649
vt 0.862712 0.830369
vt 0.856417 0.830019
vt 0.850154 0.829601
vt 0.843932 0.829116
vt 0.837764 0.828554
vt 0.957181 0.826902
vt 0.831672 0.827879
vt 0.951094 0.827697
vt 0.944928 0.828370
vt 0.938707 0.828956
vt 0.932444 0.829470
vt 0.926151 0.829914
vt 0.919833 0.830286
vt 0.913498 0.830587
vt 0.900997 0.837283
vt 0.907626 0.837102
vt 0.913908 0.910976
vt 0.904102 0.911400
vt 0.894370 0.837370
vt 0.894327 0.911532
vt 0.887743 0.837363
vt 0.884554 0.911379
vt 0.881112 0.837264
vt 0.874756 0.910936
vt 0.874474 0.837067
vt 0.864904 0.910191
vt 0.867820 0.836767
vt 0.854970 0.909122
vt 0.861139 0.836352
vt 0.844924 0.907702
vt 0.854412 0.835799
vt 0.834731 0.905902
vt 0.847607 0.835065
vt 0.824346 0.903703
vt 0.840688 0.834061
vt 0.813693 0.901119
vt 0.833620 0.832595
vt 0.802633 0.898246
vt 0.826446 0.830264
vt 0.790915 0.895352
vt 0.955145 0.831916
vt 0.962491 0.829633
vt 0.997761 0.895930
vt 0.986068 0.898526
vt 0.948026 0.833398
vt 0.975015 0.901251
vt 0.941100 0.834469
vt 0.964366 0.903785
vt 0.934302 0.835289
vt 0.953979 0.905972
vt 0.927583 0.835932
vt 0.943778 0.907771
vt 0.920909 0.836436
vt 0.933719 0.909187
vt 0.914261 0.836822
vt 0.923772 0.910246
vt 0.786858 0.098803
vt 0.798400 0.096443
vt 0.828213 0.163501
vt 0.820819 0.165709
vt 0.809320 0.093918
vt 0.835359 0.162073
vt 0.819843 0.091549
vt 0.842301 0.161044
vt 0.830104 0.089493
vt 0.849106 0.160257
vt 0.840180 0.087796
vt 0.855826 0.159639
vt 0.850115 0.086456
vt 0.862498 0.159155
vt 0.859940 0.085452
vt 0.869142 0.158784
vt 0.869683 0.084758
vt 0.875771 0.158515
vt 0.879369 0.084353
vt 0.882393 0.158339
vt 0.889027 0.084225
vt 0.889012 0.158254
vt 0.898682 0.084367
vt 0.895632 0.158258
vt 0.908363 0.084783
vt 0.902256 0.158352
vt 0.918097 0.085485
vt 0.908888 0.158539
vt 0.927913 0.086493
vt 0.915537 0.158824
vt 0.937840 0.087831
vt 0.922215 0.159220
vt 0.947914 0.089526
vt 0.928942 0.159748
vt 0.958179 0.091592
vt 0.935751 0.160451
vt 0.968712 0.094009
vt 0.942683 0.161416
vt 0.979647 0.096677
vt 0.949773 0.162831
vt 0.991225 0.099332
vt 0.956993 0.165091
vn 0.933569 0.190885 -0.303334
vn 0.794140 0.190885 -0.576978
vn 0.794140 0.190885 -0.576978
vn 0.933569 0.190885 -0.303334
vn 0.576977 0.190884 -0.794141
vn 0.576977 0.190884 -0.794141
vn 0.303336 0.190885 -0.933569
vn 0.303336 0.190885 -0.933569
vn 0.000000 0.190885 -0.981613
vn -0.000000 0.190885 -0.981613
vn -0.303336 0.190885 -0.933569
vn -0.303336 0.190884 -0.933569
vn -0.576977 0.190884 -0.794141
vn -0.576978 0.190884 -0.794141
vn -0.794141 0.190885 -0.576978
vn -0.794141 0.190885 -0.576978
vn -0.933569 0.190885 -0.303335
vn -0.933569 0.190885 -0.303335
vn -0.981613 0.190884 0.000000
vn -0.981613 0.190884 0.000000
vn -0.933569 0.190885 0.303335
vn -0.933569 0.190885 0.303335
vn -0.794141 0.190885 0.576978
vn -0.794141 0.190885 0.576978
vn -0.576977 0.190885 0.794142
vn -0.576977 0.190885 0.794142
vn -0.303335 0.190885 0.933569
vn -0.303335 0.190885 0.933569
vn 0.000000 0.190885 0.981613
vn 0.000000 0.190885 0.981613
vn 0.303335 0.190885 0.933569
vn 0.303335 0.190885 0.933569
vn 0.576977 0.190885 0.794142
vn 0.576977 0.190885 0.794142
vn 0.794141 0.190885 0.576978
vn 0.794141 0.190885 0.576978
vn 0.933569 0.190885 0.303335
vn 0.933569 0.190885 0.303335
vn 0.981613 0.190884 0.000001
vn 0.981613 0.190884 0.000001
vn 0.000000 -1.000000 0.000000
vn 0.000000 -1.000000 0.000000
vn 0.000000 -1.000000 0.000000
vn 0.000000 -1.000000 0.000000
vn 0.000000 -1.000000 0.000000
vn 0.000000 -1.000000 0.000000
vn 0.000000 -1.000000 0.000000
vn 0.000000 -1.000000 0.000000
vn 0.000000 -1.000000 0.000000
vn 0.000000 -1.000000 0.000000
vn 0.000000 -1.000000 0.000000
vn 0.000000 -1.000000 0.000000
vn 0.000000 -1.000000 0.000000
vn 0.000000 -1.000000 0.000000
vn 0.000000 -1.000000 0.000000
vn 0.000000 -1.000000 0.000000
vn 0.000000 -1.000000 0.000000
vn 0.000000 -1.000000 0.000000
vn 0.000000 -1.000000 0.000000
vn 0.000000 -1.000000 0.000000
vn 0.000000 -1.000000 0.000000
vn 0.000000 1.000000 -0.000005
vn 0.000000 1.000000 0.000000
vn 0.000000 1.000000 0.000001
vn 0.000000 1.000000 0.000000
vn 0.000000 1.000000 0.000000
vn 0.000000 1.000000 0.000000
vn 0.000000 1.000000 0.000000
vn 0.000000 1.000000 0.000005
vn 0.000000 1.000000 0.000000
vn 0.000000 1.000000 0.000000
vn 0.000000 1.000000 -0.000000
vn 0.000000 1.000000 0.000000
vn 0.000000 1.000000 0.000005
vn 0.000000 1.000000 0.000000
vn 0.000000 1.000000 0.000000
vn 0.000000 1.000000 0.000000
vn 0.000000 1.000000 0.000000
vn 0.000000 1.000000 0.000005
vn 0.000000 1.000000 0.000005
vn 0.000000 1.000000 0.000000
vn 0.000000 1.000000 -0.000005
vn -0.951056 0.000000 0.309017
vn -0.809018 0.000000 0.587784
vn -0.809018 0.000000 0.587784
vn -0.951056 0.000000 0.309017
vn -1.000000 0.000000 0.000000
vn -1.000000 0.000000 0.000000
vn -0.951057 0.000000 -0.309017
vn -0.951057 0.000000 -0.309017
vn -0.809017 0.000000 -0.587785
vn -0.809017 0.000000 -0.587785
vn -0.587787 0.000000 -0.809016
vn -0.587787 0.000000 -0.809016
vn -0.309017 0.000000 -0.951057
vn -0.309017 0.000000 -0.951057
vn 0.000000 0.000000 -1.000000
vn 0.000000 0.000000 -1.000000
vn 0.309017 -0.000000 -0.951057
vn 0.309017 -0.000000 -0.951057
vn 0.587787 -0.000000 -0.809016
vn 0.587787 -0.000000 -0.809016
vn 0.809017 0.000000 -0.587786
vn 0.809017 0.000000 -0.587786
vn 0.951057 0.000000 -0.309017
vn 0.951057 0.000000 -0.309017
vn 1.000000 0.000000 0.000001
vn 1.000000 0.000000 0.000001
vn 0.951056 0.000000 0.309017
vn 0.951056 0.000000 0.309017
vn 0.809018 0.000000 0.587784
vn 0.809018 0.000000 0.587784
vn 0.587787 0.000000 0.809016
vn 0.587787 0.000000 0.809016
vn 0.309014 0.000000 0.951057
vn 0.309014 0.000000 0.951057
vn 0.000000 0.000000 1.000000
vn 0.000000 0.000000 1.000000
vn -0.309014 0.000000 0.951057
vn -0.309014 0.000000 0.951057
vn -0.587787 0.000000 0.809016
vn -0.587787 0.000000 0.809016
vn -0.792466 -0.201237 0.575761
vn -0.575761 -0.201237 0.792467
vn -0.575761 -0.201237 0.792467
vn -0.792466 -0.201237 0.575761
vn -0.931600 -0.201238 0.302695
vn -0.931600 -0.201237 0.302695
vn -0.979543 -0.201237 0.000000
vn -0.979543 -0.201237 0.000000
vn -0.931600 -0.201238 -0.302695
vn -0.931600 -0.201237 -0.302695
vn -0.792466 -0.201237 -0.575761
vn -0.792466 -0.201237 -0.575761
vn -0.575761 -0.201237 -0.792466
vn -0.575761 -0.201237 -0.792466
vn -0.302694 -0.201238 -0.931601
vn -0.302694 -0.201238 -0.931601
vn 0.000000 -0.201238 -0.979543
vn 0.000000 -0.201238 -0.979542
vn 0.302694 -0.201238 -0.931601
vn 0.302694 -0.201238 -0.931601
vn 0.575761 -0.201238 -0.792466
vn 0.575761 -0.201238 -0.792466
vn 0.792466 -0.201238 -0.575761
vn 0.792466 -0.201238 -0.575761
vn 0.931601 -0.201237 -0.302694
vn 0.931601 -0.201237 -0.302694
vn 0.979543 -0.201237 0.000001
vn 0.979543 -0.201237 0.000001
vn 0.931600 -0.201237 0.302696
vn 0.931600 -0.201237 0.302696
vn 0.792467 -0.201237 0.575761
vn 0.792467 -0.201237 0.575761
vn 0.575761 -0.201237 0.792466
vn 0.575761 -0.201237 0.792466
vn 0.302695 -0.201238 0.931601
vn 0.302695 -0.201238 0.931600
vn 0.000000 -0.201238 0.979542
vn 0.000000 -0.201238 0.979542
vn -0.302695 -0.201238 0.931600
vn -0.302695 -0.201238 0.931600
vn 0.000000 -1.000000 0.000000
vn 0.000000 -1.000000 0.000000
vn 0.000000 -1.000000 0.000000
vn 0.000000 -1.000000 0.000000
vn 0.000000 1.000000 0.000000
vn 0.000000 1.000000 0.000000
vn 0.000000 1.000000 0.000000
vn 0.000000 1.000000 0.000000
vn 0.000000 -1.000000 0.000009
vn 0.000000 -1.000000 0.000009
vn 0.000000 -1.000000 0.000009
vn 0.000000 -1.000000 0.000009
vn 0.000000 1.000000 0.000004
vn 0.000000 1.000000 0.000004
vn 0.000000 1.000000 0.000004
vn 0.000000 1.000000 0.000004
vn 0.000000 -1.000000 0.000000
vn 0.000000 -1.000000 0.000000
vn 0.000000 -1.000000 0.000000
vn 0.000000 -1.000000 0.000000
vn 0.000000 1.000000 -0.000008
vn 0.000000 1.000000 -0.000008
vn 0.000000 1.000000 -0.000008
vn 0.000000 1.000000 -0.000008
vn 0.000000 -1.000000 0.000000
vn 0.000000 -1.000000 0.000000
vn 0.000000 -1.000000 0.000000
vn 0.000000 -1.000000 0.000000
vn 0.000000 1.000000 0.000008
vn 0.000000 1.000000 0.000008
vn 0.000000 1.000000 0.000008
vn 0.000000 1.000000 0.000008
vn 0.000000 -1.000000 -0.000009
vn 0.000000 -1.000000 -0.000009
vn 0.000000 -1.000000 -0.000009
vn 0.000000 -1.000000 -0.000009
vn 0.000000 1.000000 -0.000008
vn 0.000000 1.000000 -0.000008
vn 0.000000 1.000000 -0.000008
vn 0.000000 1.000000 -0.000008
vn 0.000000 -1.000000 -0.000005
vn 0.000000 -1.000000 -0.000005
vn 0.000000 -1.000000 -0.000005
vn 0.000000 -1.000000 -0.000005
vn 0.000000 1.000000 0.000000
vn 0.000000 1.000000 0.000000
vn 0.000000 1.000000 0.000000
vn 0.000000 1.000000 0.000000
vn 0.000000 -1.000000 -0.000002
vn 0.000000 -1.000000 -0.000002
vn 0.000000 -1.000000 -0.000002
vn 0.000000 -1.000000 -0.000002
vn 0.000000 1.000000 0.000000
vn 0.000000 1.000000 0.000000
vn 0.000000 1.000000 0.000000
vn 0.000000 1.000000 0.000000
vn 0.000000 -1.000000 -0.000009
vn 0.000000 -1.000000 -0.000009
vn 0.000000 -1.000000 -0.000009
vn 0.000000 -1.000000 -0.000009
vn 0.000000 1.000000 -0.000006
vn 0.000000 1.000000 -0.000006
vn 0.000000 1.000000 -0.000006
vn 0.000000 1.000000 -0.000006
vn 0.000000 -1.000000 -0.000005
vn 0.000000 -1.000000 -0.000005
vn 0.000000 -1.000000 -0.000005
vn 0.000000 -1.000000 -0.000005
vn 0.000000 1.000000 -0.000011
vn 0.000000 1.000000 -0.000011
vn 0.000000 1.000000 -0.000011
vn 0.000000 1.000000 -0.000011
vn 0.000000 -1.000000 0.000005
vn 0.000000 -1.000000 0.000005
vn 0.000000 -1.000000 0.000005
vn 0.000000 -1.000000 0.000005
vn 0.000000 1.000000 -0.000004
vn 0.000000 1.000000 -0.000004
vn 0.000000 1.000000 -0.000004
vn 0.000000 1.000000 -0.000004
vn 0.000000 -1.000000 0.000000
vn 0.000000 -1.000000 0.000000
vn 0.000000 -1.000000 0.000000
vn 0.000000 -1.000000 0.000000
vn 0.000000 1.000000 -0.000004
vn 0.000000 1.000000 -0.000004
vn 0.000000 1.000000 -0.000004
vn 0.000000 1.000000 -0.000004
vn 0.000000 -1.000000 0.000000
vn 0.000000 -1.000000 0.000000
vn 0.000000 -1.000000 0.000000
vn 0.000000 -1.000000 0.000000
vn 0.000000 1.000000 0.000008
vn 0.000000 1.000000 0.000008
vn 0.000000 1.000000 0.000008
vn 0.000000 1.000000 0.000008
vn 0.000000 -1.000000 0.000000
vn 0.000000 -1.000000 0.000000
vn 0.000000 -1.000000 0.000000
vn 0.000000 -1.000000 0.000000
vn 0.000000 1.000000 -0.000008
vn 0.000000 1.000000 -0.000008
vn 0.000000 1.000000 -0.000008
vn 0.000000 1.000000 -0.000008
vn 0.000000 -1.000000 0.000000
vn 0.000000 -1.000000 0.000000
vn 0.000000 -1.000000 0.000000
vn 0.000000 -1.000000 0.000000
vn 0.000000 1.000000 0.000000
vn 0.000000 1.000000 0.000000
vn 0.000000 1.000000 0.000000
vn 0.000000 1.000000 0.000000
vn 0.000000 -1.000000 -0.000009
vn 0.000000 -1.000000 -0.000009
vn 0.000000 -1.000000 -0.000009
vn 0.000000 -1.000000 -0.000009
vn 0.000000 1.000000 0.000000
vn 0.000000 1.000000 0.000000
vn 0.000000 1.000000 0.000000
vn 0.000000 1.000000 0.000000
vn 0.000000 -1.000000 -0.000005
vn 0.000000 -1.000000 -0.000005
vn 0.000000 -1.000000 -0.000005
vn 0.000000 -1.000000 -0.000005
vn 0.000000 1.000000 0.000000
vn 0.000000 1.000000 0.000000
vn 0.000000 1.000000 0.000000
vn 0.000000 1.000000 0.000000
vn 0.000000 -1.000000 0.000009
vn 0.000000 -1.000000 0.000009
vn 0.000000 -1.000000 0.000009
vn 0.000000 -1.000000 0.000009
vn 0.000000 1.000000 -0.000004
vn 0.000000 1.000000 -0.000004
vn 0.000000 1.000000 -0.000004
vn 0.000000 1.000000 -0.000004
vn 0.000000 -1.000000 0.000000
vn 0.000000 -1.000000 0.000000
vn 0.000000 -1.000000 0.000000
vn 0.000000 -1.000000 0.000000
vn 0.000000 1.000000 -0.000002
vn 0.000000 1.000000 -0.000002
vn 0.000000 1.000000 -0.000002
vn 0.000000 1.000000 -0.000002
vn 0.000000 -1.000000 -0.000002
vn 0.000000 -1.000000 -0.000002
vn 0.000000 -1.000000 -0.000002
vn 0.000000 -1.000000 -0.000002
vn 0.000000 1.000000 0.000000
vn 0.000000 1.000000 0.000000
vn 0.000000 1.000000 0.000000
vn 0.000000 1.000000 0.000000
vn 0.000000 -1.000000 -0.000009
vn 0.000000 -1.000000 -0.000009
vn 0.000000 -1.000000 -0.000009
vn 0.000000 -1.000000 -0.000009
vn 0.000000 1.000000 0.000000
vn 0.000000 1.000000 0.000000
vn 0.000000 1.000000 0.000000
vn 0.000000 1.000000 0.000000
vn 0.000000 -1.000000 0.000000
vn 0.000000 -1.000000 0.000000
vn 0.000000 -1.000000 0.000000
vn 0.000000 -1.000000 0.000000
vn 0.000000 1.000000 0.000001
vn 0.000000 1.000000 0.000001
vn 0.000000 1.000000 0.000001
vn 0.000000 1.000000 0.000001
vn 0.000000 -1.000000 0.000000
vn 0.000000 -1.000000 0.000000
vn 0.000000 -1.000000 0.000000
vn 0.000000 -1.000000 0.000000
vn 0.000000 1.000000 -0.000001
vn 0.000000 1.000000 -0.000001
vn 0.000000 1.000000 -0.000001
vn 0.000000 1.000000 -0.000001
vn 0.000000 -1.000000 0.000000
vn 0.000000 -1.000000 0.000000
vn 0.000000 -1.000000 0.000000
vn 0.000000 -1.000000 0.000000
vn 0.000000 1.000000 0.000001
vn 0.000000 1.000000 0.000001
vn 0.000000 1.000000 0.000001
vn 0.000000 1.000000 0.000001
vn 0.000000 -1.000000 0.000000
vn 0.000000 -1.000000 0.000000
vn 0.000000 -1.000000 0.000000
vn 0.000000 -1.000000 0.000000
vn 0.000000 1.000000 0.000000
vn 0.000000 1.000000 0.000000
vn 0.000000 1.000000 0.000000
vn 0.000000 1.000000 0.000000
vn 0.000000 -1.000000 0.000000
vn 0.000000 -1.000000 0.000000
vn 0.000000 -1.000000 0.000000
vn 0.000000 -1.000000 0.000000
vn 0.000000 1.000000 -0.000000
vn 0.000000 1.000000 -0.000000
vn 0.000000 1.000000 -0.000000
vn 0.000000 1.000000 -0.000000
vn 0.000000 -1.000000 0.000000
vn 0.000000 -1.000000 0.000000
vn 0.000000 -1.000000 0.000000
vn 0.000000 -1.000000 0.000000
vn 0.000000 1.000000 0.000000
vn 0.000000 1.000000 0.000000
vn 0.000000 1.000000 0.000000
vn 0.000000 1.000000 0.000000
vn 0.000000 -1.000000 0.000000
vn 0.000000 -1.000000 0.000000
vn 0.000000 -1.000000 0.000000
vn 0.000000 -1.000000 0.000000
vn 0.000000 1.000000 -0.000001
vn 0.000000 1.000000 -0.000001
vn 0.000000 1.000000 -0.000001
vn 0.000000 1.000000 -0.000001
vn 0.000000 -1.000000 0.000000
vn 0.000000 -1.000000 0.000000
vn 0.000000 -1.000000 0.000000
vn 0.000000 -1.000000 0.000000
vn 0.000000 1.000000 0.000001
vn 0.000000 1.000000 0.000001
vn 0.000000 1.000000 0.000001
vn 0.000000 1.000000 0.000001
vn 0.000000 -1.000000 0.000000
vn 0.000000 -1.000000 0.000000
vn 0.000000 -1.000000 0.000000
vn 0.000000 -1.000000 0.000000
vn 0.000000 1.000000 0.000000
vn 0.000000 1.000000 0.000000
vn 0.000000 1.000000 0.000000
vn 0.000000 1.000000 0.000000
vn 0.000000 -1.000000 0.000000
vn 0.000000 -1.000000 0.000000
vn 0.000000 -1.000000 0.000000
vn 0.000000 -1.000000 0.000000
vn 0.000000 1.000000 0.000000
vn 0.000000 1.000000 0.000000
vn 0.000000 1.000000 0.000000
vn 0.000000 1.000000 0.000000
vn 0.000000 -1.000000 0.000000
vn 0.000000 -1.000000 0.000000
vn 0.000000 -1.000000 0.000000
vn 0.000000 -1.000000 0.000000
vn 0.000000 1.000000 -0.000001
vn 0.000000 1.000000 -0.000001
vn 0.000000 1.000000 -0.000001
vn 0.000000 1.000000 -0.000001
vn 0.000000 -1.000000 0.000000
vn 0.000000 -1.000000 0.000000
vn 0.000000 -1.000000 0.000000
vn 0.000000 -1.000000 0.000000
vn 0.000000 1.000000 0.000000
vn 0.000000 1.000000 0.000000
vn 0.000000 1.000000 0.000000
vn 0.000000 1.000000 0.000000
vn 0.000000 -1.000000 0.000000
vn 0.000000 -1.000000 0.000000
vn 0.000000 -1.000000 0.000000
vn 0.000000 -1.000000 0.000000
vn 0.000000 1.000000 -0.000000
vn 0.000000 1.000000 -0.000000
vn 0.000000 1.000000 -0.000000
vn 0.000000 1.000000 -0.000000
vn 0.000000 -1.000000 0.000000
vn 0.000000 -1.000000 0.000000
vn 0.000000 -1.000000 0.000000
vn 0.000000 -1.000000 0.000000
vn 0.000000 1.000000 0.000000
vn 0.000000 1.000000 0.000000
vn 0.000000 1.000000 0.000000
vn 0.000000 1.000000 0.000000
vn 0.000000 -1.000000 0.000000
vn 0.000000 -1.000000 0.000000
vn 0.000000 -1.000000 0.000000
vn 0.000000 -1.000000 0.000000
vn 0.000000 1.000000 -0.000000
vn 0.000000 1.000000 -0.000000
vn 0.000000 1.000000 -0.000000
vn 0.000000 1.000000 -0.000000
vn 0.000000 -1.000000 0.000000
vn 0.000000 -1.000000 0.000000
vn 0.000000 -1.000000 0.000000
vn 0.000000 -1.000000 0.000000
vn 0.000000 1.000000 -0.000001
vn 0.000000 1.000000 -0.000001
vn 0.000000 1.000000 -0.000001
vn 0.000000 1.000000 -0.000001
vn 0.000000 -1.000000 0.000000
vn 0.000000 -1.000000 0.000000
vn 0.000000 -1.000000 0.000000
vn 0.000000 -1.000000 0.000000
vn 0.000000 1.000000 0.000001
vn 0.000000 1.000000 0.000001
vn 0.000000 1.000000 0.000001
vn 0.000000 1.000000 0.000001
vn 0.000000 -1.000000 0.000000
vn 0.000000 -1.000000 0.000000
vn 0.000000 -1.000000 0.000000
vn 0.000000 -1.000000 0.000000
vn 0.000000 1.000000 -0.000001
vn 0.000000 1.000000 -0.000001
vn 0.000000 1.000000 -0.000001
vn 0.000000 1.000000 -0.000001
vn 0.000000 -1.000000 0.000000
vn 0.000000 -1.000000 0.000000
vn 0.000000 -1.000000 0.000000
vn 0.000000 -1.000000 0.000000
vn 0.000000 1.000000 0.000000
vn 0.000000 1.000000 0.000000
vn 0.000000 1.000000 0.000000
vn 0.000000 1.000000 0.000000
vn 0.000000 -1.000000 0.000000
vn 0.000000 -1.000000 0.000000
vn 0.000000 -1.000000 0.000000
vn 0.000000 -1.000000 0.000000
vn 0.000000 1.000000 0.000000
vn 0.000000 1.000000 0.000000
vn 0.000000 1.000000 0.000000
vn 0.000000 1.000000 0.000000
s 1
g Pillar_Two_Lamp Pillar_2
usemtl openPBRSurface3SG
f 123/165/1 124/166/2 125/167/3 126/168/4
f 124/166/2 127/169/5 128/170/6 125/167/3
f 127/169/5 129/171/7 130/172/8 128/170/6
f 129/171/7 131/173/9 132/174/10 130/172/8
f 131/173/9 133/175/11 134/176/12 132/174/10
f 133/175/11 135/177/13 136/178/14 134/176/12
f 135/177/13 137/179/15 138/180/16 136/178/14
f 137/179/15 139/181/17 140/182/18 138/180/16
f 139/181/17 141/183/19 142/184/20 140/182/18
f 141/183/19 143/185/21 144/186/22 142/184/20
f 143/185/21 145/187/23 146/188/24 144/186/22
f 145/187/23 147/189/25 148/190/26 146/188/24
f 147/189/25 149/191/27 150/192/28 148/190/26
f 149/191/27 151/193/29 152/194/30 150/192/28
f 151/193/29 153/195/31 154/196/32 152/194/30
f 153/195/31 155/197/33 156/198/34 154/196/32
f 155/197/33 157/199/35 158/200/36 156/198/34
f 157/199/35 159/201/37 160/202/38 158/200/36
f 159/201/37 161/203/39 162/204/40 160/202/38
f 161/203/39 123/205/1 126/206/4 162/204/40
s 2
f 2/2/41 1/1/42 41/79/43
f 3/3/44 2/2/41 41/79/43
f 4/4/45 3/3/44 41/79/43
f 5/5/46 4/4/45 41/79/43
f 6/6/47 5/5/46 41/79/43
f 7/7/48 6/6/47 41/79/43
f 8/8/49 7/7/48 41/79/43
f 9/9/50 8/8/49 41/79/43
f 10/10/51 9/9/50 41/79/43
f 11/11/52 10/10/51 41/79/43
f 12/12/53 11/11/52 41/79/43
f 13/13/54 12/12/53 41/79/43
f 14/14/55 13/13/54 41/79/43
f 15/15/56 14/14/55 41/79/43
f 16/16/57 15/15/56 41/79/43
f 17/17/58 16/16/57 41/79/43
f 18/18/59 17/17/58 41/79/43
f 19/19/60 18/18/59 41/79/43
f 20/20/61 19/19/60 41/79/43
f 1/1/42 20/20/61 41/79/43
s 3
f 21/77/62 22/76/63 42/80/64
f 22/76/63 23/75/65 42/80/64
f 23/75/65 24/74/66 42/80/64
f 24/74/66 25/73/67 42/80/64
f 25/73/67 26/72/68 42/80/64
f 26/72/68 27/71/69 42/80/64
f 27/71/69 28/70/70 42/80/64
f 28/70/70 29/69/71 42/80/64
f 29/69/71 30/68/72 42/80/64
f 30/68/72 31/50/73 42/80/64
f 31/50/73 32/51/74 42/80/64
f 32/51/74 33/67/75 42/80/64
f 33/67/75 34/66/76 42/80/64
f 34/66/76 35/65/77 42/80/64
f 35/65/77 36/64/78 42/80/64
f 36/64/78 37/63/79 42/80/64
f 37/63/79 38/62/80 42/80/64
f 38/62/80 39/61/81 42/80/64
f 39/61/81 40/78/82 42/80/64
f 40/78/82 21/77/62 42/80/64
s 4
f 44/82/83 43/81/84 64/103/85 65/104/86
f 45/83/87 44/82/83 65/104/86 66/105/88
f 46/84/89 45/83/87 66/105/88 67/106/90
f 47/85/91 46/84/89 67/106/90 68/107/92
f 48/86/93 47/85/91 68/107/92 69/108/94
f 49/87/95 48/86/93 69/108/94 70/109/96
f 50/88/97 49/87/95 70/109/96 71/110/98
f 51/89/99 50/88/97 71/110/98 72/111/100
f 52/90/101 51/89/99 72/111/100 73/112/102
f 53/91/103 52/90/101 73/112/102 74/113/104
f 54/93/105 53/91/103 74/113/104 75/115/106
f 55/94/107 54/92/105 75/114/106 76/116/108
f 56/95/109 55/94/107 76/116/108 77/117/110
f 57/96/111 56/95/109 77/117/110 78/118/112
f 58/97/113 57/96/111 78/118/112 79/119/114
f 59/98/115 58/97/113 79/119/114 80/120/116
f 60/99/117 59/98/115 80/120/116 81/121/118
f 61/100/119 60/99/117 81/121/118 82/122/120
f 62/101/121 61/100/119 82/122/120 63/102/122
f 43/81/84 62/101/121 63/102/122 64/103/85
s 5
f 84/123/123 83/124/124 85/125/125 86/126/126
f 87/127/127 84/123/123 86/126/126 88/128/128
f 89/129/129 87/127/127 88/128/128 90/130/130
f 91/131/131 89/129/129 90/130/130 92/132/132
f 93/133/133 91/131/131 92/132/132 94/134/134
f 95/135/135 93/133/133 94/134/134 96/136/136
f 97/137/137 95/135/135 96/136/136 98/138/138
f 99/139/139 97/137/137 98/138/138 100/140/140
f 101/141/141 99/139/139 100/140/140 102/142/142
f 103/143/143 101/141/141 102/142/142 104/144/144
f 105/145/145 103/143/143 104/144/144 106/146/146
f 107/147/147 105/145/145 106/146/146 108/148/148
f 109/149/149 107/150/147 108/151/148 110/152/150
f 111/153/151 109/149/149 110/152/150 112/154/152
f 113/155/153 111/153/151 112/154/152 114/156/154
f 115/157/155 113/155/153 114/156/154 116/158/156
f 117/159/157 115/157/155 116/158/156 118/160/158
f 119/161/159 117/159/157 118/160/158 120/162/160
f 121/163/161 119/161/159 120/162/160 122/164/162
f 83/124/124 121/163/161 122/164/162 85/125/125
s off
f 64/103/163 63/102/164 83/124/165 84/123/166
f 33/52/167 32/51/168 86/126/169 85/125/170
f 65/104/171 64/103/172 84/123/173 87/127/174
f 32/51/175 31/50/176 88/128/177 86/126/178
f 66/105/179 65/104/180 87/127/181 89/129/182
f 31/50/183 30/49/184 90/130/185 88/128/186
f 67/106/187 66/105/188 89/129/189 91/131/190
f 30/49/191 29/48/192 92/132/193 90/130/194
f 68/107/195 67/106/196 91/131/197 93/133/198
f 29/48/199 28/47/200 94/134/201 92/132/202
f 69/108/203 68/107/204 93/133/205 95/135/206
f 28/47/207 27/46/208 96/136/209 94/134/210
f 70/109/211 69/108/212 95/135/213 97/137/214
f 27/46/215 26/45/216 98/138/217 96/136/218
f 71/110/219 70/109/220 97/137/221 99/139/222
f 26/45/223 25/44/224 100/140/225 98/138/226
f 72/111/227 71/110/228 99/139/229 101/141/230
f 25/44/231 24/43/232 102/142/233 100/140/234
f 73/112/235 72/111/236 101/141/237 103/143/238
f 24/43/239 23/42/240 104/144/241 102/142/242
f 74/113/243 73/112/244 103/143/245 105/145/246
f 23/42/247 22/41/248 106/146/249 104/144/250
f 75/115/251 74/113/252 105/145/253 107/147/254
f 22/41/255 21/40/256 108/148/257 106/146/258
f 76/116/259 75/114/260 107/150/261 109/149/262
f 21/60/263 40/59/264 110/152/265 108/151/266
f 77/117/267 76/116/268 109/149/269 111/153/270
f 40/59/271 39/58/272 112/154/273 110/152/274
f 78/118/275 77/117/276 111/153/277 113/155/278
f 39/58/279 38/57/280 114/156/281 112/154/282
f 79/119/283 78/118/284 113/155/285 115/157/286
f 38/57/287 37/56/288 116/158/289 114/156/290
f 80/120/291 79/119/292 115/157/293 117/159/294
f 37/56/295 36/55/296 118/160/297 116/158/298
f 81/121/299 80/120/300 117/159/301 119/161/302
f 36/55/303 35/54/304 120/162/305 118/160/306
f 82/122/307 81/121/308 119/161/309 121/163/310
f 35/54/311 34/53/312 122/164/313 120/162/314
f 63/102/315 82/122/316 121/163/317 83/124/318
f 34/53/319 33/52/320 85/125/321 122/164/322
f 1/21/323 2/22/324 124/166/325 123/165/326
f 53/91/327 54/93/328 126/168/329 125/167/330
f 2/22/331 3/23/332 127/169/333 124/166/334
f 52/90/335 53/91/336 125/167/337 128/170/338
f 3/23/339 4/24/340 129/171/341 127/169/342
f 51/89/343 52/90/344 128/170/345 130/172/346
f 4/24/347 5/25/348 131/173/349 129/171/350
f 50/88/351 51/89/352 130/172/353 132/174/354
f 5/25/355 6/26/356 133/175/357 131/173/358
f 49/87/359 50/88/360 132/174/361 134/176/362
f 6/26/363 7/27/364 135/177/365 133/175/366
f 48/86/367 49/87/368 134/176/369 136/178/370
f 7/27/371 8/28/372 137/179/373 135/177/374
f 47/85/375 48/86/376 136/178/377 138/180/378
f 8/28/379 9/29/380 139/181/381 137/179/382
f 46/84/383 47/85/384 138/180/385 140/182/386
f 9/29/387 10/30/388 141/183/389 139/181/390
f 45/83/391 46/84/392 140/182/393 142/184/394
f 10/30/395 11/11/396 143/185/397 141/183/398
f 44/82/399 45/83/400 142/184/401 144/186/402
f 11/11/403 12/12/404 145/187/405 143/185/406
f 43/81/407 44/82/408 144/186/409 146/188/410
f 12/12/411 13/31/412 147/189/413 145/187/414
f 62/101/415 43/81/416 146/188/417 148/190/418
f 13/31/419 14/32/420 149/191/421 147/189/422
f 61/100/423 62/101/424 148/190/425 150/192/426
f 14/32/427 15/33/428 151/193/429 149/191/430
f 60/99/431 61/100/432 150/192/433 152/194/434
f 15/33/435 16/34/436 153/195/437 151/193/438
f 59/98/439 60/99/440 152/194/441 154/196/442
f 16/34/443 17/35/444 155/197/445 153/195/446
f 58/97/447 59/98/448 154/196/449 156/198/450
f 17/35/451 18/36/452 157/199/453 155/197/454
f 57/96/455 58/97/456 156/198/457 158/200/458
f 18/36/459 19/37/460 159/201/461 157/199/462
f 56/95/463 57/96/464 158/200/465 160/202/466
f 19/37/467 20/38/468 161/203/469 159/201/470
f 55/94/471 56/95/472 160/202/473 162/204/474
f 20/38/475 1/39/476 123/205/477 161/203/478
f 54/92/479 55/94/480 162/204/481 126/206/482
g default
v 24.582565 379.812775 -195.538757
v 23.650852 381.641541 -195.546310
v 22.199661 383.092834 -195.552307
v 20.371056 384.024414 -195.556152
v 18.344028 384.344849 -195.557480
v 16.317001 384.024414 -195.556152
v 14.488400 383.092834 -195.552307
v 13.037201 381.641541 -195.546310
v 12.105490 379.812775 -195.538757
v 11.784432 377.785492 -195.530396
v 12.105490 375.758972 -195.522018
v 13.037202 373.930206 -195.514465
v 14.488397 372.478912 -195.508469
v 16.317009 371.547302 -195.504623
v 18.344028 371.226105 -195.503296
v 20.371052 371.547302 -195.504623
v 22.199657 372.478912 -195.508469
v 23.650850 373.930206 -195.514465
v 24.582569 375.758972 -195.522018
v 24.903618 377.785492 -195.530396
v 22.976667 379.795563 -73.398117
v 22.284790 381.153076 -73.403870
v 21.207159 382.230804 -73.408279
v 19.849266 382.922455 -73.411011
v 18.344028 383.160828 -73.412079
v 16.838793 382.922455 -73.411011
v 15.480898 382.230804 -73.408279
v 14.403271 381.153076 -73.403870
v 13.711392 379.795563 -73.398117
v 13.472983 378.290344 -73.391869
v 13.711392 376.785126 -73.385712
v 14.403273 375.426819 -73.380234
v 15.480901 374.349091 -73.375732
v 16.838793 373.657440 -73.372704
v 18.344028 373.419067 -73.371727
v 19.849262 373.657440 -73.372704
v 21.207153 374.349091 -73.375732
v 22.284784 375.426819 -73.380234
v 22.976665 376.785126 -73.385712
v 23.215067 378.290344 -73.391869
v 18.344028 377.785492 -195.530396
v 18.344028 378.290344 -73.391869
v 13.037201 382.107025 -82.773422
v 14.488400 383.557556 -82.779587
v 16.317001 384.489899 -82.783493
v 18.344028 384.810364 -82.784668
v 20.371056 384.489899 -82.783493
v 22.199661 383.558350 -82.779480
v 23.650852 382.107025 -82.773422
v 24.582565 380.278259 -82.766006
v 24.903618 378.250977 -82.757599
v 24.582569 376.224457 -82.749298
v 23.650850 374.395691 -82.741577
v 22.199657 372.944397 -82.735718
v 20.371052 372.012787 -82.731812
v 18.344028 371.691589 -82.730545
v 16.317009 372.012787 -82.731812
v 14.488397 372.944397 -82.735718
v 13.037202 374.395691 -82.741577
v 12.105492 376.224457 -82.749298
v 11.784432 378.250977 -82.757599
v 12.105492 380.278259 -82.766006
v 12.179432 382.721100 -85.117416
v 13.865184 384.406860 -85.124367
v 15.989361 385.489258 -85.128967
v 18.344028 385.862061 -85.130424
v 20.698696 385.489258 -85.128967
v 22.822866 384.406860 -85.124367
v 24.508621 382.721100 -85.117325
v 25.590965 380.596924 -85.108734
v 25.963902 378.242157 -85.098969
v 25.590946 375.887421 -85.089195
v 24.508633 373.763214 -85.080505
v 22.822872 372.077454 -85.073471
v 20.698696 370.995056 -85.069069
v 18.344028 370.622253 -85.067612
v 15.989361 370.995056 -85.069069
v 13.865187 372.077454 -85.073471
v 12.179435 373.763214 -85.080505
v 11.097106 375.887421 -85.089195
v 10.724161 378.242157 -85.098969
v 11.097106 380.596924 -85.108734
v 13.886927 381.480011 -85.112152
v 15.105751 382.699219 -85.117432
v 13.886927 381.489655 -82.770996
v 15.105751 382.708008 -82.776169
v 16.641563 383.481537 -85.120560
v 16.641563 383.491119 -82.779480
v 18.344028 383.751129 -85.121628
v 18.344028 383.760742 -82.780365
v 20.046492 383.481537 -85.120560
v 20.046492 383.491119 -82.779480
v 21.582306 382.699219 -85.117432
v 21.582306 382.708008 -82.776070
v 22.801136 381.480011 -85.112251
v 22.801136 381.489655 -82.770996
v 23.583668 379.944336 -85.105995
v 23.583668 379.953918 -82.764633
v 23.853317 378.242157 -85.098969
v 23.853317 378.250977 -82.757698
v 23.583666 376.539185 -85.092041
v 23.583666 376.548798 -82.750671
v 22.801130 375.003510 -85.085587
v 22.801130 375.013123 -82.744217
v 21.582306 373.785095 -85.080597
v 21.582306 373.793915 -82.739334
v 20.046490 373.002808 -85.077278
v 20.046490 373.011597 -82.736099
v 18.344028 372.733185 -85.076103
v 18.344028 372.742004 -82.734840
v 16.641567 373.002808 -85.077278
v 16.641567 373.011597 -82.736099
v 15.105755 373.785095 -85.080597
v 15.105755 373.793915 -82.739334
v 13.886922 375.003510 -85.085587
v 13.886922 375.013123 -82.744217
v 13.104385 376.539185 -85.092041
v 13.104385 376.548798 -82.750671
v 12.834746 378.242157 -85.098969
v 12.834746 378.250977 -82.757698
v 13.104385 379.944336 -85.105995
v 13.104385 379.953918 -82.764633
v 12.036268 382.846161 -80.048531
v 13.761178 384.570984 -80.055862
v 15.934680 385.678406 -80.060257
v 18.344028 386.059814 -80.061821
v 20.753380 385.678406 -80.060257
v 22.926884 384.570984 -80.055763
v 24.651787 382.846161 -80.048531
v 25.759239 380.671936 -80.039543
v 26.140842 378.263275 -80.029572
v 25.759235 375.853821 -80.019615
v 24.651785 373.680389 -80.010727
v 22.926878 371.955566 -80.003693
v 20.753380 370.848114 -79.999092
v 18.344028 370.465973 -79.997337
v 15.934677 370.848114 -79.999092
v 13.761188 371.955566 -80.003693
v 12.036271 373.680389 -80.010727
v 10.928830 375.853821 -80.019615
v 10.547218 378.263275 -80.029572
v 10.928830 380.671936 -80.039543
v 12.282225 382.681030 -76.587532
v 13.939871 384.338654 -76.594368
v 16.028629 385.403107 -76.598671
v 18.344028 385.769653 -76.600327
v 20.659431 385.403107 -76.598671
v 22.748184 384.338654 -76.594269
v 24.405832 382.681030 -76.587532
v 25.470104 380.592804 -76.579025
v 25.836819 378.277130 -76.569260
v 25.470100 375.961456 -76.559891
v 24.405825 373.873230 -76.551285
v 22.748180 372.215607 -76.544350
v 20.659428 371.151154 -76.539963
v 18.344028 370.784607 -76.538490
v 16.028629 371.151154 -76.539963
v 13.939873 372.215607 -76.544350
v 12.282228 373.873230 -76.551285
v 11.217950 375.961456 -76.559891
v 10.851238 378.277130 -76.569260
v 11.217950 380.592804 -76.579025
v 12.105492 376.144135 -102.231834
v 11.784432 378.170654 -102.240128
v 12.105492 380.197937 -102.248634
v 13.037201 382.026703 -102.255966
v 14.488400 383.478027 -102.262207
v 16.317001 384.409607 -102.266022
v 18.344028 384.730804 -102.267387
v 20.371056 384.409607 -102.266022
v 22.199661 383.478027 -102.262207
v 23.650852 382.026703 -102.256058
v 24.582565 380.197937 -102.248634
v 24.903618 378.170654 -102.240128
v 24.582569 376.144135 -102.231834
v 23.650850 374.315369 -102.224213
v 22.199657 372.864075 -102.218445
v 20.371052 371.932495 -102.214439
v 18.344028 371.611298 -102.213165
v 16.317009 371.932495 -102.214439
v 14.488397 372.864075 -102.218445
v 13.037202 374.315369 -102.224213
v 10.758160 375.698669 -102.230072
v 10.367765 378.163605 -102.240128
v 9.531997 375.371613 -85.087044
v 9.078529 378.234344 -85.098969
v 10.758160 380.628571 -102.250389
v 9.531997 381.097870 -85.110687
v 11.891101 382.852020 -102.259674
v 10.848074 383.680817 -85.121536
v 13.655705 384.616699 -102.266708
v 12.897896 385.730743 -85.129837
v 15.879229 385.749146 -102.271492
v 15.480824 387.046844 -85.135406
v 18.344028 386.139893 -102.273056
v 18.344028 387.500122 -85.137062
v 20.808828 385.749146 -102.271492
v 21.207233 387.046844 -85.135406
v 23.032354 384.616699 -102.266708
v 23.790155 385.730743 -85.129837
v 24.796951 382.852020 -102.259575
v 25.839993 383.680817 -85.121437
v 25.929895 380.628571 -102.250389
v 27.156063 381.097870 -85.110687
v 26.320274 378.163605 -102.240128
v 27.609545 378.234344 -85.098969
v 25.929888 375.698669 -102.230072
v 27.156055 375.371613 -85.087044
v 24.796951 373.475220 -102.220886
v 25.839991 372.788635 -85.076401
v 23.032358 371.710541 -102.213364
v 23.790154 370.738678 -85.067993
v 20.808825 370.577332 -102.208778
v 21.207233 369.422607 -85.062431
v 18.344028 370.187347 -102.207306
v 18.344028 368.969330 -85.060577
v 15.879230 370.577332 -102.208778
v 15.480827 369.422607 -85.062431
v 13.655708 371.710541 -102.213364
v 12.897899 370.738678 -85.067993
v 11.891102 373.475220 -102.220886
v 10.848076 372.788635 -85.076401
vt 0.686834 0.851319
vt 0.684359 0.851121
vt 0.689284 0.851480
vt 0.691709 0.851599
vt 0.699869 0.833128
vt 0.694124 0.851690
vt 0.695436 0.832493
vt 0.696534 0.851652
vt 0.690974 0.832277
vt 0.698942 0.851581
vt 0.686512 0.832469
vt 0.701368 0.851459
vt 0.682078 0.833069
vt 0.703813 0.851291
vt 0.677702 0.834095
vt 0.706277 0.851080
vt 0.673267 0.833470
vt 0.708760 0.850830
vt 0.668804 0.833265
vt 0.711262 0.850542
vt 0.664343 0.833466
vt 0.713767 0.850212
vt 0.659911 0.834076
vt 0.716227 0.849818
vt 0.655537 0.835112
vt 0.669503 0.849066
vt 0.671777 0.849648
vt 0.674252 0.850032
vt 0.676789 0.850351
vt 0.679332 0.850635
vt 0.681858 0.850892
vt 0.689345 0.846297
vt 0.683583 0.890515
vt 0.685226 0.890306
vt 0.670239 0.893928
vt 0.686864 0.890473
vt 0.688410 0.891007
vt 0.689764 0.891913
vt 0.699165 0.890905
vt 0.700756 0.890456
vt 0.702396 0.890393
vt 0.703995 0.890716
vt 0.705446 0.891447
vt 0.713897 0.889659
vt 0.715415 0.889005
vt 0.717032 0.888721
vt 0.718661 0.888820
vt 0.720200 0.889339
vt 0.669012 0.888595
vt 0.670675 0.888625
vt 0.672284 0.889003
vt 0.673767 0.889711
vt 0.675030 0.890747
vt 0.699517 0.879479
vt 0.702289 0.879328
vt 0.702498 0.882463
vt 0.699784 0.882607
vt 0.696743 0.879715
vt 0.697096 0.882965
vt 0.693968 0.880031
vt 0.693466 0.883652
vt 0.691193 0.879718
vt 0.690815 0.883043
vt 0.688418 0.879454
vt 0.688148 0.882609
vt 0.685664 0.879269
vt 0.685454 0.882394
vt 0.682946 0.879174
vt 0.682764 0.882377
vt 0.680281 0.879178
vt 0.679638 0.882882
vt 0.677765 0.878685
vt 0.677103 0.882054
vt 0.675254 0.878222
vt 0.674611 0.881365
vt 0.672806 0.877833
vt 0.672092 0.880865
vt 0.670458 0.877498
vt 0.669547 0.880483
vt 0.720015 0.877019
vt 0.721257 0.880302
vt 0.717739 0.877511
vt 0.718621 0.880608
vt 0.715334 0.877860
vt 0.716018 0.880916
vt 0.712837 0.878258
vt 0.713442 0.881363
vt 0.710294 0.878726
vt 0.710894 0.881993
vt 0.707732 0.879234
vt 0.707916 0.882747
vt 0.705041 0.879256
vt 0.705210 0.882531
vt 0.699352 0.875891
vt 0.702076 0.875738
vt 0.702205 0.878240
vt 0.699444 0.878395
vt 0.696633 0.876012
vt 0.696675 0.878596
vt 0.693931 0.876056
vt 0.693955 0.878752
vt 0.691215 0.875970
vt 0.691215 0.878566
vt 0.688497 0.875821
vt 0.688459 0.878353
vt 0.685789 0.875650
vt 0.685716 0.878179
vt 0.683116 0.875455
vt 0.683010 0.878056
vt 0.680498 0.875209
vt 0.680409 0.877918
vt 0.677908 0.874872
vt 0.677874 0.877514
vt 0.675362 0.874516
vt 0.675375 0.877104
vt 0.672901 0.874194
vt 0.672964 0.876746
vt 0.670596 0.873972
vt 0.670714 0.876455
vt 0.719484 0.873839
vt 0.719479 0.876060
vt 0.717439 0.873961
vt 0.717449 0.876444
vt 0.715110 0.874272
vt 0.715152 0.876781
vt 0.712620 0.874643
vt 0.712693 0.877165
vt 0.710050 0.875018
vt 0.710148 0.877599
vt 0.707442 0.875342
vt 0.707587 0.877997
vt 0.704779 0.875563
vt 0.704931 0.878125
vt 0.699322 0.873653
vt 0.702022 0.873506
vt 0.696632 0.873748
vt 0.693942 0.873757
vt 0.691253 0.873699
vt 0.688565 0.873569
vt 0.685878 0.873396
vt 0.683204 0.873176
vt 0.680544 0.872904
vt 0.677882 0.872575
vt 0.675214 0.872222
vt 0.672537 0.871884
vt 0.669858 0.871630
vt 0.720717 0.871651
vt 0.718098 0.871696
vt 0.715434 0.872027
vt 0.712758 0.872406
vt 0.710082 0.872766
vt 0.707407 0.873077
vt 0.704719 0.873317
vt 0.702604 0.886085
vt 0.700156 0.886201
vt 0.697732 0.886671
vt 0.692415 0.887721
vt 0.690080 0.886801
vt 0.687690 0.886229
vt 0.685257 0.886001
vt 0.682796 0.886109
vt 0.678166 0.886873
vt 0.675946 0.885731
vt 0.673666 0.884905
vt 0.671318 0.884376
vt 0.668893 0.884117
vt 0.721582 0.884541
vt 0.719096 0.884335
vt 0.716651 0.884449
vt 0.714260 0.884877
vt 0.711933 0.885631
vt 0.707493 0.886923
vt 0.705055 0.886324
vt 0.706416 0.852603
vt 0.708928 0.852352
vt 0.710089 0.871015
vt 0.707383 0.871318
vt 0.703926 0.852814
vt 0.704692 0.871564
vt 0.701454 0.852981
vt 0.702007 0.871759
vt 0.698996 0.853103
vt 0.699325 0.871906
vt 0.696546 0.853169
vt 0.696643 0.872003
vt 0.694104 0.853153
vt 0.693963 0.872056
vt 0.691649 0.853112
vt 0.691294 0.871948
vt 0.689186 0.852998
vt 0.688618 0.871816
vt 0.686708 0.852838
vt 0.685944 0.871640
vt 0.684212 0.852640
vt 0.683271 0.871412
vt 0.681690 0.852411
vt 0.680590 0.871132
vt 0.679141 0.852153
vt 0.677889 0.870809
vt 0.676565 0.851866
vt 0.675145 0.870466
vt 0.673961 0.851538
vt 0.672332 0.870129
vt 0.671337 0.851135
vt 0.669411 0.869833
vt 0.719295 0.850739
vt 0.721568 0.869582
vt 0.716645 0.851306
vt 0.718528 0.869902
vt 0.714036 0.851721
vt 0.715630 0.870281
vt 0.711465 0.852060
vt 0.712830 0.870663
vt 0.691166 0.628007
vt 0.695676 0.627816
vt 0.717607 0.831566
vt 0.713145 0.831340
vt 0.708683 0.831522
vt 0.704247 0.832112
vt 0.739780 0.830689
vt 0.735319 0.830454
vt 0.730857 0.830625
vt 0.726419 0.831205
vt 0.711484 0.845357
vt 0.722040 0.832211
vt 0.659476 0.629399
vt 0.664010 0.629195
vt 0.654942 0.629609
vt 0.650417 0.629822
vt 0.736433 0.626184
vt 0.731906 0.626354
vt 0.727371 0.626528
vt 0.722836 0.626706
vt 0.718308 0.626889
vt 0.713799 0.627069
vt 0.709272 0.627250
vt 0.704737 0.627434
vt 0.700202 0.627623
vt 0.686639 0.628197
vt 0.682105 0.628391
vt 0.677571 0.628590
vt 0.673045 0.628794
vt 0.668535 0.628994
vt 0.667206 0.847288
vt 0.733627 0.844466
vt 0.744211 0.831344
vt 0.645908 0.630033
vt 0.668710 0.850572
vt 0.666332 0.869605
vt 0.667205 0.871719
vt 0.718507 0.849242
vt 0.666385 0.884083
vt 0.667373 0.888951
vt 0.666983 0.880043
vt 0.668549 0.873999
vt 0.668735 0.876168
vt 0.668258 0.877034
vt 0.695349 0.887491
vt 0.697720 0.891750
vt 0.694458 0.883485
vt 0.717075 0.894032
vt 0.709674 0.886723
vt 0.712578 0.890687
vt 0.708366 0.882767
vt 0.701709 0.895665
vt 0.680314 0.886534
vt 0.682024 0.891125
vt 0.680099 0.882475
vt 0.685455 0.895608
vn 0.951068 0.308980 -0.001276
vn 0.809044 0.587744 -0.002427
vn 0.809044 0.587743 -0.002427
vn 0.951068 0.308980 -0.001276
vn 0.587785 0.809011 -0.003340
vn 0.587787 0.809009 -0.003340
vn 0.308936 0.951075 -0.003929
vn 0.308936 0.951075 -0.003929
vn 0.000000 0.999991 -0.004133
vn 0.000000 0.999991 -0.004133
vn -0.308936 0.951075 -0.003929
vn -0.308936 0.951075 -0.003929
vn -0.587784 0.809011 -0.003340
vn -0.587789 0.809008 -0.003340
vn -0.809043 0.587744 -0.002427
vn -0.809044 0.587743 -0.002427
vn -0.951067 0.308981 -0.001276
vn -0.951067 0.308983 -0.001276
vn -1.000000 0.000000 0.000000
vn -1.000000 -0.000002 0.000000
vn -0.951049 -0.309037 0.001276
vn -0.951049 -0.309037 0.001276
vn -0.809043 -0.587745 0.002426
vn -0.809045 -0.587742 0.002426
vn -0.587784 -0.809011 0.003340
vn -0.587785 -0.809010 0.003340
vn -0.309024 -0.951046 0.003927
vn -0.309022 -0.951047 0.003927
vn -0.000000 -0.999991 0.004129
vn -0.000000 -0.999991 0.004129
vn 0.309024 -0.951046 0.003927
vn 0.309022 -0.951047 0.003927
vn 0.587785 -0.809011 0.003340
vn 0.587786 -0.809010 0.003340
vn 0.809042 -0.587746 0.002427
vn 0.809044 -0.587743 0.002427
vn 0.951050 -0.309036 0.001276
vn 0.951050 -0.309036 0.001276
vn 1.000000 0.000001 0.000000
vn 1.000000 -0.000000 0.000000
vn 0.000005 -0.004130 -0.999992
vn 0.000005 -0.004127 -0.999992
vn 0.000000 -0.004130 -0.999992
vn 0.000000 -0.004129 -0.999991
vn 0.000000 -0.004129 -0.999991
vn 0.000000 -0.004129 -0.999991
vn 0.000000 -0.004129 -0.999991
vn 0.000005 -0.004129 -0.999991
vn 0.000002 -0.004130 -0.999992
vn -0.000002 -0.004127 -0.999991
vn 0.000000 -0.004129 -0.999991
vn 0.000000 -0.004132 -0.999992
vn 0.000000 -0.004131 -0.999991
vn -0.000009 -0.004131 -0.999991
vn 0.000000 -0.004131 -0.999991
vn -0.000000 -0.004131 -0.999991
vn 0.000000 -0.004131 -0.999992
vn 0.000009 -0.004131 -0.999991
vn -0.000002 -0.004131 -0.999991
vn -0.000002 -0.004132 -0.999991
vn 0.000000 -0.004129 -0.999991
vn -0.000015 0.004188 0.999991
vn 0.000012 0.004180 0.999991
vn 0.000000 0.004133 0.999991
vn 0.000060 0.004120 0.999992
vn 0.000008 0.004128 0.999992
vn -0.000000 0.004149 0.999991
vn -0.000008 0.004128 0.999992
vn -0.000058 0.004120 0.999992
vn -0.000010 0.004180 0.999991
vn 0.000015 0.004188 0.999991
vn 0.000000 0.004121 0.999992
vn 0.000005 0.004066 0.999992
vn -0.000016 0.004085 0.999992
vn -0.000075 0.004150 0.999991
vn -0.000050 0.004153 0.999991
vn 0.000000 0.004135 0.999991
vn 0.000050 0.004153 0.999991
vn 0.000075 0.004150 0.999991
vn 0.000015 0.004085 0.999992
vn -0.000006 0.004066 0.999992
vn 0.000000 0.004121 0.999992
vn -0.535263 0.734985 -0.416282
vn -0.736758 0.533529 -0.415373
vn -0.801413 0.581697 -0.139161
vn -0.582251 0.800850 -0.140083
vn -0.281374 0.864339 -0.416831
vn -0.306088 0.941554 -0.140665
vn 0.000001 0.908912 -0.416987
vn 0.000000 0.990029 -0.140865
vn 0.281308 0.864384 -0.416780
vn 0.306059 0.941568 -0.140636
vn 0.535273 0.735023 -0.416201
vn 0.582261 0.800852 -0.140033
vn 0.736801 0.533504 -0.415328
vn 0.801426 0.581683 -0.139146
vn 0.866136 0.279694 -0.414221
vn 0.942123 0.305536 -0.138030
vn 0.910721 -0.001739 -0.413019
vn 0.990608 -0.000543 -0.136734
vn 0.866160 -0.283152 -0.411815
vn 0.942127 -0.306668 -0.135467
vn 0.736827 -0.537028 -0.410715
vn 0.801416 -0.582831 -0.134315
vn 0.535338 -0.738551 -0.409825
vn 0.582281 -0.801972 -0.133380
vn 0.281488 -0.867900 -0.409285
vn 0.306174 -0.942669 -0.132791
vn -0.000000 -0.912475 -0.409132
vn -0.000000 -0.991175 -0.132562
vn -0.281490 -0.867903 -0.409278
vn -0.306174 -0.942670 -0.132784
vn -0.535338 -0.738552 -0.409823
vn -0.582280 -0.801973 -0.133376
vn -0.736826 -0.537028 -0.410717
vn -0.801416 -0.582831 -0.134316
vn -0.866160 -0.283152 -0.411815
vn -0.942127 -0.306668 -0.135468
vn -0.910721 -0.001738 -0.413018
vn -0.990608 -0.000543 -0.136734
vn -0.866136 0.279694 -0.414223
vn -0.942123 0.305535 -0.138032
vn -0.587795 0.809004 -0.003170
vn -0.809003 0.587800 -0.002354
vn -0.809008 0.587793 -0.002354
vn -0.587839 0.808972 -0.003170
vn -0.309060 0.951035 -0.003813
vn -0.309054 0.951037 -0.003813
vn -0.000000 0.999992 -0.004104
vn -0.000000 0.999992 -0.004104
vn 0.309061 0.951034 -0.003813
vn 0.309058 0.951036 -0.003813
vn 0.587798 0.809002 -0.003170
vn 0.587840 0.808971 -0.003170
vn 0.809003 0.587801 -0.002354
vn 0.809006 0.587796 -0.002354
vn 0.951056 0.309015 -0.001256
vn 0.951057 0.309013 -0.001256
vn 1.000000 0.000032 0.000002
vn 1.000000 -0.000034 0.000002
vn 0.951056 -0.309015 0.001254
vn 0.951054 -0.309022 0.001254
vn 0.809007 -0.587794 0.002350
vn 0.809004 -0.587798 0.002350
vn 0.587762 -0.809028 0.003109
vn 0.587730 -0.809051 0.003109
vn 0.308963 -0.951067 0.003583
vn 0.308933 -0.951077 0.003583
vn 0.000000 -0.999993 0.003767
vn 0.000000 -0.999993 0.003767
vn -0.308963 -0.951067 0.003583
vn -0.308933 -0.951077 0.003583
vn -0.587761 -0.809029 0.003109
vn -0.587729 -0.809052 0.003109
vn -0.809006 -0.587796 0.002350
vn -0.809003 -0.587800 0.002350
vn -0.951058 -0.309012 0.001254
vn -0.951055 -0.309019 0.001254
vn -1.000000 0.000033 0.000001
vn -1.000000 -0.000033 0.000001
vn -0.951058 0.309011 -0.001257
vn -0.951058 0.309011 -0.001257
vn 0.000036 0.004174 0.999991
vn 0.000036 0.004174 0.999991
vn 0.000036 0.004174 0.999991
vn 0.000036 0.004174 0.999991
vn -0.000132 -0.004116 -0.999992
vn -0.000132 -0.004116 -0.999992
vn -0.000132 -0.004116 -0.999992
vn -0.000132 -0.004116 -0.999992
vn 0.000007 0.004133 0.999991
vn 0.000007 0.004133 0.999991
vn 0.000007 0.004133 0.999991
vn 0.000007 0.004133 0.999991
vn -0.000078 -0.004059 -0.999992
vn -0.000078 -0.004059 -0.999992
vn -0.000078 -0.004059 -0.999992
vn -0.000078 -0.004059 -0.999992
vn -0.000043 0.004171 0.999991
vn -0.000043 0.004171 0.999991
vn -0.000043 0.004171 0.999991
vn -0.000043 0.004171 0.999991
vn 0.000090 -0.004046 -0.999992
vn 0.000090 -0.004046 -0.999992
vn 0.000090 -0.004046 -0.999992
vn 0.000090 -0.004046 -0.999992
vn 0.000043 0.004171 0.999991
vn 0.000043 0.004171 0.999991
vn 0.000043 0.004171 0.999991
vn 0.000043 0.004171 0.999991
vn -0.000090 -0.004046 -0.999992
vn -0.000090 -0.004046 -0.999992
vn -0.000090 -0.004046 -0.999992
vn -0.000090 -0.004046 -0.999992
vn -0.000007 0.004133 0.999992
vn -0.000007 0.004133 0.999991
vn -0.000007 0.004133 0.999992
vn -0.000007 0.004133 0.999991
vn 0.000125 -0.004079 -0.999992
vn 0.000125 -0.004079 -0.999992
vn 0.000125 -0.004079 -0.999992
vn 0.000125 -0.004079 -0.999992
vn -0.000066 0.004140 0.999991
vn -0.000066 0.004140 0.999991
vn -0.000066 0.004140 0.999991
vn -0.000066 0.004140 0.999991
vn 0.000090 -0.004073 -0.999992
vn 0.000090 -0.004073 -0.999992
vn 0.000090 -0.004073 -0.999992
vn 0.000090 -0.004073 -0.999992
vn 0.000029 0.004071 0.999992
vn 0.000029 0.004071 0.999992
vn 0.000029 0.004071 0.999992
vn 0.000029 0.004071 0.999992
vn 0.000023 -0.004083 -0.999992
vn 0.000023 -0.004083 -0.999992
vn 0.000023 -0.004083 -0.999992
vn 0.000023 -0.004083 -0.999992
vn 0.000014 0.004140 0.999991
vn 0.000014 0.004140 0.999991
vn 0.000014 0.004140 0.999991
vn 0.000014 0.004140 0.999991
vn 0.000036 -0.004109 -0.999992
vn 0.000036 -0.004109 -0.999992
vn 0.000036 -0.004109 -0.999992
vn 0.000036 -0.004109 -0.999992
vn -0.000038 0.004122 0.999992
vn -0.000038 0.004122 0.999992
vn -0.000038 0.004122 0.999992
vn -0.000038 0.004122 0.999992
vn 0.000070 -0.004121 -0.999992
vn 0.000070 -0.004121 -0.999992
vn 0.000070 -0.004121 -0.999992
vn 0.000070 -0.004121 -0.999992
vn -0.000016 0.004149 0.999991
vn -0.000016 0.004149 0.999991
vn -0.000016 0.004149 0.999991
vn -0.000016 0.004149 0.999991
vn 0.000019 -0.004223 -0.999991
vn 0.000019 -0.004223 -0.999991
vn 0.000019 -0.004223 -0.999991
vn 0.000019 -0.004223 -0.999991
vn 0.000000 0.004141 0.999991
vn 0.000000 0.004141 0.999991
vn 0.000000 0.004141 0.999991
vn 0.000000 0.004141 0.999991
vn 0.000125 -0.004144 -0.999991
vn 0.000125 -0.004144 -0.999991
vn 0.000125 -0.004144 -0.999991
vn 0.000125 -0.004144 -0.999991
vn 0.000007 0.004130 0.999991
vn 0.000007 0.004130 0.999992
vn 0.000007 0.004130 0.999992
vn 0.000007 0.004130 0.999991
vn 0.000043 -0.004254 -0.999991
vn 0.000043 -0.004254 -0.999991
vn 0.000043 -0.004254 -0.999991
vn 0.000043 -0.004254 -0.999991
vn 0.000011 0.004056 0.999992
vn 0.000011 0.004056 0.999992
vn 0.000011 0.004056 0.999992
vn 0.000011 0.004056 0.999992
vn -0.000012 -0.004191 -0.999991
vn -0.000012 -0.004191 -0.999991
vn -0.000012 -0.004191 -0.999991
vn -0.000012 -0.004191 -0.999991
vn -0.000011 0.004056 0.999992
vn -0.000011 0.004056 0.999992
vn -0.000011 0.004056 0.999992
vn -0.000011 0.004056 0.999992
vn 0.000012 -0.004190 -0.999991
vn 0.000012 -0.004190 -0.999991
vn 0.000012 -0.004190 -0.999991
vn 0.000012 -0.004190 -0.999991
vn -0.000007 0.004130 0.999991
vn -0.000007 0.004130 0.999991
vn -0.000007 0.004130 0.999992
vn -0.000007 0.004130 0.999992
vn -0.000047 -0.004253 -0.999991
vn -0.000047 -0.004253 -0.999991
vn -0.000047 -0.004253 -0.999991
vn -0.000047 -0.004253 -0.999991
vn -0.000002 0.004141 0.999991
vn -0.000002 0.004141 0.999991
vn -0.000002 0.004141 0.999991
vn -0.000002 0.004141 0.999991
vn -0.000129 -0.004144 -0.999991
vn -0.000129 -0.004144 -0.999991
vn -0.000129 -0.004144 -0.999991
vn -0.000129 -0.004144 -0.999991
vn 0.000017 0.004148 0.999991
vn 0.000017 0.004148 0.999991
vn 0.000017 0.004148 0.999991
vn 0.000017 0.004148 0.999991
vn -0.000016 -0.004223 -0.999991
vn -0.000016 -0.004223 -0.999991
vn -0.000016 -0.004223 -0.999991
vn -0.000016 -0.004223 -0.999991
vn 0.000039 0.004122 0.999992
vn 0.000039 0.004122 0.999992
vn 0.000039 0.004122 0.999992
vn 0.000039 0.004122 0.999992
vn -0.000067 -0.004121 -0.999992
vn -0.000067 -0.004121 -0.999992
vn -0.000067 -0.004121 -0.999992
vn -0.000067 -0.004121 -0.999992
vn -0.000012 0.004141 0.999991
vn -0.000012 0.004141 0.999991
vn -0.000012 0.004141 0.999991
vn -0.000012 0.004141 0.999991
vn -0.000039 -0.004109 -0.999992
vn -0.000039 -0.004109 -0.999992
vn -0.000039 -0.004109 -0.999992
vn -0.000039 -0.004109 -0.999992
vn -0.000068 0.004090 0.999992
vn -0.000068 0.004090 0.999992
vn -0.000068 0.004090 0.999992
vn -0.000068 0.004090 0.999992
vn -0.000026 -0.004083 -0.999992
vn -0.000026 -0.004083 -0.999992
vn -0.000026 -0.004083 -0.999992
vn -0.000026 -0.004083 -0.999992
vn -0.754039 0.549343 0.360066
vn -0.547854 0.755508 0.359254
vn -0.287994 0.887905 0.358726
vn 0.000000 0.933517 0.358532
vn 0.287989 0.887907 0.358725
vn 0.547851 0.755504 0.359266
vn 0.754042 0.549339 0.360066
vn 0.886438 0.289545 0.361097
vn 0.932051 0.001488 0.362324
vn 0.886441 -0.286551 0.363472
vn 0.754053 -0.546376 0.364524
vn 0.547883 -0.752560 0.365345
vn 0.288054 -0.884957 0.365891
vn -0.000000 -0.930572 0.366108
vn -0.288053 -0.884955 0.365895
vn -0.547883 -0.752560 0.365345
vn -0.754054 -0.546376 0.364522
vn -0.886441 -0.286551 0.363471
vn -0.932051 0.001488 0.362324
vn -0.886439 0.289545 0.361096
vn -0.623994 0.456032 0.634560
vn -0.453386 0.626620 0.633868
vn -0.238319 0.736177 0.633441
vn 0.000000 0.773918 0.633285
vn 0.238309 0.736178 0.633443
vn 0.453382 0.626614 0.633877
vn 0.623998 0.456024 0.634562
vn 0.733567 0.241011 0.635448
vn 0.771328 0.002628 0.636432
vn 0.733578 -0.235737 0.637410
vn 0.624046 -0.450764 0.638262
vn 0.453419 -0.621416 0.638947
vn 0.238347 -0.731002 0.639395
vn 0.000000 -0.768756 0.639542
vn -0.238346 -0.731000 0.639398
vn -0.453421 -0.621419 0.638944
vn -0.624048 -0.450766 0.638258
vn -0.733578 -0.235738 0.637410
vn -0.771328 0.002629 0.636432
vn -0.733567 0.241011 0.635447
vn -0.997184 -0.000310 -0.074999
vn -0.948374 -0.308466 -0.073720
vn -0.948377 -0.308460 -0.073720
vn -0.997184 -0.000310 -0.074999
vn -0.948382 0.307821 -0.076276
vn -0.948383 0.307817 -0.076276
vn -0.806746 0.585803 -0.077427
vn -0.806743 0.585807 -0.077427
vn -0.586117 0.806430 -0.078351
vn -0.586113 0.806432 -0.078351
vn -0.308122 0.948066 -0.078946
vn -0.308119 0.948067 -0.078946
vn -0.000000 0.996863 -0.079148
vn -0.000000 0.996863 -0.079148
vn 0.308122 0.948066 -0.078944
vn 0.308119 0.948067 -0.078944
vn 0.586116 0.806430 -0.078350
vn 0.586115 0.806431 -0.078351
vn 0.806746 0.585804 -0.077427
vn 0.806743 0.585808 -0.077427
vn 0.948382 0.307820 -0.076276
vn 0.948382 0.307820 -0.076276
vn 0.997184 -0.000312 -0.075001
vn 0.997184 -0.000311 -0.075001
vn 0.948374 -0.308466 -0.073721
vn 0.948377 -0.308459 -0.073721
vn 0.806749 -0.586422 -0.072565
vn 0.806749 -0.586421 -0.072565
vn 0.586164 -0.807018 -0.071647
vn 0.586162 -0.807020 -0.071647
vn 0.308115 -0.948692 -0.071055
vn 0.308120 -0.948690 -0.071055
vn 0.000000 -0.997487 -0.070848
vn 0.000000 -0.997487 -0.070848
vn -0.308115 -0.948692 -0.071055
vn -0.308120 -0.948690 -0.071055
vn -0.586164 -0.807018 -0.071648
vn -0.586162 -0.807020 -0.071648
vn -0.806748 -0.586422 -0.072565
vn -0.806749 -0.586422 -0.072565
vn 0.000033 -0.004080 -0.999992
vn 0.000033 -0.004080 -0.999992
vn 0.000033 -0.004080 -0.999992
vn 0.000033 -0.004080 -0.999992
vn -0.000004 0.004157 0.999991
vn -0.000004 0.004157 0.999991
vn -0.000004 0.004157 0.999991
vn -0.000004 0.004157 0.999991
vn -0.000013 -0.004177 -0.999991
vn -0.000013 -0.004177 -0.999991
vn -0.000013 -0.004177 -0.999991
vn -0.000013 -0.004177 -0.999991
vn 0.000027 0.004113 0.999992
vn 0.000027 0.004113 0.999992
vn 0.000027 0.004113 0.999992
vn 0.000027 0.004113 0.999992
vn 0.000101 -0.004151 -0.999991
vn 0.000101 -0.004151 -0.999991
vn 0.000101 -0.004151 -0.999991
vn 0.000101 -0.004151 -0.999991
vn -0.000003 0.004151 0.999991
vn -0.000003 0.004151 0.999991
vn -0.000003 0.004151 0.999991
vn -0.000003 0.004151 0.999991
vn 0.000024 -0.004154 -0.999991
vn 0.000024 -0.004154 -0.999991
vn 0.000024 -0.004154 -0.999991
vn 0.000024 -0.004154 -0.999991
vn -0.000055 0.004141 0.999991
vn -0.000055 0.004141 0.999991
vn -0.000055 0.004141 0.999991
vn -0.000055 0.004141 0.999991
vn -0.000053 -0.004053 -0.999992
vn -0.000053 -0.004053 -0.999992
vn -0.000053 -0.004053 -0.999992
vn -0.000053 -0.004053 -0.999992
vn 0.000039 0.004155 0.999991
vn 0.000039 0.004155 0.999991
vn 0.000039 0.004155 0.999991
vn 0.000039 0.004155 0.999991
vn -0.000010 -0.004054 -0.999992
vn -0.000010 -0.004054 -0.999992
vn -0.000010 -0.004054 -0.999992
vn -0.000010 -0.004054 -0.999992
vn -0.000046 0.004084 0.999992
vn -0.000046 0.004084 0.999992
vn -0.000046 0.004084 0.999992
vn -0.000046 0.004084 0.999992
vn 0.000014 -0.004054 -0.999992
vn 0.000014 -0.004054 -0.999992
vn 0.000014 -0.004054 -0.999992
vn 0.000014 -0.004054 -0.999992
vn 0.000046 0.004084 0.999992
vn 0.000046 0.004084 0.999992
vn 0.000046 0.004084 0.999992
vn 0.000046 0.004084 0.999992
vn 0.000053 -0.004053 -0.999992
vn 0.000053 -0.004053 -0.999992
vn 0.000053 -0.004053 -0.999992
vn 0.000053 -0.004053 -0.999992
vn -0.000039 0.004155 0.999991
vn -0.000039 0.004155 0.999991
vn -0.000039 0.004155 0.999991
vn -0.000039 0.004155 0.999991
vn 0.000026 -0.004107 -0.999992
vn 0.000026 -0.004107 -0.999992
vn 0.000026 -0.004107 -0.999992
vn 0.000026 -0.004107 -0.999992
vn 0.000032 0.004165 0.999991
vn 0.000032 0.004165 0.999991
vn 0.000032 0.004165 0.999991
vn 0.000032 0.004165 0.999991
vn -0.000042 -0.004119 -0.999992
vn -0.000042 -0.004119 -0.999992
vn -0.000042 -0.004119 -0.999992
vn -0.000042 -0.004119 -0.999992
vn 0.000014 0.004118 0.999992
vn 0.000014 0.004118 0.999992
vn 0.000014 0.004118 0.999992
vn 0.000014 0.004118 0.999992
vn 0.000014 -0.004177 -0.999991
vn 0.000014 -0.004177 -0.999991
vn 0.000014 -0.004177 -0.999991
vn 0.000014 -0.004177 -0.999991
vn -0.000028 0.004113 0.999992
vn -0.000028 0.004113 0.999992
vn -0.000028 0.004113 0.999992
vn -0.000028 0.004113 0.999992
vn -0.000031 -0.004080 -0.999992
vn -0.000031 -0.004080 -0.999992
vn -0.000031 -0.004080 -0.999992
vn -0.000031 -0.004080 -0.999992
vn 0.000002 0.004157 0.999991
vn 0.000002 0.004157 0.999991
vn 0.000002 0.004157 0.999991
vn 0.000002 0.004157 0.999991
vn -0.000079 -0.004108 -0.999992
vn -0.000079 -0.004108 -0.999992
vn -0.000079 -0.004108 -0.999992
vn -0.000079 -0.004108 -0.999992
vn -0.000040 0.004126 0.999992
vn -0.000040 0.004126 0.999992
vn -0.000040 0.004126 0.999992
vn -0.000040 0.004126 0.999992
vn 0.000045 -0.004175 -0.999991
vn 0.000045 -0.004175 -0.999991
vn 0.000045 -0.004175 -0.999991
vn 0.000045 -0.004175 -0.999991
vn -0.000007 0.004138 0.999991
vn -0.000007 0.004138 0.999991
vn -0.000007 0.004138 0.999992
vn -0.000007 0.004138 0.999991
vn 0.000048 -0.004257 -0.999991
vn 0.000048 -0.004257 -0.999991
vn 0.000048 -0.004257 -0.999991
vn 0.000048 -0.004257 -0.999991
vn -0.000004 0.004160 0.999991
vn -0.000004 0.004160 0.999991
vn -0.000004 0.004160 0.999991
vn -0.000004 0.004160 0.999991
vn 0.000043 -0.004138 -0.999991
vn 0.000043 -0.004138 -0.999991
vn 0.000043 -0.004138 -0.999991
vn 0.000043 -0.004138 -0.999991
vn -0.000035 0.004233 0.999991
vn -0.000035 0.004233 0.999991
vn -0.000035 0.004233 0.999991
vn -0.000035 0.004233 0.999991
vn -0.000048 -0.004138 -0.999991
vn -0.000048 -0.004138 -0.999991
vn -0.000048 -0.004138 -0.999991
vn -0.000048 -0.004138 -0.999992
vn 0.000035 0.004233 0.999991
vn 0.000035 0.004233 0.999991
vn 0.000035 0.004233 0.999991
vn 0.000035 0.004233 0.999991
vn -0.000050 -0.004257 -0.999991
vn -0.000050 -0.004257 -0.999991
vn -0.000050 -0.004257 -0.999991
vn -0.000050 -0.004257 -0.999991
vn 0.000004 0.004160 0.999991
vn 0.000004 0.004160 0.999991
vn 0.000004 0.004160 0.999991
vn 0.000004 0.004160 0.999991
vn -0.000041 -0.004175 -0.999991
vn -0.000041 -0.004175 -0.999991
vn -0.000041 -0.004175 -0.999991
vn -0.000041 -0.004175 -0.999991
vn 0.000007 0.004138 0.999992
vn 0.000007 0.004138 0.999992
vn 0.000007 0.004138 0.999991
vn 0.000007 0.004138 0.999991
vn 0.000079 -0.004108 -0.999992
vn 0.000079 -0.004108 -0.999992
vn 0.000079 -0.004108 -0.999992
vn 0.000079 -0.004108 -0.999992
vn 0.000039 0.004126 0.999991
vn 0.000039 0.004126 0.999991
vn 0.000039 0.004126 0.999992
vn 0.000039 0.004126 0.999991
s 1
g Pillar_2 Post_Lamp
usemtl openPBRSurface3SG
f 163/422/483 164/423/484 334/443/485 335/442/486
f 164/423/484 165/424/487 333/444/488 334/443/485
f 165/424/487 166/425/489 332/421/490 333/444/488
f 166/425/489 167/211/491 331/420/492 332/421/490
f 167/211/491 168/213/493 330/445/494 331/420/492
f 168/213/493 169/215/495 329/446/496 330/445/494
f 169/215/495 170/217/497 328/447/498 329/446/496
f 170/217/497 171/219/499 327/448/500 328/447/498
f 171/219/499 172/221/501 326/449/502 327/448/500
f 172/221/501 173/223/503 325/433/504 326/449/502
f 173/223/503 174/225/505 344/432/506 325/433/504
f 174/225/505 175/227/507 343/434/508 344/432/506
f 175/227/507 176/229/509 342/435/510 343/434/508
f 176/229/509 177/231/511 341/453/512 342/435/510
f 177/452/511 178/426/513 340/437/514 341/436/512
f 178/426/513 179/427/515 339/438/516 340/437/514
f 179/427/515 180/428/517 338/439/518 339/438/516
f 180/428/517 181/429/519 337/440/520 338/439/518
f 181/429/519 182/431/521 336/441/522 337/440/520
f 182/431/521 163/422/483 335/442/486 336/441/522
s 2
f 164/423/523 163/422/524 203/430/525
f 165/424/526 164/423/523 203/430/525
f 166/425/527 165/424/526 203/430/525
f 167/211/528 166/425/527 203/430/525
f 168/213/529 167/211/528 203/238/525
f 169/215/530 168/213/529 203/238/525
f 170/217/531 169/215/530 203/238/525
f 171/219/532 170/217/531 203/238/525
f 172/221/533 171/219/532 203/238/525
f 173/223/534 172/221/533 203/450/525
f 174/225/535 173/223/534 203/450/525
f 175/227/536 174/225/535 203/450/525
f 176/229/537 175/227/536 203/450/525
f 177/231/538 176/229/537 203/450/525
f 178/426/539 177/452/538 203/451/525
f 179/427/540 178/426/539 203/451/525
f 180/428/541 179/427/540 203/451/525
f 181/429/542 180/428/541 203/451/525
f 182/431/543 181/429/542 203/451/525
f 163/422/524 182/431/543 203/430/525
s 3
f 183/239/544 184/240/545 204/475/546
f 184/240/545 185/242/547 204/475/546
f 185/242/547 186/243/548 204/475/546
f 186/243/548 187/244/549 204/475/546
f 187/465/549 188/245/550 204/471/546
f 188/245/550 189/246/551 204/471/546
f 189/246/551 190/247/552 204/471/546
f 190/247/552 191/248/553 204/471/546
f 191/248/553 192/249/554 204/471/546
f 192/469/554 193/250/555 204/467/546
f 193/250/555 194/251/556 204/467/546
f 194/251/556 195/252/557 204/467/546
f 195/252/557 196/253/558 204/467/546
f 196/253/558 197/254/559 204/467/546
f 197/459/559 198/255/560 204/241/546
f 198/255/560 199/256/561 204/241/546
f 199/256/561 200/257/562 204/241/546
f 200/257/562 201/258/563 204/241/546
f 201/258/563 202/259/564 204/241/546
f 202/473/564 183/239/544 204/475/546
s 4
f 206/260/565 205/261/566 285/262/567 286/263/568
f 207/264/569 206/260/565 286/263/568 287/265/570
f 208/266/571 207/264/569 287/265/570 288/466/572
f 209/268/573 208/266/571 288/267/572 289/269/574
f 210/270/575 209/268/573 289/269/574 290/271/576
f 211/272/577 210/270/575 290/271/576 291/273/578
f 212/274/579 211/272/577 291/273/578 292/275/580
f 213/276/581 212/274/579 292/275/580 293/474/582
f 214/278/583 213/276/581 293/277/582 294/279/584
f 215/280/585 214/278/583 294/279/584 295/281/586
f 216/282/587 215/280/585 295/281/586 296/283/588
f 217/284/589 216/282/587 296/283/588 297/285/590
f 218/463/591 217/284/589 297/285/590 298/460/592
f 219/288/593 218/286/591 298/287/592 299/289/594
f 220/290/595 219/288/593 299/289/594 300/291/596
f 221/292/597 220/290/595 300/291/596 301/293/598
f 222/294/599 221/292/597 301/293/598 302/295/600
f 223/296/601 222/294/599 302/295/600 303/470/602
f 224/298/603 223/296/601 303/297/602 304/299/604
f 205/261/566 224/298/603 304/299/604 285/262/567
s 5
f 246/300/605 245/301/606 247/302/607 248/303/608
f 249/304/609 246/300/605 248/303/608 250/305/610
f 251/306/611 249/304/609 250/305/610 252/307/612
f 253/308/613 251/306/611 252/307/612 254/309/614
f 255/310/615 253/308/613 254/309/614 256/311/616
f 257/312/617 255/310/615 256/311/616 258/313/618
f 259/314/619 257/312/617 258/313/618 260/315/620
f 261/316/621 259/314/619 260/315/620 262/317/622
f 263/318/623 261/316/621 262/317/622 264/319/624
f 265/320/625 263/318/623 264/319/624 266/321/626
f 267/322/627 265/320/625 266/321/626 268/323/628
f 269/324/629 267/322/627 268/323/628 270/325/630
f 271/461/631 269/324/629 270/325/630 272/462/632
f 273/328/633 271/326/631 272/327/632 274/329/634
f 275/330/635 273/328/633 274/329/634 276/331/636
f 277/332/637 275/330/635 276/331/636 278/333/638
f 279/334/639 277/332/637 278/333/638 280/335/640
f 281/336/641 279/334/639 280/335/640 282/337/642
f 283/338/643 281/336/641 282/337/642 284/339/644
f 245/301/606 283/338/643 284/339/644 247/302/607
s off
f 226/340/645 225/341/646 245/301/647 246/300/648
f 205/261/649 206/260/650 248/303/651 247/302/652
f 227/342/653 226/340/654 246/300/655 249/304/656
f 206/260/657 207/264/658 250/305/659 248/303/660
f 228/343/661 227/342/662 249/304/663 251/306/664
f 207/264/665 208/266/666 252/307/667 250/305/668
f 229/344/669 228/343/670 251/306/671 253/308/672
f 208/266/673 209/268/674 254/309/675 252/307/676
f 230/345/677 229/344/678 253/308/679 255/310/680
f 209/268/681 210/270/682 256/311/683 254/309/684
f 231/346/685 230/345/686 255/310/687 257/312/688
f 210/270/689 211/272/690 258/313/691 256/311/692
f 232/347/693 231/346/694 257/312/695 259/314/696
f 211/272/697 212/274/698 260/315/699 258/313/700
f 233/348/701 232/347/702 259/314/703 261/316/704
f 212/274/705 213/276/706 262/317/707 260/315/708
f 234/349/709 233/348/710 261/316/711 263/318/712
f 213/276/713 214/278/714 264/319/715 262/317/716
f 235/350/717 234/349/718 263/318/719 265/320/720
f 214/278/721 215/280/722 266/321/723 264/319/724
f 236/351/725 235/350/726 265/320/727 267/322/728
f 215/280/729 216/282/730 268/323/731 266/321/732
f 237/352/733 236/351/734 267/322/735 269/324/736
f 216/282/737 217/284/738 270/325/739 268/323/740
f 238/456/741 237/352/742 269/324/743 271/461/744
f 217/284/745 218/463/746 272/462/747 270/325/748
f 239/354/749 238/353/750 271/326/751 273/328/752
f 218/286/753 219/288/754 274/329/755 272/327/756
f 240/355/757 239/354/758 273/328/759 275/330/760
f 219/288/761 220/290/762 276/331/763 274/329/764
f 241/356/765 240/355/766 275/330/767 277/332/768
f 220/290/769 221/292/770 278/333/771 276/331/772
f 242/357/773 241/356/774 277/332/775 279/334/776
f 221/292/777 222/294/778 280/335/779 278/333/780
f 243/358/781 242/357/782 279/334/783 281/336/784
f 222/294/785 223/296/786 282/337/787 280/335/788
f 244/359/789 243/358/790 281/336/791 283/338/792
f 223/296/793 224/298/794 284/339/795 282/337/796
f 225/341/797 244/359/798 283/338/799 245/301/800
f 224/298/801 205/261/802 247/302/803 284/339/804
s 4
f 286/263/568 285/262/567 305/360/805 306/361/806
f 287/265/570 286/263/568 306/361/806 307/362/807
f 288/466/572 287/265/570 307/362/807 308/464/808
f 289/269/574 288/267/572 308/363/808 309/364/809
f 290/271/576 289/269/574 309/364/809 310/365/810
f 291/273/578 290/271/576 310/365/810 311/366/811
f 292/275/580 291/273/578 311/366/811 312/367/812
f 293/474/582 292/275/580 312/367/812 313/472/813
f 294/279/584 293/277/582 313/368/813 314/369/814
f 295/281/586 294/279/584 314/369/814 315/370/815
f 296/283/588 295/281/586 315/370/815 316/371/816
f 297/285/590 296/283/588 316/371/816 317/372/817
f 298/460/592 297/285/590 317/372/817 318/458/818
f 299/289/594 298/287/592 318/373/818 319/374/819
f 300/291/596 299/289/594 319/374/819 320/375/820
f 301/293/598 300/291/596 320/375/820 321/376/821
f 302/295/600 301/293/598 321/376/821 322/377/822
f 303/470/602 302/295/600 322/377/822 323/468/823
f 304/299/604 303/297/602 323/378/823 324/379/824
f 285/262/567 304/299/604 324/379/824 305/360/805
f 306/361/806 305/360/805 190/247/825 189/246/826
f 307/362/807 306/361/806 189/246/826 188/245/827
f 308/464/808 307/362/807 188/245/827 187/465/828
f 309/364/809 308/363/808 187/244/828 186/243/829
f 310/365/810 309/364/809 186/243/829 185/242/830
f 311/366/811 310/365/810 185/242/830 184/240/831
f 312/367/812 311/366/811 184/240/831 183/239/832
f 313/472/813 312/367/812 183/239/832 202/473/833
f 314/369/814 313/368/813 202/259/833 201/258/834
f 315/370/815 314/369/814 201/258/834 200/257/835
f 316/371/816 315/370/815 200/257/835 199/256/836
f 317/372/817 316/371/816 199/256/836 198/255/837
f 318/458/818 317/372/817 198/255/837 197/459/838
f 319/374/819 318/373/818 197/254/838 196/253/839
f 320/375/820 319/374/819 196/253/839 195/252/840
f 321/376/821 320/375/820 195/252/840 194/251/841
f 322/377/822 321/376/821 194/251/841 193/250/842
f 323/468/823 322/377/822 193/250/842 192/469/843
f 324/379/824 323/378/823 192/249/843 191/248/844
f 305/360/805 324/379/824 191/248/844 190/247/825
s 6
f 346/380/845 345/381/846 347/382/847 348/383/848
f 349/384/849 346/380/845 348/383/848 350/385/850
f 351/386/851 349/384/849 350/385/850 352/387/852
f 353/388/853 351/386/851 352/387/852 354/389/854
f 355/390/855 353/388/853 354/389/854 356/391/856
f 357/392/857 355/390/855 356/391/856 358/393/858
f 359/394/859 357/392/857 358/393/858 360/395/860
f 361/396/861 359/394/859 360/395/860 362/397/862
f 363/398/863 361/396/861 362/397/862 364/399/864
f 365/400/865 363/398/863 364/399/864 366/401/866
f 367/402/867 365/400/865 366/401/866 368/403/868
f 369/404/869 367/402/867 368/403/868 370/405/870
f 371/406/871 369/404/869 370/405/870 372/407/872
f 373/408/873 371/406/871 372/407/872 374/409/874
f 375/410/875 373/408/873 374/409/874 376/411/876
f 377/454/877 375/410/875 376/411/876 378/455/878
f 379/414/879 377/412/877 378/413/878 380/415/880
f 381/416/881 379/414/879 380/415/880 382/417/882
f 383/418/883 381/416/881 382/417/882 384/419/884
f 345/381/846 383/418/883 384/419/884 347/382/847
s off
f 326/222/885 325/224/886 345/381/887 346/380/888
f 242/357/889 243/358/890 348/383/891 347/382/892
f 327/220/893 326/222/894 346/380/895 349/384/896
f 243/358/897 244/359/898 350/385/899 348/383/900
f 328/218/901 327/220/902 349/384/903 351/386/904
f 244/359/905 225/341/906 352/387/907 350/385/908
f 329/216/909 328/218/910 351/386/911 353/388/912
f 225/341/913 226/340/914 354/389/915 352/387/916
f 330/214/917 329/216/918 353/388/919 355/390/920
f 226/340/921 227/342/922 356/391/923 354/389/924
f 331/212/925 330/214/926 355/390/927 357/392/928
f 227/342/929 228/343/930 358/393/931 356/391/932
f 332/210/933 331/212/934 357/392/935 359/394/936
f 228/343/937 229/344/938 360/395/939 358/393/940
f 333/209/941 332/210/942 359/394/943 361/396/944
f 229/344/945 230/345/946 362/397/947 360/395/948
f 334/207/949 333/209/950 361/396/951 363/398/952
f 230/345/953 231/346/954 364/399/955 362/397/956
f 335/208/957 334/207/958 363/398/959 365/400/960
f 231/346/961 232/347/962 366/401/963 364/399/964
f 336/237/965 335/208/966 365/400/967 367/402/968
f 232/347/969 233/348/970 368/403/971 366/401/972
f 337/236/973 336/237/974 367/402/975 369/404/976
f 233/348/977 234/349/978 370/405/979 368/403/980
f 338/235/981 337/236/982 369/404/983 371/406/984
f 234/349/985 235/350/986 372/407/987 370/405/988
f 339/234/989 338/235/990 371/406/991 373/408/992
f 235/350/993 236/351/994 374/409/995 372/407/996
f 340/233/997 339/234/998 373/408/999 375/410/1000
f 236/351/1001 237/352/1002 376/411/1003 374/409/1004
f 341/232/1005 340/233/1006 375/410/1007 377/454/1008
f 237/352/1009 238/456/1010 378/455/1011 376/411/1012
f 342/230/1013 341/457/1014 377/412/1015 379/414/1016
f 238/353/1017 239/354/1018 380/415/1019 378/413/1020
f 343/228/1021 342/230/1022 379/414/1023 381/416/1024
f 239/354/1025 240/355/1026 382/417/1027 380/415/1028
f 344/226/1029 343/228/1030 381/416/1031 383/418/1032
f 240/355/1033 241/356/1034 384/419/1035 382/417/1036
f 325/224/1037 344/226/1038 383/418/1039 345/381/1040
f 241/356/1041 242/357/1042 347/382/1043 384/419/1044
g default
v 17.491377 371.644409 -190.072617
v 17.485933 372.572693 -191.894501
v 17.477457 374.018524 -193.340347
v 17.466774 375.840363 -194.268646
v 17.454933 377.859894 -194.588516
v 17.443092 379.879425 -194.268646
v 17.432411 381.701263 -193.340347
v 17.423933 383.147095 -191.894501
v 17.418489 384.075378 -190.072617
v 17.416615 384.395264 -188.053055
v 17.418489 384.075378 -186.033493
v 17.423933 383.147095 -184.211609
v 17.432411 381.701263 -182.765762
v 17.443092 379.879425 -181.837463
v 17.454933 377.859894 -181.517609
v 17.466774 375.840363 -181.837479
v 17.477457 374.018524 -182.765762
v 17.485933 372.572693 -184.211609
v 17.491377 371.644409 -186.033493
v 17.493252 371.324554 -188.053055
v 166.551712 372.518433 -190.072617
v 166.546295 373.446655 -191.894501
v 166.537811 374.892487 -193.340347
v 166.527145 376.714355 -194.268646
v 166.515289 378.733887 -194.588516
v 166.503448 380.753448 -194.268646
v 166.492783 382.575287 -193.340347
v 166.484299 384.021118 -191.894501
v 166.478851 384.949341 -190.072617
v 166.476959 385.269226 -188.053055
v 166.478851 384.949341 -186.033493
v 166.484299 384.021118 -184.211609
v 166.492783 382.575287 -182.765762
v 166.503448 380.753448 -181.837463
v 166.515289 378.733887 -181.517609
v 166.527145 376.714355 -181.837479
v 166.537811 374.892487 -182.765762
v 166.546295 373.446686 -184.211609
v 166.551727 372.518433 -186.033493
v 166.553604 372.198547 -188.053055
v 17.454933 377.859894 -188.053055
v 166.515289 378.733887 -188.053055
v 93.418549 365.877594 -181.837463
v 93.407883 367.699463 -182.765762
v 93.399384 369.145264 -184.211609
v 93.393951 370.073517 -186.033493
v 93.392075 370.393402 -188.053055
v 93.393951 370.073517 -190.072617
v 93.399384 369.145264 -191.894501
v 93.407867 367.699463 -193.340347
v 93.418549 365.877594 -194.268646
v 93.430389 363.858032 -194.588516
v 93.442230 361.838531 -194.268646
v 93.452911 360.016663 -193.340347
v 93.461395 358.570831 -191.894501
v 93.466843 357.642578 -190.072617
v 93.468719 357.322723 -188.053055
v 93.466843 357.642578 -186.033493
v 93.461380 358.570862 -184.211609
v 93.452911 360.016663 -182.765762
v 93.442230 361.838531 -181.837479
v 93.430389 363.858032 -181.517609
vt 0.191020 0.571997
vt 0.186243 0.571625
vt 0.181585 0.572747
vt 0.177502 0.575255
vt 0.174393 0.578901
vt 0.172563 0.583329
vt 0.172192 0.588106
vt 0.173314 0.592764
vt 0.175821 0.596847
vt 0.179467 0.599956
vt 0.183896 0.601786
vt 0.188673 0.602157
vt 0.193331 0.601035
vt 0.197414 0.598527
vt 0.200522 0.594881
vt 0.202352 0.590453
vt 0.202724 0.585676
vt 0.201601 0.581018
vt 0.199094 0.576935
vt 0.195448 0.573826
vt 0.136148 0.607285
vt 0.140993 0.606891
vt 0.145804 0.606272
vt 0.150578 0.605486
vt 0.155323 0.604609
vt 0.160056 0.603725
vt 0.164794 0.602919
vt 0.169547 0.602271
vt 0.174320 0.601842
vt 0.179107 0.601674
vt 0.193432 0.602749
vt 0.198178 0.603498
vt 0.202919 0.604326
vt 0.207674 0.605147
vt 0.212455 0.605876
vt 0.217272 0.606437
vt 0.222120 0.606774
vt 0.226987 0.606848
vt 0.231852 0.606649
vt 0.138187 0.961437
vt 0.143035 0.961788
vt 0.147849 0.962372
vt 0.152626 0.963129
vt 0.157375 0.963982
vt 0.162110 0.964842
vt 0.166849 0.965621
vt 0.171604 0.966238
vt 0.176378 0.966627
vt 0.181164 0.966746
vt 0.185948 0.966577
vt 0.190716 0.966138
vt 0.195463 0.965471
vt 0.200192 0.964642
vt 0.204917 0.963732
vt 0.209654 0.962829
vt 0.214421 0.962022
vt 0.219228 0.961388
vt 0.224071 0.960986
vt 0.228937 0.960855
vt 0.233803 0.961007
vt 0.201487 0.991194
vt 0.203935 0.987078
vt 0.204991 0.982408
vt 0.204551 0.977639
vt 0.202660 0.973240
vt 0.199502 0.969641
vt 0.195386 0.967193
vt 0.181548 0.968468
vt 0.177949 0.971626
vt 0.175501 0.975742
vt 0.174446 0.980412
vt 0.174885 0.985180
vt 0.176776 0.989580
vt 0.179934 0.993179
vt 0.184050 0.995627
vt 0.188720 0.996682
vt 0.193489 0.996243
vt 0.197888 0.994352
vt 0.187458 0.586891
vt 0.189718 0.981410
vt 0.199680 0.787253
vt 0.194835 0.787288
vt 0.189949 0.787322
vt 0.185025 0.787354
vt 0.180079 0.787383
vt 0.175132 0.787410
vt 0.170208 0.787434
vt 0.165322 0.787456
vt 0.160477 0.787475
vt 0.155664 0.787493
vt 0.150863 0.787512
vt 0.146054 0.787531
vt 0.141224 0.787553
vt 0.233518 0.787029
vt 0.136372 0.787578
vt 0.228652 0.787054
vt 0.223785 0.787082
vt 0.218932 0.787113
vt 0.214102 0.787146
vt 0.209294 0.787181
vt 0.204493 0.787217
vn -0.172349 -0.935186 -0.309393
vn -0.146380 -0.794281 -0.589652
vn 0.004762 -0.815619 -0.578570
vn 0.005534 -0.952869 -0.303332
vn -0.105567 -0.572822 -0.812853
vn 0.003541 -0.600298 -0.799769
vn -0.053816 -0.292010 -0.954900
vn 0.001967 -0.326299 -0.945265
vn 0.003455 0.018749 -0.999818
vn 0.000177 -0.019060 -0.999818
vn 0.060029 0.325728 -0.943556
vn -0.001659 0.291831 -0.956469
vn 0.110000 0.596868 -0.794763
vn -0.003354 0.575393 -0.817870
vn 0.148680 0.806745 -0.571889
vn -0.004724 0.802495 -0.596640
vn 0.172975 0.938580 -0.298577
vn -0.005618 0.949244 -0.314491
vn 0.181242 0.983439 0.000000
vn -0.005926 0.999983 -0.000000
vn 0.172975 0.938580 0.298577
vn -0.005617 0.949244 0.314491
vn 0.148678 0.806745 0.571889
vn -0.004725 0.802495 0.596640
vn 0.109999 0.596868 0.794763
vn -0.003355 0.575393 0.817870
vn 0.060029 0.325725 0.943557
vn -0.001659 0.291827 0.956470
vn 0.003454 0.018745 0.999818
vn 0.000178 -0.019064 0.999818
vn -0.053815 -0.292007 0.954901
vn 0.001967 -0.326295 0.945266
vn -0.105567 -0.572820 0.812855
vn 0.003540 -0.600299 0.799768
vn -0.146382 -0.794281 0.589653
vn 0.004761 -0.815618 0.578571
vn -0.172349 -0.935185 0.309393
vn 0.005534 -0.952867 0.303337
vn -0.181242 -0.983438 0.000000
vn 0.005797 -0.999983 0.000000
vn -0.999983 -0.005864 -0.000000
vn -0.999983 -0.005864 0.000000
vn -0.999983 -0.005863 -0.000000
vn -0.999983 -0.005862 -0.000000
vn -0.999983 -0.005863 0.000000
vn -0.999983 -0.005864 0.000000
vn -0.999983 -0.005863 0.000000
vn -0.999983 -0.005862 -0.000000
vn -0.999983 -0.005864 -0.000000
vn -0.999983 -0.005864 0.000000
vn -0.999983 -0.005862 0.000000
vn -0.999983 -0.005864 -0.000000
vn -0.999983 -0.005864 0.000000
vn -0.999983 -0.005862 0.000000
vn -0.999983 -0.005863 -0.000000
vn -0.999983 -0.005864 0.000000
vn -0.999983 -0.005863 -0.000000
vn -0.999983 -0.005862 0.000000
vn -0.999983 -0.005864 -0.000000
vn -0.999983 -0.005864 -0.000000
vn -0.999983 -0.005863 0.000000
vn 0.999983 0.005859 0.000001
vn 0.999983 0.005866 0.000004
vn 0.999983 0.005863 -0.000000
vn 0.999983 0.005864 0.000001
vn 0.999983 0.005859 0.000002
vn 0.999983 0.005864 0.000000
vn 0.999983 0.005864 -0.000001
vn 0.999983 0.005864 0.000001
vn 0.999983 0.005859 0.000003
vn 0.999983 0.005861 0.000005
vn 0.999983 0.005868 0.000000
vn 0.999983 0.005864 -0.000005
vn 0.999983 0.005857 -0.000003
vn 0.999983 0.005864 -0.000001
vn 0.999983 0.005868 0.000001
vn 0.999983 0.005864 0.000000
vn 0.999983 0.005864 -0.000002
vn 0.999983 0.005868 -0.000001
vn 0.999983 0.005864 -0.000001
vn 0.999983 0.005859 -0.000002
vn 0.999983 0.005861 -0.000004
vn -0.066264 0.325552 0.943200
vn -0.121242 0.595657 0.794036
vn -0.163736 0.804433 0.571032
vn -0.190390 0.935388 0.297994
vn -0.199452 0.979908 -0.000000
vn -0.190391 0.935388 -0.297994
vn -0.163735 0.804433 -0.571032
vn -0.121241 0.595657 -0.794036
vn -0.066264 0.325555 -0.943199
vn -0.003945 0.019384 -0.999804
vn 0.059171 -0.290706 -0.954981
vn 0.116190 -0.570835 -0.812802
vn 0.161120 -0.791578 -0.589444
vn 0.189680 -0.931894 -0.309186
vn 0.199452 -0.979908 0.000000
vn 0.189678 -0.931890 0.309198
vn 0.161120 -0.791579 0.589442
vn 0.116189 -0.570838 0.812800
vn 0.059171 -0.290703 0.954982
vn -0.003944 0.019380 0.999804
s 1
g Pillar_2 Post_Connecting
usemtl openPBRSurface3SG
f 385/496/1045 386/497/1046 439/568/1047 440/570/1048
f 386/497/1046 387/498/1049 438/567/1050 439/568/1047
f 387/498/1049 388/499/1051 437/566/1052 438/567/1050
f 388/499/1051 389/500/1053 436/565/1054 437/566/1052
f 389/500/1053 390/501/1055 435/564/1056 436/565/1054
f 390/501/1055 391/502/1057 434/563/1058 435/564/1056
f 391/502/1057 392/503/1059 433/562/1060 434/563/1058
f 392/503/1059 393/504/1061 432/561/1062 433/562/1060
f 393/504/1061 394/505/1063 431/560/1064 432/561/1062
f 394/505/1063 395/486/1065 430/559/1066 431/560/1064
f 395/486/1065 396/487/1067 429/558/1068 430/559/1066
f 396/487/1067 397/506/1069 428/557/1070 429/558/1068
f 397/506/1069 398/507/1071 427/556/1072 428/557/1070
f 398/507/1071 399/508/1073 446/576/1074 427/556/1072
f 399/508/1073 400/509/1075 445/575/1076 446/576/1074
f 400/509/1075 401/510/1077 444/574/1078 445/575/1076
f 401/510/1077 402/511/1079 443/573/1080 444/574/1078
f 402/511/1079 403/512/1081 442/572/1082 443/573/1080
f 403/512/1081 404/513/1083 441/571/1084 442/572/1082
f 404/513/1083 385/514/1045 440/569/1048 441/571/1084
s 2
f 386/477/1085 385/476/1086 425/554/1087
f 387/478/1088 386/477/1085 425/554/1087
f 388/479/1089 387/478/1088 425/554/1087
f 389/480/1090 388/479/1089 425/554/1087
f 390/481/1091 389/480/1090 425/554/1087
f 391/482/1092 390/481/1091 425/554/1087
f 392/483/1093 391/482/1092 425/554/1087
f 393/484/1094 392/483/1093 425/554/1087
f 394/485/1095 393/484/1094 425/554/1087
f 395/486/1096 394/485/1095 425/554/1087
f 396/487/1097 395/486/1096 425/554/1087
f 397/488/1098 396/487/1097 425/554/1087
f 398/489/1099 397/488/1098 425/554/1087
f 399/490/1100 398/489/1099 425/554/1087
f 400/491/1101 399/490/1100 425/554/1087
f 401/492/1102 400/491/1101 425/554/1087
f 402/493/1103 401/492/1102 425/554/1087
f 403/494/1104 402/493/1103 425/554/1087
f 404/495/1105 403/494/1104 425/554/1087
f 385/476/1086 404/495/1105 425/554/1087
s 3
f 405/552/1106 406/551/1107 426/555/1108
f 406/551/1107 407/550/1109 426/555/1108
f 407/550/1109 408/549/1110 426/555/1108
f 408/549/1110 409/548/1111 426/555/1108
f 409/548/1111 410/547/1112 426/555/1108
f 410/547/1112 411/546/1113 426/555/1108
f 411/546/1113 412/545/1114 426/555/1108
f 412/545/1114 413/544/1115 426/555/1108
f 413/544/1115 414/543/1116 426/555/1108
f 414/543/1116 415/525/1117 426/555/1108
f 415/525/1117 416/526/1118 426/555/1108
f 416/526/1118 417/542/1119 426/555/1108
f 417/542/1119 418/541/1120 426/555/1108
f 418/541/1120 419/540/1121 426/555/1108
f 419/540/1121 420/539/1122 426/555/1108
f 420/539/1122 421/538/1123 426/555/1108
f 421/538/1123 422/537/1124 426/555/1108
f 422/537/1124 423/536/1125 426/555/1108
f 423/536/1125 424/553/1126 426/555/1108
f 424/553/1126 405/552/1106 426/555/1108
s 1
f 428/557/1070 427/556/1072 418/528/1127 417/527/1128
f 429/558/1068 428/557/1070 417/527/1128 416/526/1129
f 430/559/1066 429/558/1068 416/526/1129 415/525/1130
f 431/560/1064 430/559/1066 415/525/1130 414/524/1131
f 432/561/1062 431/560/1064 414/524/1131 413/523/1132
f 433/562/1060 432/561/1062 413/523/1132 412/522/1133
f 434/563/1058 433/562/1060 412/522/1133 411/521/1134
f 435/564/1056 434/563/1058 411/521/1134 410/520/1135
f 436/565/1054 435/564/1056 410/520/1135 409/519/1136
f 437/566/1052 436/565/1054 409/519/1136 408/518/1137
f 438/567/1050 437/566/1052 408/518/1137 407/517/1138
f 439/568/1047 438/567/1050 407/517/1138 406/516/1139
f 440/570/1048 439/568/1047 406/516/1139 405/515/1140
f 441/571/1084 440/569/1048 405/535/1140 424/534/1141
f 442/572/1082 441/571/1084 424/534/1141 423/533/1142
f 443/573/1080 442/572/1082 423/533/1142 422/532/1143
f 444/574/1078 443/573/1080 422/532/1143 421/531/1144
f 445/575/1076 444/574/1078 421/531/1144 420/530/1145
f 446/576/1074 445/575/1076 420/530/1145 419/529/1146
f 427/556/1072 446/576/1074 419/529/1146 418/528/1127
