# This file uses centimeters as units for non-parametric coordinates.

mtllib Pillar_1_001.mtl
g default
v -129.650391 -0.000031 -193.365372
v -132.092178 -0.000031 -198.157669
v -135.895386 -0.000031 -201.960861
v -140.687683 -0.000031 -204.402664
v -146.000000 -0.000031 -205.244049
v -151.312317 -0.000031 -204.402664
v -156.104599 -0.000031 -201.960861
v -159.907822 -0.000031 -198.157669
v -162.349609 -0.000031 -193.365356
v -163.190994 -0.000031 -188.053055
v -162.349609 -0.000031 -182.740738
v -159.907822 -0.000031 -177.948441
v -156.104599 -0.000031 -174.145248
v -151.312317 -0.000031 -171.703445
v -146.000000 -0.000031 -170.862061
v -140.687683 -0.000031 -171.703445
v -135.895401 -0.000031 -174.145248
v -132.092194 -0.000031 -177.948441
v -129.650406 -0.000031 -182.740753
v -128.809021 -0.000031 -188.053055
v -129.318207 460.964355 -193.473297
v -131.809616 460.964355 -198.362961
v -135.690094 460.964355 -202.243423
v -140.579758 460.964355 -204.734833
v -146.000000 460.964355 -205.593307
v -151.420242 460.964355 -204.734833
v -156.309906 460.964355 -202.243423
v -160.190369 460.964355 -198.362961
v -162.681778 460.964355 -193.473282
v -163.540253 460.964355 -188.053055
v -162.681778 460.964355 -182.632812
v -160.190369 460.964355 -177.743149
v -156.309906 460.964355 -173.862701
v -151.420242 460.964355 -171.371292
v -146.000000 460.964355 -170.512802
v -140.579758 460.964355 -171.371292
v -135.690094 460.964355 -173.862701
v -131.809631 460.964355 -177.743149
v -129.318222 460.964355 -182.632812
v -128.459747 460.964355 -188.053055
v -146.000000 -0.000031 -188.053055
v -146.000000 460.964355 -188.053055
v -155.013596 40.376480 -181.504303
v -156.596100 40.376480 -184.610168
v -157.141403 40.376480 -188.053055
v -156.596100 40.376480 -191.495941
v -155.013596 40.376480 -194.601807
v -152.548752 40.376480 -197.066650
v -149.442886 40.376480 -198.649170
v -146.000000 40.376480 -199.194458
v -142.557114 40.376480 -198.649170
v -139.451233 40.376480 -197.066650
v -136.986404 40.376480 -194.601807
v -135.403885 40.376480 -191.495941
v -134.858597 40.376480 -188.053055
v -135.403900 40.376480 -184.610168
v -136.986404 40.376480 -181.504303
v -139.451248 40.376480 -179.039459
v -142.557114 40.376480 -177.456940
v -146.000000 40.376480 -176.911652
v -149.442886 40.376480 -177.456940
v -152.548752 40.376480 -179.039459
v -152.548752 420.669617 -179.039459
v -155.013596 420.669617 -181.504303
v -156.596100 420.669617 -184.610168
v -157.141403 420.669617 -188.053055
v -156.596100 420.669617 -191.495941
v -155.013596 420.669617 -194.601807
v -152.548752 420.669617 -197.066650
v -149.442886 420.669617 -198.649170
v -146.000000 420.669617 -199.194458
v -142.557114 420.669617 -198.649170
v -139.451233 420.669617 -197.066650
v -136.986404 420.669617 -194.601807
v -135.403885 420.669617 -191.495941
v -134.858597 420.669617 -188.053055
v -135.403900 420.669617 -184.610168
v -136.986404 420.669617 -181.504303
v -139.451248 420.669617 -179.039459
v -142.557114 420.669617 -177.456940
v -146.000000 420.669617 -176.911652
v -149.442886 420.669617 -177.456940
v -154.472107 420.669617 -176.392197
v -157.660843 420.669617 -179.580948
v -159.337891 460.964355 -169.695038
v -164.358032 460.964355 -174.715164
v -159.708145 420.669617 -183.598999
v -167.581146 460.964355 -181.040909
v -160.413605 420.669617 -188.053055
v -168.691788 460.964355 -188.053055
v -159.708145 420.669617 -192.507111
v -167.581146 460.964355 -195.065201
v -157.660843 420.669617 -196.525162
v -164.358032 460.964355 -201.390945
v -154.472107 420.669617 -199.713913
v -159.337891 460.964355 -206.411072
v -150.454056 420.669617 -201.761215
v -153.012146 460.964355 -209.634216
v -146.000000 420.669617 -202.466660
v -146.000000 460.964355 -210.744827
v -141.545944 420.669617 -201.761215
v -138.987854 460.964355 -209.634216
v -137.527893 420.669617 -199.713913
v -132.662109 460.964355 -206.411087
v -134.339127 420.669617 -196.525162
v -127.641960 460.964355 -201.390945
v -132.291840 420.669617 -192.507111
v -124.418831 460.964355 -195.065201
v -131.586395 420.669617 -188.053055
v -123.308243 460.964355 -188.053055
v -132.291855 420.669617 -183.598999
v -124.418854 460.964355 -181.040909
v -134.339157 420.669617 -179.580948
v -127.641975 460.964355 -174.715164
v -137.527893 420.669617 -176.392197
v -132.662109 460.964355 -169.695038
v -141.545944 420.669617 -174.344910
v -138.987854 460.964355 -166.471893
v -146.000000 420.669617 -173.639450
v -146.000000 460.964355 -165.361282
v -150.454056 420.669617 -174.344910
v -153.012146 460.964355 -166.471893
v -124.780190 -0.000031 -194.947784
v -127.949348 -0.000031 -201.167618
v -134.301453 40.376480 -196.552551
v -132.247543 40.376480 -192.521500
v -132.885437 -0.000031 -206.103699
v -137.500504 40.376480 -199.751602
v -139.105270 -0.000031 -209.272858
v -141.531555 40.376480 -201.805527
v -146.000000 -0.000031 -210.364883
v -146.000000 40.376480 -202.513245
v -152.894730 -0.000031 -209.272858
v -150.468445 40.376480 -201.805527
v -159.114548 -0.000031 -206.103699
v -154.499496 40.376480 -199.751602
v -164.050659 -0.000031 -201.167603
v -157.698547 40.376480 -196.552551
v -167.219818 -0.000031 -194.947784
v -159.752457 40.376480 -192.521500
v -168.311813 -0.000031 -188.053055
v -160.460190 40.376480 -188.053055
v -167.219818 -0.000031 -181.158325
v -159.752457 40.376480 -183.584610
v -164.050659 -0.000031 -174.938492
v -157.698547 40.376480 -179.553558
v -159.114548 -0.000031 -170.002411
v -154.499481 40.376480 -176.354507
v -152.894730 -0.000031 -166.833252
v -150.468445 40.376480 -174.300598
v -146.000000 -0.000031 -165.741241
v -146.000000 40.376480 -173.592865
v -139.105270 -0.000031 -166.833252
v -141.531555 40.376480 -174.300598
v -132.885452 -0.000031 -170.002411
v -137.500519 40.376480 -176.354507
v -127.949348 -0.000031 -174.938492
v -134.301453 40.376480 -179.553558
v -124.780212 -0.000031 -181.158325
v -132.247559 40.376480 -183.584610
v -123.688179 -0.000031 -188.053055
v -131.539810 40.376480 -188.053055
vt 0.860660 0.009534
vt 0.851143 0.012850
vt 0.843118 0.018943
vt 0.837373 0.027230
vt 0.834479 0.036891
vt 0.834718 0.046962
vt 0.838074 0.056484
vt 0.844226 0.064496
vt 0.852557 0.070191
vt 0.862240 0.073021
vt 0.872017 0.072833
vt 0.881495 0.069601
vt 0.889521 0.063585
vt 0.895297 0.055331
vt 0.898237 0.045677
vt 0.898049 0.035599
vt 0.894751 0.026060
vt 0.888664 0.018009
vt 0.880388 0.012250
vt 0.870738 0.009327
vt 0.774456 0.089135
vt 0.784137 0.086822
vt 0.793815 0.083545
vt 0.803785 0.080620
vt 0.813787 0.078277
vt 0.823726 0.076413
vt 0.833594 0.075011
vt 0.843331 0.074040
vt 0.852898 0.073384
vt 0.881429 0.072799
vt 0.890948 0.073089
vt 0.900556 0.073633
vt 0.910291 0.074488
vt 0.920145 0.075756
vt 0.930076 0.077478
vt 0.940072 0.079695
vt 0.950034 0.082497
vt 0.959714 0.085666
vt 0.969367 0.087998
vt 0.784964 0.907924
vt 0.794739 0.910492
vt 0.804539 0.913876
vt 0.814633 0.916852
vt 0.824764 0.919201
vt 0.834826 0.921023
vt 0.844808 0.922365
vt 0.854666 0.923271
vt 0.864391 0.923852
vt 0.874027 0.924164
vt 0.883551 0.924135
vt 0.893454 0.923943
vt 0.902908 0.923566
vt 0.912596 0.922878
vt 0.922459 0.921858
vt 0.932458 0.920384
vt 0.942530 0.918420
vt 0.952667 0.915945
vt 0.962771 0.912849
vt 0.972572 0.909361
vt 0.982379 0.906818
vt 0.912837 0.978732
vt 0.918657 0.970337
vt 0.921589 0.960548
vt 0.921345 0.950342
vt 0.917944 0.940694
vt 0.911709 0.932577
vt 0.903267 0.926809
vt 0.873947 0.927411
vt 0.865816 0.933509
vt 0.859964 0.941874
vt 0.856987 0.951657
vt 0.857180 0.961870
vt 0.860525 0.971535
vt 0.866695 0.979688
vt 0.875080 0.985519
vt 0.884857 0.988479
vt 0.895067 0.988267
vt 0.904707 0.984904
vt 0.866385 0.041251
vt 0.889261 0.956134
vt 0.879092 0.152685
vt 0.872602 0.152753
vt 0.866111 0.152865
vt 0.859626 0.153018
vt 0.853153 0.153211
vt 0.846696 0.153443
vt 0.840262 0.153708
vt 0.833857 0.153998
vt 0.827487 0.154305
vt 0.821154 0.154611
vt 0.814861 0.154891
vt 0.936568 0.153266
vt 0.808608 0.155104
vt 0.930317 0.153244
vt 0.924029 0.153153
vt 0.917700 0.153032
vt 0.911333 0.152910
vt 0.904932 0.152802
vt 0.898502 0.152720
vt 0.892048 0.152671
vt 0.885575 0.152657
vt 0.895970 0.843837
vt 0.889480 0.843991
vt 0.882987 0.844103
vt 0.876492 0.844171
vt 0.870005 0.844198
vt 0.863529 0.844182
vt 0.857073 0.844130
vt 0.850641 0.844043
vt 0.844240 0.843928
vt 0.837874 0.843799
vt 0.831548 0.843670
vt 0.825261 0.843571
vt 0.946988 0.841711
vt 0.819013 0.843546
vt 0.940737 0.841927
vt 0.934447 0.842215
vt 0.928116 0.842528
vt 0.921746 0.842842
vt 0.915341 0.843140
vt 0.908906 0.843408
vt 0.902446 0.843643
vt 0.889815 0.851038
vt 0.896580 0.850819
vt 0.902389 0.915402
vt 0.892996 0.915862
vt 0.883050 0.851171
vt 0.883578 0.916064
vt 0.876282 0.851219
vt 0.874196 0.916019
vt 0.869520 0.851169
vt 0.864786 0.915687
vt 0.862772 0.851018
vt 0.855320 0.915057
vt 0.856047 0.850763
vt 0.845780 0.914082
vt 0.849363 0.850348
vt 0.836166 0.912700
vt 0.842737 0.849735
vt 0.826486 0.910842
vt 0.836204 0.848827
vt 0.816756 0.908436
vt 0.829816 0.847469
vt 0.806984 0.905419
vt 0.823655 0.845401
vt 0.797143 0.901695
vt 0.817282 0.843930
vt 0.787054 0.897053
vt 0.942542 0.843908
vt 0.949120 0.841865
vt 0.980265 0.895878
vt 0.970115 0.900592
vt 0.936346 0.846120
vt 0.960239 0.904414
vt 0.929935 0.847631
vt 0.950444 0.907540
vt 0.923388 0.848700
vt 0.940697 0.910061
vt 0.916752 0.849484
vt 0.931005 0.912044
vt 0.910059 0.850064
vt 0.921382 0.913553
vt 0.903331 0.850493
vt 0.911842 0.914651
vt 0.776376 0.100025
vt 0.786441 0.095585
vt 0.813027 0.152752
vt 0.804283 0.154604
vt 0.796223 0.091977
vt 0.819265 0.150599
vt 0.805913 0.089017
vt 0.825696 0.149131
vt 0.815547 0.086632
vt 0.832250 0.148084
vt 0.825123 0.084746
vt 0.838885 0.147323
vt 0.834631 0.083306
vt 0.845572 0.146759
vt 0.844059 0.082262
vt 0.852290 0.146331
vt 0.853403 0.081544
vt 0.859032 0.146018
vt 0.862687 0.081096
vt 0.865783 0.145800
vt 0.871996 0.080902
vt 0.872537 0.145665
vt 0.881271 0.080937
vt 0.879293 0.145619
vt 0.890574 0.081251
vt 0.886042 0.145666
vt 0.899932 0.081845
vt 0.892780 0.145804
vt 0.909361 0.082764
vt 0.899496 0.146058
vt 0.918862 0.084075
vt 0.906174 0.146455
vt 0.928429 0.085834
vt 0.912800 0.147046
vt 0.938048 0.088103
vt 0.919340 0.147932
vt 0.947717 0.090953
vt 0.925748 0.149246
vt 0.957466 0.094462
vt 0.931952 0.151255
vt 0.967476 0.098826
vt 0.939389 0.152484
vn 0.933569 0.190885 -0.303334
vn 0.794141 0.190885 -0.576978
vn 0.794141 0.190885 -0.576978
vn 0.933569 0.190885 -0.303334
vn 0.576977 0.190885 -0.794141
vn 0.576977 0.190885 -0.794141
vn 0.303336 0.190884 -0.933569
vn 0.303336 0.190884 -0.933569
vn 0.000000 0.190884 -0.981613
vn 0.000000 0.190884 -0.981613
vn -0.303336 0.190884 -0.933569
vn -0.303336 0.190884 -0.933569
vn -0.576977 0.190885 -0.794142
vn -0.576977 0.190885 -0.794141
vn -0.794140 0.190885 -0.576978
vn -0.794140 0.190885 -0.576978
vn -0.933569 0.190885 -0.303334
vn -0.933569 0.190885 -0.303334
vn -0.981613 0.190884 0.000000
vn -0.981613 0.190884 0.000000
vn -0.933569 0.190885 0.303334
vn -0.933569 0.190885 0.303334
vn -0.794140 0.190886 0.576979
vn -0.794140 0.190886 0.576979
vn -0.576976 0.190885 0.794142
vn -0.576976 0.190885 0.794142
vn -0.303335 0.190884 0.933569
vn -0.303335 0.190885 0.933569
vn 0.000000 0.190884 0.981613
vn 0.000000 0.190884 0.981613
vn 0.303335 0.190884 0.933569
vn 0.303335 0.190885 0.933569
vn 0.576976 0.190885 0.794142
vn 0.576976 0.190885 0.794142
vn 0.794141 0.190885 0.576978
vn 0.794141 0.190885 0.576978
vn 0.933569 0.190885 0.303334
vn 0.933569 0.190885 0.303334
vn 0.981613 0.190884 0.000002
vn 0.981613 0.190885 0.000002
vn 0.000000 -1.000000 0.000000
vn 0.000000 -1.000000 0.000000
vn 0.000000 -1.000000 0.000000
vn 0.000000 -1.000000 0.000000
vn 0.000000 -1.000000 0.000000
vn 0.000000 -1.000000 0.000000
vn 0.000000 -1.000000 0.000000
vn 0.000000 -1.000000 0.000000
vn 0.000000 -1.000000 0.000000
vn 0.000000 -1.000000 0.000000
vn 0.000000 -1.000000 0.000000
vn 0.000000 -1.000000 0.000000
vn 0.000000 -1.000000 0.000000
vn 0.000000 -1.000000 0.000000
vn 0.000000 -1.000000 0.000000
vn 0.000000 -1.000000 0.000000
vn 0.000000 -1.000000 0.000000
vn 0.000000 -1.000000 0.000000
vn 0.000000 -1.000000 0.000000
vn 0.000000 -1.000000 0.000000
vn 0.000000 -1.000000 0.000000
vn 0.000000 1.000000 0.000000
vn 0.000000 1.000000 -0.000005
vn 0.000000 1.000000 -0.000001
vn 0.000000 1.000000 -0.000005
vn 0.000000 1.000000 0.000000
vn 0.000000 1.000000 0.000000
vn 0.000000 1.000000 0.000003
vn 0.000000 1.000000 0.000003
vn 0.000000 1.000000 0.000000
vn 0.000000 1.000000 0.000000
vn 0.000000 1.000000 0.000000
vn 0.000000 1.000000 0.000000
vn 0.000000 1.000000 0.000000
vn 0.000000 1.000000 0.000000
vn 0.000000 1.000000 0.000000
vn 0.000000 1.000000 0.000000
vn 0.000000 1.000000 -0.000003
vn 0.000000 1.000000 -0.000003
vn 0.000000 1.000000 0.000000
vn 0.000000 1.000000 0.000000
vn 0.000000 1.000000 0.000000
vn -0.951057 0.000000 0.309016
vn -0.809018 0.000000 0.587783
vn -0.809018 0.000000 0.587783
vn -0.951057 0.000000 0.309016
vn -1.000000 0.000000 0.000000
vn -1.000000 0.000000 0.000000
vn -0.951057 0.000000 -0.309016
vn -0.951057 0.000000 -0.309016
vn -0.809017 0.000000 -0.587785
vn -0.809017 0.000000 -0.587785
vn -0.587787 0.000000 -0.809016
vn -0.587787 0.000000 -0.809016
vn -0.309017 0.000000 -0.951056
vn -0.309017 0.000000 -0.951056
vn 0.000000 0.000000 -1.000000
vn 0.000000 0.000000 -1.000000
vn 0.309017 0.000000 -0.951057
vn 0.309017 0.000000 -0.951057
vn 0.587787 0.000000 -0.809016
vn 0.587787 0.000000 -0.809016
vn 0.809017 0.000000 -0.587785
vn 0.809017 0.000000 -0.587785
vn 0.951057 0.000000 -0.309016
vn 0.951057 0.000000 -0.309016
vn 1.000000 0.000000 0.000002
vn 1.000000 0.000000 0.000002
vn 0.951057 0.000000 0.309016
vn 0.951057 0.000000 0.309016
vn 0.809018 0.000000 0.587783
vn 0.809018 0.000000 0.587783
vn 0.587787 0.000000 0.809016
vn 0.587787 0.000000 0.809016
vn 0.309015 0.000000 0.951057
vn 0.309015 0.000000 0.951057
vn 0.000000 0.000000 1.000000
vn 0.000000 0.000000 1.000000
vn -0.309015 0.000000 0.951057
vn -0.309015 0.000000 0.951057
vn -0.587787 0.000000 0.809016
vn -0.587787 0.000000 0.809016
vn -0.792467 -0.201237 0.575761
vn -0.575761 -0.201237 0.792466
vn -0.575761 -0.201237 0.792466
vn -0.792467 -0.201237 0.575761
vn -0.931600 -0.201238 0.302696
vn -0.931600 -0.201238 0.302696
vn -0.979542 -0.201238 0.000000
vn -0.979542 -0.201238 0.000000
vn -0.931600 -0.201238 -0.302696
vn -0.931600 -0.201238 -0.302696
vn -0.792467 -0.201237 -0.575761
vn -0.792467 -0.201237 -0.575761
vn -0.575761 -0.201237 -0.792466
vn -0.575761 -0.201237 -0.792466
vn -0.302694 -0.201238 -0.931601
vn -0.302694 -0.201238 -0.931601
vn 0.000000 -0.201237 -0.979543
vn 0.000000 -0.201237 -0.979543
vn 0.302694 -0.201238 -0.931601
vn 0.302694 -0.201238 -0.931601
vn 0.575761 -0.201238 -0.792466
vn 0.575761 -0.201238 -0.792466
vn 0.792466 -0.201238 -0.575761
vn 0.792466 -0.201238 -0.575761
vn 0.931601 -0.201237 -0.302693
vn 0.931601 -0.201237 -0.302693
vn 0.979543 -0.201237 0.000003
vn 0.979543 -0.201237 0.000003
vn 0.931600 -0.201237 0.302696
vn 0.931600 -0.201237 0.302696
vn 0.792467 -0.201238 0.575760
vn 0.792467 -0.201238 0.575760
vn 0.575761 -0.201238 0.792466
vn 0.575761 -0.201238 0.792466
vn 0.302695 -0.201238 0.931600
vn 0.302695 -0.201238 0.931600
vn -0.000000 -0.201238 0.979542
vn -0.000000 -0.201238 0.979542
vn -0.302695 -0.201238 0.931601
vn -0.302695 -0.201238 0.931601
vn 0.000000 -1.000000 0.000000
vn 0.000000 -1.000000 0.000000
vn 0.000000 -1.000000 0.000000
vn 0.000000 -1.000000 0.000000
vn 0.000000 1.000000 0.000000
vn 0.000000 1.000000 0.000000
vn 0.000000 1.000000 0.000000
vn 0.000000 1.000000 0.000000
vn 0.000000 -1.000000 -0.000009
vn 0.000000 -1.000000 -0.000009
vn 0.000000 -1.000000 -0.000009
vn 0.000000 -1.000000 -0.000009
vn 0.000000 1.000000 -0.000004
vn 0.000000 1.000000 -0.000004
vn 0.000000 1.000000 -0.000004
vn 0.000000 1.000000 -0.000004
vn 0.000000 -1.000000 0.000000
vn 0.000000 -1.000000 0.000000
vn 0.000000 -1.000000 0.000000
vn 0.000000 -1.000000 0.000000
vn 0.000000 1.000000 0.000008
vn 0.000000 1.000000 0.000008
vn 0.000000 1.000000 0.000008
vn 0.000000 1.000000 0.000008
vn 0.000000 -1.000000 0.000000
vn 0.000000 -1.000000 0.000000
vn 0.000000 -1.000000 0.000000
vn 0.000000 -1.000000 0.000000
vn 0.000000 1.000000 -0.000008
vn 0.000000 1.000000 -0.000008
vn 0.000000 1.000000 -0.000008
vn 0.000000 1.000000 -0.000008
vn 0.000000 -1.000000 0.000019
vn 0.000000 -1.000000 0.000019
vn 0.000000 -1.000000 0.000019
vn 0.000000 -1.000000 0.000019
vn 0.000000 1.000000 0.000000
vn 0.000000 1.000000 0.000000
vn 0.000000 1.000000 0.000000
vn 0.000000 1.000000 0.000000
vn 0.000000 -1.000000 0.000009
vn 0.000000 -1.000000 0.000009
vn 0.000000 -1.000000 0.000009
vn 0.000000 -1.000000 0.000009
vn 0.000000 1.000000 0.000000
vn 0.000000 1.000000 0.000000
vn 0.000000 1.000000 0.000000
vn 0.000000 1.000000 0.000000
vn 0.000000 -1.000000 -0.000017
vn 0.000000 -1.000000 -0.000017
vn 0.000000 -1.000000 -0.000017
vn 0.000000 -1.000000 -0.000017
vn 0.000000 1.000000 0.000000
vn 0.000000 1.000000 0.000000
vn 0.000000 1.000000 0.000000
vn 0.000000 1.000000 0.000000
vn 0.000000 -1.000000 0.000000
vn 0.000000 -1.000000 0.000000
vn 0.000000 -1.000000 0.000000
vn 0.000000 -1.000000 0.000000
vn 0.000000 1.000000 -0.000002
vn 0.000000 1.000000 -0.000002
vn 0.000000 1.000000 -0.000002
vn 0.000000 1.000000 -0.000002
vn 0.000000 -1.000000 -0.000002
vn 0.000000 -1.000000 -0.000002
vn 0.000000 -1.000000 -0.000002
vn 0.000000 -1.000000 -0.000002
vn 0.000000 1.000000 0.000000
vn 0.000000 1.000000 0.000000
vn 0.000000 1.000000 0.000000
vn 0.000000 1.000000 0.000000
vn 0.000000 -1.000000 -0.000005
vn 0.000000 -1.000000 -0.000005
vn 0.000000 -1.000000 -0.000005
vn 0.000000 -1.000000 -0.000005
vn 0.000000 1.000000 0.000002
vn 0.000000 1.000000 0.000002
vn 0.000000 1.000000 0.000002
vn 0.000000 1.000000 0.000002
vn 0.000000 -1.000000 0.000000
vn 0.000000 -1.000000 0.000000
vn 0.000000 -1.000000 0.000000
vn 0.000000 -1.000000 0.000000
vn 0.000000 1.000000 0.000000
vn 0.000000 1.000000 0.000000
vn 0.000000 1.000000 0.000000
vn 0.000000 1.000000 0.000000
vn 0.000000 -1.000000 0.000000
vn 0.000000 -1.000000 0.000000
vn 0.000000 -1.000000 0.000000
vn 0.000000 -1.000000 0.000000
vn 0.000000 1.000000 -0.000004
vn 0.000000 1.000000 -0.000004
vn 0.000000 1.000000 -0.000004
vn 0.000000 1.000000 -0.000004
vn 0.000000 -1.000000 -0.000009
vn 0.000000 -1.000000 -0.000009
vn 0.000000 -1.000000 -0.000009
vn 0.000000 -1.000000 -0.000009
vn 0.000000 1.000000 0.000008
vn 0.000000 1.000000 0.000008
vn 0.000000 1.000000 0.000008
vn 0.000000 1.000000 0.000008
vn 0.000000 -1.000000 0.000000
vn 0.000000 -1.000000 0.000000
vn 0.000000 -1.000000 0.000000
vn 0.000000 -1.000000 0.000000
vn 0.000000 1.000000 0.000000
vn 0.000000 1.000000 0.000000
vn 0.000000 1.000000 0.000000
vn 0.000000 1.000000 0.000000
vn 0.000000 -1.000000 -0.000019
vn 0.000000 -1.000000 -0.000019
vn 0.000000 -1.000000 -0.000019
vn 0.000000 -1.000000 -0.000019
vn 0.000000 1.000000 0.000000
vn 0.000000 1.000000 0.000000
vn 0.000000 1.000000 0.000000
vn 0.000000 1.000000 0.000000
vn 0.000000 -1.000000 -0.000009
vn 0.000000 -1.000000 -0.000009
vn 0.000000 -1.000000 -0.000009
vn 0.000000 -1.000000 -0.000009
vn 0.000000 1.000000 0.000004
vn 0.000000 1.000000 0.000004
vn 0.000000 1.000000 0.000004
vn 0.000000 1.000000 0.000004
vn 0.000000 -1.000000 0.000017
vn 0.000000 -1.000000 0.000017
vn 0.000000 -1.000000 0.000017
vn 0.000000 -1.000000 0.000017
vn 0.000000 1.000000 0.000000
vn 0.000000 1.000000 0.000000
vn 0.000000 1.000000 0.000000
vn 0.000000 1.000000 0.000000
vn 0.000000 -1.000000 0.000000
vn 0.000000 -1.000000 0.000000
vn 0.000000 -1.000000 0.000000
vn 0.000000 -1.000000 0.000000
vn 0.000000 1.000000 0.000002
vn 0.000000 1.000000 0.000002
vn 0.000000 1.000000 0.000002
vn 0.000000 1.000000 0.000002
vn 0.000000 -1.000000 0.000002
vn 0.000000 -1.000000 0.000002
vn 0.000000 -1.000000 0.000002
vn 0.000000 -1.000000 0.000002
vn 0.000000 1.000000 0.000000
vn 0.000000 1.000000 0.000000
vn 0.000000 1.000000 0.000000
vn 0.000000 1.000000 0.000000
vn 0.000000 -1.000000 0.000009
vn 0.000000 -1.000000 0.000009
vn 0.000000 -1.000000 0.000009
vn 0.000000 -1.000000 0.000009
vn 0.000000 1.000000 -0.000002
vn 0.000000 1.000000 -0.000002
vn 0.000000 1.000000 -0.000002
vn 0.000000 1.000000 -0.000002
vn 0.000000 -1.000000 0.000000
vn 0.000000 -1.000000 0.000000
vn 0.000000 -1.000000 0.000000
vn 0.000000 -1.000000 0.000000
vn 0.000000 1.000000 0.000000
vn 0.000000 1.000000 0.000000
vn 0.000000 1.000000 0.000000
vn 0.000000 1.000000 0.000000
vn 0.000000 -1.000000 0.000000
vn 0.000000 -1.000000 0.000000
vn 0.000000 -1.000000 0.000000
vn 0.000000 -1.000000 0.000000
vn 0.000000 1.000000 0.000001
vn 0.000000 1.000000 0.000001
vn 0.000000 1.000000 0.000001
vn 0.000000 1.000000 0.000001
vn 0.000000 -1.000000 0.000000
vn 0.000000 -1.000000 0.000000
vn 0.000000 -1.000000 0.000000
vn 0.000000 -1.000000 0.000000
vn 0.000000 1.000000 -0.000001
vn 0.000000 1.000000 -0.000001
vn 0.000000 1.000000 -0.000001
vn 0.000000 1.000000 -0.000001
vn 0.000000 -1.000000 0.000000
vn 0.000000 -1.000000 0.000000
vn 0.000000 -1.000000 0.000000
vn 0.000000 -1.000000 0.000000
vn 0.000000 1.000000 0.000000
vn 0.000000 1.000000 0.000000
vn 0.000000 1.000000 0.000000
vn 0.000000 1.000000 0.000000
vn 0.000000 -1.000000 0.000000
vn 0.000000 -1.000000 0.000000
vn 0.000000 -1.000000 0.000000
vn 0.000000 -1.000000 0.000000
vn 0.000000 1.000000 0.000001
vn 0.000000 1.000000 0.000001
vn 0.000000 1.000000 0.000001
vn 0.000000 1.000000 0.000001
vn 0.000000 -1.000000 0.000000
vn 0.000000 -1.000000 0.000000
vn 0.000000 -1.000000 0.000000
vn 0.000000 -1.000000 0.000000
vn 0.000000 1.000000 0.000000
vn 0.000000 1.000000 0.000000
vn 0.000000 1.000000 0.000000
vn 0.000000 1.000000 0.000000
vn 0.000000 -1.000000 0.000000
vn 0.000000 -1.000000 0.000000
vn 0.000000 -1.000000 0.000000
vn 0.000000 -1.000000 0.000000
vn 0.000000 1.000000 -0.000001
vn 0.000000 1.000000 -0.000001
vn 0.000000 1.000000 -0.000001
vn 0.000000 1.000000 -0.000001
vn 0.000000 -1.000000 0.000000
vn 0.000000 -1.000000 0.000000
vn 0.000000 -1.000000 0.000000
vn 0.000000 -1.000000 0.000000
vn 0.000000 1.000000 0.000000
vn 0.000000 1.000000 0.000000
vn 0.000000 1.000000 0.000000
vn 0.000000 1.000000 0.000000
vn 0.000000 -1.000000 0.000000
vn 0.000000 -1.000000 0.000000
vn 0.000000 -1.000000 0.000000
vn 0.000000 -1.000000 0.000000
vn 0.000000 1.000000 0.000001
vn 0.000000 1.000000 0.000001
vn 0.000000 1.000000 0.000001
vn 0.000000 1.000000 0.000001
vn 0.000000 -1.000000 0.000000
vn 0.000000 -1.000000 0.000000
vn 0.000000 -1.000000 0.000000
vn 0.000000 -1.000000 0.000000
vn 0.000000 1.000000 -0.000001
vn 0.000000 1.000000 -0.000001
vn 0.000000 1.000000 -0.000001
vn 0.000000 1.000000 -0.000001
vn 0.000000 -1.000000 0.000000
vn 0.000000 -1.000000 0.000000
vn 0.000000 -1.000000 0.000000
vn 0.000000 -1.000000 0.000000
vn 0.000000 1.000000 0.000000
vn 0.000000 1.000000 0.000000
vn 0.000000 1.000000 0.000000
vn 0.000000 1.000000 0.000000
vn 0.000000 -1.000000 0.000000
vn 0.000000 -1.000000 0.000000
vn 0.000000 -1.000000 0.000000
vn 0.000000 -1.000000 0.000000
vn 0.000000 1.000000 -0.000001
vn 0.000000 1.000000 -0.000001
vn 0.000000 1.000000 -0.000001
vn 0.000000 1.000000 -0.000001
vn 0.000000 -1.000000 0.000000
vn 0.000000 -1.000000 0.000000
vn 0.000000 -1.000000 0.000000
vn 0.000000 -1.000000 0.000000
vn 0.000000 1.000000 0.000001
vn 0.000000 1.000000 0.000001
vn 0.000000 1.000000 0.000001
vn 0.000000 1.000000 0.000001
vn 0.000000 -1.000000 0.000000
vn 0.000000 -1.000000 0.000000
vn 0.000000 -1.000000 0.000000
vn 0.000000 -1.000000 0.000000
vn 0.000000 1.000000 0.000000
vn 0.000000 1.000000 0.000000
vn 0.000000 1.000000 0.000000
vn 0.000000 1.000000 0.000000
vn 0.000000 -1.000000 0.000000
vn 0.000000 -1.000000 0.000000
vn 0.000000 -1.000000 0.000000
vn 0.000000 -1.000000 0.000000
vn 0.000000 1.000000 -0.000001
vn 0.000000 1.000000 -0.000001
vn 0.000000 1.000000 -0.000001
vn 0.000000 1.000000 -0.000001
vn 0.000000 -1.000000 0.000000
vn 0.000000 -1.000000 0.000000
vn 0.000000 -1.000000 0.000000
vn 0.000000 -1.000000 0.000000
vn 0.000000 1.000000 0.000000
vn 0.000000 1.000000 0.000000
vn 0.000000 1.000000 0.000000
vn 0.000000 1.000000 0.000000
vn 0.000000 -1.000000 0.000000
vn 0.000000 -1.000000 0.000000
vn 0.000000 -1.000000 0.000000
vn 0.000000 -1.000000 0.000000
vn 0.000000 1.000000 -0.000001
vn 0.000000 1.000000 -0.000001
vn 0.000000 1.000000 -0.000001
vn 0.000000 1.000000 -0.000001
vn 0.000000 -1.000000 0.000000
vn 0.000000 -1.000000 0.000000
vn 0.000000 -1.000000 0.000000
vn 0.000000 -1.000000 0.000000
vn 0.000000 1.000000 0.000001
vn 0.000000 1.000000 0.000001
vn 0.000000 1.000000 0.000001
vn 0.000000 1.000000 0.000001
vn 0.000000 -1.000000 0.000000
vn 0.000000 -1.000000 0.000000
vn 0.000000 -1.000000 0.000000
vn 0.000000 -1.000000 0.000000
vn 0.000000 1.000000 0.000000
vn 0.000000 1.000000 0.000000
vn 0.000000 1.000000 0.000000
vn 0.000000 1.000000 0.000000
vn 0.000000 -1.000000 0.000000
vn 0.000000 -1.000000 0.000000
vn 0.000000 -1.000000 0.000000
vn 0.000000 -1.000000 0.000000
vn 0.000000 1.000000 0.000001
vn 0.000000 1.000000 0.000001
vn 0.000000 1.000000 0.000001
vn 0.000000 1.000000 0.000001
s 1
g Pillar_One_Lamp Pillar_1
usemtl openPBRSurface1SG
f 123/165/1 124/166/2 125/167/3 126/168/4
f 124/166/2 127/169/5 128/170/6 125/167/3
f 127/169/5 129/171/7 130/172/8 128/170/6
f 129/171/7 131/173/9 132/174/10 130/172/8
f 131/173/9 133/175/11 134/176/12 132/174/10
f 133/175/11 135/177/13 136/178/14 134/176/12
f 135/177/13 137/179/15 138/180/16 136/178/14
f 137/179/15 139/181/17 140/182/18 138/180/16
f 139/181/17 141/183/19 142/184/20 140/182/18
f 141/183/19 143/185/21 144/186/22 142/184/20
f 143/185/21 145/187/23 146/188/24 144/186/22
f 145/187/23 147/189/25 148/190/26 146/188/24
f 147/189/25 149/191/27 150/192/28 148/190/26
f 149/191/27 151/193/29 152/194/30 150/192/28
f 151/193/29 153/195/31 154/196/32 152/194/30
f 153/195/31 155/197/33 156/198/34 154/196/32
f 155/197/33 157/199/35 158/200/36 156/198/34
f 157/199/35 159/201/37 160/202/38 158/200/36
f 159/201/37 161/203/39 162/204/40 160/202/38
f 161/203/39 123/205/1 126/206/4 162/204/40
s 2
f 2/2/41 1/1/42 41/79/43
f 3/3/44 2/2/41 41/79/43
f 4/4/45 3/3/44 41/79/43
f 5/5/46 4/4/45 41/79/43
f 6/6/47 5/5/46 41/79/43
f 7/7/48 6/6/47 41/79/43
f 8/8/49 7/7/48 41/79/43
f 9/9/50 8/8/49 41/79/43
f 10/10/51 9/9/50 41/79/43
f 11/11/52 10/10/51 41/79/43
f 12/12/53 11/11/52 41/79/43
f 13/13/54 12/12/53 41/79/43
f 14/14/55 13/13/54 41/79/43
f 15/15/56 14/14/55 41/79/43
f 16/16/57 15/15/56 41/79/43
f 17/17/58 16/16/57 41/79/43
f 18/18/59 17/17/58 41/79/43
f 19/19/60 18/18/59 41/79/43
f 20/20/61 19/19/60 41/79/43
f 1/1/42 20/20/61 41/79/43
s 3
f 21/77/62 22/76/63 42/80/64
f 22/76/63 23/75/65 42/80/64
f 23/75/65 24/74/66 42/80/64
f 24/74/66 25/73/67 42/80/64
f 25/73/67 26/72/68 42/80/64
f 26/72/68 27/71/69 42/80/64
f 27/71/69 28/70/70 42/80/64
f 28/70/70 29/69/71 42/80/64
f 29/69/71 30/68/72 42/80/64
f 30/68/72 31/50/73 42/80/64
f 31/50/73 32/51/74 42/80/64
f 32/51/74 33/67/75 42/80/64
f 33/67/75 34/66/76 42/80/64
f 34/66/76 35/65/77 42/80/64
f 35/65/77 36/64/78 42/80/64
f 36/64/78 37/63/79 42/80/64
f 37/63/79 38/62/80 42/80/64
f 38/62/80 39/61/81 42/80/64
f 39/61/81 40/78/82 42/80/64
f 40/78/82 21/77/62 42/80/64
s 4
f 44/82/83 43/81/84 64/103/85 65/104/86
f 45/83/87 44/82/83 65/104/86 66/105/88
f 46/84/89 45/83/87 66/105/88 67/106/90
f 47/85/91 46/84/89 67/106/90 68/107/92
f 48/86/93 47/85/91 68/107/92 69/108/94
f 49/87/95 48/86/93 69/108/94 70/109/96
f 50/88/97 49/87/95 70/109/96 71/110/98
f 51/89/99 50/88/97 71/110/98 72/111/100
f 52/90/101 51/89/99 72/111/100 73/112/102
f 53/91/103 52/90/101 73/112/102 74/113/104
f 54/93/105 53/91/103 74/113/104 75/115/106
f 55/94/107 54/92/105 75/114/106 76/116/108
f 56/95/109 55/94/107 76/116/108 77/117/110
f 57/96/111 56/95/109 77/117/110 78/118/112
f 58/97/113 57/96/111 78/118/112 79/119/114
f 59/98/115 58/97/113 79/119/114 80/120/116
f 60/99/117 59/98/115 80/120/116 81/121/118
f 61/100/119 60/99/117 81/121/118 82/122/120
f 62/101/121 61/100/119 82/122/120 63/102/122
f 43/81/84 62/101/121 63/102/122 64/103/85
s 5
f 84/123/123 83/124/124 85/125/125 86/126/126
f 87/127/127 84/123/123 86/126/126 88/128/128
f 89/129/129 87/127/127 88/128/128 90/130/130
f 91/131/131 89/129/129 90/130/130 92/132/132
f 93/133/133 91/131/131 92/132/132 94/134/134
f 95/135/135 93/133/133 94/134/134 96/136/136
f 97/137/137 95/135/135 96/136/136 98/138/138
f 99/139/139 97/137/137 98/138/138 100/140/140
f 101/141/141 99/139/139 100/140/140 102/142/142
f 103/143/143 101/141/141 102/142/142 104/144/144
f 105/145/145 103/143/143 104/144/144 106/146/146
f 107/147/147 105/145/145 106/146/146 108/148/148
f 109/149/149 107/150/147 108/151/148 110/152/150
f 111/153/151 109/149/149 110/152/150 112/154/152
f 113/155/153 111/153/151 112/154/152 114/156/154
f 115/157/155 113/155/153 114/156/154 116/158/156
f 117/159/157 115/157/155 116/158/156 118/160/158
f 119/161/159 117/159/157 118/160/158 120/162/160
f 121/163/161 119/161/159 120/162/160 122/164/162
f 83/124/124 121/163/161 122/164/162 85/125/125
s off
f 64/103/163 63/102/164 83/124/165 84/123/166
f 33/52/167 32/51/168 86/126/169 85/125/170
f 65/104/171 64/103/172 84/123/173 87/127/174
f 32/51/175 31/50/176 88/128/177 86/126/178
f 66/105/179 65/104/180 87/127/181 89/129/182
f 31/50/183 30/49/184 90/130/185 88/128/186
f 67/106/187 66/105/188 89/129/189 91/131/190
f 30/49/191 29/48/192 92/132/193 90/130/194
f 68/107/195 67/106/196 91/131/197 93/133/198
f 29/48/199 28/47/200 94/134/201 92/132/202
f 69/108/203 68/107/204 93/133/205 95/135/206
f 28/47/207 27/46/208 96/136/209 94/134/210
f 70/109/211 69/108/212 95/135/213 97/137/214
f 27/46/215 26/45/216 98/138/217 96/136/218
f 71/110/219 70/109/220 97/137/221 99/139/222
f 26/45/223 25/44/224 100/140/225 98/138/226
f 72/111/227 71/110/228 99/139/229 101/141/230
f 25/44/231 24/43/232 102/142/233 100/140/234
f 73/112/235 72/111/236 101/141/237 103/143/238
f 24/43/239 23/42/240 104/144/241 102/142/242
f 74/113/243 73/112/244 103/143/245 105/145/246
f 23/42/247 22/41/248 106/146/249 104/144/250
f 75/115/251 74/113/252 105/145/253 107/147/254
f 22/41/255 21/40/256 108/148/257 106/146/258
f 76/116/259 75/114/260 107/150/261 109/149/262
f 21/60/263 40/59/264 110/152/265 108/151/266
f 77/117/267 76/116/268 109/149/269 111/153/270
f 40/59/271 39/58/272 112/154/273 110/152/274
f 78/118/275 77/117/276 111/153/277 113/155/278
f 39/58/279 38/57/280 114/156/281 112/154/282
f 79/119/283 78/118/284 113/155/285 115/157/286
f 38/57/287 37/56/288 116/158/289 114/156/290
f 80/120/291 79/119/292 115/157/293 117/159/294
f 37/56/295 36/55/296 118/160/297 116/158/298
f 81/121/299 80/120/300 117/159/301 119/161/302
f 36/55/303 35/54/304 120/162/305 118/160/306
f 82/122/307 81/121/308 119/161/309 121/163/310
f 35/54/311 34/53/312 122/164/313 120/162/314
f 63/102/315 82/122/316 121/163/317 83/124/318
f 34/53/319 33/52/320 85/125/321 122/164/322
f 1/21/323 2/22/324 124/166/325 123/165/326
f 53/91/327 54/93/328 126/168/329 125/167/330
f 2/22/331 3/23/332 127/169/333 124/166/334
f 52/90/335 53/91/336 125/167/337 128/170/338
f 3/23/339 4/24/340 129/171/341 127/169/342
f 51/89/343 52/90/344 128/170/345 130/172/346
f 4/24/347 5/25/348 131/173/349 129/171/350
f 50/88/351 51/89/352 130/172/353 132/174/354
f 5/25/355 6/26/356 133/175/357 131/173/358
f 49/87/359 50/88/360 132/174/361 134/176/362
f 6/26/363 7/27/364 135/177/365 133/175/366
f 48/86/367 49/87/368 134/176/369 136/178/370
f 7/27/371 8/28/372 137/179/373 135/177/374
f 47/85/375 48/86/376 136/178/377 138/180/378
f 8/28/379 9/29/380 139/181/381 137/179/382
f 46/84/383 47/85/384 138/180/385 140/182/386
f 9/29/387 10/10/388 141/183/389 139/181/390
f 45/83/391 46/84/392 140/182/393 142/184/394
f 10/10/395 11/11/396 143/185/397 141/183/398
f 44/82/399 45/83/400 142/184/401 144/186/402
f 11/11/403 12/30/404 145/187/405 143/185/406
f 43/81/407 44/82/408 144/186/409 146/188/410
f 12/30/411 13/31/412 147/189/413 145/187/414
f 62/101/415 43/81/416 146/188/417 148/190/418
f 13/31/419 14/32/420 149/191/421 147/189/422
f 61/100/423 62/101/424 148/190/425 150/192/426
f 14/32/427 15/33/428 151/193/429 149/191/430
f 60/99/431 61/100/432 150/192/433 152/194/434
f 15/33/435 16/34/436 153/195/437 151/193/438
f 59/98/439 60/99/440 152/194/441 154/196/442
f 16/34/443 17/35/444 155/197/445 153/195/446
f 58/97/447 59/98/448 154/196/449 156/198/450
f 17/35/451 18/36/452 157/199/453 155/197/454
f 57/96/455 58/97/456 156/198/457 158/200/458
f 18/36/459 19/37/460 159/201/461 157/199/462
f 56/95/463 57/96/464 158/200/465 160/202/466
f 19/37/467 20/38/468 161/203/469 159/201/470
f 55/94/471 56/95/472 160/202/473 162/204/474
f 20/38/475 1/39/476 123/205/477 161/203/478
f 54/92/479 55/94/480 162/204/481 126/206/482
g default
v -139.761261 379.812775 -195.538757
v -140.693115 381.641541 -195.546310
v -142.144287 383.092834 -195.552307
v -143.973206 384.024414 -195.556152
v -146.000000 384.344849 -195.557480
v -148.026794 384.024414 -195.556152
v -149.855713 383.092834 -195.552307
v -151.306885 381.641541 -195.546310
v -152.238724 379.812775 -195.538757
v -152.559769 377.785492 -195.530396
v -152.238724 375.758972 -195.522018
v -151.306885 373.930206 -195.514465
v -149.855713 372.478912 -195.508469
v -148.026794 371.547302 -195.504623
v -146.000000 371.226105 -195.503296
v -143.973206 371.547302 -195.504623
v -142.144287 372.478912 -195.508469
v -140.693130 373.930206 -195.514465
v -139.761276 375.758972 -195.522018
v -139.440247 377.785492 -195.530396
v -141.367447 379.795563 -73.398117
v -142.059280 381.153076 -73.403870
v -143.136810 382.230804 -73.408279
v -144.494919 382.922455 -73.411011
v -146.000000 383.160828 -73.412079
v -147.505081 382.922455 -73.411011
v -148.863190 382.230804 -73.408279
v -149.940704 381.153076 -73.403870
v -150.632538 379.795563 -73.398117
v -150.870865 378.290344 -73.391869
v -150.632538 376.785126 -73.385712
v -149.940704 375.426819 -73.380234
v -148.863174 374.349091 -73.375732
v -147.505081 373.657440 -73.372704
v -146.000000 373.419067 -73.371727
v -144.494919 373.657440 -73.372704
v -143.136826 374.349091 -73.375732
v -142.059296 375.426819 -73.380234
v -141.367462 376.785126 -73.385712
v -141.129150 378.290344 -73.391869
v -146.000000 377.785492 -195.530396
v -146.000000 378.290344 -73.391869
v -151.306885 382.107025 -82.773422
v -149.855713 383.557556 -82.779587
v -148.026794 384.489899 -82.783493
v -146.000000 384.810364 -82.784668
v -143.973206 384.489899 -82.783493
v -142.144287 383.558350 -82.779480
v -140.693115 382.107025 -82.773422
v -139.761261 380.278259 -82.766006
v -139.440247 378.250977 -82.757599
v -139.761276 376.224457 -82.749298
v -140.693130 374.395691 -82.741577
v -142.144287 372.944397 -82.735718
v -143.973206 372.012787 -82.731812
v -146.000000 371.691589 -82.730545
v -148.026794 372.012787 -82.731812
v -149.855713 372.944397 -82.735718
v -151.306885 374.395691 -82.741577
v -152.238724 376.224457 -82.749298
v -152.559769 378.250977 -82.757599
v -152.238724 380.278259 -82.766006
v -152.164597 382.721100 -85.117416
v -150.478775 384.406860 -85.124367
v -148.354813 385.489258 -85.128967
v -146.000000 385.862061 -85.130424
v -143.645187 385.489258 -85.128967
v -141.521210 384.406860 -85.124367
v -139.835388 382.721100 -85.117325
v -138.753235 380.596924 -85.108734
v -138.380066 378.242157 -85.098969
v -138.753250 375.887421 -85.089195
v -139.835403 373.763214 -85.080505
v -141.521225 372.077454 -85.073471
v -143.645187 370.995056 -85.069069
v -146.000000 370.622253 -85.067612
v -148.354813 370.995056 -85.069069
v -150.478775 372.077454 -85.073471
v -152.164597 373.763214 -85.080505
v -153.246750 375.887421 -85.089195
v -153.619934 378.242157 -85.098969
v -153.246750 380.596924 -85.108734
v -150.457199 381.480011 -85.112152
v -149.238342 382.699219 -85.117432
v -150.457199 381.489655 -82.770996
v -149.238342 382.708008 -82.776169
v -147.702591 383.481537 -85.120560
v -147.702591 383.491119 -82.779480
v -146.000000 383.751129 -85.121628
v -146.000000 383.760742 -82.780365
v -144.297409 383.481537 -85.120560
v -144.297409 383.491119 -82.779480
v -142.761658 382.699219 -85.117432
v -142.761658 382.708008 -82.776070
v -141.542801 381.480011 -85.112251
v -141.542801 381.489655 -82.770996
v -140.760391 379.944336 -85.105995
v -140.760391 379.953918 -82.764633
v -140.490784 378.242157 -85.098969
v -140.490784 378.250977 -82.757698
v -140.760406 376.539185 -85.092041
v -140.760406 376.548798 -82.750671
v -141.542816 375.003510 -85.085587
v -141.542816 375.013123 -82.744217
v -142.761658 373.785095 -85.080597
v -142.761658 373.793915 -82.739334
v -144.297409 373.002808 -85.077278
v -144.297409 373.011597 -82.736099
v -146.000000 372.733185 -85.076103
v -146.000000 372.742004 -82.734840
v -147.702591 373.002808 -85.077278
v -147.702591 373.011597 -82.736099
v -149.238342 373.785095 -85.080597
v -149.238342 373.793915 -82.739334
v -150.457199 375.003510 -85.085587
v -150.457199 375.013123 -82.744217
v -151.239594 376.539185 -85.092041
v -151.239594 376.548798 -82.750671
v -151.509216 378.242157 -85.098969
v -151.509216 378.250977 -82.757698
v -151.239594 379.944336 -85.105995
v -151.239594 379.953918 -82.764633
v -152.307693 382.846161 -80.048531
v -150.582764 384.570984 -80.055862
v -148.409637 385.678406 -80.060257
v -146.000000 386.059814 -80.061821
v -143.590363 385.678406 -80.060257
v -141.417236 384.570984 -80.055763
v -139.692291 382.846161 -80.048531
v -138.584702 380.671936 -80.039543
v -138.203110 378.263275 -80.029572
v -138.584717 375.853821 -80.019615
v -139.692307 373.680389 -80.010727
v -141.417236 371.955566 -80.003693
v -143.590363 370.848114 -79.999092
v -146.000000 370.465973 -79.997337
v -148.409637 370.848114 -79.999092
v -150.582764 371.955566 -80.003693
v -152.307693 373.680389 -80.010727
v -153.415283 375.853821 -80.019615
v -153.796890 378.263275 -80.029572
v -153.415283 380.671936 -80.039543
v -152.061798 382.681030 -76.587532
v -150.404434 384.338654 -76.594368
v -148.315231 385.403107 -76.598671
v -146.000000 385.769653 -76.600327
v -143.684769 385.403107 -76.598671
v -141.595566 384.338654 -76.594269
v -139.938187 382.681030 -76.587532
v -138.874146 380.592804 -76.579025
v -138.507278 378.277130 -76.569260
v -138.874161 375.961456 -76.559891
v -139.938217 373.873230 -76.551285
v -141.595566 372.215607 -76.544350
v -143.684769 371.151154 -76.539963
v -146.000000 370.784607 -76.538490
v -148.315231 371.151154 -76.539963
v -150.404434 372.215607 -76.544350
v -152.061798 373.873230 -76.551285
v -153.125854 375.961456 -76.559891
v -153.492737 378.277130 -76.569260
v -153.125854 380.592804 -76.579025
v -152.238724 376.144135 -102.231834
v -152.559769 378.170654 -102.240128
v -152.238724 380.197937 -102.248634
v -151.306885 382.026703 -102.255966
v -149.855713 383.478027 -102.262207
v -148.026794 384.409607 -102.266022
v -146.000000 384.730804 -102.267387
v -143.973206 384.409607 -102.266022
v -142.144287 383.478027 -102.262207
v -140.693115 382.026703 -102.256058
v -139.761261 380.197937 -102.248634
v -139.440247 378.170654 -102.240128
v -139.761276 376.144135 -102.231834
v -140.693130 374.315369 -102.224213
v -142.144287 372.864075 -102.218445
v -143.973206 371.932495 -102.214439
v -146.000000 371.611298 -102.213165
v -148.026794 371.932495 -102.214439
v -149.855713 372.864075 -102.218445
v -151.306885 374.315369 -102.224213
v -153.586075 375.698669 -102.230072
v -153.976288 378.163605 -102.240128
v -154.812149 375.371613 -85.087044
v -155.265442 378.234344 -85.098969
v -153.586075 380.628571 -102.250389
v -154.812149 381.097870 -85.110687
v -152.452988 382.852020 -102.259674
v -153.495941 383.680817 -85.121536
v -150.688431 384.616699 -102.266708
v -151.445923 385.730743 -85.129837
v -148.464844 385.749146 -102.271492
v -148.863205 387.046844 -85.135406
v -146.000000 386.139893 -102.273056
v -146.000000 387.500122 -85.137062
v -143.535156 385.749146 -102.271492
v -143.136795 387.046844 -85.135406
v -141.311569 384.616699 -102.266708
v -140.554077 385.730743 -85.129837
v -139.546997 382.852020 -102.259575
v -138.504059 383.680817 -85.121437
v -138.413910 380.628571 -102.250389
v -137.187836 381.097870 -85.110687
v -138.023712 378.163605 -102.240128
v -136.734558 378.234344 -85.098969
v -138.413925 375.698669 -102.230072
v -137.187851 375.371613 -85.087044
v -139.547012 373.475220 -102.220886
v -138.504074 372.788635 -85.076401
v -141.311569 371.710541 -102.213364
v -140.554092 370.738678 -85.067993
v -143.535156 370.577332 -102.208778
v -143.136810 369.422607 -85.062431
v -146.000000 370.187347 -102.207306
v -146.000000 368.969330 -85.060577
v -148.464844 370.577332 -102.208778
v -148.863205 369.422607 -85.062431
v -150.688431 371.710541 -102.213364
v -151.445923 370.738678 -85.067993
v -152.452988 373.475220 -102.220886
v -153.495926 372.788635 -85.076401
vt 0.671937 0.564984
vt 0.664859 0.564863
vt 0.679035 0.565118
vt 0.686135 0.565289
vt 0.712416 0.494687
vt 0.693238 0.565618
vt 0.707039 0.493702
vt 0.700340 0.565681
vt 0.701607 0.493228
vt 0.707413 0.565898
vt 0.696155 0.493249
vt 0.714477 0.566149
vt 0.690718 0.493770
vt 0.721540 0.566423
vt 0.685331 0.494813
vt 0.728605 0.566719
vt 0.679952 0.493841
vt 0.735674 0.567036
vt 0.674518 0.493379
vt 0.742753 0.567377
vt 0.669067 0.493412
vt 0.749834 0.567741
vt 0.663631 0.493946
vt 0.756909 0.568111
vt 0.658248 0.495000
vt 0.763990 0.568380
vt 0.771016 0.568922
vt 0.777869 0.569287
vt 0.644801 0.563847
vt 0.651064 0.564480
vt 0.657856 0.564722
vt 0.698954 0.510251
vt 0.657292 0.668127
vt 0.660724 0.670695
vt 0.649012 0.679747
vt 0.679014 0.668051
vt 0.683377 0.667640
vt 0.687698 0.668142
vt 0.691768 0.669555
vt 0.695325 0.671921
vt 0.712452 0.669883
vt 0.716827 0.669589
vt 0.721132 0.670270
vt 0.725112 0.671942
vt 0.741169 0.671566
vt 0.745482 0.670753
vt 0.749855 0.670912
vt 0.754037 0.672049
vt 0.771929 0.671452
vt 0.776052 0.669894
vt 0.780380 0.669309
vt 0.648937 0.665748
vt 0.653271 0.666488
vt 0.704956 0.639843
vt 0.711505 0.639966
vt 0.710858 0.648471
vt 0.704951 0.649551
vt 0.698350 0.639528
vt 0.698044 0.648414
vt 0.691679 0.639044
vt 0.691216 0.647502
vt 0.685028 0.638700
vt 0.684405 0.646994
vt 0.678504 0.638566
vt 0.677589 0.646853
vt 0.672216 0.638650
vt 0.672019 0.648927
vt 0.665994 0.638573
vt 0.665242 0.647553
vt 0.659878 0.638104
vt 0.658552 0.646350
vt 0.653944 0.637536
vt 0.651864 0.645244
vt 0.774567 0.641163
vt 0.777468 0.648160
vt 0.768794 0.642106
vt 0.770690 0.649903
vt 0.762949 0.642379
vt 0.763960 0.651206
vt 0.757064 0.642141
vt 0.758154 0.650160
vt 0.750881 0.641613
vt 0.751139 0.649987
vt 0.744413 0.641350
vt 0.744278 0.649841
vt 0.737867 0.641211
vt 0.737418 0.650005
vt 0.731429 0.640945
vt 0.731705 0.649856
vt 0.724880 0.640537
vt 0.724705 0.649141
vt 0.718189 0.640184
vt 0.717781 0.648632
vt 0.705205 0.629864
vt 0.711929 0.630125
vt 0.711667 0.636958
vt 0.705041 0.636761
vt 0.698482 0.629568
vt 0.698411 0.636457
vt 0.691750 0.629233
vt 0.691757 0.636061
vt 0.685035 0.628975
vt 0.685123 0.635751
vt 0.678364 0.628763
vt 0.678580 0.635581
vt 0.671796 0.628602
vt 0.672214 0.635548
vt 0.665370 0.628446
vt 0.666022 0.635430
vt 0.659151 0.628315
vt 0.660050 0.635123
vt 0.653293 0.628420
vt 0.654458 0.634806
vt 0.775257 0.634315
vt 0.773622 0.639242
vt 0.770371 0.632978
vt 0.768567 0.639272
vt 0.764581 0.632460
vt 0.763079 0.639244
vt 0.758377 0.632142
vt 0.757231 0.639006
vt 0.751943 0.631809
vt 0.751052 0.638617
vt 0.745383 0.631517
vt 0.744636 0.638345
vt 0.738756 0.631252
vt 0.738125 0.638136
vt 0.732092 0.630979
vt 0.731604 0.637868
vt 0.725390 0.630686
vt 0.725013 0.637523
vt 0.718663 0.630396
vt 0.718344 0.637203
vt 0.705442 0.623830
vt 0.712241 0.624104
vt 0.698636 0.623539
vt 0.691795 0.623163
vt 0.684931 0.622984
vt 0.678084 0.622759
vt 0.671224 0.622570
vt 0.664337 0.622427
vt 0.657396 0.622382
vt 0.650406 0.622659
vt 0.780210 0.629462
vt 0.773788 0.627615
vt 0.766870 0.626805
vt 0.759949 0.626369
vt 0.753122 0.625906
vt 0.746288 0.625560
vt 0.739467 0.625256
vt 0.732657 0.624965
vt 0.725850 0.624672
vt 0.719043 0.624384
vt 0.710815 0.658292
vt 0.702488 0.660650
vt 0.696324 0.658421
vt 0.690063 0.657029
vt 0.683711 0.656417
vt 0.677267 0.656524
vt 0.668617 0.660017
vt 0.662616 0.657387
vt 0.656377 0.655588
vt 0.649942 0.654415
vt 0.779776 0.657517
vt 0.773226 0.658902
vt 0.766849 0.660794
vt 0.757780 0.660311
vt 0.751186 0.659534
vt 0.744652 0.659424
vt 0.738170 0.660044
vt 0.730283 0.660398
vt 0.723829 0.658918
vt 0.717339 0.658222
vt 0.728429 0.570719
vt 0.735491 0.571042
vt 0.732985 0.620293
vt 0.726112 0.620001
vt 0.721370 0.570417
vt 0.719253 0.619717
vt 0.714313 0.570137
vt 0.712401 0.619440
vt 0.707254 0.569881
vt 0.705548 0.619171
vt 0.700190 0.569646
vt 0.698685 0.618905
vt 0.693121 0.569424
vt 0.691801 0.618669
vt 0.686037 0.569255
vt 0.684883 0.618380
vt 0.678943 0.569103
vt 0.677908 0.618151
vt 0.671839 0.568976
vt 0.670850 0.617977
vt 0.664730 0.568863
vt 0.663666 0.617879
vt 0.657623 0.568727
vt 0.656285 0.617913
vt 0.650526 0.568489
vt 0.648624 0.618156
vt 0.785223 0.573320
vt 0.783814 0.624345
vt 0.778051 0.573241
vt 0.775874 0.623299
vt 0.770928 0.572935
vt 0.768323 0.622431
vt 0.763821 0.572559
vt 0.761023 0.621773
vt 0.756726 0.572147
vt 0.753876 0.621310
vt 0.749637 0.571759
vt 0.746845 0.620928
vt 0.742559 0.571389
vt 0.739890 0.620597
vt 0.734126 0.493625
vt 0.728694 0.493138
vt 0.723243 0.493147
vt 0.717804 0.493656
vt 0.766586 0.494619
vt 0.761213 0.493610
vt 0.755783 0.493111
vt 0.750331 0.493108
vt 0.744892 0.493604
vt 0.726002 0.510156
vt 0.739502 0.494622
vt 0.671903 0.510407
vt 0.753053 0.510121
vt 0.672829 0.244273
vt 0.678369 0.244239
vt 0.667289 0.244313
vt 0.661759 0.244358
vt 0.766849 0.244009
vt 0.656249 0.244401
vt 0.761320 0.244001
vt 0.755780 0.243998
vt 0.750240 0.244000
vt 0.744709 0.244007
vt 0.739200 0.244013
vt 0.733670 0.244018
vt 0.728129 0.244026
vt 0.722589 0.244042
vt 0.717058 0.244062
vt 0.711549 0.244081
vt 0.706019 0.244097
vt 0.700479 0.244119
vt 0.694939 0.244146
vt 0.689408 0.244179
vt 0.683898 0.244209
vt 0.643431 0.568009
vt 0.640594 0.618488
vt 0.643589 0.624032
vt 0.784144 0.569187
vt 0.643327 0.653711
vt 0.644517 0.665971
vt 0.645191 0.643781
vt 0.648083 0.629439
vt 0.649457 0.634421
vt 0.648288 0.636411
vt 0.706478 0.659736
vt 0.709064 0.672150
vt 0.706702 0.649220
vt 0.779259 0.683451
vt 0.672439 0.658369
vt 0.675233 0.671349
vt 0.673520 0.647501
vt 0.683630 0.681552
vt 0.734345 0.663375
vt 0.738427 0.675264
vt 0.733489 0.652039
vt 0.716180 0.683506
vt 0.760714 0.663412
vt 0.768310 0.673986
vt 0.759547 0.651839
vt 0.746790 0.684624
vn 0.951060 0.309002 -0.001276
vn 0.809031 0.587761 -0.002427
vn 0.809032 0.587760 -0.002427
vn 0.951060 0.309002 -0.001276
vn 0.587750 0.809036 -0.003341
vn 0.587752 0.809034 -0.003341
vn 0.308929 0.951077 -0.003929
vn 0.308929 0.951077 -0.003929
vn -0.000000 0.999991 -0.004133
vn -0.000000 0.999991 -0.004133
vn -0.308930 0.951077 -0.003929
vn -0.308930 0.951077 -0.003929
vn -0.587751 0.809035 -0.003341
vn -0.587755 0.809032 -0.003341
vn -0.809030 0.587762 -0.002427
vn -0.809031 0.587761 -0.002427
vn -0.951059 0.309007 -0.001276
vn -0.951058 0.309009 -0.001276
vn -1.000000 0.000000 0.000000
vn -1.000000 -0.000002 0.000000
vn -0.951040 -0.309064 0.001276
vn -0.951040 -0.309065 0.001276
vn -0.809030 -0.587762 0.002426
vn -0.809032 -0.587759 0.002426
vn -0.587752 -0.809034 0.003340
vn -0.587753 -0.809034 0.003340
vn -0.309018 -0.951048 0.003927
vn -0.309016 -0.951049 0.003927
vn 0.000000 -0.999991 0.004129
vn 0.000000 -0.999991 0.004129
vn 0.309018 -0.951048 0.003927
vn 0.309016 -0.951049 0.003927
vn 0.587753 -0.809034 0.003340
vn 0.587754 -0.809033 0.003340
vn 0.809030 -0.587762 0.002427
vn 0.809032 -0.587759 0.002427
vn 0.951040 -0.309064 0.001276
vn 0.951040 -0.309065 0.001276
vn 1.000000 -0.000003 0.000000
vn 1.000000 -0.000004 0.000000
vn 0.000005 -0.004130 -0.999991
vn 0.000005 -0.004127 -0.999991
vn 0.000000 -0.004130 -0.999991
vn 0.000000 -0.004129 -0.999991
vn 0.000000 -0.004129 -0.999991
vn 0.000000 -0.004129 -0.999991
vn 0.000000 -0.004129 -0.999991
vn 0.000005 -0.004129 -0.999991
vn 0.000002 -0.004130 -0.999991
vn -0.000002 -0.004127 -0.999991
vn 0.000000 -0.004129 -0.999991
vn 0.000000 -0.004132 -0.999991
vn 0.000000 -0.004131 -0.999991
vn -0.000009 -0.004131 -0.999991
vn 0.000000 -0.004131 -0.999991
vn 0.000000 -0.004131 -0.999991
vn -0.000000 -0.004131 -0.999991
vn 0.000009 -0.004131 -0.999991
vn -0.000002 -0.004131 -0.999992
vn -0.000002 -0.004132 -0.999991
vn 0.000000 -0.004129 -0.999991
vn -0.000015 0.004188 0.999991
vn 0.000012 0.004180 0.999991
vn 0.000000 0.004133 0.999991
vn 0.000060 0.004120 0.999992
vn 0.000008 0.004128 0.999991
vn 0.000000 0.004149 0.999991
vn -0.000008 0.004128 0.999991
vn -0.000058 0.004120 0.999992
vn -0.000010 0.004180 0.999991
vn 0.000015 0.004188 0.999991
vn 0.000000 0.004121 0.999992
vn 0.000005 0.004066 0.999992
vn -0.000016 0.004085 0.999992
vn -0.000075 0.004150 0.999991
vn -0.000050 0.004153 0.999991
vn 0.000000 0.004135 0.999992
vn 0.000050 0.004153 0.999991
vn 0.000075 0.004150 0.999991
vn 0.000015 0.004085 0.999992
vn -0.000006 0.004066 0.999992
vn 0.000000 0.004121 0.999992
vn -0.535270 0.734981 -0.416280
vn -0.736759 0.533552 -0.415341
vn -0.801417 0.581692 -0.139155
vn -0.582250 0.800848 -0.140098
vn -0.281356 0.864335 -0.416851
vn -0.306098 0.941550 -0.140666
vn 0.000000 0.908906 -0.417001
vn -0.000000 0.990029 -0.140861
vn 0.281291 0.864381 -0.416798
vn 0.306069 0.941564 -0.140638
vn 0.535278 0.735023 -0.416195
vn 0.582258 0.800851 -0.140048
vn 0.736800 0.533531 -0.415295
vn 0.801429 0.581679 -0.139143
vn 0.866142 0.279717 -0.414194
vn 0.942125 0.305547 -0.137992
vn 0.910732 -0.001743 -0.412994
vn 0.990614 -0.000545 -0.136685
vn 0.866164 -0.283175 -0.411792
vn 0.942129 -0.306681 -0.135427
vn 0.736828 -0.537050 -0.410685
vn 0.801422 -0.582826 -0.134303
vn 0.535343 -0.738548 -0.409823
vn 0.582280 -0.801971 -0.133386
vn 0.281471 -0.867901 -0.409295
vn 0.306183 -0.942666 -0.132789
vn 0.000000 -0.912474 -0.409135
vn -0.000000 -0.991175 -0.132561
vn -0.281472 -0.867898 -0.409299
vn -0.306183 -0.942666 -0.132792
vn -0.535342 -0.738547 -0.409825
vn -0.582278 -0.801972 -0.133389
vn -0.736827 -0.537051 -0.410685
vn -0.801420 -0.582828 -0.134305
vn -0.866165 -0.283178 -0.411787
vn -0.942128 -0.306682 -0.135427
vn -0.910734 -0.001736 -0.412990
vn -0.990615 -0.000543 -0.136684
vn -0.866140 0.279723 -0.414195
vn -0.942123 0.305551 -0.137993
vn -0.587798 0.809002 -0.003170
vn -0.809019 0.587779 -0.002354
vn -0.809023 0.587772 -0.002354
vn -0.587842 0.808970 -0.003170
vn -0.309054 0.951037 -0.003805
vn -0.309048 0.951039 -0.003805
vn 0.000000 0.999992 -0.004088
vn 0.000000 0.999992 -0.004088
vn 0.309057 0.951036 -0.003805
vn 0.309053 0.951037 -0.003805
vn 0.587803 0.808998 -0.003170
vn 0.587845 0.808968 -0.003170
vn 0.809016 0.587782 -0.002358
vn 0.809019 0.587777 -0.002358
vn 0.951070 0.308972 -0.001259
vn 0.951071 0.308970 -0.001259
vn 1.000000 0.000029 0.000002
vn 1.000000 -0.000037 0.000002
vn 0.951069 -0.308976 0.001254
vn 0.951067 -0.308984 0.001254
vn 0.809022 -0.587774 0.002354
vn 0.809019 -0.587777 0.002354
vn 0.587767 -0.809024 0.003112
vn 0.587735 -0.809047 0.003112
vn 0.308957 -0.951069 0.003583
vn 0.308927 -0.951079 0.003583
vn 0.000000 -0.999993 0.003767
vn 0.000000 -0.999993 0.003767
vn -0.308957 -0.951069 0.003583
vn -0.308926 -0.951079 0.003583
vn -0.587765 -0.809026 0.003109
vn -0.587733 -0.809049 0.003109
vn -0.809022 -0.587773 0.002351
vn -0.809020 -0.587777 0.002351
vn -0.951070 -0.308972 0.001254
vn -0.951068 -0.308979 0.001254
vn -1.000000 0.000033 0.000002
vn -1.000000 -0.000033 0.000002
vn -0.951071 0.308969 -0.001256
vn -0.951071 0.308969 -0.001256
vn 0.000036 0.004174 0.999991
vn 0.000036 0.004174 0.999991
vn 0.000036 0.004174 0.999991
vn 0.000036 0.004174 0.999991
vn -0.000132 -0.004116 -0.999992
vn -0.000132 -0.004116 -0.999992
vn -0.000132 -0.004116 -0.999992
vn -0.000132 -0.004116 -0.999992
vn 0.000007 0.004133 0.999991
vn 0.000007 0.004133 0.999992
vn 0.000007 0.004133 0.999991
vn 0.000007 0.004133 0.999992
vn -0.000078 -0.004059 -0.999992
vn -0.000078 -0.004059 -0.999992
vn -0.000078 -0.004059 -0.999992
vn -0.000078 -0.004059 -0.999992
vn -0.000043 0.004171 0.999991
vn -0.000043 0.004171 0.999991
vn -0.000043 0.004171 0.999991
vn -0.000043 0.004171 0.999991
vn 0.000090 -0.004046 -0.999992
vn 0.000090 -0.004046 -0.999992
vn 0.000090 -0.004046 -0.999992
vn 0.000090 -0.004046 -0.999992
vn 0.000043 0.004171 0.999991
vn 0.000043 0.004171 0.999991
vn 0.000043 0.004171 0.999991
vn 0.000043 0.004171 0.999991
vn -0.000090 -0.004046 -0.999992
vn -0.000090 -0.004046 -0.999992
vn -0.000090 -0.004046 -0.999992
vn -0.000090 -0.004046 -0.999992
vn -0.000007 0.004133 0.999992
vn -0.000007 0.004133 0.999992
vn -0.000007 0.004133 0.999991
vn -0.000007 0.004133 0.999992
vn 0.000125 -0.004079 -0.999992
vn 0.000125 -0.004079 -0.999992
vn 0.000125 -0.004079 -0.999992
vn 0.000125 -0.004079 -0.999992
vn -0.000066 0.004140 0.999991
vn -0.000066 0.004140 0.999991
vn -0.000066 0.004140 0.999991
vn -0.000066 0.004140 0.999991
vn 0.000090 -0.004073 -0.999992
vn 0.000090 -0.004073 -0.999992
vn 0.000090 -0.004073 -0.999992
vn 0.000090 -0.004073 -0.999992
vn 0.000029 0.004071 0.999992
vn 0.000029 0.004071 0.999992
vn 0.000029 0.004071 0.999992
vn 0.000029 0.004071 0.999992
vn 0.000023 -0.004083 -0.999992
vn 0.000023 -0.004083 -0.999992
vn 0.000023 -0.004083 -0.999992
vn 0.000023 -0.004083 -0.999992
vn 0.000014 0.004140 0.999991
vn 0.000014 0.004140 0.999991
vn 0.000014 0.004140 0.999991
vn 0.000014 0.004140 0.999991
vn 0.000036 -0.004108 -0.999992
vn 0.000036 -0.004108 -0.999992
vn 0.000036 -0.004108 -0.999992
vn 0.000036 -0.004108 -0.999992
vn -0.000038 0.004122 0.999992
vn -0.000038 0.004122 0.999992
vn -0.000038 0.004122 0.999992
vn -0.000038 0.004122 0.999992
vn 0.000070 -0.004121 -0.999991
vn 0.000070 -0.004121 -0.999992
vn 0.000070 -0.004121 -0.999992
vn 0.000070 -0.004121 -0.999992
vn -0.000016 0.004149 0.999991
vn -0.000016 0.004149 0.999991
vn -0.000016 0.004149 0.999991
vn -0.000016 0.004149 0.999991
vn 0.000019 -0.004223 -0.999991
vn 0.000019 -0.004223 -0.999991
vn 0.000019 -0.004223 -0.999991
vn 0.000019 -0.004223 -0.999991
vn 0.000000 0.004141 0.999991
vn 0.000000 0.004141 0.999991
vn 0.000000 0.004141 0.999991
vn 0.000000 0.004141 0.999991
vn 0.000125 -0.004144 -0.999991
vn 0.000125 -0.004144 -0.999991
vn 0.000125 -0.004144 -0.999991
vn 0.000125 -0.004144 -0.999991
vn 0.000007 0.004130 0.999991
vn 0.000007 0.004130 0.999991
vn 0.000007 0.004130 0.999992
vn 0.000007 0.004130 0.999992
vn 0.000043 -0.004254 -0.999991
vn 0.000043 -0.004254 -0.999991
vn 0.000043 -0.004254 -0.999991
vn 0.000043 -0.004254 -0.999991
vn 0.000011 0.004056 0.999992
vn 0.000011 0.004056 0.999992
vn 0.000011 0.004056 0.999992
vn 0.000011 0.004056 0.999992
vn -0.000012 -0.004190 -0.999991
vn -0.000012 -0.004190 -0.999991
vn -0.000012 -0.004190 -0.999991
vn -0.000012 -0.004190 -0.999991
vn -0.000011 0.004056 0.999992
vn -0.000011 0.004056 0.999992
vn -0.000011 0.004056 0.999992
vn -0.000011 0.004056 0.999992
vn 0.000012 -0.004190 -0.999991
vn 0.000012 -0.004190 -0.999991
vn 0.000012 -0.004190 -0.999991
vn 0.000012 -0.004190 -0.999991
vn -0.000007 0.004130 0.999992
vn -0.000007 0.004130 0.999992
vn -0.000007 0.004130 0.999991
vn -0.000007 0.004130 0.999991
vn -0.000047 -0.004254 -0.999991
vn -0.000047 -0.004254 -0.999991
vn -0.000047 -0.004254 -0.999991
vn -0.000047 -0.004254 -0.999991
vn -0.000002 0.004141 0.999991
vn -0.000002 0.004141 0.999991
vn -0.000002 0.004141 0.999991
vn -0.000002 0.004141 0.999991
vn -0.000129 -0.004144 -0.999991
vn -0.000129 -0.004144 -0.999991
vn -0.000129 -0.004144 -0.999991
vn -0.000129 -0.004144 -0.999991
vn 0.000017 0.004148 0.999991
vn 0.000017 0.004148 0.999991
vn 0.000017 0.004148 0.999991
vn 0.000017 0.004148 0.999991
vn -0.000016 -0.004223 -0.999991
vn -0.000016 -0.004223 -0.999991
vn -0.000016 -0.004223 -0.999991
vn -0.000016 -0.004223 -0.999991
vn 0.000039 0.004122 0.999992
vn 0.000039 0.004122 0.999992
vn 0.000039 0.004122 0.999992
vn 0.000039 0.004122 0.999992
vn -0.000067 -0.004121 -0.999992
vn -0.000067 -0.004121 -0.999992
vn -0.000067 -0.004121 -0.999992
vn -0.000067 -0.004121 -0.999992
vn -0.000012 0.004140 0.999991
vn -0.000012 0.004140 0.999991
vn -0.000012 0.004140 0.999991
vn -0.000012 0.004140 0.999991
vn -0.000039 -0.004109 -0.999992
vn -0.000039 -0.004109 -0.999992
vn -0.000039 -0.004109 -0.999992
vn -0.000039 -0.004109 -0.999992
vn -0.000068 0.004090 0.999992
vn -0.000068 0.004090 0.999992
vn -0.000068 0.004090 0.999992
vn -0.000068 0.004090 0.999992
vn -0.000026 -0.004083 -0.999992
vn -0.000026 -0.004083 -0.999992
vn -0.000026 -0.004083 -0.999992
vn -0.000026 -0.004083 -0.999992
vn -0.754065 0.549310 0.360062
vn -0.547857 0.755505 0.359256
vn -0.287978 0.887906 0.358737
vn -0.000000 0.933521 0.358522
vn 0.287974 0.887908 0.358734
vn 0.547854 0.755503 0.359266
vn 0.754068 0.549309 0.360058
vn 0.886433 0.289540 0.361115
vn 0.932042 0.001486 0.362348
vn 0.886433 -0.286545 0.363495
vn 0.754079 -0.546342 0.364521
vn 0.547887 -0.752557 0.365348
vn 0.288039 -0.884957 0.365904
vn 0.000000 -0.930576 0.366098
vn -0.288039 -0.884957 0.365903
vn -0.547885 -0.752557 0.365348
vn -0.754077 -0.546344 0.364521
vn -0.886433 -0.286545 0.363495
vn -0.932042 0.001489 0.362347
vn -0.886432 0.289542 0.361115
vn -0.624022 0.455982 0.634568
vn -0.453362 0.626617 0.633888
vn -0.238307 0.736182 0.633440
vn -0.000000 0.773921 0.633282
vn 0.238298 0.736182 0.633443
vn 0.453356 0.626614 0.633895
vn 0.624024 0.455978 0.634569
vn 0.733580 0.240993 0.635439
vn 0.771330 0.002623 0.636430
vn 0.733589 -0.235719 0.637404
vn 0.624080 -0.450717 0.638262
vn 0.453399 -0.621422 0.638956
vn 0.238335 -0.731003 0.639398
vn 0.000000 -0.768751 0.639548
vn -0.238335 -0.731003 0.639400
vn -0.453396 -0.621419 0.638961
vn -0.624076 -0.450718 0.638266
vn -0.733587 -0.235719 0.637406
vn -0.771330 0.002632 0.636430
vn -0.733580 0.240996 0.635438
vn -0.997184 -0.000310 -0.074993
vn -0.948376 -0.308461 -0.073716
vn -0.948379 -0.308455 -0.073716
vn -0.997184 -0.000309 -0.074993
vn -0.948383 0.307819 -0.076271
vn -0.948384 0.307816 -0.076271
vn -0.806726 0.585832 -0.077420
vn -0.806723 0.585836 -0.077420
vn -0.586119 0.806428 -0.078343
vn -0.586113 0.806433 -0.078343
vn -0.308125 0.948065 -0.078942
vn -0.308122 0.948066 -0.078942
vn -0.000000 0.996863 -0.079148
vn -0.000000 0.996863 -0.079148
vn 0.308124 0.948065 -0.078942
vn 0.308121 0.948066 -0.078942
vn 0.586118 0.806429 -0.078343
vn 0.586115 0.806432 -0.078343
vn 0.806725 0.585833 -0.077420
vn 0.806722 0.585837 -0.077420
vn 0.948385 0.307812 -0.076271
vn 0.948385 0.307813 -0.076271
vn 0.997184 -0.000313 -0.074993
vn 0.997184 -0.000312 -0.074993
vn 0.948376 -0.308461 -0.073716
vn 0.948379 -0.308454 -0.073716
vn 0.806728 -0.586451 -0.072559
vn 0.806729 -0.586450 -0.072559
vn 0.586165 -0.807018 -0.071642
vn 0.586161 -0.807021 -0.071642
vn 0.308118 -0.948691 -0.071053
vn 0.308123 -0.948690 -0.071053
vn 0.000000 -0.997487 -0.070848
vn 0.000000 -0.997487 -0.070848
vn -0.308118 -0.948691 -0.071054
vn -0.308123 -0.948690 -0.071054
vn -0.586165 -0.807018 -0.071642
vn -0.586161 -0.807021 -0.071642
vn -0.806729 -0.586451 -0.072558
vn -0.806729 -0.586450 -0.072558
vn 0.000033 -0.004080 -0.999992
vn 0.000033 -0.004080 -0.999992
vn 0.000033 -0.004080 -0.999992
vn 0.000033 -0.004080 -0.999992
vn -0.000004 0.004157 0.999991
vn -0.000004 0.004157 0.999991
vn -0.000004 0.004157 0.999991
vn -0.000004 0.004157 0.999991
vn -0.000013 -0.004177 -0.999991
vn -0.000013 -0.004177 -0.999991
vn -0.000013 -0.004177 -0.999991
vn -0.000013 -0.004177 -0.999991
vn 0.000027 0.004113 0.999992
vn 0.000027 0.004113 0.999992
vn 0.000027 0.004113 0.999992
vn 0.000027 0.004113 0.999992
vn 0.000101 -0.004152 -0.999991
vn 0.000101 -0.004152 -0.999991
vn 0.000101 -0.004152 -0.999991
vn 0.000101 -0.004152 -0.999991
vn -0.000003 0.004151 0.999991
vn -0.000003 0.004151 0.999991
vn -0.000003 0.004151 0.999991
vn -0.000003 0.004151 0.999991
vn 0.000024 -0.004154 -0.999991
vn 0.000024 -0.004154 -0.999991
vn 0.000024 -0.004154 -0.999991
vn 0.000024 -0.004154 -0.999991
vn -0.000055 0.004141 0.999991
vn -0.000055 0.004141 0.999991
vn -0.000055 0.004141 0.999991
vn -0.000055 0.004141 0.999991
vn -0.000053 -0.004053 -0.999992
vn -0.000053 -0.004053 -0.999992
vn -0.000053 -0.004053 -0.999992
vn -0.000053 -0.004053 -0.999992
vn 0.000039 0.004155 0.999991
vn 0.000039 0.004155 0.999991
vn 0.000039 0.004155 0.999991
vn 0.000039 0.004155 0.999991
vn -0.000010 -0.004054 -0.999992
vn -0.000010 -0.004054 -0.999992
vn -0.000010 -0.004054 -0.999992
vn -0.000010 -0.004054 -0.999992
vn -0.000046 0.004084 0.999992
vn -0.000046 0.004084 0.999992
vn -0.000046 0.004084 0.999992
vn -0.000046 0.004084 0.999992
vn 0.000014 -0.004054 -0.999992
vn 0.000014 -0.004054 -0.999992
vn 0.000014 -0.004054 -0.999992
vn 0.000014 -0.004054 -0.999992
vn 0.000046 0.004084 0.999992
vn 0.000046 0.004084 0.999992
vn 0.000046 0.004084 0.999992
vn 0.000046 0.004084 0.999992
vn 0.000053 -0.004053 -0.999992
vn 0.000053 -0.004053 -0.999992
vn 0.000053 -0.004053 -0.999992
vn 0.000053 -0.004053 -0.999992
vn -0.000039 0.004155 0.999991
vn -0.000039 0.004155 0.999991
vn -0.000039 0.004155 0.999991
vn -0.000039 0.004155 0.999991
vn 0.000026 -0.004107 -0.999992
vn 0.000026 -0.004107 -0.999992
vn 0.000026 -0.004107 -0.999992
vn 0.000026 -0.004107 -0.999992
vn 0.000032 0.004165 0.999991
vn 0.000032 0.004165 0.999991
vn 0.000032 0.004165 0.999991
vn 0.000032 0.004165 0.999991
vn -0.000042 -0.004119 -0.999992
vn -0.000042 -0.004119 -0.999992
vn -0.000042 -0.004119 -0.999992
vn -0.000042 -0.004119 -0.999992
vn 0.000014 0.004118 0.999992
vn 0.000014 0.004118 0.999992
vn 0.000014 0.004118 0.999992
vn 0.000014 0.004118 0.999992
vn 0.000014 -0.004177 -0.999991
vn 0.000014 -0.004177 -0.999991
vn 0.000014 -0.004177 -0.999991
vn 0.000014 -0.004177 -0.999991
vn -0.000028 0.004113 0.999992
vn -0.000028 0.004113 0.999992
vn -0.000028 0.004113 0.999992
vn -0.000028 0.004113 0.999992
vn -0.000031 -0.004080 -0.999992
vn -0.000031 -0.004080 -0.999992
vn -0.000031 -0.004080 -0.999992
vn -0.000031 -0.004080 -0.999992
vn 0.000002 0.004157 0.999991
vn 0.000002 0.004157 0.999991
vn 0.000002 0.004157 0.999991
vn 0.000002 0.004157 0.999991
vn -0.000079 -0.004108 -0.999992
vn -0.000079 -0.004108 -0.999992
vn -0.000079 -0.004108 -0.999992
vn -0.000079 -0.004108 -0.999992
vn -0.000040 0.004126 0.999991
vn -0.000040 0.004126 0.999991
vn -0.000040 0.004126 0.999992
vn -0.000040 0.004126 0.999992
vn 0.000045 -0.004175 -0.999991
vn 0.000045 -0.004175 -0.999991
vn 0.000045 -0.004175 -0.999991
vn 0.000045 -0.004175 -0.999991
vn -0.000007 0.004138 0.999991
vn -0.000007 0.004138 0.999991
vn -0.000007 0.004138 0.999991
vn -0.000007 0.004138 0.999992
vn 0.000048 -0.004257 -0.999991
vn 0.000048 -0.004257 -0.999991
vn 0.000048 -0.004257 -0.999991
vn 0.000048 -0.004257 -0.999991
vn -0.000004 0.004160 0.999991
vn -0.000004 0.004160 0.999991
vn -0.000004 0.004160 0.999991
vn -0.000004 0.004160 0.999991
vn 0.000043 -0.004138 -0.999992
vn 0.000043 -0.004138 -0.999992
vn 0.000043 -0.004138 -0.999991
vn 0.000043 -0.004138 -0.999991
vn -0.000035 0.004233 0.999991
vn -0.000035 0.004233 0.999991
vn -0.000035 0.004233 0.999991
vn -0.000035 0.004233 0.999991
vn -0.000048 -0.004138 -0.999992
vn -0.000048 -0.004138 -0.999992
vn -0.000048 -0.004138 -0.999991
vn -0.000048 -0.004138 -0.999991
vn 0.000035 0.004233 0.999991
vn 0.000035 0.004233 0.999991
vn 0.000035 0.004233 0.999991
vn 0.000035 0.004233 0.999991
vn -0.000050 -0.004257 -0.999991
vn -0.000050 -0.004257 -0.999991
vn -0.000050 -0.004257 -0.999991
vn -0.000050 -0.004257 -0.999991
vn 0.000004 0.004160 0.999991
vn 0.000004 0.004160 0.999991
vn 0.000004 0.004160 0.999991
vn 0.000004 0.004160 0.999991
vn -0.000041 -0.004175 -0.999991
vn -0.000041 -0.004175 -0.999991
vn -0.000041 -0.004175 -0.999991
vn -0.000041 -0.004175 -0.999991
vn 0.000007 0.004138 0.999991
vn 0.000007 0.004138 0.999991
vn 0.000007 0.004138 0.999991
vn 0.000007 0.004138 0.999992
vn 0.000079 -0.004108 -0.999992
vn 0.000079 -0.004108 -0.999992
vn 0.000079 -0.004108 -0.999992
vn 0.000079 -0.004108 -0.999992
vn 0.000039 0.004126 0.999992
vn 0.000039 0.004126 0.999992
vn 0.000039 0.004126 0.999992
vn 0.000039 0.004126 0.999992
s 1
g Pillar_1 Post_Lamp
usemtl openPBRSurface1SG
f 163/420/483 164/421/484 334/445/485 335/444/486
f 164/421/484 165/422/487 333/446/488 334/445/485
f 165/422/487 166/423/489 332/447/490 333/446/488
f 166/423/489 167/211/491 331/448/492 332/447/490
f 167/211/491 168/213/493 330/449/494 331/448/492
f 168/213/493 169/215/495 329/450/496 330/449/494
f 169/215/495 170/217/497 328/451/498 329/450/496
f 170/217/497 171/219/499 327/452/500 328/451/498
f 171/219/499 172/221/501 326/453/502 327/452/500
f 172/221/501 173/223/503 325/434/504 326/453/502
f 173/223/503 174/225/505 344/433/506 325/434/504
f 174/225/505 175/227/507 343/435/508 344/433/506
f 175/227/507 176/229/509 342/436/510 343/435/508
f 176/229/509 177/231/511 341/438/512 342/436/510
f 177/424/511 178/425/513 340/439/514 341/437/512
f 178/425/513 179/426/515 339/440/516 340/439/514
f 179/426/515 180/427/517 338/441/518 339/440/516
f 180/427/517 181/428/519 337/442/520 338/441/518
f 181/428/519 182/430/521 336/443/522 337/442/520
f 182/430/521 163/420/483 335/444/486 336/443/522
s 2
f 164/421/523 163/420/524 203/429/525
f 165/422/526 164/421/523 203/429/525
f 166/423/527 165/422/526 203/429/525
f 167/211/528 166/423/527 203/429/525
f 168/213/529 167/211/528 203/238/525
f 169/215/530 168/213/529 203/238/525
f 170/217/531 169/215/530 203/238/525
f 171/219/532 170/217/531 203/238/525
f 172/221/533 171/219/532 203/238/525
f 173/223/534 172/221/533 203/431/525
f 174/225/535 173/223/534 203/431/525
f 175/227/536 174/225/535 203/431/525
f 176/229/537 175/227/536 203/431/525
f 177/231/538 176/229/537 203/431/525
f 178/425/539 177/424/538 203/432/525
f 179/426/540 178/425/539 203/432/525
f 180/427/541 179/426/540 203/432/525
f 181/428/542 180/427/541 203/432/525
f 182/430/543 181/428/542 203/432/525
f 163/420/524 182/430/543 203/429/525
s 3
f 183/239/544 184/240/545 204/241/546
f 184/469/545 185/242/547 204/471/546
f 185/242/547 186/243/548 204/471/546
f 186/243/548 187/244/549 204/471/546
f 187/244/549 188/245/550 204/471/546
f 188/245/550 189/246/551 204/471/546
f 189/465/551 190/247/552 204/475/546
f 190/247/552 191/248/553 204/475/546
f 191/248/553 192/249/554 204/475/546
f 192/249/554 193/250/555 204/475/546
f 193/473/555 194/251/556 204/479/546
f 194/251/556 195/252/557 204/479/546
f 195/252/557 196/253/558 204/479/546
f 196/253/558 197/254/559 204/479/546
f 197/477/559 198/255/560 204/467/546
f 198/255/560 199/256/561 204/467/546
f 199/256/561 200/257/562 204/467/546
f 200/459/562 201/258/563 204/241/546
f 201/258/563 202/259/564 204/241/546
f 202/259/564 183/239/544 204/241/546
s 4
f 206/260/565 205/261/566 285/262/567 286/466/568
f 207/264/569 206/260/565 286/263/568 287/265/570
f 208/266/571 207/264/569 287/265/570 288/267/572
f 209/268/573 208/266/571 288/267/572 289/269/574
f 210/270/575 209/268/573 289/269/574 290/271/576
f 211/272/577 210/270/575 290/271/576 291/470/578
f 212/274/579 211/272/577 291/273/578 292/275/580
f 213/276/581 212/274/579 292/275/580 293/277/582
f 214/278/583 213/276/581 293/277/582 294/279/584
f 215/463/585 214/278/583 294/279/584 295/460/586
f 216/282/587 215/280/585 295/281/586 296/283/588
f 217/284/589 216/282/587 296/283/588 297/285/590
f 218/286/591 217/284/589 297/285/590 298/478/592
f 219/288/593 218/286/591 298/287/592 299/289/594
f 220/290/595 219/288/593 299/289/594 300/291/596
f 221/292/597 220/290/595 300/291/596 301/293/598
f 222/294/599 221/292/597 301/293/598 302/474/600
f 223/296/601 222/294/599 302/295/600 303/297/602
f 224/298/603 223/296/601 303/297/602 304/299/604
f 205/261/566 224/298/603 304/299/604 285/262/567
s 5
f 246/300/605 245/301/606 247/302/607 248/303/608
f 249/304/609 246/300/605 248/303/608 250/305/610
f 251/306/611 249/304/609 250/305/610 252/307/612
f 253/308/613 251/306/611 252/307/612 254/309/614
f 255/310/615 253/308/613 254/309/614 256/311/616
f 257/312/617 255/310/615 256/311/616 258/313/618
f 259/314/619 257/312/617 258/313/618 260/315/620
f 261/316/621 259/314/619 260/315/620 262/317/622
f 263/318/623 261/316/621 262/317/622 264/319/624
f 265/461/625 263/318/623 264/319/624 266/462/626
f 267/322/627 265/320/625 266/321/626 268/323/628
f 269/324/629 267/322/627 268/323/628 270/325/630
f 271/326/631 269/324/629 270/325/630 272/327/632
f 273/328/633 271/326/631 272/327/632 274/329/634
f 275/330/635 273/328/633 274/329/634 276/331/636
f 277/332/637 275/330/635 276/331/636 278/333/638
f 279/334/639 277/332/637 278/333/638 280/335/640
f 281/336/641 279/334/639 280/335/640 282/337/642
f 283/338/643 281/336/641 282/337/642 284/339/644
f 245/301/606 283/338/643 284/339/644 247/302/607
s off
f 226/340/645 225/341/646 245/301/647 246/300/648
f 205/261/649 206/260/650 248/303/651 247/302/652
f 227/342/653 226/340/654 246/300/655 249/304/656
f 206/260/657 207/264/658 250/305/659 248/303/660
f 228/343/661 227/342/662 249/304/663 251/306/664
f 207/264/665 208/266/666 252/307/667 250/305/668
f 229/344/669 228/343/670 251/306/671 253/308/672
f 208/266/673 209/268/674 254/309/675 252/307/676
f 230/345/677 229/344/678 253/308/679 255/310/680
f 209/268/681 210/270/682 256/311/683 254/309/684
f 231/346/685 230/345/686 255/310/687 257/312/688
f 210/270/689 211/272/690 258/313/691 256/311/692
f 232/347/693 231/346/694 257/312/695 259/314/696
f 211/272/697 212/274/698 260/315/699 258/313/700
f 233/348/701 232/347/702 259/314/703 261/316/704
f 212/274/705 213/276/706 262/317/707 260/315/708
f 234/349/709 233/348/710 261/316/711 263/318/712
f 213/276/713 214/278/714 264/319/715 262/317/716
f 235/456/717 234/349/718 263/318/719 265/461/720
f 214/278/721 215/463/722 266/462/723 264/319/724
f 236/351/725 235/350/726 265/320/727 267/322/728
f 215/280/729 216/282/730 268/323/731 266/321/732
f 237/352/733 236/351/734 267/322/735 269/324/736
f 216/282/737 217/284/738 270/325/739 268/323/740
f 238/353/741 237/352/742 269/324/743 271/326/744
f 217/284/745 218/286/746 272/327/747 270/325/748
f 239/354/749 238/353/750 271/326/751 273/328/752
f 218/286/753 219/288/754 274/329/755 272/327/756
f 240/355/757 239/354/758 273/328/759 275/330/760
f 219/288/761 220/290/762 276/331/763 274/329/764
f 241/356/765 240/355/766 275/330/767 277/332/768
f 220/290/769 221/292/770 278/333/771 276/331/772
f 242/357/773 241/356/774 277/332/775 279/334/776
f 221/292/777 222/294/778 280/335/779 278/333/780
f 243/358/781 242/357/782 279/334/783 281/336/784
f 222/294/785 223/296/786 282/337/787 280/335/788
f 244/359/789 243/358/790 281/336/791 283/338/792
f 223/296/793 224/298/794 284/339/795 282/337/796
f 225/341/797 244/359/798 283/338/799 245/301/800
f 224/298/801 205/261/802 247/302/803 284/339/804
s 4
f 286/466/568 285/262/567 305/360/805 306/464/806
f 287/265/570 286/263/568 306/361/806 307/362/807
f 288/267/572 287/265/570 307/362/807 308/363/808
f 289/269/574 288/267/572 308/363/808 309/364/809
f 290/271/576 289/269/574 309/364/809 310/365/810
f 291/470/578 290/271/576 310/365/810 311/468/811
f 292/275/580 291/273/578 311/366/811 312/367/812
f 293/277/582 292/275/580 312/367/812 313/368/813
f 294/279/584 293/277/582 313/368/813 314/369/814
f 295/460/586 294/279/584 314/369/814 315/458/815
f 296/283/588 295/281/586 315/370/815 316/371/816
f 297/285/590 296/283/588 316/371/816 317/372/817
f 298/478/592 297/285/590 317/372/817 318/476/818
f 299/289/594 298/287/592 318/373/818 319/374/819
f 300/291/596 299/289/594 319/374/819 320/375/820
f 301/293/598 300/291/596 320/375/820 321/376/821
f 302/474/600 301/293/598 321/376/821 322/472/822
f 303/297/602 302/295/600 322/377/822 323/378/823
f 304/299/604 303/297/602 323/378/823 324/379/824
f 285/262/567 304/299/604 324/379/824 305/360/805
f 306/464/806 305/360/805 190/247/825 189/465/826
f 307/362/807 306/361/806 189/246/826 188/245/827
f 308/363/808 307/362/807 188/245/827 187/244/828
f 309/364/809 308/363/808 187/244/828 186/243/829
f 310/365/810 309/364/809 186/243/829 185/242/830
f 311/468/811 310/365/810 185/242/830 184/469/831
f 312/367/812 311/366/811 184/240/831 183/239/832
f 313/368/813 312/367/812 183/239/832 202/259/833
f 314/369/814 313/368/813 202/259/833 201/258/834
f 315/458/815 314/369/814 201/258/834 200/459/835
f 316/371/816 315/370/815 200/257/835 199/256/836
f 317/372/817 316/371/816 199/256/836 198/255/837
f 318/476/818 317/372/817 198/255/837 197/477/838
f 319/374/819 318/373/818 197/254/838 196/253/839
f 320/375/820 319/374/819 196/253/839 195/252/840
f 321/376/821 320/375/820 195/252/840 194/251/841
f 322/472/822 321/376/821 194/251/841 193/473/842
f 323/378/823 322/377/822 193/250/842 192/249/843
f 324/379/824 323/378/823 192/249/843 191/248/844
f 305/360/805 324/379/824 191/248/844 190/247/825
s 6
f 346/380/845 345/381/846 347/382/847 348/383/848
f 349/384/849 346/380/845 348/383/848 350/385/850
f 351/386/851 349/384/849 350/385/850 352/387/852
f 353/388/853 351/386/851 352/387/852 354/389/854
f 355/390/855 353/388/853 354/389/854 356/391/856
f 357/392/857 355/390/855 356/391/856 358/393/858
f 359/394/859 357/392/857 358/393/858 360/395/860
f 361/396/861 359/394/859 360/395/860 362/397/862
f 363/398/863 361/396/861 362/397/862 364/399/864
f 365/400/865 363/398/863 364/399/864 366/401/866
f 367/402/867 365/400/865 366/401/866 368/403/868
f 369/404/869 367/402/867 368/403/868 370/405/870
f 371/454/871 369/404/869 370/405/870 372/455/872
f 373/408/873 371/406/871 372/407/872 374/409/874
f 375/410/875 373/408/873 374/409/874 376/411/876
f 377/412/877 375/410/875 376/411/876 378/413/878
f 379/414/879 377/412/877 378/413/878 380/415/880
f 381/416/881 379/414/879 380/415/880 382/417/882
f 383/418/883 381/416/881 382/417/882 384/419/884
f 345/381/846 383/418/883 384/419/884 347/382/847
s off
f 326/222/885 325/224/886 345/381/887 346/380/888
f 242/357/889 243/358/890 348/383/891 347/382/892
f 327/220/893 326/222/894 346/380/895 349/384/896
f 243/358/897 244/359/898 350/385/899 348/383/900
f 328/218/901 327/220/902 349/384/903 351/386/904
f 244/359/905 225/341/906 352/387/907 350/385/908
f 329/216/909 328/218/910 351/386/911 353/388/912
f 225/341/913 226/340/914 354/389/915 352/387/916
f 330/214/917 329/216/918 353/388/919 355/390/920
f 226/340/921 227/342/922 356/391/923 354/389/924
f 331/212/925 330/214/926 355/390/927 357/392/928
f 227/342/929 228/343/930 358/393/931 356/391/932
f 332/210/933 331/212/934 357/392/935 359/394/936
f 228/343/937 229/344/938 360/395/939 358/393/940
f 333/209/941 332/210/942 359/394/943 361/396/944
f 229/344/945 230/345/946 362/397/947 360/395/948
f 334/207/949 333/209/950 361/396/951 363/398/952
f 230/345/953 231/346/954 364/399/955 362/397/956
f 335/208/957 334/207/958 363/398/959 365/400/960
f 231/346/961 232/347/962 366/401/963 364/399/964
f 336/237/965 335/208/966 365/400/967 367/402/968
f 232/347/969 233/348/970 368/403/971 366/401/972
f 337/236/973 336/237/974 367/402/975 369/404/976
f 233/348/977 234/349/978 370/405/979 368/403/980
f 338/235/981 337/236/982 369/404/983 371/454/984
f 234/349/985 235/456/986 372/455/987 370/405/988
f 339/234/989 338/457/990 371/406/991 373/408/992
f 235/350/993 236/351/994 374/409/995 372/407/996
f 340/233/997 339/234/998 373/408/999 375/410/1000
f 236/351/1001 237/352/1002 376/411/1003 374/409/1004
f 341/232/1005 340/233/1006 375/410/1007 377/412/1008
f 237/352/1009 238/353/1010 378/413/1011 376/411/1012
f 342/230/1013 341/232/1014 377/412/1015 379/414/1016
f 238/353/1017 239/354/1018 380/415/1019 378/413/1020
f 343/228/1021 342/230/1022 379/414/1023 381/416/1024
f 239/354/1025 240/355/1026 382/417/1027 380/415/1028
f 344/226/1029 343/228/1030 381/416/1031 383/418/1032
f 240/355/1033 241/356/1034 384/419/1035 382/417/1036
f 325/224/1037 344/226/1038 383/418/1039 345/381/1040
f 241/356/1041 242/357/1042 347/382/1043 384/419/1044
g default
v -146.852646 371.644409 -190.072617
v -146.858093 372.572693 -191.894501
v -146.866577 374.018524 -193.340347
v -146.877258 375.840363 -194.268646
v -146.889084 377.859894 -194.588516
v -146.900940 379.879425 -194.268646
v -146.911621 381.701263 -193.340347
v -146.920105 383.147095 -191.894501
v -146.925537 384.075378 -190.072617
v -146.927414 384.395264 -188.053055
v -146.925537 384.075378 -186.033493
v -146.920105 383.147095 -184.211609
v -146.911621 381.701263 -182.765762
v -146.900940 379.879425 -181.837463
v -146.889084 377.859894 -181.517609
v -146.877258 375.840363 -181.837479
v -146.866577 374.018524 -182.765762
v -146.858093 372.572693 -184.211609
v -146.852646 371.644409 -186.033493
v -146.850769 371.324554 -188.053055
v 2.207701 372.518433 -190.072617
v 2.202266 373.446655 -191.894501
v 2.193791 374.892487 -193.340347
v 2.183107 376.714355 -194.268646
v 2.171262 378.733887 -194.588516
v 2.159429 380.753448 -194.268646
v 2.148744 382.575287 -193.340347
v 2.140269 384.021118 -191.894501
v 2.134823 384.949341 -190.072617
v 2.132943 385.269226 -188.053055
v 2.134823 384.949341 -186.033493
v 2.140269 384.021118 -184.211609
v 2.148744 382.575287 -182.765762
v 2.159417 380.753448 -181.837463
v 2.171262 378.733887 -181.517609
v 2.183106 376.714355 -181.837479
v 2.193792 374.892487 -182.765762
v 2.202266 373.446686 -184.211609
v 2.207713 372.518433 -186.033493
v 2.209581 372.198547 -188.053055
v -146.889084 377.859894 -188.053055
v 2.171262 378.733887 -188.053055
v -70.925476 365.877594 -181.837463
v -70.936150 367.699463 -182.765762
v -70.944641 369.145264 -184.211609
v -70.950081 370.073517 -186.033493
v -70.951950 370.393402 -188.053055
v -70.950081 370.073517 -190.072617
v -70.944641 369.145264 -191.894501
v -70.936157 367.699463 -193.340347
v -70.925476 365.877594 -194.268646
v -70.913635 363.858032 -194.588516
v -70.901802 361.838531 -194.268646
v -70.891121 360.016663 -193.340347
v -70.882637 358.570831 -191.894501
v -70.877190 357.642578 -190.072617
v -70.875313 357.322723 -188.053055
v -70.877190 357.642578 -186.033493
v -70.882645 358.570862 -184.211609
v -70.891113 360.016663 -182.765762
v -70.901802 361.838531 -181.837479
v -70.913635 363.858032 -181.517609
vt 0.755404 0.805090
vt 0.755788 0.801096
vt 0.754918 0.797178
vt 0.752879 0.793721
vt 0.749872 0.791064
vt 0.746190 0.789467
vt 0.742194 0.789087
vt 0.738276 0.789961
vt 0.734820 0.792004
vt 0.732166 0.795015
vt 0.730573 0.798700
vt 0.730198 0.802639
vt 0.731059 0.806560
vt 0.733090 0.810021
vt 0.736093 0.812685
vt 0.739772 0.814289
vt 0.743766 0.814677
vt 0.747685 0.813811
vt 0.751144 0.811775
vt 0.753804 0.808770
vt 0.726622 0.759261
vt 0.726890 0.763259
vt 0.727342 0.767232
vt 0.727931 0.771178
vt 0.728597 0.775102
vt 0.729270 0.779016
vt 0.729878 0.782933
vt 0.730357 0.786861
vt 0.730651 0.790803
vt 0.730728 0.794752
vt 0.729641 0.806556
vt 0.728954 0.810458
vt 0.728203 0.814356
vt 0.727460 0.818264
vt 0.726792 0.822195
vt 0.726262 0.826157
vt 0.725915 0.830149
vt 0.725781 0.834159
vt 0.725869 0.838170
vt 0.434975 0.755827
vt 0.434602 0.759816
vt 0.434040 0.763774
vt 0.433337 0.767699
vt 0.432554 0.771599
vt 0.431764 0.775488
vt 0.431039 0.779381
vt 0.430448 0.783291
vt 0.430047 0.787219
vt 0.429872 0.791161
vt 0.429937 0.795107
vt 0.430228 0.799049
vt 0.430709 0.802972
vt 0.431324 0.806882
vt 0.432005 0.810790
vt 0.432677 0.814708
vt 0.433270 0.818650
vt 0.433719 0.822621
vt 0.433979 0.826618
vt 0.434018 0.830630
vt 0.433828 0.834638
vt 0.409096 0.807746
vt 0.412511 0.809854
vt 0.416411 0.810802
vt 0.420413 0.810498
vt 0.424125 0.808970
vt 0.427183 0.806370
vt 0.429286 0.802951
vt 0.428421 0.791389
vt 0.425831 0.788322
vt 0.422419 0.786207
vt 0.418520 0.785250
vt 0.414517 0.785547
vt 0.410802 0.787066
vt 0.407739 0.789660
vt 0.405629 0.793073
vt 0.404677 0.796971
vt 0.404977 0.800973
vt 0.406500 0.804686
vt 0.742992 0.801881
vt 0.417453 0.798025
vt 0.577508 0.809157
vt 0.577555 0.805167
vt 0.577602 0.801142
vt 0.577650 0.797087
vt 0.577698 0.793013
vt 0.577747 0.788940
vt 0.577795 0.784884
vt 0.577844 0.780860
vt 0.577892 0.776870
vt 0.577940 0.772905
vt 0.577988 0.768950
vt 0.578036 0.764989
vt 0.578083 0.761009
vt 0.577179 0.837037
vt 0.578130 0.757011
vt 0.577227 0.833028
vt 0.577275 0.829018
vt 0.577323 0.825019
vt 0.577370 0.821040
vt 0.577416 0.817078
vt 0.577462 0.813123
vn -0.172349 -0.935187 -0.309387
vn -0.146381 -0.794284 -0.589649
vn 0.004762 -0.815619 -0.578570
vn 0.005534 -0.952870 -0.303329
vn -0.105567 -0.572819 -0.812856
vn 0.003540 -0.600295 -0.799771
vn -0.053816 -0.292008 -0.954901
vn 0.001966 -0.326295 -0.945266
vn 0.003454 0.018748 -0.999818
vn 0.000177 -0.019061 -0.999818
vn 0.060029 0.325728 -0.943556
vn -0.001659 0.291831 -0.956469
vn 0.110000 0.596866 -0.794765
vn -0.003354 0.575395 -0.817869
vn 0.148681 0.806751 -0.571880
vn -0.004724 0.802497 -0.596638
vn 0.172976 0.938583 -0.298566
vn -0.005617 0.949244 -0.314491
vn 0.181242 0.983439 0.000000
vn -0.005927 0.999982 -0.000000
vn 0.172976 0.938583 0.298566
vn -0.005617 0.949244 0.314491
vn 0.148679 0.806749 0.571883
vn -0.004726 0.802495 0.596640
vn 0.109999 0.596865 0.794766
vn -0.003355 0.575393 0.817870
vn 0.060029 0.325727 0.943556
vn -0.001659 0.291828 0.956469
vn 0.003453 0.018744 0.999818
vn 0.000178 -0.019064 0.999818
vn -0.053814 -0.292005 0.954902
vn 0.001966 -0.326292 0.945267
vn -0.105567 -0.572819 0.812856
vn 0.003540 -0.600297 0.799769
vn -0.146383 -0.794287 0.589644
vn 0.004761 -0.815618 0.578571
vn -0.172350 -0.935187 0.309387
vn 0.005533 -0.952867 0.303337
vn -0.181242 -0.983439 0.000000
vn 0.005797 -0.999983 -0.000000
vn -0.999983 -0.005864 0.000003
vn -0.999983 -0.005861 0.000002
vn -0.999983 -0.005862 0.000000
vn -0.999983 -0.005864 0.000003
vn -0.999983 -0.005854 0.000001
vn -0.999983 -0.005864 0.000000
vn -0.999983 -0.005868 0.000001
vn -0.999983 -0.005864 0.000001
vn -0.999983 -0.005866 0.000003
vn -0.999983 -0.005861 0.000003
vn -0.999983 -0.005864 0.000000
vn -0.999983 -0.005859 -0.000003
vn -0.999983 -0.005864 -0.000003
vn -0.999983 -0.005864 -0.000001
vn -0.999983 -0.005864 -0.000001
vn -0.999983 -0.005864 0.000000
vn -0.999983 -0.005859 -0.000001
vn -0.999983 -0.005864 -0.000003
vn -0.999983 -0.005864 -0.000003
vn -0.999983 -0.005861 -0.000002
vn -0.999983 -0.005859 0.000000
vn 0.999983 0.005862 0.000001
vn 0.999983 0.005862 0.000002
vn 0.999983 0.005863 0.000000
vn 0.999983 0.005864 0.000001
vn 0.999983 0.005865 0.000000
vn 0.999983 0.005862 0.000000
vn 0.999983 0.005862 0.000001
vn 0.999983 0.005863 0.000001
vn 0.999983 0.005862 0.000001
vn 0.999983 0.005863 0.000002
vn 0.999983 0.005863 0.000000
vn 0.999983 0.005863 -0.000002
vn 0.999983 0.005862 -0.000001
vn 0.999983 0.005860 0.000001
vn 0.999983 0.005862 0.000001
vn 0.999983 0.005865 0.000000
vn 0.999983 0.005865 -0.000000
vn 0.999983 0.005864 -0.000001
vn 0.999983 0.005864 -0.000000
vn 0.999983 0.005864 -0.000001
vn 0.999983 0.005863 -0.000003
vn -0.066264 0.325551 0.943200
vn -0.121243 0.595661 0.794033
vn -0.163735 0.804429 0.571038
vn -0.190389 0.935385 0.298005
vn -0.199452 0.979908 -0.000000
vn -0.190390 0.935385 -0.298005
vn -0.163735 0.804430 -0.571038
vn -0.121242 0.595663 -0.794031
vn -0.066264 0.325555 -0.943198
vn -0.003945 0.019384 -0.999804
vn 0.059170 -0.290702 -0.954982
vn 0.116189 -0.570833 -0.812804
vn 0.161119 -0.791575 -0.589448
vn 0.189680 -0.931894 -0.309185
vn 0.199452 -0.979908 0.000000
vn 0.189678 -0.931888 0.309204
vn 0.161119 -0.791574 0.589451
vn 0.116189 -0.570835 0.812802
vn 0.059170 -0.290699 0.954983
vn -0.003944 0.019380 0.999804
s 1
g Pillar_1 Post_Connecting
usemtl openPBRSurface1SG
f 385/500/1045 386/501/1046 439/572/1047 440/574/1048
f 386/501/1046 387/502/1049 438/571/1050 439/572/1047
f 387/502/1049 388/503/1051 437/570/1052 438/571/1050
f 388/503/1051 389/504/1053 436/569/1054 437/570/1052
f 389/504/1053 390/505/1055 435/568/1056 436/569/1054
f 390/505/1055 391/506/1057 434/567/1058 435/568/1056
f 391/506/1057 392/507/1059 433/566/1060 434/567/1058
f 392/507/1059 393/508/1061 432/565/1062 433/566/1060
f 393/508/1061 394/509/1063 431/564/1064 432/565/1062
f 394/509/1063 395/490/1065 430/563/1066 431/564/1064
f 395/490/1065 396/491/1067 429/562/1068 430/563/1066
f 396/491/1067 397/510/1069 428/561/1070 429/562/1068
f 397/510/1069 398/511/1071 427/560/1072 428/561/1070
f 398/511/1071 399/512/1073 446/580/1074 427/560/1072
f 399/512/1073 400/513/1075 445/579/1076 446/580/1074
f 400/513/1075 401/514/1077 444/578/1078 445/579/1076
f 401/514/1077 402/515/1079 443/577/1080 444/578/1078
f 402/515/1079 403/516/1081 442/576/1082 443/577/1080
f 403/516/1081 404/517/1083 441/575/1084 442/576/1082
f 404/517/1083 385/518/1045 440/573/1048 441/575/1084
s 2
f 386/481/1085 385/480/1086 425/558/1087
f 387/482/1088 386/481/1085 425/558/1087
f 388/483/1089 387/482/1088 425/558/1087
f 389/484/1090 388/483/1089 425/558/1087
f 390/485/1091 389/484/1090 425/558/1087
f 391/486/1092 390/485/1091 425/558/1087
f 392/487/1093 391/486/1092 425/558/1087
f 393/488/1094 392/487/1093 425/558/1087
f 394/489/1095 393/488/1094 425/558/1087
f 395/490/1096 394/489/1095 425/558/1087
f 396/491/1097 395/490/1096 425/558/1087
f 397/492/1098 396/491/1097 425/558/1087
f 398/493/1099 397/492/1098 425/558/1087
f 399/494/1100 398/493/1099 425/558/1087
f 400/495/1101 399/494/1100 425/558/1087
f 401/496/1102 400/495/1101 425/558/1087
f 402/497/1103 401/496/1102 425/558/1087
f 403/498/1104 402/497/1103 425/558/1087
f 404/499/1105 403/498/1104 425/558/1087
f 385/480/1086 404/499/1105 425/558/1087
s 3
f 405/556/1106 406/555/1107 426/559/1108
f 406/555/1107 407/554/1109 426/559/1108
f 407/554/1109 408/553/1110 426/559/1108
f 408/553/1110 409/552/1111 426/559/1108
f 409/552/1111 410/551/1112 426/559/1108
f 410/551/1112 411/550/1113 426/559/1108
f 411/550/1113 412/549/1114 426/559/1108
f 412/549/1114 413/548/1115 426/559/1108
f 413/548/1115 414/547/1116 426/559/1108
f 414/547/1116 415/529/1117 426/559/1108
f 415/529/1117 416/530/1118 426/559/1108
f 416/530/1118 417/546/1119 426/559/1108
f 417/546/1119 418/545/1120 426/559/1108
f 418/545/1120 419/544/1121 426/559/1108
f 419/544/1121 420/543/1122 426/559/1108
f 420/543/1122 421/542/1123 426/559/1108
f 421/542/1123 422/541/1124 426/559/1108
f 422/541/1124 423/540/1125 426/559/1108
f 423/540/1125 424/557/1126 426/559/1108
f 424/557/1126 405/556/1106 426/559/1108
s 1
f 428/561/1070 427/560/1072 418/532/1127 417/531/1128
f 429/562/1068 428/561/1070 417/531/1128 416/530/1129
f 430/563/1066 429/562/1068 416/530/1129 415/529/1130
f 431/564/1064 430/563/1066 415/529/1130 414/528/1131
f 432/565/1062 431/564/1064 414/528/1131 413/527/1132
f 433/566/1060 432/565/1062 413/527/1132 412/526/1133
f 434/567/1058 433/566/1060 412/526/1133 411/525/1134
f 435/568/1056 434/567/1058 411/525/1134 410/524/1135
f 436/569/1054 435/568/1056 410/524/1135 409/523/1136
f 437/570/1052 436/569/1054 409/523/1136 408/522/1137
f 438/571/1050 437/570/1052 408/522/1137 407/521/1138
f 439/572/1047 438/571/1050 407/521/1138 406/520/1139
f 440/574/1048 439/572/1047 406/520/1139 405/519/1140
f 441/575/1084 440/573/1048 405/539/1140 424/538/1141
f 442/576/1082 441/575/1084 424/538/1141 423/537/1142
f 443/577/1080 442/576/1082 423/537/1142 422/536/1143
f 444/578/1078 443/577/1080 422/536/1143 421/535/1144
f 445/579/1076 444/578/1078 421/535/1144 420/534/1145
f 446/580/1074 445/579/1076 420/534/1145 419/533/1146
f 427/560/1072 446/580/1074 419/533/1146 418/532/1127
