# This file uses centimeters as units for non-parametric coordinates.

mtllib Pillar_0_001.mtl
g default
v 200.662170 -0.000031 -193.365372
v 198.220383 -0.000031 -198.157669
v 194.417175 -0.000031 -201.960861
v 189.624878 -0.000031 -204.402664
v 184.312561 -0.000031 -205.244049
v 179.000244 -0.000031 -204.402664
v 174.207962 -0.000031 -201.960861
v 170.404739 -0.000031 -198.157669
v 167.962952 -0.000031 -193.365356
v 167.121567 -0.000031 -188.053055
v 167.962952 -0.000031 -182.740738
v 170.404739 -0.000031 -177.948441
v 174.207962 -0.000031 -174.145248
v 179.000244 -0.000031 -171.703445
v 184.312561 -0.000031 -170.862061
v 189.624878 -0.000031 -171.703445
v 194.417160 -0.000031 -174.145248
v 198.220367 -0.000031 -177.948441
v 200.662155 -0.000031 -182.740753
v 201.503540 -0.000031 -188.053055
v 200.994354 460.964355 -193.473297
v 198.502945 460.964355 -198.362961
v 194.622467 460.964355 -202.243423
v 189.732803 460.964355 -204.734833
v 184.312561 460.964355 -205.593307
v 178.892319 460.964355 -204.734833
v 174.002655 460.964355 -202.243423
v 170.122192 460.964355 -198.362961
v 167.630783 460.964355 -193.473282
v 166.772308 460.964355 -188.053055
v 167.630783 460.964355 -182.632812
v 170.122192 460.964355 -177.743149
v 174.002655 460.964355 -173.862701
v 178.892319 460.964355 -171.371292
v 184.312561 460.964355 -170.512802
v 189.732803 460.964355 -171.371292
v 194.622467 460.964355 -173.862701
v 198.502930 460.964355 -177.743149
v 200.994339 460.964355 -182.632812
v 201.852814 460.964355 -188.053055
v 184.312561 -0.000031 -188.053055
v 184.312561 460.964355 -188.053055
v 175.298965 40.376480 -181.504303
v 173.716461 40.376480 -184.610168
v 173.171158 40.376480 -188.053055
v 173.716461 40.376480 -191.495941
v 175.298965 40.376480 -194.601807
v 177.763809 40.376480 -197.066650
v 180.869675 40.376480 -198.649170
v 184.312561 40.376480 -199.194458
v 187.755447 40.376480 -198.649170
v 190.861328 40.376480 -197.066650
v 193.326157 40.376480 -194.601807
v 194.908676 40.376480 -191.495941
v 195.453964 40.376480 -188.053055
v 194.908661 40.376480 -184.610168
v 193.326157 40.376480 -181.504303
v 190.861313 40.376480 -179.039459
v 187.755447 40.376480 -177.456940
v 184.312561 40.376480 -176.911652
v 180.869675 40.376480 -177.456940
v 177.763809 40.376480 -179.039459
v 177.763809 420.669617 -179.039459
v 175.298965 420.669617 -181.504303
v 173.716461 420.669617 -184.610168
v 173.171158 420.669617 -188.053055
v 173.716461 420.669617 -191.495941
v 175.298965 420.669617 -194.601807
v 177.763809 420.669617 -197.066650
v 180.869675 420.669617 -198.649170
v 184.312561 420.669617 -199.194458
v 187.755447 420.669617 -198.649170
v 190.861328 420.669617 -197.066650
v 193.326157 420.669617 -194.601807
v 194.908676 420.669617 -191.495941
v 195.453964 420.669617 -188.053055
v 194.908661 420.669617 -184.610168
v 193.326157 420.669617 -181.504303
v 190.861313 420.669617 -179.039459
v 187.755447 420.669617 -177.456940
v 184.312561 420.669617 -176.911652
v 180.869675 420.669617 -177.456940
v 175.840454 420.669617 -176.392197
v 172.651718 420.669617 -179.580948
v 170.974670 460.964355 -169.695038
v 165.954529 460.964355 -174.715164
v 170.604416 420.669617 -183.598999
v 162.731400 460.964355 -181.040909
v 169.898956 420.669617 -188.053055
v 161.620789 460.964355 -188.053055
v 170.604416 420.669617 -192.507111
v 162.731400 460.964355 -195.065201
v 172.651718 420.669617 -196.525162
v 165.954529 460.964355 -201.390945
v 175.840454 420.669617 -199.713913
v 170.974670 460.964355 -206.411072
v 179.858505 420.669617 -201.761215
v 177.300415 460.964355 -209.634216
v 184.312561 420.669617 -202.466660
v 184.312561 460.964355 -210.744827
v 188.766617 420.669617 -201.761215
v 191.324707 460.964355 -209.634216
v 192.784668 420.669617 -199.713913
v 197.650452 460.964355 -206.411087
v 195.973434 420.669617 -196.525162
v 202.670609 460.964355 -201.390945
v 198.020721 420.669617 -192.507111
v 205.893723 460.964355 -195.065201
v 198.726166 420.669617 -188.053055
v 207.004333 460.964355 -188.053055
v 198.020706 420.669617 -183.598999
v 205.893707 460.964355 -181.040909
v 195.973404 420.669617 -179.580948
v 202.670593 460.964355 -174.715164
v 192.784668 420.669617 -176.392197
v 197.650452 460.964355 -169.695038
v 188.766617 420.669617 -174.344910
v 191.324707 460.964355 -166.471893
v 184.312561 420.669617 -173.639450
v 184.312561 460.964355 -165.361282
v 179.858505 420.669617 -174.344910
v 177.300415 460.964355 -166.471893
v 205.532379 -0.000031 -194.947784
v 202.363220 -0.000031 -201.167618
v 196.011108 40.376480 -196.552551
v 198.065018 40.376480 -192.521500
v 197.427124 -0.000031 -206.103699
v 192.812057 40.376480 -199.751602
v 191.207291 -0.000031 -209.272858
v 188.781006 40.376480 -201.805527
v 184.312561 -0.000031 -210.364883
v 184.312561 40.376480 -202.513245
v 177.417831 -0.000031 -209.272858
v 179.844116 40.376480 -201.805527
v 171.198013 -0.000031 -206.103699
v 175.813065 40.376480 -199.751602
v 166.261902 -0.000031 -201.167603
v 172.614014 40.376480 -196.552551
v 163.092758 -0.000031 -194.947784
v 170.560104 40.376480 -192.521500
v 162.000732 -0.000031 -188.053055
v 169.852371 40.376480 -188.053055
v 163.092758 -0.000031 -181.158325
v 170.560104 40.376480 -183.584610
v 166.261902 -0.000031 -174.938492
v 172.614014 40.376480 -179.553558
v 171.198013 -0.000031 -170.002411
v 175.813080 40.376480 -176.354507
v 177.417831 -0.000031 -166.833252
v 179.844116 40.376480 -174.300598
v 184.312561 -0.000031 -165.741241
v 184.312561 40.376480 -173.592865
v 191.207291 -0.000031 -166.833252
v 188.781006 40.376480 -174.300598
v 197.427109 -0.000031 -170.002411
v 192.812042 40.376480 -176.354507
v 202.363220 -0.000031 -174.938492
v 196.011108 40.376480 -179.553558
v 205.532379 -0.000031 -181.158325
v 198.065002 40.376480 -183.584610
v 206.624374 -0.000031 -188.053055
v 198.772751 40.376480 -188.053055
vt 0.117948 0.053118
vt 0.108949 0.056224
vt 0.101351 0.061959
vt 0.095897 0.069760
vt 0.093120 0.078866
vt 0.093293 0.088383
vt 0.096399 0.097382
vt 0.102133 0.104980
vt 0.109935 0.110434
vt 0.119040 0.113211
vt 0.128558 0.113038
vt 0.137556 0.109932
vt 0.145154 0.104197
vt 0.150609 0.096396
vt 0.153385 0.087290
vt 0.153212 0.077773
vt 0.150107 0.068774
vt 0.144372 0.061176
vt 0.136570 0.055722
vt 0.127465 0.052945
vt 0.031400 0.126834
vt 0.040673 0.125431
vt 0.050513 0.123025
vt 0.060507 0.120643
vt 0.070492 0.118551
vt 0.080393 0.116816
vt 0.090189 0.115437
vt 0.099882 0.114393
vt 0.109491 0.113658
vt 0.138073 0.113133
vt 0.147616 0.113500
vt 0.157215 0.114151
vt 0.166896 0.115105
vt 0.176679 0.116384
vt 0.186568 0.118009
vt 0.196546 0.119977
vt 0.206547 0.122222
vt 0.216423 0.124493
vt 0.225894 0.125937
vt 0.038986 0.909290
vt 0.048613 0.910932
vt 0.058631 0.913394
vt 0.068769 0.915802
vt 0.078882 0.917904
vt 0.088904 0.919634
vt 0.098817 0.920996
vt 0.108625 0.922011
vt 0.118350 0.922704
vt 0.128019 0.923098
vt 0.137659 0.923205
vt 0.147303 0.923028
vt 0.156979 0.922560
vt 0.166718 0.921788
vt 0.176543 0.920688
vt 0.186474 0.919231
vt 0.196513 0.917393
vt 0.206637 0.915169
vt 0.216773 0.912624
vt 0.226758 0.910028
vt 0.236188 0.908434
vt 0.146189 0.981195
vt 0.154051 0.975614
vt 0.159803 0.967878
vt 0.162884 0.958742
vt 0.162990 0.949101
vt 0.160112 0.939900
vt 0.154532 0.932038
vt 0.146795 0.926285
vt 0.118817 0.925976
vt 0.110955 0.931557
vt 0.105202 0.939293
vt 0.102122 0.948429
vt 0.102016 0.958070
vt 0.104893 0.967271
vt 0.110474 0.975133
vt 0.118211 0.980886
vt 0.127346 0.983966
vt 0.136987 0.984073
vt 0.123253 0.083078
vt 0.132503 0.953586
vt 0.134847 0.198528
vt 0.128751 0.198571
vt 0.122656 0.198680
vt 0.116564 0.198857
vt 0.110480 0.199101
vt 0.104409 0.199412
vt 0.098354 0.199788
vt 0.092322 0.200229
vt 0.086319 0.200735
vt 0.080355 0.201308
vt 0.074444 0.201964
vt 0.188938 0.201151
vt 0.068609 0.202738
vt 0.183091 0.200555
vt 0.177173 0.200070
vt 0.171203 0.199657
vt 0.165195 0.199309
vt 0.159159 0.199022
vt 0.153100 0.198800
vt 0.147026 0.198643
vt 0.140940 0.198552
vt 0.149686 0.837254
vt 0.143592 0.837436
vt 0.137493 0.837547
vt 0.131394 0.837589
vt 0.125299 0.837560
vt 0.119211 0.837461
vt 0.113134 0.837294
vt 0.107074 0.837058
vt 0.101037 0.836756
vt 0.095029 0.836388
vt 0.089060 0.835955
vt 0.083143 0.835448
vt 0.197638 0.833241
vt 0.077298 0.834832
vt 0.191805 0.834034
vt 0.185897 0.834712
vt 0.179935 0.835307
vt 0.173933 0.835832
vt 0.167900 0.836290
vt 0.161844 0.836680
vt 0.155771 0.837002
vt 0.143820 0.843488
vt 0.150175 0.843279
vt 0.156585 0.914081
vt 0.147184 0.914539
vt 0.137466 0.843606
vt 0.137812 0.914717
vt 0.131112 0.843634
vt 0.128440 0.914621
vt 0.124753 0.843573
vt 0.119043 0.914247
vt 0.118387 0.843419
vt 0.109593 0.913584
vt 0.112005 0.843166
vt 0.100062 0.912612
vt 0.105597 0.842803
vt 0.090422 0.911302
vt 0.099144 0.842308
vt 0.080639 0.909630
vt 0.092615 0.841640
vt 0.070669 0.907575
vt 0.085975 0.840713
vt 0.060441 0.905153
vt 0.079191 0.839344
vt 0.049822 0.902457
vt 0.072299 0.837147
vt 0.038570 0.899742
vt 0.195712 0.838058
vt 0.202744 0.835832
vt 0.236909 0.899216
vt 0.225711 0.901766
vt 0.188894 0.839517
vt 0.215127 0.904438
vt 0.182258 0.840580
vt 0.204929 0.906923
vt 0.175744 0.841402
vt 0.194981 0.909074
vt 0.169305 0.842054
vt 0.185209 0.910852
vt 0.162909 0.842572
vt 0.175571 0.912262
vt 0.156536 0.842976
vt 0.166039 0.913330
vt 0.030520 0.135987
vt 0.041574 0.133664
vt 0.070511 0.197807
vt 0.063433 0.199963
vt 0.052033 0.131186
vt 0.077356 0.196401
vt 0.062110 0.128860
vt 0.084007 0.195378
vt 0.071938 0.126834
vt 0.090528 0.194587
vt 0.081591 0.125155
vt 0.096969 0.193960
vt 0.091110 0.123818
vt 0.103363 0.193461
vt 0.100526 0.122804
vt 0.109732 0.193071
vt 0.109864 0.122087
vt 0.116087 0.192778
vt 0.119150 0.121649
vt 0.122435 0.192575
vt 0.128409 0.121475
vt 0.128782 0.192459
vt 0.137668 0.121561
vt 0.135129 0.192428
vt 0.146952 0.121909
vt 0.141481 0.192484
vt 0.156290 0.122532
vt 0.147841 0.192628
vt 0.165707 0.123447
vt 0.154218 0.192867
vt 0.175233 0.124678
vt 0.160623 0.193212
vt 0.184901 0.126251
vt 0.167077 0.193683
vt 0.194755 0.128178
vt 0.173609 0.194321
vt 0.204867 0.130441
vt 0.180261 0.195210
vt 0.215366 0.132942
vt 0.187067 0.196530
vt 0.226482 0.135427
vt 0.194001 0.198659
vn 0.933569 0.190885 -0.303334
vn 0.794141 0.190885 -0.576978
vn 0.794141 0.190885 -0.576978
vn 0.933569 0.190885 -0.303334
vn 0.576977 0.190885 -0.794142
vn 0.576977 0.190885 -0.794141
vn 0.303336 0.190885 -0.933569
vn 0.303336 0.190885 -0.933569
vn -0.000000 0.190885 -0.981613
vn -0.000000 0.190885 -0.981613
vn -0.303336 0.190884 -0.933569
vn -0.303336 0.190884 -0.933569
vn -0.576977 0.190884 -0.794142
vn -0.576977 0.190884 -0.794141
vn -0.794141 0.190885 -0.576978
vn -0.794141 0.190885 -0.576978
vn -0.933569 0.190885 -0.303334
vn -0.933569 0.190885 -0.303334
vn -0.981613 0.190884 0.000000
vn -0.981613 0.190884 0.000000
vn -0.933569 0.190885 0.303334
vn -0.933569 0.190885 0.303334
vn -0.794140 0.190885 0.576978
vn -0.794140 0.190885 0.576978
vn -0.576976 0.190885 0.794142
vn -0.576976 0.190885 0.794142
vn -0.303335 0.190885 0.933569
vn -0.303335 0.190885 0.933569
vn 0.000000 0.190884 0.981613
vn 0.000000 0.190884 0.981613
vn 0.303335 0.190884 0.933569
vn 0.303335 0.190884 0.933569
vn 0.576976 0.190884 0.794142
vn 0.576976 0.190884 0.794142
vn 0.794140 0.190885 0.576978
vn 0.794140 0.190885 0.576979
vn 0.933569 0.190885 0.303334
vn 0.933569 0.190885 0.303334
vn 0.981613 0.190884 0.000001
vn 0.981613 0.190884 0.000001
vn 0.000000 -1.000000 0.000000
vn 0.000000 -1.000000 0.000000
vn 0.000000 -1.000000 0.000000
vn 0.000000 -1.000000 0.000000
vn 0.000000 -1.000000 0.000000
vn 0.000000 -1.000000 0.000000
vn 0.000000 -1.000000 0.000000
vn 0.000000 -1.000000 0.000000
vn 0.000000 -1.000000 0.000000
vn 0.000000 -1.000000 0.000000
vn 0.000000 -1.000000 0.000000
vn 0.000000 -1.000000 0.000000
vn 0.000000 -1.000000 0.000000
vn 0.000000 -1.000000 0.000000
vn 0.000000 -1.000000 0.000000
vn 0.000000 -1.000000 0.000000
vn 0.000000 -1.000000 0.000000
vn 0.000000 -1.000000 0.000000
vn 0.000000 -1.000000 0.000000
vn 0.000000 -1.000000 0.000000
vn 0.000000 -1.000000 0.000000
vn 0.000000 1.000000 0.000000
vn 0.000000 1.000000 -0.000005
vn 0.000000 1.000000 -0.000001
vn 0.000000 1.000000 -0.000005
vn 0.000000 1.000000 0.000000
vn 0.000000 1.000000 0.000000
vn 0.000000 1.000000 0.000003
vn 0.000000 1.000000 0.000003
vn 0.000000 1.000000 0.000000
vn 0.000000 1.000000 0.000000
vn 0.000000 1.000000 0.000000
vn 0.000000 1.000000 0.000000
vn 0.000000 1.000000 0.000000
vn 0.000000 1.000000 0.000000
vn 0.000000 1.000000 0.000000
vn 0.000000 1.000000 0.000000
vn 0.000000 1.000000 -0.000003
vn 0.000000 1.000000 -0.000003
vn 0.000000 1.000000 0.000000
vn 0.000000 1.000000 0.000000
vn 0.000000 1.000000 0.000000
vn -0.951057 0.000000 0.309016
vn -0.809018 0.000000 0.587783
vn -0.809018 0.000000 0.587783
vn -0.951057 0.000000 0.309016
vn -1.000000 0.000000 0.000000
vn -1.000000 0.000000 0.000000
vn -0.951057 0.000000 -0.309016
vn -0.951057 0.000000 -0.309016
vn -0.809017 0.000000 -0.587785
vn -0.809017 0.000000 -0.587785
vn -0.587787 0.000000 -0.809016
vn -0.587787 0.000000 -0.809016
vn -0.309017 0.000000 -0.951056
vn -0.309017 0.000000 -0.951056
vn 0.000000 0.000000 -1.000000
vn 0.000000 0.000000 -1.000000
vn 0.309017 0.000000 -0.951057
vn 0.309017 0.000000 -0.951057
vn 0.587787 0.000000 -0.809016
vn 0.587787 0.000000 -0.809016
vn 0.809017 0.000000 -0.587785
vn 0.809017 0.000000 -0.587785
vn 0.951057 0.000000 -0.309016
vn 0.951057 0.000000 -0.309016
vn 1.000000 0.000000 0.000002
vn 1.000000 0.000000 0.000002
vn 0.951057 0.000000 0.309016
vn 0.951057 0.000000 0.309016
vn 0.809018 0.000000 0.587783
vn 0.809018 0.000000 0.587783
vn 0.587787 0.000000 0.809016
vn 0.587787 0.000000 0.809016
vn 0.309015 0.000000 0.951057
vn 0.309015 0.000000 0.951057
vn 0.000000 0.000000 1.000000
vn 0.000000 0.000000 1.000000
vn -0.309015 0.000000 0.951057
vn -0.309015 0.000000 0.951057
vn -0.587787 0.000000 0.809016
vn -0.587787 0.000000 0.809016
vn -0.792466 -0.201238 0.575761
vn -0.575761 -0.201238 0.792466
vn -0.575761 -0.201238 0.792466
vn -0.792466 -0.201238 0.575761
vn -0.931600 -0.201238 0.302696
vn -0.931600 -0.201238 0.302695
vn -0.979542 -0.201237 0.000000
vn -0.979542 -0.201237 0.000000
vn -0.931600 -0.201238 -0.302695
vn -0.931600 -0.201238 -0.302695
vn -0.792467 -0.201238 -0.575760
vn -0.792467 -0.201238 -0.575760
vn -0.575761 -0.201237 -0.792466
vn -0.575761 -0.201237 -0.792466
vn -0.302694 -0.201237 -0.931601
vn -0.302694 -0.201237 -0.931601
vn 0.000000 -0.201237 -0.979543
vn 0.000000 -0.201237 -0.979543
vn 0.302694 -0.201238 -0.931601
vn 0.302694 -0.201238 -0.931601
vn 0.575761 -0.201238 -0.792466
vn 0.575761 -0.201238 -0.792466
vn 0.792466 -0.201238 -0.575761
vn 0.792466 -0.201238 -0.575761
vn 0.931601 -0.201238 -0.302694
vn 0.931601 -0.201238 -0.302694
vn 0.979543 -0.201237 0.000001
vn 0.979543 -0.201237 0.000001
vn 0.931600 -0.201237 0.302696
vn 0.931600 -0.201237 0.302696
vn 0.792467 -0.201238 0.575761
vn 0.792467 -0.201238 0.575760
vn 0.575761 -0.201237 0.792466
vn 0.575761 -0.201237 0.792466
vn 0.302695 -0.201238 0.931601
vn 0.302695 -0.201238 0.931600
vn -0.000000 -0.201237 0.979543
vn -0.000000 -0.201237 0.979543
vn -0.302695 -0.201238 0.931601
vn -0.302695 -0.201238 0.931601
vn 0.000000 -1.000000 0.000000
vn 0.000000 -1.000000 0.000000
vn 0.000000 -1.000000 0.000000
vn 0.000000 -1.000000 0.000000
vn 0.000000 1.000000 0.000000
vn 0.000000 1.000000 0.000000
vn 0.000000 1.000000 0.000000
vn 0.000000 1.000000 0.000000
vn 0.000000 -1.000000 -0.000009
vn 0.000000 -1.000000 -0.000009
vn 0.000000 -1.000000 -0.000009
vn 0.000000 -1.000000 -0.000009
vn 0.000000 1.000000 0.000000
vn 0.000000 1.000000 0.000000
vn 0.000000 1.000000 0.000000
vn 0.000000 1.000000 0.000000
vn 0.000000 -1.000000 0.000000
vn 0.000000 -1.000000 0.000000
vn 0.000000 -1.000000 0.000000
vn 0.000000 -1.000000 0.000000
vn 0.000000 1.000000 0.000000
vn 0.000000 1.000000 0.000000
vn 0.000000 1.000000 0.000000
vn 0.000000 1.000000 0.000000
vn 0.000000 -1.000000 0.000000
vn 0.000000 -1.000000 0.000000
vn 0.000000 -1.000000 0.000000
vn 0.000000 -1.000000 0.000000
vn 0.000000 1.000000 0.000000
vn 0.000000 1.000000 0.000000
vn 0.000000 1.000000 0.000000
vn 0.000000 1.000000 0.000000
vn 0.000000 -1.000000 0.000019
vn 0.000000 -1.000000 0.000019
vn 0.000000 -1.000000 0.000019
vn 0.000000 -1.000000 0.000019
vn 0.000000 1.000000 0.000000
vn 0.000000 1.000000 0.000000
vn 0.000000 1.000000 0.000000
vn 0.000000 1.000000 0.000000
vn 0.000000 -1.000000 0.000009
vn 0.000000 -1.000000 0.000009
vn 0.000000 -1.000000 0.000009
vn 0.000000 -1.000000 0.000009
vn 0.000000 1.000000 0.000000
vn 0.000000 1.000000 0.000000
vn 0.000000 1.000000 0.000000
vn 0.000000 1.000000 0.000000
vn 0.000000 -1.000000 -0.000017
vn 0.000000 -1.000000 -0.000017
vn 0.000000 -1.000000 -0.000017
vn 0.000000 -1.000000 -0.000017
vn 0.000000 1.000000 0.000000
vn 0.000000 1.000000 0.000000
vn 0.000000 1.000000 0.000000
vn 0.000000 1.000000 0.000000
vn 0.000000 -1.000000 0.000000
vn 0.000000 -1.000000 0.000000
vn 0.000000 -1.000000 0.000000
vn 0.000000 -1.000000 0.000000
vn 0.000000 1.000000 -0.000002
vn 0.000000 1.000000 -0.000002
vn 0.000000 1.000000 -0.000002
vn 0.000000 1.000000 -0.000002
vn 0.000000 -1.000000 -0.000002
vn 0.000000 -1.000000 -0.000002
vn 0.000000 -1.000000 -0.000002
vn 0.000000 -1.000000 -0.000002
vn 0.000000 1.000000 0.000000
vn 0.000000 1.000000 0.000000
vn 0.000000 1.000000 0.000000
vn 0.000000 1.000000 0.000000
vn 0.000000 -1.000000 -0.000005
vn 0.000000 -1.000000 -0.000005
vn 0.000000 -1.000000 -0.000005
vn 0.000000 -1.000000 -0.000005
vn 0.000000 1.000000 0.000002
vn 0.000000 1.000000 0.000002
vn 0.000000 1.000000 0.000002
vn 0.000000 1.000000 0.000002
vn 0.000000 -1.000000 0.000000
vn 0.000000 -1.000000 0.000000
vn 0.000000 -1.000000 0.000000
vn 0.000000 -1.000000 0.000000
vn 0.000000 1.000000 0.000000
vn 0.000000 1.000000 0.000000
vn 0.000000 1.000000 0.000000
vn 0.000000 1.000000 0.000000
vn 0.000000 -1.000000 0.000000
vn 0.000000 -1.000000 0.000000
vn 0.000000 -1.000000 0.000000
vn 0.000000 -1.000000 0.000000
vn 0.000000 1.000000 0.000004
vn 0.000000 1.000000 0.000004
vn 0.000000 1.000000 0.000004
vn 0.000000 1.000000 0.000004
vn 0.000000 -1.000000 -0.000009
vn 0.000000 -1.000000 -0.000009
vn 0.000000 -1.000000 -0.000009
vn 0.000000 -1.000000 -0.000009
vn 0.000000 1.000000 0.000000
vn 0.000000 1.000000 0.000000
vn 0.000000 1.000000 0.000000
vn 0.000000 1.000000 0.000000
vn 0.000000 -1.000000 0.000000
vn 0.000000 -1.000000 0.000000
vn 0.000000 -1.000000 0.000000
vn 0.000000 -1.000000 0.000000
vn 0.000000 1.000000 0.000000
vn 0.000000 1.000000 0.000000
vn 0.000000 1.000000 0.000000
vn 0.000000 1.000000 0.000000
vn 0.000000 -1.000000 -0.000019
vn 0.000000 -1.000000 -0.000019
vn 0.000000 -1.000000 -0.000019
vn 0.000000 -1.000000 -0.000019
vn 0.000000 1.000000 0.000000
vn 0.000000 1.000000 0.000000
vn 0.000000 1.000000 0.000000
vn 0.000000 1.000000 0.000000
vn 0.000000 -1.000000 -0.000009
vn 0.000000 -1.000000 -0.000009
vn 0.000000 -1.000000 -0.000009
vn 0.000000 -1.000000 -0.000009
vn 0.000000 1.000000 0.000000
vn 0.000000 1.000000 0.000000
vn 0.000000 1.000000 0.000000
vn 0.000000 1.000000 0.000000
vn 0.000000 -1.000000 0.000017
vn 0.000000 -1.000000 0.000017
vn 0.000000 -1.000000 0.000017
vn 0.000000 -1.000000 0.000017
vn 0.000000 1.000000 0.000000
vn 0.000000 1.000000 0.000000
vn 0.000000 1.000000 0.000000
vn 0.000000 1.000000 0.000000
vn 0.000000 -1.000000 0.000000
vn 0.000000 -1.000000 0.000000
vn 0.000000 -1.000000 0.000000
vn 0.000000 -1.000000 0.000000
vn 0.000000 1.000000 0.000002
vn 0.000000 1.000000 0.000002
vn 0.000000 1.000000 0.000002
vn 0.000000 1.000000 0.000002
vn 0.000000 -1.000000 0.000002
vn 0.000000 -1.000000 0.000002
vn 0.000000 -1.000000 0.000002
vn 0.000000 -1.000000 0.000002
vn 0.000000 1.000000 0.000000
vn 0.000000 1.000000 0.000000
vn 0.000000 1.000000 0.000000
vn 0.000000 1.000000 0.000000
vn 0.000000 -1.000000 0.000009
vn 0.000000 -1.000000 0.000009
vn 0.000000 -1.000000 0.000009
vn 0.000000 -1.000000 0.000009
vn 0.000000 1.000000 -0.000002
vn 0.000000 1.000000 -0.000002
vn 0.000000 1.000000 -0.000002
vn 0.000000 1.000000 -0.000002
vn 0.000000 -1.000000 0.000000
vn 0.000000 -1.000000 0.000000
vn 0.000000 -1.000000 0.000000
vn 0.000000 -1.000000 0.000000
vn 0.000000 1.000000 0.000000
vn 0.000000 1.000000 0.000000
vn 0.000000 1.000000 0.000000
vn 0.000000 1.000000 0.000000
vn 0.000000 -1.000000 0.000000
vn 0.000000 -1.000000 0.000000
vn 0.000000 -1.000000 0.000000
vn 0.000000 -1.000000 0.000000
vn 0.000000 1.000000 0.000001
vn 0.000000 1.000000 0.000001
vn 0.000000 1.000000 0.000001
vn 0.000000 1.000000 0.000001
vn 0.000000 -1.000000 0.000000
vn 0.000000 -1.000000 0.000000
vn 0.000000 -1.000000 0.000000
vn 0.000000 -1.000000 0.000000
vn 0.000000 1.000000 -0.000001
vn 0.000000 1.000000 -0.000001
vn 0.000000 1.000000 -0.000001
vn 0.000000 1.000000 -0.000001
vn 0.000000 -1.000000 0.000000
vn 0.000000 -1.000000 0.000000
vn 0.000000 -1.000000 0.000000
vn 0.000000 -1.000000 0.000000
vn 0.000000 1.000000 0.000000
vn 0.000000 1.000000 0.000000
vn 0.000000 1.000000 0.000000
vn 0.000000 1.000000 0.000000
vn 0.000000 -1.000000 0.000000
vn 0.000000 -1.000000 0.000000
vn 0.000000 -1.000000 0.000000
vn 0.000000 -1.000000 0.000000
vn 0.000000 1.000000 0.000001
vn 0.000000 1.000000 0.000001
vn 0.000000 1.000000 0.000001
vn 0.000000 1.000000 0.000001
vn 0.000000 -1.000000 0.000000
vn 0.000000 -1.000000 0.000000
vn 0.000000 -1.000000 0.000000
vn 0.000000 -1.000000 0.000000
vn 0.000000 1.000000 0.000000
vn 0.000000 1.000000 0.000000
vn 0.000000 1.000000 0.000000
vn 0.000000 1.000000 0.000000
vn 0.000000 -1.000000 0.000000
vn 0.000000 -1.000000 0.000000
vn 0.000000 -1.000000 0.000000
vn 0.000000 -1.000000 0.000000
vn 0.000000 1.000000 -0.000001
vn 0.000000 1.000000 -0.000001
vn 0.000000 1.000000 -0.000001
vn 0.000000 1.000000 -0.000001
vn 0.000000 -1.000000 0.000000
vn 0.000000 -1.000000 0.000000
vn 0.000000 -1.000000 0.000000
vn 0.000000 -1.000000 0.000000
vn 0.000000 1.000000 0.000000
vn 0.000000 1.000000 0.000000
vn 0.000000 1.000000 0.000000
vn 0.000000 1.000000 0.000000
vn 0.000000 -1.000000 0.000000
vn 0.000000 -1.000000 0.000000
vn 0.000000 -1.000000 0.000000
vn 0.000000 -1.000000 0.000000
vn 0.000000 1.000000 0.000001
vn 0.000000 1.000000 0.000001
vn 0.000000 1.000000 0.000001
vn 0.000000 1.000000 0.000001
vn 0.000000 -1.000000 0.000000
vn 0.000000 -1.000000 0.000000
vn 0.000000 -1.000000 0.000000
vn 0.000000 -1.000000 0.000000
vn 0.000000 1.000000 -0.000001
vn 0.000000 1.000000 -0.000001
vn 0.000000 1.000000 -0.000001
vn 0.000000 1.000000 -0.000001
vn 0.000000 -1.000000 0.000000
vn 0.000000 -1.000000 0.000000
vn 0.000000 -1.000000 0.000000
vn 0.000000 -1.000000 0.000000
vn 0.000000 1.000000 0.000000
vn 0.000000 1.000000 0.000000
vn 0.000000 1.000000 0.000000
vn 0.000000 1.000000 0.000000
vn 0.000000 -1.000000 0.000000
vn 0.000000 -1.000000 0.000000
vn 0.000000 -1.000000 0.000000
vn 0.000000 -1.000000 0.000000
vn 0.000000 1.000000 -0.000001
vn 0.000000 1.000000 -0.000001
vn 0.000000 1.000000 -0.000001
vn 0.000000 1.000000 -0.000001
vn 0.000000 -1.000000 0.000000
vn 0.000000 -1.000000 0.000000
vn 0.000000 -1.000000 0.000000
vn 0.000000 -1.000000 0.000000
vn 0.000000 1.000000 0.000001
vn 0.000000 1.000000 0.000001
vn 0.000000 1.000000 0.000001
vn 0.000000 1.000000 0.000001
vn 0.000000 -1.000000 0.000000
vn 0.000000 -1.000000 0.000000
vn 0.000000 -1.000000 0.000000
vn 0.000000 -1.000000 0.000000
vn 0.000000 1.000000 0.000000
vn 0.000000 1.000000 0.000000
vn 0.000000 1.000000 0.000000
vn 0.000000 1.000000 0.000000
vn 0.000000 -1.000000 0.000000
vn 0.000000 -1.000000 0.000000
vn 0.000000 -1.000000 0.000000
vn 0.000000 -1.000000 0.000000
vn 0.000000 1.000000 -0.000001
vn 0.000000 1.000000 -0.000001
vn 0.000000 1.000000 -0.000001
vn 0.000000 1.000000 -0.000001
vn 0.000000 -1.000000 0.000000
vn 0.000000 -1.000000 0.000000
vn 0.000000 -1.000000 0.000000
vn 0.000000 -1.000000 0.000000
vn 0.000000 1.000000 0.000000
vn 0.000000 1.000000 0.000000
vn 0.000000 1.000000 0.000000
vn 0.000000 1.000000 0.000000
vn 0.000000 -1.000000 0.000000
vn 0.000000 -1.000000 0.000000
vn 0.000000 -1.000000 0.000000
vn 0.000000 -1.000000 0.000000
vn 0.000000 1.000000 -0.000001
vn 0.000000 1.000000 -0.000001
vn 0.000000 1.000000 -0.000001
vn 0.000000 1.000000 -0.000001
vn 0.000000 -1.000000 0.000000
vn 0.000000 -1.000000 0.000000
vn 0.000000 -1.000000 0.000000
vn 0.000000 -1.000000 0.000000
vn 0.000000 1.000000 0.000001
vn 0.000000 1.000000 0.000001
vn 0.000000 1.000000 0.000001
vn 0.000000 1.000000 0.000001
vn 0.000000 -1.000000 0.000000
vn 0.000000 -1.000000 0.000000
vn 0.000000 -1.000000 0.000000
vn 0.000000 -1.000000 0.000000
vn 0.000000 1.000000 0.000000
vn 0.000000 1.000000 0.000000
vn 0.000000 1.000000 0.000000
vn 0.000000 1.000000 0.000000
vn 0.000000 -1.000000 0.000000
vn 0.000000 -1.000000 0.000000
vn 0.000000 -1.000000 0.000000
vn 0.000000 -1.000000 0.000000
vn 0.000000 1.000000 0.000001
vn 0.000000 1.000000 0.000001
vn 0.000000 1.000000 0.000001
vn 0.000000 1.000000 0.000001
s 1
g Pillar_No_Lamp Pillar_0
usemtl openPBRSurface6SG
f 123/165/1 124/166/2 125/167/3 126/168/4
f 124/166/2 127/169/5 128/170/6 125/167/3
f 127/169/5 129/171/7 130/172/8 128/170/6
f 129/171/7 131/173/9 132/174/10 130/172/8
f 131/173/9 133/175/11 134/176/12 132/174/10
f 133/175/11 135/177/13 136/178/14 134/176/12
f 135/177/13 137/179/15 138/180/16 136/178/14
f 137/179/15 139/181/17 140/182/18 138/180/16
f 139/181/17 141/183/19 142/184/20 140/182/18
f 141/183/19 143/185/21 144/186/22 142/184/20
f 143/185/21 145/187/23 146/188/24 144/186/22
f 145/187/23 147/189/25 148/190/26 146/188/24
f 147/189/25 149/191/27 150/192/28 148/190/26
f 149/191/27 151/193/29 152/194/30 150/192/28
f 151/193/29 153/195/31 154/196/32 152/194/30
f 153/195/31 155/197/33 156/198/34 154/196/32
f 155/197/33 157/199/35 158/200/36 156/198/34
f 157/199/35 159/201/37 160/202/38 158/200/36
f 159/201/37 161/203/39 162/204/40 160/202/38
f 161/203/39 123/205/1 126/206/4 162/204/40
s 2
f 2/2/41 1/1/42 41/79/43
f 3/3/44 2/2/41 41/79/43
f 4/4/45 3/3/44 41/79/43
f 5/5/46 4/4/45 41/79/43
f 6/6/47 5/5/46 41/79/43
f 7/7/48 6/6/47 41/79/43
f 8/8/49 7/7/48 41/79/43
f 9/9/50 8/8/49 41/79/43
f 10/10/51 9/9/50 41/79/43
f 11/11/52 10/10/51 41/79/43
f 12/12/53 11/11/52 41/79/43
f 13/13/54 12/12/53 41/79/43
f 14/14/55 13/13/54 41/79/43
f 15/15/56 14/14/55 41/79/43
f 16/16/57 15/15/56 41/79/43
f 17/17/58 16/16/57 41/79/43
f 18/18/59 17/17/58 41/79/43
f 19/19/60 18/18/59 41/79/43
f 20/20/61 19/19/60 41/79/43
f 1/1/42 20/20/61 41/79/43
s 3
f 21/77/62 22/76/63 42/80/64
f 22/76/63 23/75/65 42/80/64
f 23/75/65 24/74/66 42/80/64
f 24/74/66 25/73/67 42/80/64
f 25/73/67 26/72/68 42/80/64
f 26/72/68 27/71/69 42/80/64
f 27/71/69 28/70/70 42/80/64
f 28/70/70 29/69/71 42/80/64
f 29/69/71 30/49/72 42/80/64
f 30/49/72 31/50/73 42/80/64
f 31/50/73 32/68/74 42/80/64
f 32/68/74 33/67/75 42/80/64
f 33/67/75 34/66/76 42/80/64
f 34/66/76 35/65/77 42/80/64
f 35/65/77 36/64/78 42/80/64
f 36/64/78 37/63/79 42/80/64
f 37/63/79 38/62/80 42/80/64
f 38/62/80 39/61/81 42/80/64
f 39/61/81 40/78/82 42/80/64
f 40/78/82 21/77/62 42/80/64
s 4
f 44/82/83 43/81/84 64/103/85 65/104/86
f 45/83/87 44/82/83 65/104/86 66/105/88
f 46/84/89 45/83/87 66/105/88 67/106/90
f 47/85/91 46/84/89 67/106/90 68/107/92
f 48/86/93 47/85/91 68/107/92 69/108/94
f 49/87/95 48/86/93 69/108/94 70/109/96
f 50/88/97 49/87/95 70/109/96 71/110/98
f 51/89/99 50/88/97 71/110/98 72/111/100
f 52/90/101 51/89/99 72/111/100 73/112/102
f 53/91/103 52/90/101 73/112/102 74/113/104
f 54/93/105 53/91/103 74/113/104 75/115/106
f 55/94/107 54/92/105 75/114/106 76/116/108
f 56/95/109 55/94/107 76/116/108 77/117/110
f 57/96/111 56/95/109 77/117/110 78/118/112
f 58/97/113 57/96/111 78/118/112 79/119/114
f 59/98/115 58/97/113 79/119/114 80/120/116
f 60/99/117 59/98/115 80/120/116 81/121/118
f 61/100/119 60/99/117 81/121/118 82/122/120
f 62/101/121 61/100/119 82/122/120 63/102/122
f 43/81/84 62/101/121 63/102/122 64/103/85
s 5
f 84/123/123 83/124/124 85/125/125 86/126/126
f 87/127/127 84/123/123 86/126/126 88/128/128
f 89/129/129 87/127/127 88/128/128 90/130/130
f 91/131/131 89/129/129 90/130/130 92/132/132
f 93/133/133 91/131/131 92/132/132 94/134/134
f 95/135/135 93/133/133 94/134/134 96/136/136
f 97/137/137 95/135/135 96/136/136 98/138/138
f 99/139/139 97/137/137 98/138/138 100/140/140
f 101/141/141 99/139/139 100/140/140 102/142/142
f 103/143/143 101/141/141 102/142/142 104/144/144
f 105/145/145 103/143/143 104/144/144 106/146/146
f 107/147/147 105/145/145 106/146/146 108/148/148
f 109/149/149 107/150/147 108/151/148 110/152/150
f 111/153/151 109/149/149 110/152/150 112/154/152
f 113/155/153 111/153/151 112/154/152 114/156/154
f 115/157/155 113/155/153 114/156/154 116/158/156
f 117/159/157 115/157/155 116/158/156 118/160/158
f 119/161/159 117/159/157 118/160/158 120/162/160
f 121/163/161 119/161/159 120/162/160 122/164/162
f 83/124/124 121/163/161 122/164/162 85/125/125
s off
f 64/103/163 63/102/164 83/124/165 84/123/166
f 33/52/167 32/51/168 86/126/169 85/125/170
f 65/104/171 64/103/172 84/123/173 87/127/174
f 32/51/175 31/50/176 88/128/177 86/126/178
f 66/105/179 65/104/180 87/127/181 89/129/182
f 31/50/183 30/49/184 90/130/185 88/128/186
f 67/106/187 66/105/188 89/129/189 91/131/190
f 30/49/191 29/48/192 92/132/193 90/130/194
f 68/107/195 67/106/196 91/131/197 93/133/198
f 29/48/199 28/47/200 94/134/201 92/132/202
f 69/108/203 68/107/204 93/133/205 95/135/206
f 28/47/207 27/46/208 96/136/209 94/134/210
f 70/109/211 69/108/212 95/135/213 97/137/214
f 27/46/215 26/45/216 98/138/217 96/136/218
f 71/110/219 70/109/220 97/137/221 99/139/222
f 26/45/223 25/44/224 100/140/225 98/138/226
f 72/111/227 71/110/228 99/139/229 101/141/230
f 25/44/231 24/43/232 102/142/233 100/140/234
f 73/112/235 72/111/236 101/141/237 103/143/238
f 24/43/239 23/42/240 104/144/241 102/142/242
f 74/113/243 73/112/244 103/143/245 105/145/246
f 23/42/247 22/41/248 106/146/249 104/144/250
f 75/115/251 74/113/252 105/145/253 107/147/254
f 22/41/255 21/40/256 108/148/257 106/146/258
f 76/116/259 75/114/260 107/150/261 109/149/262
f 21/60/263 40/59/264 110/152/265 108/151/266
f 77/117/267 76/116/268 109/149/269 111/153/270
f 40/59/271 39/58/272 112/154/273 110/152/274
f 78/118/275 77/117/276 111/153/277 113/155/278
f 39/58/279 38/57/280 114/156/281 112/154/282
f 79/119/283 78/118/284 113/155/285 115/157/286
f 38/57/287 37/56/288 116/158/289 114/156/290
f 80/120/291 79/119/292 115/157/293 117/159/294
f 37/56/295 36/55/296 118/160/297 116/158/298
f 81/121/299 80/120/300 117/159/301 119/161/302
f 36/55/303 35/54/304 120/162/305 118/160/306
f 82/122/307 81/121/308 119/161/309 121/163/310
f 35/54/311 34/53/312 122/164/313 120/162/314
f 63/102/315 82/122/316 121/163/317 83/124/318
f 34/53/319 33/52/320 85/125/321 122/164/322
f 1/21/323 2/22/324 124/166/325 123/165/326
f 53/91/327 54/93/328 126/168/329 125/167/330
f 2/22/331 3/23/332 127/169/333 124/166/334
f 52/90/335 53/91/336 125/167/337 128/170/338
f 3/23/339 4/24/340 129/171/341 127/169/342
f 51/89/343 52/90/344 128/170/345 130/172/346
f 4/24/347 5/25/348 131/173/349 129/171/350
f 50/88/351 51/89/352 130/172/353 132/174/354
f 5/25/355 6/26/356 133/175/357 131/173/358
f 49/87/359 50/88/360 132/174/361 134/176/362
f 6/26/363 7/27/364 135/177/365 133/175/366
f 48/86/367 49/87/368 134/176/369 136/178/370
f 7/27/371 8/28/372 137/179/373 135/177/374
f 47/85/375 48/86/376 136/178/377 138/180/378
f 8/28/379 9/29/380 139/181/381 137/179/382
f 46/84/383 47/85/384 138/180/385 140/182/386
f 9/29/387 10/10/388 141/183/389 139/181/390
f 45/83/391 46/84/392 140/182/393 142/184/394
f 10/10/395 11/11/396 143/185/397 141/183/398
f 44/82/399 45/83/400 142/184/401 144/186/402
f 11/11/403 12/30/404 145/187/405 143/185/406
f 43/81/407 44/82/408 144/186/409 146/188/410
f 12/30/411 13/31/412 147/189/413 145/187/414
f 62/101/415 43/81/416 146/188/417 148/190/418
f 13/31/419 14/32/420 149/191/421 147/189/422
f 61/100/423 62/101/424 148/190/425 150/192/426
f 14/32/427 15/33/428 151/193/429 149/191/430
f 60/99/431 61/100/432 150/192/433 152/194/434
f 15/33/435 16/34/436 153/195/437 151/193/438
f 59/98/439 60/99/440 152/194/441 154/196/442
f 16/34/443 17/35/444 155/197/445 153/195/446
f 58/97/447 59/98/448 154/196/449 156/198/450
f 17/35/451 18/36/452 157/199/453 155/197/454
f 57/96/455 58/97/456 156/198/457 158/200/458
f 18/36/459 19/37/460 159/201/461 157/199/462
f 56/95/463 57/96/464 158/200/465 160/202/466
f 19/37/467 20/38/468 161/203/469 159/201/470
f 55/94/471 56/95/472 160/202/473 162/204/474
f 20/38/475 1/39/476 123/205/477 161/203/478
f 54/92/479 55/94/480 162/204/481 126/206/482
g default
v 183.459915 371.644409 -190.072617
v 183.454468 372.572693 -191.894501
v 183.445984 374.018524 -193.340347
v 183.435303 375.840363 -194.268646
v 183.423477 377.859894 -194.588516
v 183.411621 379.879425 -194.268646
v 183.400940 381.701263 -193.340347
v 183.392456 383.147095 -191.894501
v 183.387024 384.075378 -190.072617
v 183.385147 384.395264 -188.053055
v 183.387024 384.075378 -186.033493
v 183.392456 383.147095 -184.211609
v 183.400940 381.701263 -182.765762
v 183.411621 379.879425 -181.837463
v 183.423477 377.859894 -181.517609
v 183.435303 375.840363 -181.837479
v 183.445984 374.018524 -182.765762
v 183.454468 372.572693 -184.211609
v 183.459915 371.644409 -186.033493
v 183.461792 371.324554 -188.053055
v 332.520264 372.518433 -190.072617
v 332.514832 373.446655 -191.894501
v 332.506378 374.892487 -193.340347
v 332.495667 376.714355 -194.268646
v 332.483826 378.733887 -194.588516
v 332.471985 380.753448 -194.268646
v 332.461273 382.575287 -193.340347
v 332.452820 384.021118 -191.894501
v 332.447388 384.949341 -190.072617
v 332.445526 385.269226 -188.053055
v 332.447388 384.949341 -186.033493
v 332.452820 384.021118 -184.211609
v 332.461273 382.575287 -182.765762
v 332.471954 380.753448 -181.837463
v 332.483826 378.733887 -181.517609
v 332.495667 376.714355 -181.837479
v 332.506378 374.892487 -182.765762
v 332.514832 373.446686 -184.211609
v 332.520264 372.518433 -186.033493
v 332.522156 372.198547 -188.053055
v 183.423477 377.859894 -188.053055
v 332.483826 378.733887 -188.053055
v 259.387085 365.877594 -181.837463
v 259.376404 367.699463 -182.765762
v 259.367920 369.145264 -184.211609
v 259.362488 370.073517 -186.033493
v 259.360596 370.393402 -188.053055
v 259.362488 370.073517 -190.072617
v 259.367920 369.145264 -191.894501
v 259.376404 367.699463 -193.340347
v 259.387085 365.877594 -194.268646
v 259.398926 363.858032 -194.588516
v 259.410767 361.838531 -194.268646
v 259.421448 360.016663 -193.340347
v 259.429901 358.570831 -191.894501
v 259.435364 357.642578 -190.072617
v 259.437256 357.322723 -188.053055
v 259.435364 357.642578 -186.033493
v 259.429932 358.570862 -184.211609
v 259.421448 360.016663 -182.765762
v 259.410767 361.838531 -181.837479
v 259.398926 363.858032 -181.517609
vt 0.399596 0.458253
vt 0.395558 0.457905
vt 0.391611 0.458821
vt 0.388139 0.460913
vt 0.385484 0.463975
vt 0.383906 0.467708
vt 0.383558 0.471746
vt 0.384475 0.475694
vt 0.386567 0.479165
vt 0.389629 0.481820
vt 0.393361 0.483400
vt 0.397399 0.483746
vt 0.401347 0.482830
vt 0.404818 0.480738
vt 0.407473 0.477676
vt 0.409052 0.473943
vt 0.409399 0.469905
vt 0.408483 0.465957
vt 0.406391 0.462486
vt 0.403329 0.459831
vt 0.352940 0.487754
vt 0.357041 0.487451
vt 0.361114 0.486958
vt 0.365157 0.486323
vt 0.369176 0.485611
vt 0.373185 0.484892
vt 0.377197 0.484240
vt 0.381222 0.483722
vt 0.385261 0.483389
vt 0.389311 0.483277
vt 0.401422 0.484275
vt 0.405430 0.484938
vt 0.409436 0.485668
vt 0.413452 0.486392
vt 0.417492 0.487038
vt 0.421562 0.487543
vt 0.425661 0.487858
vt 0.429778 0.487951
vt 0.433894 0.487813
vt 0.352458 0.787319
vt 0.356557 0.787646
vt 0.360625 0.788170
vt 0.364661 0.788840
vt 0.368672 0.789591
vt 0.372672 0.790348
vt 0.376676 0.791037
vt 0.380694 0.791588
vt 0.384729 0.791947
vt 0.388776 0.792077
vt 0.392824 0.791964
vt 0.396860 0.791622
vt 0.400879 0.791088
vt 0.404884 0.790416
vt 0.408886 0.789675
vt 0.412898 0.788942
vt 0.416936 0.788289
vt 0.421005 0.787782
vt 0.425104 0.787472
vt 0.429221 0.787392
vt 0.433336 0.787551
vt 0.397356 0.816159
vt 0.400564 0.813688
vt 0.402851 0.810347
vt 0.403993 0.806462
vt 0.403880 0.802415
vt 0.402521 0.798601
vt 0.400049 0.795393
vt 0.396708 0.793106
vt 0.384962 0.793436
vt 0.381755 0.795907
vt 0.379468 0.799249
vt 0.378325 0.803134
vt 0.378439 0.807181
vt 0.379798 0.810995
vt 0.382269 0.814203
vt 0.385610 0.816490
vt 0.389495 0.817632
vt 0.393542 0.817518
vt 0.396479 0.470825
vt 0.391159 0.804798
vt 0.405556 0.640372
vt 0.401458 0.640372
vt 0.397325 0.640370
vt 0.393160 0.640367
vt 0.388976 0.640361
vt 0.384792 0.640352
vt 0.380627 0.640342
vt 0.376494 0.640330
vt 0.372396 0.640316
vt 0.368324 0.640301
vt 0.364264 0.640287
vt 0.360196 0.640274
vt 0.356111 0.640262
vt 0.434179 0.640394
vt 0.352006 0.640253
vt 0.430063 0.640385
vt 0.425946 0.640378
vt 0.421841 0.640374
vt 0.417756 0.640371
vt 0.413688 0.640371
vt 0.409628 0.640372
vn -0.172349 -0.935189 -0.309381
vn -0.146381 -0.794287 -0.589645
vn 0.004761 -0.815623 -0.578564
vn 0.005534 -0.952870 -0.303329
vn -0.105567 -0.572822 -0.812854
vn 0.003541 -0.600299 -0.799768
vn -0.053816 -0.292007 -0.954901
vn 0.001967 -0.326296 -0.945266
vn 0.003455 0.018749 -0.999818
vn 0.000177 -0.019060 -0.999818
vn 0.060029 0.325728 -0.943556
vn -0.001659 0.291831 -0.956469
vn 0.110000 0.596866 -0.794765
vn -0.003354 0.575392 -0.817871
vn 0.148680 0.806748 -0.571884
vn -0.004724 0.802497 -0.596638
vn 0.172975 0.938581 -0.298571
vn -0.005618 0.949246 -0.314485
vn 0.181242 0.983439 0.000000
vn -0.005926 0.999982 0.000000
vn 0.172975 0.938581 0.298571
vn -0.005618 0.949246 0.314485
vn 0.148679 0.806748 0.571885
vn -0.004726 0.802497 0.596638
vn 0.109999 0.596866 0.794765
vn -0.003355 0.575393 0.817870
vn 0.060029 0.325725 0.943557
vn -0.001659 0.291827 0.956470
vn 0.003453 0.018745 0.999818
vn 0.000178 -0.019064 0.999818
vn -0.053814 -0.292003 0.954902
vn 0.001967 -0.326292 0.945267
vn -0.105567 -0.572819 0.812856
vn 0.003540 -0.600300 0.799767
vn -0.146383 -0.794287 0.589644
vn 0.004762 -0.815623 0.578565
vn -0.172350 -0.935189 0.309382
vn 0.005532 -0.952868 0.303334
vn -0.181242 -0.983438 0.000000
vn 0.005798 -0.999983 0.000000
vn -0.999983 -0.005868 0.000003
vn -0.999983 -0.005866 0.000002
vn -0.999983 -0.005864 0.000000
vn -0.999983 -0.005864 0.000003
vn -0.999983 -0.005854 0.000001
vn -0.999983 -0.005864 0.000000
vn -0.999983 -0.005868 0.000001
vn -0.999983 -0.005859 0.000001
vn -0.999983 -0.005861 0.000003
vn -0.999983 -0.005864 0.000003
vn -0.999983 -0.005868 0.000000
vn -0.999983 -0.005866 -0.000003
vn -0.999983 -0.005868 -0.000003
vn -0.999983 -0.005868 -0.000001
vn -0.999983 -0.005873 -0.000001
vn -0.999983 -0.005864 0.000000
vn -0.999983 -0.005859 -0.000001
vn -0.999983 -0.005864 -0.000003
vn -0.999983 -0.005861 -0.000003
vn -0.999983 -0.005864 -0.000002
vn -0.999983 -0.005859 0.000000
vn 0.999983 0.005864 -0.000002
vn 0.999983 0.005864 0.000007
vn 0.999983 0.005868 0.000000
vn 0.999983 0.005882 0.000003
vn 0.999983 0.005873 -0.000002
vn 0.999983 0.005864 0.000000
vn 0.999983 0.005901 0.000002
vn 0.999983 0.005882 -0.000003
vn 0.999983 0.005854 -0.000007
vn 0.999983 0.005859 -0.000006
vn 0.999983 0.005854 0.000000
vn 0.999983 0.005859 0.000006
vn 0.999983 0.005854 0.000007
vn 0.999983 0.005873 0.000007
vn 0.999983 0.005873 0.000002
vn 0.999983 0.005845 0.000000
vn 0.999983 0.005882 0.000002
vn 0.999983 0.005891 -0.000003
vn 0.999983 0.005864 -0.000007
vn 0.999983 0.005864 0.000002
vn 0.999983 0.005864 0.000000
vn -0.066264 0.325551 0.943200
vn -0.121243 0.595660 0.794034
vn -0.163736 0.804434 0.571032
vn -0.190390 0.935391 0.297987
vn -0.199452 0.979908 -0.000000
vn -0.190391 0.935390 -0.297987
vn -0.163736 0.804434 -0.571032
vn -0.121241 0.595656 -0.794037
vn -0.066264 0.325554 -0.943199
vn -0.003945 0.019384 -0.999804
vn 0.059171 -0.290705 -0.954981
vn 0.116190 -0.570835 -0.812802
vn 0.161120 -0.791582 -0.589440
vn 0.189679 -0.931892 -0.309191
vn 0.199452 -0.979908 0.000000
vn 0.189678 -0.931888 0.309203
vn 0.161121 -0.791582 0.589438
vn 0.116189 -0.570838 0.812800
vn 0.059170 -0.290702 0.954982
vn -0.003944 0.019379 0.999804
s 1
g Pillar_0 Post_Connecting
usemtl openPBRSurface6SG
f 163/227/483 164/228/484 217/299/485 218/301/486
f 164/228/484 165/229/487 216/298/488 217/299/485
f 165/229/487 166/230/489 215/297/490 216/298/488
f 166/230/489 167/231/491 214/296/492 215/297/490
f 167/231/491 168/232/493 213/295/494 214/296/492
f 168/232/493 169/233/495 212/294/496 213/295/494
f 169/233/495 170/234/497 211/293/498 212/294/496
f 170/234/497 171/235/499 210/292/500 211/293/498
f 171/235/499 172/236/501 209/291/502 210/292/500
f 172/236/501 173/217/503 208/290/504 209/291/502
f 173/217/503 174/218/505 207/289/506 208/290/504
f 174/218/505 175/237/507 206/288/508 207/289/506
f 175/237/507 176/238/509 205/287/510 206/288/508
f 176/238/509 177/239/511 224/307/512 205/287/510
f 177/239/511 178/240/513 223/306/514 224/307/512
f 178/240/513 179/241/515 222/305/516 223/306/514
f 179/241/515 180/242/517 221/304/518 222/305/516
f 180/242/517 181/243/519 220/303/520 221/304/518
f 181/243/519 182/244/521 219/302/522 220/303/520
f 182/244/521 163/245/483 218/300/486 219/302/522
s 2
f 164/208/523 163/207/524 203/285/525
f 165/209/526 164/208/523 203/285/525
f 166/210/527 165/209/526 203/285/525
f 167/211/528 166/210/527 203/285/525
f 168/212/529 167/211/528 203/285/525
f 169/213/530 168/212/529 203/285/525
f 170/214/531 169/213/530 203/285/525
f 171/215/532 170/214/531 203/285/525
f 172/216/533 171/215/532 203/285/525
f 173/217/534 172/216/533 203/285/525
f 174/218/535 173/217/534 203/285/525
f 175/219/536 174/218/535 203/285/525
f 176/220/537 175/219/536 203/285/525
f 177/221/538 176/220/537 203/285/525
f 178/222/539 177/221/538 203/285/525
f 179/223/540 178/222/539 203/285/525
f 180/224/541 179/223/540 203/285/525
f 181/225/542 180/224/541 203/285/525
f 182/226/543 181/225/542 203/285/525
f 163/207/524 182/226/543 203/285/525
s 3
f 183/283/544 184/282/545 204/286/546
f 184/282/545 185/281/547 204/286/546
f 185/281/547 186/280/548 204/286/546
f 186/280/548 187/279/549 204/286/546
f 187/279/549 188/278/550 204/286/546
f 188/278/550 189/277/551 204/286/546
f 189/277/551 190/276/552 204/286/546
f 190/276/552 191/275/553 204/286/546
f 191/275/553 192/255/554 204/286/546
f 192/255/554 193/256/555 204/286/546
f 193/256/555 194/274/556 204/286/546
f 194/274/556 195/273/557 204/286/546
f 195/273/557 196/272/558 204/286/546
f 196/272/558 197/271/559 204/286/546
f 197/271/559 198/270/560 204/286/546
f 198/270/560 199/269/561 204/286/546
f 199/269/561 200/268/562 204/286/546
f 200/268/562 201/267/563 204/286/546
f 201/267/563 202/284/564 204/286/546
f 202/284/564 183/283/544 204/286/546
s 1
f 206/288/508 205/287/510 196/259/565 195/258/566
f 207/289/506 206/288/508 195/258/566 194/257/567
f 208/290/504 207/289/506 194/257/567 193/256/568
f 209/291/502 208/290/504 193/256/568 192/255/569
f 210/292/500 209/291/502 192/255/569 191/254/570
f 211/293/498 210/292/500 191/254/570 190/253/571
f 212/294/496 211/293/498 190/253/571 189/252/572
f 213/295/494 212/294/496 189/252/572 188/251/573
f 214/296/492 213/295/494 188/251/573 187/250/574
f 215/297/490 214/296/492 187/250/574 186/249/575
f 216/298/488 215/297/490 186/249/575 185/248/576
f 217/299/485 216/298/488 185/248/576 184/247/577
f 218/301/486 217/299/485 184/247/577 183/246/578
f 219/302/522 218/300/486 183/266/578 202/265/579
f 220/303/520 219/302/522 202/265/579 201/264/580
f 221/304/518 220/303/520 201/264/580 200/263/581
f 222/305/516 221/304/518 200/263/581 199/262/582
f 223/306/514 222/305/516 199/262/582 198/261/583
f 224/307/512 223/306/514 198/261/583 197/260/584
f 205/287/510 224/307/512 197/260/584 196/259/565
g default
v 190.551300 379.812775 -195.538757
v 189.619446 381.641541 -195.546310
v 188.168274 383.092834 -195.552307
v 186.339355 384.024414 -195.556152
v 184.312561 384.344849 -195.557480
v 182.285767 384.024414 -195.556152
v 180.456848 383.092834 -195.552307
v 179.005676 381.641541 -195.546310
v 178.073837 379.812775 -195.538757
v 177.752792 377.785492 -195.530396
v 178.073837 375.758972 -195.522018
v 179.005676 373.930206 -195.514465
v 180.456848 372.478912 -195.508469
v 182.285767 371.547302 -195.504623
v 184.312561 371.226105 -195.503296
v 186.339355 371.547302 -195.504623
v 188.168274 372.478912 -195.508469
v 189.619431 373.930206 -195.514465
v 190.551285 375.758972 -195.522018
v 190.872314 377.785492 -195.530396
v 188.945114 379.795563 -73.398117
v 188.253281 381.153076 -73.403870
v 187.175751 382.230804 -73.408279
v 185.817642 382.922455 -73.411011
v 184.312561 383.160828 -73.412079
v 182.807480 382.922455 -73.411011
v 181.449371 382.230804 -73.408279
v 180.371857 381.153076 -73.403870
v 179.680023 379.795563 -73.398117
v 179.441696 378.290344 -73.391869
v 179.680023 376.785126 -73.385712
v 180.371857 375.426819 -73.380234
v 181.449387 374.349091 -73.375732
v 182.807480 373.657440 -73.372704
v 184.312561 373.419067 -73.371727
v 185.817642 373.657440 -73.372704
v 187.175735 374.349091 -73.375732
v 188.253265 375.426819 -73.380234
v 188.945099 376.785126 -73.385712
v 189.183411 378.290344 -73.391869
v 184.312561 377.785492 -195.530396
v 184.312561 378.290344 -73.391869
v 179.005676 382.107025 -82.773422
v 180.456848 383.557556 -82.779587
v 182.285767 384.489899 -82.783493
v 184.312561 384.810364 -82.784668
v 186.339355 384.489899 -82.783493
v 188.168274 383.558350 -82.779480
v 189.619446 382.107025 -82.773422
v 190.551300 380.278259 -82.766006
v 190.872314 378.250977 -82.757599
v 190.551285 376.224457 -82.749298
v 189.619431 374.395691 -82.741577
v 188.168274 372.944397 -82.735718
v 186.339355 372.012787 -82.731812
v 184.312561 371.691589 -82.730545
v 182.285767 372.012787 -82.731812
v 180.456848 372.944397 -82.735718
v 179.005676 374.395691 -82.741577
v 178.073837 376.224457 -82.749298
v 177.752792 378.250977 -82.757599
v 178.073837 380.278259 -82.766006
v 178.147964 382.721100 -85.117416
v 179.833786 384.406860 -85.124367
v 181.957748 385.489258 -85.128967
v 184.312561 385.862061 -85.130424
v 186.667374 385.489258 -85.128967
v 188.791351 384.406860 -85.124367
v 190.477173 382.721100 -85.117325
v 191.559326 380.596924 -85.108734
v 191.932495 378.242157 -85.098969
v 191.559311 375.887421 -85.089195
v 190.477158 373.763214 -85.080505
v 188.791336 372.077454 -85.073471
v 186.667374 370.995056 -85.069069
v 184.312561 370.622253 -85.067612
v 181.957748 370.995056 -85.069069
v 179.833786 372.077454 -85.073471
v 178.147964 373.763214 -85.080505
v 177.065811 375.887421 -85.089195
v 176.692627 378.242157 -85.098969
v 177.065811 380.596924 -85.108734
v 179.855362 381.480011 -85.112152
v 181.074219 382.699219 -85.117432
v 179.855362 381.489655 -82.770996
v 181.074219 382.708008 -82.776169
v 182.609970 383.481537 -85.120560
v 182.609970 383.491119 -82.779480
v 184.312561 383.751129 -85.121628
v 184.312561 383.760742 -82.780365
v 186.015152 383.481537 -85.120560
v 186.015152 383.491119 -82.779480
v 187.550903 382.699219 -85.117432
v 187.550903 382.708008 -82.776070
v 188.769760 381.480011 -85.112251
v 188.769760 381.489655 -82.770996
v 189.552170 379.944336 -85.105995
v 189.552170 379.953918 -82.764633
v 189.821777 378.242157 -85.098969
v 189.821777 378.250977 -82.757698
v 189.552155 376.539185 -85.092041
v 189.552155 376.548798 -82.750671
v 188.769745 375.003510 -85.085587
v 188.769745 375.013123 -82.744217
v 187.550903 373.785095 -85.080597
v 187.550903 373.793915 -82.739334
v 186.015152 373.002808 -85.077278
v 186.015152 373.011597 -82.736099
v 184.312561 372.733185 -85.076103
v 184.312561 372.742004 -82.734840
v 182.609970 373.002808 -85.077278
v 182.609970 373.011597 -82.736099
v 181.074219 373.785095 -85.080597
v 181.074219 373.793915 -82.739334
v 179.855362 375.003510 -85.085587
v 179.855362 375.013123 -82.744217
v 179.072968 376.539185 -85.092041
v 179.072968 376.548798 -82.750671
v 178.803345 378.242157 -85.098969
v 178.803345 378.250977 -82.757698
v 179.072968 379.944336 -85.105995
v 179.072968 379.953918 -82.764633
v 178.004868 382.846161 -80.048531
v 179.729797 384.570984 -80.055862
v 181.902924 385.678406 -80.060257
v 184.312561 386.059814 -80.061821
v 186.722198 385.678406 -80.060257
v 188.895325 384.570984 -80.055763
v 190.620270 382.846161 -80.048531
v 191.727859 380.671936 -80.039543
v 192.109451 378.263275 -80.029572
v 191.727844 375.853821 -80.019615
v 190.620255 373.680389 -80.010727
v 188.895325 371.955566 -80.003693
v 186.722198 370.848114 -79.999092
v 184.312561 370.465973 -79.997337
v 181.902924 370.848114 -79.999092
v 179.729797 371.955566 -80.003693
v 178.004868 373.680389 -80.010727
v 176.897278 375.853821 -80.019615
v 176.515671 378.263275 -80.029572
v 176.897278 380.671936 -80.039543
v 178.250763 382.681030 -76.587532
v 179.908127 384.338654 -76.594368
v 181.997330 385.403107 -76.598671
v 184.312561 385.769653 -76.600327
v 186.627792 385.403107 -76.598671
v 188.716995 384.338654 -76.594269
v 190.374374 382.681030 -76.587532
v 191.438416 380.592804 -76.579025
v 191.805283 378.277130 -76.569260
v 191.438400 375.961456 -76.559891
v 190.374344 373.873230 -76.551285
v 188.716995 372.215607 -76.544350
v 186.627792 371.151154 -76.539963
v 184.312561 370.784607 -76.538490
v 181.997330 371.151154 -76.539963
v 179.908127 372.215607 -76.544350
v 178.250763 373.873230 -76.551285
v 177.186707 375.961456 -76.559891
v 176.819824 378.277130 -76.569260
v 177.186707 380.592804 -76.579025
v 178.073837 376.144135 -102.231834
v 177.752792 378.170654 -102.240128
v 178.073837 380.197937 -102.248634
v 179.005676 382.026703 -102.255966
v 180.456848 383.478027 -102.262207
v 182.285767 384.409607 -102.266022
v 184.312561 384.730804 -102.267387
v 186.339355 384.409607 -102.266022
v 188.168274 383.478027 -102.262207
v 189.619446 382.026703 -102.256058
v 190.551300 380.197937 -102.248634
v 190.872314 378.170654 -102.240128
v 190.551285 376.144135 -102.231834
v 189.619431 374.315369 -102.224213
v 188.168274 372.864075 -102.218445
v 186.339355 371.932495 -102.214439
v 184.312561 371.611298 -102.213165
v 182.285767 371.932495 -102.214439
v 180.456848 372.864075 -102.218445
v 179.005676 374.315369 -102.224213
v 176.726486 375.698669 -102.230072
v 176.336273 378.163605 -102.240128
v 175.500412 375.371613 -85.087044
v 175.047119 378.234344 -85.098969
v 176.726486 380.628571 -102.250389
v 175.500412 381.097870 -85.110687
v 177.859573 382.852020 -102.259674
v 176.816620 383.680817 -85.121536
v 179.624130 384.616699 -102.266708
v 178.866638 385.730743 -85.129837
v 181.847717 385.749146 -102.271492
v 181.449356 387.046844 -85.135406
v 184.312561 386.139893 -102.273056
v 184.312561 387.500122 -85.137062
v 186.777405 385.749146 -102.271492
v 187.175766 387.046844 -85.135406
v 189.000992 384.616699 -102.266708
v 189.758484 385.730743 -85.129837
v 190.765564 382.852020 -102.259575
v 191.808502 383.680817 -85.121437
v 191.898651 380.628571 -102.250389
v 193.124725 381.097870 -85.110687
v 192.288849 378.163605 -102.240128
v 193.578003 378.234344 -85.098969
v 191.898636 375.698669 -102.230072
v 193.124710 375.371613 -85.087044
v 190.765549 373.475220 -102.220886
v 191.808487 372.788635 -85.076401
v 189.000992 371.710541 -102.213364
v 189.758469 370.738678 -85.067993
v 186.777405 370.577332 -102.208778
v 187.175751 369.422607 -85.062431
v 184.312561 370.187347 -102.207306
v 184.312561 368.969330 -85.060577
v 181.847717 370.577332 -102.208778
v 181.449356 369.422607 -85.062431
v 179.624130 371.710541 -102.213364
v 178.866638 370.738678 -85.067993
v 177.859573 373.475220 -102.220886
v 176.816635 372.788635 -85.076401
vt 0.274425 0.694461
vt 0.270316 0.694178
vt 0.278495 0.694685
vt 0.282526 0.694842
vt 0.285867 0.673863
vt 0.286541 0.694955
vt 0.281570 0.673102
vt 0.290546 0.694857
vt 0.277231 0.672749
vt 0.294550 0.694708
vt 0.272879 0.672793
vt 0.298583 0.694479
vt 0.268541 0.673235
vt 0.302646 0.694177
vt 0.264246 0.674094
vt 0.306740 0.693809
vt 0.259947 0.673344
vt 0.310864 0.693376
vt 0.255607 0.673001
vt 0.315018 0.692883
vt 0.251256 0.673054
vt 0.319174 0.692321
vt 0.246918 0.673506
vt 0.323254 0.691654
vt 0.242626 0.674374
vt 0.245678 0.691015
vt 0.249451 0.691948
vt 0.253554 0.692548
vt 0.257760 0.693036
vt 0.261976 0.693463
vt 0.266165 0.693844
vt 0.275195 0.686352
vt 0.269655 0.759424
vt 0.272376 0.759053
vt 0.247743 0.765361
vt 0.275092 0.759304
vt 0.277664 0.760164
vt 0.279922 0.761642
vt 0.295269 0.759849
vt 0.297905 0.759099
vt 0.300624 0.758983
vt 0.303277 0.759506
vt 0.305689 0.760704
vt 0.319470 0.757740
vt 0.321991 0.756665
vt 0.324673 0.756201
vt 0.327374 0.756368
vt 0.329925 0.757227
vt 0.245599 0.756558
vt 0.248355 0.756571
vt 0.251029 0.757161
vt 0.253499 0.758303
vt 0.255610 0.759994
vt 0.295813 0.740918
vt 0.300389 0.740645
vt 0.300752 0.745844
vt 0.296264 0.746102
vt 0.291235 0.741325
vt 0.291819 0.746704
vt 0.286659 0.741862
vt 0.285921 0.747876
vt 0.282072 0.741409
vt 0.281518 0.746927
vt 0.277484 0.741024
vt 0.277093 0.746258
vt 0.272929 0.740764
vt 0.272632 0.745947
vt 0.268438 0.740650
vt 0.268178 0.745957
vt 0.264036 0.740693
vt 0.263077 0.746849
vt 0.259858 0.739945
vt 0.258858 0.745540
vt 0.255691 0.739237
vt 0.254709 0.744460
vt 0.251630 0.738646
vt 0.250522 0.743689
vt 0.247735 0.738143
vt 0.246299 0.743113
vt 0.329677 0.736812
vt 0.331717 0.742261
vt 0.325908 0.737619
vt 0.327349 0.742762
vt 0.321929 0.738186
vt 0.323040 0.743263
vt 0.317802 0.738835
vt 0.318776 0.743990
vt 0.313599 0.739600
vt 0.314552 0.745013
vt 0.309369 0.740427
vt 0.309723 0.746256
vt 0.304930 0.740502
vt 0.305241 0.745933
vt 0.295515 0.734969
vt 0.300017 0.734691
vt 0.300245 0.738840
vt 0.295687 0.739119
vt 0.291020 0.735196
vt 0.291117 0.739472
vt 0.286550 0.735302
vt 0.286620 0.739756
vt 0.282056 0.735203
vt 0.282090 0.739501
vt 0.277560 0.735002
vt 0.277534 0.739199
vt 0.273077 0.734766
vt 0.272998 0.738956
vt 0.268650 0.734490
vt 0.268524 0.738795
vt 0.264308 0.734132
vt 0.264217 0.738611
vt 0.260013 0.733629
vt 0.260010 0.738004
vt 0.255789 0.733092
vt 0.255865 0.737381
vt 0.251706 0.732609
vt 0.251865 0.736841
vt 0.247884 0.732288
vt 0.248135 0.736408
vt 0.328813 0.731521
vt 0.328796 0.735218
vt 0.325426 0.731710
vt 0.325434 0.735843
vt 0.321572 0.732217
vt 0.321636 0.736391
vt 0.317453 0.732829
vt 0.317570 0.737019
vt 0.313201 0.733450
vt 0.313365 0.737728
vt 0.308887 0.733995
vt 0.309131 0.738388
vt 0.304485 0.734380
vt 0.304744 0.738625
vt 0.295449 0.731261
vt 0.299914 0.730993
vt 0.290997 0.731447
vt 0.286545 0.731495
vt 0.282091 0.731443
vt 0.277639 0.731273
vt 0.273187 0.731033
vt 0.268754 0.730718
vt 0.264342 0.730317
vt 0.259927 0.729826
vt 0.255499 0.729295
vt 0.251057 0.728787
vt 0.246613 0.728418
vt 0.330859 0.727874
vt 0.326520 0.727942
vt 0.322110 0.728487
vt 0.317680 0.729114
vt 0.313250 0.729717
vt 0.308823 0.730241
vt 0.304377 0.730658
vt 0.300947 0.751846
vt 0.296891 0.752053
vt 0.292877 0.752840
vt 0.284252 0.754647
vt 0.280366 0.753166
vt 0.276395 0.752261
vt 0.272360 0.751924
vt 0.268284 0.752139
vt 0.260728 0.753504
vt 0.257027 0.751660
vt 0.253230 0.750343
vt 0.249326 0.749521
vt 0.245301 0.749146
vt 0.332235 0.749285
vt 0.328116 0.748941
vt 0.324064 0.749122
vt 0.320102 0.749819
vt 0.316240 0.751049
vt 0.309053 0.753188
vt 0.305010 0.752222
vt 0.306986 0.696330
vt 0.311156 0.695895
vt 0.313248 0.726814
vt 0.308768 0.727328
vt 0.302851 0.696699
vt 0.304313 0.727752
vt 0.298744 0.697000
vt 0.299869 0.728097
vt 0.294659 0.697228
vt 0.295428 0.728367
vt 0.290589 0.697368
vt 0.290991 0.728557
vt 0.286531 0.697379
vt 0.286554 0.728679
vt 0.282452 0.697350
vt 0.282131 0.728543
vt 0.278360 0.697202
vt 0.277699 0.728369
vt 0.274246 0.696979
vt 0.273266 0.728124
vt 0.270100 0.696697
vt 0.268833 0.727796
vt 0.265915 0.696362
vt 0.264386 0.727383
vt 0.261686 0.695980
vt 0.259904 0.726901
vt 0.257412 0.695548
vt 0.255352 0.726387
vt 0.253093 0.695047
vt 0.250684 0.725883
vt 0.248741 0.694417
vt 0.245839 0.725446
vt 0.328346 0.693162
vt 0.332259 0.724429
vt 0.323957 0.694117
vt 0.327224 0.724960
vt 0.319632 0.694819
vt 0.322425 0.725589
vt 0.315368 0.695396
vt 0.317786 0.726224
vt 0.283964 0.473810
vt 0.288362 0.473769
vt 0.303192 0.672910
vt 0.298854 0.672548
vt 0.294502 0.672581
vt 0.290163 0.673014
vt 0.329110 0.673546
vt 0.324816 0.672767
vt 0.320478 0.672395
vt 0.316126 0.672419
vt 0.311786 0.672841
vt 0.296787 0.686145
vt 0.307489 0.673680
vt 0.253055 0.474151
vt 0.257478 0.474097
vt 0.248633 0.474210
vt 0.244218 0.474272
vt 0.328110 0.473486
vt 0.239821 0.474333
vt 0.323696 0.473506
vt 0.319273 0.473531
vt 0.314850 0.473559
vt 0.310435 0.473592
vt 0.306038 0.473623
vt 0.301623 0.473654
vt 0.297200 0.473687
vt 0.292777 0.473726
vt 0.279550 0.473850
vt 0.275128 0.473894
vt 0.270705 0.473943
vt 0.266290 0.473996
vt 0.261891 0.474047
vt 0.244384 0.693521
vt 0.240735 0.725118
vt 0.242219 0.728613
vt 0.327030 0.690684
vt 0.241145 0.749147
vt 0.242891 0.757185
vt 0.242041 0.742442
vt 0.244492 0.732376
vt 0.244850 0.735975
vt 0.244081 0.737424
vt 0.253601 0.686607
vt 0.318382 0.685987
vt 0.288928 0.754197
vt 0.292878 0.761253
vt 0.287451 0.747562
vt 0.324727 0.765002
vt 0.264177 0.752873
vt 0.267080 0.760458
vt 0.263766 0.746150
vt 0.272838 0.767833
vt 0.312484 0.752832
vt 0.317275 0.759433
vt 0.310358 0.746263
vt 0.299521 0.767723
vn 0.951061 0.309000 -0.001276
vn 0.809027 0.587766 -0.002427
vn 0.809028 0.587765 -0.002427
vn 0.951061 0.309000 -0.001276
vn 0.587750 0.809035 -0.003341
vn 0.587753 0.809034 -0.003341
vn 0.308930 0.951077 -0.003929
vn 0.308930 0.951077 -0.003929
vn 0.000000 0.999991 -0.004133
vn 0.000000 0.999991 -0.004133
vn -0.308932 0.951076 -0.003929
vn -0.308932 0.951076 -0.003929
vn -0.587753 0.809033 -0.003341
vn -0.587758 0.809030 -0.003341
vn -0.809030 0.587762 -0.002427
vn -0.809031 0.587761 -0.002427
vn -0.951058 0.309009 -0.001276
vn -0.951058 0.309011 -0.001276
vn -1.000000 -0.000005 0.000000
vn -1.000000 -0.000007 0.000000
vn -0.951042 -0.309060 0.001276
vn -0.951042 -0.309060 0.001276
vn -0.809031 -0.587760 0.002426
vn -0.809034 -0.587757 0.002426
vn -0.587751 -0.809035 0.003340
vn -0.587752 -0.809034 0.003340
vn -0.309019 -0.951048 0.003927
vn -0.309016 -0.951049 0.003927
vn -0.000000 -0.999991 0.004129
vn -0.000000 -0.999992 0.004129
vn 0.309019 -0.951048 0.003927
vn 0.309017 -0.951049 0.003927
vn 0.587753 -0.809034 0.003340
vn 0.587754 -0.809033 0.003340
vn 0.809029 -0.587764 0.002427
vn 0.809031 -0.587761 0.002427
vn 0.951040 -0.309064 0.001276
vn 0.951040 -0.309065 0.001276
vn 1.000000 -0.000010 0.000000
vn 1.000000 -0.000012 0.000000
vn 0.000005 -0.004130 -0.999991
vn 0.000005 -0.004127 -0.999991
vn 0.000000 -0.004130 -0.999991
vn 0.000000 -0.004129 -0.999991
vn 0.000000 -0.004129 -0.999991
vn 0.000000 -0.004129 -0.999991
vn 0.000000 -0.004129 -0.999991
vn 0.000005 -0.004129 -0.999991
vn 0.000002 -0.004130 -0.999991
vn -0.000002 -0.004127 -0.999991
vn 0.000000 -0.004129 -0.999991
vn 0.000000 -0.004132 -0.999991
vn 0.000000 -0.004131 -0.999991
vn -0.000009 -0.004131 -0.999991
vn 0.000000 -0.004131 -0.999991
vn 0.000000 -0.004131 -0.999991
vn -0.000000 -0.004131 -0.999991
vn 0.000009 -0.004131 -0.999991
vn -0.000002 -0.004131 -0.999992
vn -0.000002 -0.004132 -0.999991
vn 0.000000 -0.004129 -0.999991
vn -0.000015 0.004188 0.999991
vn 0.000012 0.004180 0.999991
vn 0.000000 0.004133 0.999991
vn 0.000060 0.004120 0.999992
vn 0.000008 0.004128 0.999991
vn 0.000000 0.004149 0.999991
vn -0.000008 0.004128 0.999991
vn -0.000058 0.004120 0.999992
vn -0.000010 0.004180 0.999991
vn 0.000015 0.004188 0.999991
vn 0.000000 0.004121 0.999992
vn 0.000005 0.004066 0.999992
vn -0.000016 0.004085 0.999992
vn -0.000075 0.004150 0.999991
vn -0.000050 0.004153 0.999991
vn 0.000000 0.004135 0.999992
vn 0.000050 0.004153 0.999991
vn 0.000075 0.004150 0.999991
vn 0.000015 0.004085 0.999992
vn -0.000006 0.004066 0.999992
vn 0.000000 0.004121 0.999992
vn -0.535270 0.734981 -0.416280
vn -0.736759 0.533552 -0.415341
vn -0.801416 0.581694 -0.139155
vn -0.582249 0.800849 -0.140098
vn -0.281356 0.864334 -0.416851
vn -0.306099 0.941550 -0.140666
vn 0.000000 0.908906 -0.417002
vn 0.000000 0.990029 -0.140861
vn 0.281292 0.864380 -0.416799
vn 0.306069 0.941564 -0.140638
vn 0.535277 0.735025 -0.416194
vn 0.582259 0.800850 -0.140048
vn 0.736797 0.533536 -0.415293
vn 0.801428 0.581681 -0.139143
vn 0.866142 0.279716 -0.414194
vn 0.942124 0.305548 -0.137992
vn 0.910732 -0.001745 -0.412994
vn 0.990614 -0.000544 -0.136685
vn 0.866164 -0.283175 -0.411792
vn 0.942129 -0.306681 -0.135427
vn 0.736827 -0.537052 -0.410684
vn 0.801422 -0.582826 -0.134302
vn 0.535342 -0.738549 -0.409822
vn 0.582279 -0.801972 -0.133386
vn 0.281473 -0.867899 -0.409297
vn 0.306184 -0.942666 -0.132789
vn 0.000000 -0.912474 -0.409135
vn -0.000000 -0.991175 -0.132561
vn -0.281472 -0.867898 -0.409299
vn -0.306183 -0.942665 -0.132792
vn -0.535343 -0.738546 -0.409826
vn -0.582280 -0.801971 -0.133390
vn -0.736826 -0.537052 -0.410685
vn -0.801420 -0.582827 -0.134305
vn -0.866164 -0.283182 -0.411787
vn -0.942128 -0.306682 -0.135427
vn -0.910734 -0.001736 -0.412990
vn -0.990615 -0.000538 -0.136684
vn -0.866139 0.279725 -0.414195
vn -0.942123 0.305552 -0.137993
vn -0.587798 0.809002 -0.003170
vn -0.809019 0.587779 -0.002354
vn -0.809023 0.587772 -0.002354
vn -0.587842 0.808970 -0.003170
vn -0.309054 0.951037 -0.003805
vn -0.309048 0.951039 -0.003805
vn -0.000000 0.999992 -0.004088
vn -0.000000 0.999992 -0.004088
vn 0.309055 0.951037 -0.003805
vn 0.309052 0.951038 -0.003805
vn 0.587803 0.808998 -0.003170
vn 0.587845 0.808967 -0.003170
vn 0.809018 0.587779 -0.002358
vn 0.809021 0.587775 -0.002358
vn 0.951071 0.308969 -0.001259
vn 0.951072 0.308967 -0.001259
vn 1.000000 0.000029 0.000002
vn 1.000000 -0.000037 0.000002
vn 0.951070 -0.308972 0.001254
vn 0.951068 -0.308980 0.001254
vn 0.809022 -0.587774 0.002354
vn 0.809019 -0.587778 0.002354
vn 0.587769 -0.809023 0.003112
vn 0.587737 -0.809046 0.003112
vn 0.308958 -0.951069 0.003583
vn 0.308928 -0.951079 0.003583
vn -0.000000 -0.999993 0.003767
vn -0.000000 -0.999993 0.003767
vn -0.308957 -0.951069 0.003583
vn -0.308927 -0.951079 0.003583
vn -0.587765 -0.809026 0.003109
vn -0.587733 -0.809049 0.003109
vn -0.809023 -0.587773 0.002351
vn -0.809020 -0.587777 0.002351
vn -0.951072 -0.308968 0.001254
vn -0.951069 -0.308976 0.001254
vn -1.000000 0.000033 0.000002
vn -1.000000 -0.000034 0.000002
vn -0.951073 0.308965 -0.001256
vn -0.951072 0.308966 -0.001256
vn 0.000036 0.004174 0.999991
vn 0.000036 0.004174 0.999991
vn 0.000036 0.004174 0.999991
vn 0.000036 0.004174 0.999991
vn -0.000132 -0.004116 -0.999992
vn -0.000132 -0.004116 -0.999992
vn -0.000132 -0.004116 -0.999992
vn -0.000132 -0.004116 -0.999992
vn 0.000007 0.004133 0.999991
vn 0.000007 0.004133 0.999992
vn 0.000007 0.004133 0.999991
vn 0.000007 0.004133 0.999992
vn -0.000078 -0.004059 -0.999992
vn -0.000078 -0.004059 -0.999992
vn -0.000078 -0.004059 -0.999992
vn -0.000078 -0.004059 -0.999992
vn -0.000043 0.004171 0.999991
vn -0.000043 0.004171 0.999991
vn -0.000043 0.004171 0.999991
vn -0.000043 0.004171 0.999991
vn 0.000090 -0.004046 -0.999992
vn 0.000090 -0.004046 -0.999992
vn 0.000090 -0.004046 -0.999992
vn 0.000090 -0.004046 -0.999992
vn 0.000043 0.004171 0.999991
vn 0.000043 0.004171 0.999991
vn 0.000043 0.004171 0.999991
vn 0.000043 0.004171 0.999991
vn -0.000090 -0.004046 -0.999992
vn -0.000090 -0.004046 -0.999992
vn -0.000090 -0.004046 -0.999992
vn -0.000090 -0.004046 -0.999992
vn -0.000007 0.004133 0.999992
vn -0.000007 0.004133 0.999992
vn -0.000007 0.004133 0.999991
vn -0.000007 0.004133 0.999992
vn 0.000125 -0.004079 -0.999992
vn 0.000125 -0.004079 -0.999992
vn 0.000125 -0.004079 -0.999992
vn 0.000125 -0.004079 -0.999992
vn -0.000066 0.004140 0.999991
vn -0.000066 0.004140 0.999991
vn -0.000066 0.004140 0.999991
vn -0.000066 0.004140 0.999991
vn 0.000090 -0.004073 -0.999992
vn 0.000090 -0.004073 -0.999992
vn 0.000090 -0.004073 -0.999992
vn 0.000090 -0.004073 -0.999992
vn 0.000029 0.004071 0.999992
vn 0.000029 0.004071 0.999992
vn 0.000029 0.004071 0.999992
vn 0.000029 0.004071 0.999992
vn 0.000023 -0.004083 -0.999992
vn 0.000023 -0.004083 -0.999992
vn 0.000023 -0.004083 -0.999992
vn 0.000023 -0.004083 -0.999992
vn 0.000014 0.004141 0.999991
vn 0.000014 0.004141 0.999991
vn 0.000014 0.004141 0.999991
vn 0.000014 0.004141 0.999991
vn 0.000036 -0.004108 -0.999992
vn 0.000036 -0.004108 -0.999992
vn 0.000036 -0.004108 -0.999992
vn 0.000036 -0.004108 -0.999992
vn -0.000038 0.004122 0.999992
vn -0.000038 0.004122 0.999992
vn -0.000038 0.004122 0.999992
vn -0.000038 0.004122 0.999992
vn 0.000070 -0.004121 -0.999991
vn 0.000070 -0.004121 -0.999992
vn 0.000070 -0.004121 -0.999992
vn 0.000070 -0.004121 -0.999992
vn -0.000016 0.004149 0.999991
vn -0.000016 0.004149 0.999991
vn -0.000016 0.004149 0.999991
vn -0.000016 0.004149 0.999991
vn 0.000019 -0.004223 -0.999991
vn 0.000019 -0.004223 -0.999991
vn 0.000019 -0.004223 -0.999991
vn 0.000019 -0.004223 -0.999991
vn 0.000000 0.004141 0.999991
vn 0.000000 0.004141 0.999991
vn 0.000000 0.004141 0.999991
vn 0.000000 0.004141 0.999991
vn 0.000125 -0.004144 -0.999991
vn 0.000125 -0.004144 -0.999991
vn 0.000125 -0.004144 -0.999991
vn 0.000125 -0.004144 -0.999991
vn 0.000007 0.004130 0.999991
vn 0.000007 0.004130 0.999991
vn 0.000007 0.004130 0.999992
vn 0.000007 0.004130 0.999992
vn 0.000043 -0.004254 -0.999991
vn 0.000043 -0.004254 -0.999991
vn 0.000043 -0.004254 -0.999991
vn 0.000043 -0.004254 -0.999991
vn 0.000011 0.004056 0.999992
vn 0.000011 0.004056 0.999992
vn 0.000011 0.004056 0.999992
vn 0.000011 0.004056 0.999992
vn -0.000012 -0.004190 -0.999991
vn -0.000012 -0.004190 -0.999991
vn -0.000012 -0.004190 -0.999991
vn -0.000012 -0.004190 -0.999991
vn -0.000011 0.004056 0.999992
vn -0.000011 0.004056 0.999992
vn -0.000011 0.004056 0.999992
vn -0.000011 0.004056 0.999992
vn 0.000012 -0.004190 -0.999991
vn 0.000012 -0.004190 -0.999991
vn 0.000012 -0.004190 -0.999991
vn 0.000012 -0.004190 -0.999991
vn -0.000007 0.004130 0.999992
vn -0.000007 0.004130 0.999992
vn -0.000007 0.004130 0.999991
vn -0.000007 0.004130 0.999991
vn -0.000047 -0.004254 -0.999991
vn -0.000047 -0.004254 -0.999991
vn -0.000047 -0.004254 -0.999991
vn -0.000047 -0.004254 -0.999991
vn -0.000002 0.004141 0.999991
vn -0.000002 0.004141 0.999991
vn -0.000002 0.004141 0.999991
vn -0.000002 0.004141 0.999991
vn -0.000129 -0.004144 -0.999991
vn -0.000129 -0.004144 -0.999991
vn -0.000129 -0.004144 -0.999991
vn -0.000129 -0.004144 -0.999991
vn 0.000017 0.004148 0.999991
vn 0.000017 0.004148 0.999991
vn 0.000017 0.004148 0.999991
vn 0.000017 0.004148 0.999991
vn -0.000016 -0.004223 -0.999991
vn -0.000016 -0.004223 -0.999991
vn -0.000016 -0.004223 -0.999991
vn -0.000016 -0.004223 -0.999991
vn 0.000039 0.004122 0.999992
vn 0.000039 0.004122 0.999992
vn 0.000039 0.004122 0.999992
vn 0.000039 0.004122 0.999992
vn -0.000067 -0.004121 -0.999992
vn -0.000067 -0.004121 -0.999992
vn -0.000067 -0.004121 -0.999992
vn -0.000067 -0.004121 -0.999992
vn -0.000012 0.004141 0.999991
vn -0.000012 0.004141 0.999991
vn -0.000012 0.004141 0.999991
vn -0.000012 0.004141 0.999991
vn -0.000039 -0.004109 -0.999992
vn -0.000039 -0.004109 -0.999992
vn -0.000039 -0.004109 -0.999992
vn -0.000039 -0.004109 -0.999992
vn -0.000068 0.004090 0.999992
vn -0.000068 0.004090 0.999992
vn -0.000068 0.004090 0.999992
vn -0.000068 0.004090 0.999992
vn -0.000026 -0.004083 -0.999992
vn -0.000026 -0.004083 -0.999992
vn -0.000026 -0.004083 -0.999992
vn -0.000026 -0.004083 -0.999992
vn -0.754064 0.549311 0.360062
vn -0.547856 0.755506 0.359255
vn -0.287979 0.887905 0.358738
vn -0.000000 0.933521 0.358523
vn 0.287974 0.887908 0.358735
vn 0.547854 0.755502 0.359267
vn 0.754068 0.549309 0.360058
vn 0.886432 0.289542 0.361114
vn 0.932042 0.001487 0.362348
vn 0.886433 -0.286547 0.363495
vn 0.754079 -0.546341 0.364521
vn 0.547887 -0.752557 0.365347
vn 0.288039 -0.884957 0.365904
vn 0.000000 -0.930576 0.366099
vn -0.288039 -0.884957 0.365903
vn -0.547885 -0.752557 0.365348
vn -0.754077 -0.546344 0.364522
vn -0.886434 -0.286543 0.363495
vn -0.932042 0.001491 0.362347
vn -0.886433 0.289540 0.361115
vn -0.624023 0.455980 0.634569
vn -0.453361 0.626617 0.633888
vn -0.238307 0.736181 0.633440
vn -0.000000 0.773920 0.633284
vn 0.238298 0.736181 0.633444
vn 0.453355 0.626614 0.633895
vn 0.624024 0.455980 0.634568
vn 0.733580 0.240996 0.635438
vn 0.771330 0.002623 0.636430
vn 0.733589 -0.235723 0.637403
vn 0.624080 -0.450718 0.638261
vn 0.453399 -0.621422 0.638956
vn 0.238335 -0.731003 0.639398
vn 0.000000 -0.768751 0.639548
vn -0.238335 -0.731003 0.639400
vn -0.453395 -0.621421 0.638959
vn -0.624075 -0.450720 0.638265
vn -0.733587 -0.235719 0.637406
vn -0.771330 0.002628 0.636430
vn -0.733580 0.240993 0.635439
vn -0.997184 -0.000312 -0.074993
vn -0.948376 -0.308463 -0.073715
vn -0.948378 -0.308457 -0.073716
vn -0.997184 -0.000312 -0.074993
vn -0.948385 0.307814 -0.076271
vn -0.948386 0.307811 -0.076271
vn -0.806726 0.585832 -0.077420
vn -0.806723 0.585836 -0.077420
vn -0.586119 0.806429 -0.078343
vn -0.586113 0.806433 -0.078343
vn -0.308125 0.948065 -0.078942
vn -0.308122 0.948066 -0.078942
vn -0.000000 0.996863 -0.079148
vn -0.000000 0.996863 -0.079148
vn 0.308125 0.948065 -0.078942
vn 0.308122 0.948066 -0.078942
vn 0.586118 0.806429 -0.078343
vn 0.586115 0.806431 -0.078343
vn 0.806725 0.585833 -0.077420
vn 0.806722 0.585837 -0.077420
vn 0.948385 0.307812 -0.076271
vn 0.948385 0.307813 -0.076271
vn 0.997184 -0.000312 -0.074993
vn 0.997184 -0.000312 -0.074993
vn 0.948377 -0.308459 -0.073716
vn 0.948379 -0.308452 -0.073716
vn 0.806730 -0.586449 -0.072559
vn 0.806730 -0.586449 -0.072559
vn 0.586165 -0.807018 -0.071642
vn 0.586161 -0.807021 -0.071642
vn 0.308118 -0.948691 -0.071053
vn 0.308123 -0.948690 -0.071053
vn 0.000000 -0.997487 -0.070848
vn 0.000000 -0.997487 -0.070848
vn -0.308119 -0.948691 -0.071054
vn -0.308124 -0.948689 -0.071054
vn -0.586168 -0.807016 -0.071642
vn -0.586164 -0.807019 -0.071642
vn -0.806729 -0.586451 -0.072558
vn -0.806729 -0.586450 -0.072558
vn 0.000033 -0.004080 -0.999992
vn 0.000033 -0.004080 -0.999992
vn 0.000033 -0.004080 -0.999992
vn 0.000033 -0.004080 -0.999992
vn -0.000004 0.004157 0.999991
vn -0.000004 0.004157 0.999991
vn -0.000004 0.004157 0.999991
vn -0.000004 0.004157 0.999991
vn -0.000013 -0.004177 -0.999991
vn -0.000013 -0.004177 -0.999991
vn -0.000013 -0.004177 -0.999991
vn -0.000013 -0.004177 -0.999991
vn 0.000027 0.004113 0.999992
vn 0.000027 0.004113 0.999992
vn 0.000027 0.004113 0.999992
vn 0.000027 0.004113 0.999992
vn 0.000101 -0.004152 -0.999991
vn 0.000101 -0.004152 -0.999991
vn 0.000101 -0.004152 -0.999991
vn 0.000101 -0.004152 -0.999991
vn -0.000003 0.004151 0.999991
vn -0.000003 0.004151 0.999991
vn -0.000003 0.004151 0.999991
vn -0.000003 0.004151 0.999991
vn 0.000024 -0.004154 -0.999991
vn 0.000024 -0.004154 -0.999991
vn 0.000024 -0.004154 -0.999991
vn 0.000024 -0.004154 -0.999991
vn -0.000055 0.004141 0.999991
vn -0.000055 0.004141 0.999991
vn -0.000055 0.004141 0.999991
vn -0.000055 0.004141 0.999991
vn -0.000053 -0.004053 -0.999992
vn -0.000053 -0.004053 -0.999992
vn -0.000053 -0.004053 -0.999992
vn -0.000053 -0.004053 -0.999992
vn 0.000039 0.004155 0.999991
vn 0.000039 0.004155 0.999991
vn 0.000039 0.004155 0.999991
vn 0.000039 0.004155 0.999991
vn -0.000010 -0.004054 -0.999992
vn -0.000010 -0.004054 -0.999992
vn -0.000010 -0.004054 -0.999992
vn -0.000010 -0.004054 -0.999992
vn -0.000046 0.004084 0.999992
vn -0.000046 0.004084 0.999992
vn -0.000046 0.004084 0.999992
vn -0.000046 0.004084 0.999992
vn 0.000014 -0.004054 -0.999992
vn 0.000014 -0.004054 -0.999992
vn 0.000014 -0.004054 -0.999992
vn 0.000014 -0.004054 -0.999992
vn 0.000046 0.004084 0.999992
vn 0.000046 0.004084 0.999992
vn 0.000046 0.004084 0.999992
vn 0.000046 0.004084 0.999992
vn 0.000053 -0.004053 -0.999992
vn 0.000053 -0.004053 -0.999992
vn 0.000053 -0.004053 -0.999992
vn 0.000053 -0.004053 -0.999992
vn -0.000039 0.004155 0.999991
vn -0.000039 0.004155 0.999991
vn -0.000039 0.004155 0.999991
vn -0.000039 0.004155 0.999991
vn 0.000026 -0.004107 -0.999992
vn 0.000026 -0.004107 -0.999992
vn 0.000026 -0.004107 -0.999992
vn 0.000026 -0.004107 -0.999992
vn 0.000032 0.004165 0.999991
vn 0.000032 0.004165 0.999991
vn 0.000032 0.004165 0.999991
vn 0.000032 0.004165 0.999991
vn -0.000042 -0.004119 -0.999992
vn -0.000042 -0.004119 -0.999992
vn -0.000042 -0.004119 -0.999992
vn -0.000042 -0.004119 -0.999992
vn 0.000014 0.004118 0.999992
vn 0.000014 0.004118 0.999992
vn 0.000014 0.004118 0.999992
vn 0.000014 0.004118 0.999992
vn 0.000014 -0.004177 -0.999991
vn 0.000014 -0.004177 -0.999991
vn 0.000014 -0.004177 -0.999991
vn 0.000014 -0.004177 -0.999991
vn -0.000028 0.004113 0.999992
vn -0.000028 0.004113 0.999992
vn -0.000028 0.004113 0.999992
vn -0.000028 0.004113 0.999992
vn -0.000031 -0.004080 -0.999992
vn -0.000031 -0.004080 -0.999992
vn -0.000031 -0.004080 -0.999992
vn -0.000031 -0.004080 -0.999992
vn 0.000002 0.004157 0.999991
vn 0.000002 0.004157 0.999991
vn 0.000002 0.004157 0.999991
vn 0.000002 0.004157 0.999991
vn -0.000079 -0.004108 -0.999992
vn -0.000079 -0.004108 -0.999992
vn -0.000079 -0.004108 -0.999992
vn -0.000079 -0.004108 -0.999992
vn -0.000040 0.004126 0.999991
vn -0.000040 0.004126 0.999991
vn -0.000040 0.004126 0.999992
vn -0.000040 0.004126 0.999992
vn 0.000045 -0.004175 -0.999991
vn 0.000045 -0.004175 -0.999991
vn 0.000045 -0.004175 -0.999991
vn 0.000045 -0.004175 -0.999991
vn -0.000007 0.004138 0.999991
vn -0.000007 0.004138 0.999991
vn -0.000007 0.004138 0.999991
vn -0.000007 0.004138 0.999992
vn 0.000048 -0.004257 -0.999991
vn 0.000048 -0.004257 -0.999991
vn 0.000048 -0.004257 -0.999991
vn 0.000048 -0.004257 -0.999991
vn -0.000004 0.004160 0.999991
vn -0.000004 0.004160 0.999991
vn -0.000004 0.004160 0.999991
vn -0.000004 0.004160 0.999991
vn 0.000043 -0.004138 -0.999992
vn 0.000043 -0.004138 -0.999992
vn 0.000043 -0.004138 -0.999991
vn 0.000043 -0.004138 -0.999991
vn -0.000035 0.004233 0.999991
vn -0.000035 0.004233 0.999991
vn -0.000035 0.004233 0.999991
vn -0.000035 0.004233 0.999991
vn -0.000048 -0.004138 -0.999992
vn -0.000048 -0.004138 -0.999992
vn -0.000048 -0.004138 -0.999991
vn -0.000048 -0.004138 -0.999991
vn 0.000035 0.004233 0.999991
vn 0.000035 0.004233 0.999991
vn 0.000035 0.004233 0.999991
vn 0.000035 0.004233 0.999991
vn -0.000050 -0.004257 -0.999991
vn -0.000050 -0.004257 -0.999991
vn -0.000050 -0.004257 -0.999991
vn -0.000050 -0.004257 -0.999991
vn 0.000004 0.004160 0.999991
vn 0.000004 0.004160 0.999991
vn 0.000004 0.004160 0.999991
vn 0.000004 0.004160 0.999991
vn -0.000041 -0.004175 -0.999991
vn -0.000041 -0.004175 -0.999991
vn -0.000041 -0.004175 -0.999991
vn -0.000041 -0.004175 -0.999991
vn 0.000007 0.004138 0.999991
vn 0.000007 0.004138 0.999991
vn 0.000007 0.004138 0.999991
vn 0.000007 0.004138 0.999992
vn 0.000079 -0.004108 -0.999992
vn 0.000079 -0.004108 -0.999992
vn 0.000079 -0.004108 -0.999992
vn 0.000079 -0.004108 -0.999992
vn 0.000039 0.004126 0.999992
vn 0.000039 0.004126 0.999992
vn 0.000039 0.004126 0.999992
vn 0.000039 0.004126 0.999992
s 1
g Pillar_0 Post_Lamp
usemtl openPBRSurface6SG
f 225/523/585 226/524/586 396/546/587 397/545/588
f 226/524/586 227/525/589 395/547/590 396/546/587
f 227/525/589 228/526/591 394/522/592 395/547/590
f 228/526/591 229/312/593 393/521/594 394/522/592
f 229/312/593 230/314/595 392/548/596 393/521/594
f 230/314/595 231/316/597 391/549/598 392/548/596
f 231/316/597 232/318/599 390/550/600 391/549/598
f 232/318/599 233/320/601 389/551/602 390/550/600
f 233/320/601 234/322/603 388/552/604 389/551/602
f 234/322/603 235/324/605 387/535/606 388/552/604
f 235/324/605 236/326/607 406/534/608 387/535/606
f 236/326/607 237/328/609 405/536/610 406/534/608
f 237/328/609 238/330/611 404/537/612 405/536/610
f 238/330/611 239/332/613 403/539/614 404/537/612
f 239/527/613 240/528/615 402/540/616 403/538/614
f 240/528/615 241/529/617 401/541/618 402/540/616
f 241/529/617 242/530/619 400/542/620 401/541/618
f 242/530/619 243/531/621 399/543/622 400/542/620
f 243/531/621 244/533/623 398/544/624 399/543/622
f 244/533/623 225/523/585 397/545/588 398/544/624
s 2
f 226/524/625 225/523/626 265/532/627
f 227/525/628 226/524/625 265/532/627
f 228/526/629 227/525/628 265/532/627
f 229/312/630 228/526/629 265/532/627
f 230/314/631 229/312/630 265/339/627
f 231/316/632 230/314/631 265/339/627
f 232/318/633 231/316/632 265/339/627
f 233/320/634 232/318/633 265/339/627
f 234/322/635 233/320/634 265/339/627
f 235/324/636 234/322/635 265/563/627
f 236/326/637 235/324/636 265/563/627
f 237/328/638 236/326/637 265/563/627
f 238/330/639 237/328/638 265/563/627
f 239/332/640 238/330/639 265/563/627
f 240/528/641 239/527/640 265/564/627
f 241/529/642 240/528/641 265/564/627
f 242/530/643 241/529/642 265/564/627
f 243/531/644 242/530/643 265/564/627
f 244/533/645 243/531/644 265/564/627
f 225/523/626 244/533/645 265/532/627
s 3
f 245/340/646 246/341/647 266/572/648
f 246/341/647 247/343/649 266/572/648
f 247/343/649 248/344/650 266/572/648
f 248/344/650 249/345/651 266/572/648
f 249/566/651 250/346/652 266/576/648
f 250/346/652 251/347/653 266/576/648
f 251/347/653 252/348/654 266/576/648
f 252/348/654 253/349/655 266/576/648
f 253/349/655 254/350/656 266/576/648
f 254/574/656 255/351/657 266/568/648
f 255/351/657 256/352/658 266/568/648
f 256/352/658 257/353/659 266/568/648
f 257/353/659 258/354/660 266/568/648
f 258/354/660 259/355/661 266/568/648
f 259/558/661 260/356/662 266/342/648
f 260/356/662 261/357/663 266/342/648
f 261/357/663 262/358/664 266/342/648
f 262/358/664 263/359/665 266/342/648
f 263/359/665 264/360/666 266/342/648
f 264/570/666 245/340/646 266/572/648
s 4
f 268/361/667 267/362/668 347/363/669 348/364/670
f 269/365/671 268/361/667 348/364/670 349/366/672
f 270/367/673 269/365/671 349/366/672 350/567/674
f 271/369/675 270/367/673 350/368/674 351/370/676
f 272/371/677 271/369/675 351/370/676 352/372/678
f 273/373/679 272/371/677 352/372/678 353/374/680
f 274/375/681 273/373/679 353/374/680 354/376/682
f 275/377/683 274/375/681 354/376/682 355/571/684
f 276/379/685 275/377/683 355/378/684 356/380/686
f 277/381/687 276/379/685 356/380/686 357/382/688
f 278/383/689 277/381/687 357/382/688 358/384/690
f 279/385/691 278/383/689 358/384/690 359/386/692
f 280/562/693 279/385/691 359/386/692 360/559/694
f 281/389/695 280/387/693 360/388/694 361/390/696
f 282/391/697 281/389/695 361/390/696 362/392/698
f 283/393/699 282/391/697 362/392/698 363/394/700
f 284/395/701 283/393/699 363/394/700 364/396/702
f 285/397/703 284/395/701 364/396/702 365/575/704
f 286/399/705 285/397/703 365/398/704 366/400/706
f 267/362/668 286/399/705 366/400/706 347/363/669
s 5
f 308/401/707 307/402/708 309/403/709 310/404/710
f 311/405/711 308/401/707 310/404/710 312/406/712
f 313/407/713 311/405/711 312/406/712 314/408/714
f 315/409/715 313/407/713 314/408/714 316/410/716
f 317/411/717 315/409/715 316/410/716 318/412/718
f 319/413/719 317/411/717 318/412/718 320/414/720
f 321/415/721 319/413/719 320/414/720 322/416/722
f 323/417/723 321/415/721 322/416/722 324/418/724
f 325/419/725 323/417/723 324/418/724 326/420/726
f 327/421/727 325/419/725 326/420/726 328/422/728
f 329/423/729 327/421/727 328/422/728 330/424/730
f 331/425/731 329/423/729 330/424/730 332/426/732
f 333/560/733 331/425/731 332/426/732 334/561/734
f 335/429/735 333/427/733 334/428/734 336/430/736
f 337/431/737 335/429/735 336/430/736 338/432/738
f 339/433/739 337/431/737 338/432/738 340/434/740
f 341/435/741 339/433/739 340/434/740 342/436/742
f 343/437/743 341/435/741 342/436/742 344/438/744
f 345/439/745 343/437/743 344/438/744 346/440/746
f 307/402/708 345/439/745 346/440/746 309/403/709
s off
f 288/441/747 287/442/748 307/402/749 308/401/750
f 267/362/751 268/361/752 310/404/753 309/403/754
f 289/443/755 288/441/756 308/401/757 311/405/758
f 268/361/759 269/365/760 312/406/761 310/404/762
f 290/444/763 289/443/764 311/405/765 313/407/766
f 269/365/767 270/367/768 314/408/769 312/406/770
f 291/445/771 290/444/772 313/407/773 315/409/774
f 270/367/775 271/369/776 316/410/777 314/408/778
f 292/446/779 291/445/780 315/409/781 317/411/782
f 271/369/783 272/371/784 318/412/785 316/410/786
f 293/447/787 292/446/788 317/411/789 319/413/790
f 272/371/791 273/373/792 320/414/793 318/412/794
f 294/448/795 293/447/796 319/413/797 321/415/798
f 273/373/799 274/375/800 322/416/801 320/414/802
f 295/449/803 294/448/804 321/415/805 323/417/806
f 274/375/807 275/377/808 324/418/809 322/416/810
f 296/450/811 295/449/812 323/417/813 325/419/814
f 275/377/815 276/379/816 326/420/817 324/418/818
f 297/451/819 296/450/820 325/419/821 327/421/822
f 276/379/823 277/381/824 328/422/825 326/420/826
f 298/452/827 297/451/828 327/421/829 329/423/830
f 277/381/831 278/383/832 330/424/833 328/422/834
f 299/453/835 298/452/836 329/423/837 331/425/838
f 278/383/839 279/385/840 332/426/841 330/424/842
f 300/555/843 299/453/844 331/425/845 333/560/846
f 279/385/847 280/562/848 334/561/849 332/426/850
f 301/455/851 300/454/852 333/427/853 335/429/854
f 280/387/855 281/389/856 336/430/857 334/428/858
f 302/456/859 301/455/860 335/429/861 337/431/862
f 281/389/863 282/391/864 338/432/865 336/430/866
f 303/457/867 302/456/868 337/431/869 339/433/870
f 282/391/871 283/393/872 340/434/873 338/432/874
f 304/458/875 303/457/876 339/433/877 341/435/878
f 283/393/879 284/395/880 342/436/881 340/434/882
f 305/459/883 304/458/884 341/435/885 343/437/886
f 284/395/887 285/397/888 344/438/889 342/436/890
f 306/460/891 305/459/892 343/437/893 345/439/894
f 285/397/895 286/399/896 346/440/897 344/438/898
f 287/442/899 306/460/900 345/439/901 307/402/902
f 286/399/903 267/362/904 309/403/905 346/440/906
s 4
f 348/364/670 347/363/669 367/461/907 368/462/908
f 349/366/672 348/364/670 368/462/908 369/463/909
f 350/567/674 349/366/672 369/463/909 370/565/910
f 351/370/676 350/368/674 370/464/910 371/465/911
f 352/372/678 351/370/676 371/465/911 372/466/912
f 353/374/680 352/372/678 372/466/912 373/467/913
f 354/376/682 353/374/680 373/467/913 374/468/914
f 355/571/684 354/376/682 374/468/914 375/569/915
f 356/380/686 355/378/684 375/469/915 376/470/916
f 357/382/688 356/380/686 376/470/916 377/471/917
f 358/384/690 357/382/688 377/471/917 378/472/918
f 359/386/692 358/384/690 378/472/918 379/473/919
f 360/559/694 359/386/692 379/473/919 380/557/920
f 361/390/696 360/388/694 380/474/920 381/475/921
f 362/392/698 361/390/696 381/475/921 382/476/922
f 363/394/700 362/392/698 382/476/922 383/477/923
f 364/396/702 363/394/700 383/477/923 384/478/924
f 365/575/704 364/396/702 384/478/924 385/573/925
f 366/400/706 365/398/704 385/479/925 386/480/926
f 347/363/669 366/400/706 386/480/926 367/461/907
f 368/462/908 367/461/907 252/348/927 251/347/928
f 369/463/909 368/462/908 251/347/928 250/346/929
f 370/565/910 369/463/909 250/346/929 249/566/930
f 371/465/911 370/464/910 249/345/930 248/344/931
f 372/466/912 371/465/911 248/344/931 247/343/932
f 373/467/913 372/466/912 247/343/932 246/341/933
f 374/468/914 373/467/913 246/341/933 245/340/934
f 375/569/915 374/468/914 245/340/934 264/570/935
f 376/470/916 375/469/915 264/360/935 263/359/936
f 377/471/917 376/470/916 263/359/936 262/358/937
f 378/472/918 377/471/917 262/358/937 261/357/938
f 379/473/919 378/472/918 261/357/938 260/356/939
f 380/557/920 379/473/919 260/356/939 259/558/940
f 381/475/921 380/474/920 259/355/940 258/354/941
f 382/476/922 381/475/921 258/354/941 257/353/942
f 383/477/923 382/476/922 257/353/942 256/352/943
f 384/478/924 383/477/923 256/352/943 255/351/944
f 385/573/925 384/478/924 255/351/944 254/574/945
f 386/480/926 385/479/925 254/350/945 253/349/946
f 367/461/907 386/480/926 253/349/946 252/348/927
s 6
f 408/481/947 407/482/948 409/483/949 410/484/950
f 411/485/951 408/481/947 410/484/950 412/486/952
f 413/487/953 411/485/951 412/486/952 414/488/954
f 415/489/955 413/487/953 414/488/954 416/490/956
f 417/491/957 415/489/955 416/490/956 418/492/958
f 419/493/959 417/491/957 418/492/958 420/494/960
f 421/495/961 419/493/959 420/494/960 422/496/962
f 423/497/963 421/495/961 422/496/962 424/498/964
f 425/499/965 423/497/963 424/498/964 426/500/966
f 427/501/967 425/499/965 426/500/966 428/502/968
f 429/503/969 427/501/967 428/502/968 430/504/970
f 431/505/971 429/503/969 430/504/970 432/506/972
f 433/507/973 431/505/971 432/506/972 434/508/974
f 435/509/975 433/507/973 434/508/974 436/510/976
f 437/511/977 435/509/975 436/510/976 438/512/978
f 439/553/979 437/511/977 438/512/978 440/554/980
f 441/515/981 439/513/979 440/514/980 442/516/982
f 443/517/983 441/515/981 442/516/982 444/518/984
f 445/519/985 443/517/983 444/518/984 446/520/986
f 407/482/948 445/519/985 446/520/986 409/483/949
s off
f 388/323/987 387/325/988 407/482/989 408/481/990
f 304/458/991 305/459/992 410/484/993 409/483/994
f 389/321/995 388/323/996 408/481/997 411/485/998
f 305/459/999 306/460/1000 412/486/1001 410/484/1002
f 390/319/1003 389/321/1004 411/485/1005 413/487/1006
f 306/460/1007 287/442/1008 414/488/1009 412/486/1010
f 391/317/1011 390/319/1012 413/487/1013 415/489/1014
f 287/442/1015 288/441/1016 416/490/1017 414/488/1018
f 392/315/1019 391/317/1020 415/489/1021 417/491/1022
f 288/441/1023 289/443/1024 418/492/1025 416/490/1026
f 393/313/1027 392/315/1028 417/491/1029 419/493/1030
f 289/443/1031 290/444/1032 420/494/1033 418/492/1034
f 394/311/1035 393/313/1036 419/493/1037 421/495/1038
f 290/444/1039 291/445/1040 422/496/1041 420/494/1042
f 395/310/1043 394/311/1044 421/495/1045 423/497/1046
f 291/445/1047 292/446/1048 424/498/1049 422/496/1050
f 396/308/1051 395/310/1052 423/497/1053 425/499/1054
f 292/446/1055 293/447/1056 426/500/1057 424/498/1058
f 397/309/1059 396/308/1060 425/499/1061 427/501/1062
f 293/447/1063 294/448/1064 428/502/1065 426/500/1066
f 398/338/1067 397/309/1068 427/501/1069 429/503/1070
f 294/448/1071 295/449/1072 430/504/1073 428/502/1074
f 399/337/1075 398/338/1076 429/503/1077 431/505/1078
f 295/449/1079 296/450/1080 432/506/1081 430/504/1082
f 400/336/1083 399/337/1084 431/505/1085 433/507/1086
f 296/450/1087 297/451/1088 434/508/1089 432/506/1090
f 401/335/1091 400/336/1092 433/507/1093 435/509/1094
f 297/451/1095 298/452/1096 436/510/1097 434/508/1098
f 402/334/1099 401/335/1100 435/509/1101 437/511/1102
f 298/452/1103 299/453/1104 438/512/1105 436/510/1106
f 403/333/1107 402/334/1108 437/511/1109 439/553/1110
f 299/453/1111 300/555/1112 440/554/1113 438/512/1114
f 404/331/1115 403/556/1116 439/513/1117 441/515/1118
f 300/454/1119 301/455/1120 442/516/1121 440/514/1122
f 405/329/1123 404/331/1124 441/515/1125 443/517/1126
f 301/455/1127 302/456/1128 444/518/1129 442/516/1130
f 406/327/1131 405/329/1132 443/517/1133 445/519/1134
f 302/456/1135 303/457/1136 446/520/1137 444/518/1138
f 387/325/1139 406/327/1140 445/519/1141 407/482/1142
f 303/457/1143 304/458/1144 409/483/1145 446/520/1146
