# This file uses centimeters as units for non-parametric coordinates.

mtllib Wall_Grooved_001.mtl
g default
v -138.465057 0.000008 -432.034668
v -7.534942 0.000007 -432.034668
v -138.465057 461.001343 -432.034668
v -7.534942 461.001343 -432.034668
v -138.465057 461.001343 -437.329895
v -7.534942 461.001343 -437.329895
v -138.465057 0.000008 -437.329895
v -7.534942 0.000007 -437.329895
v -72.896317 461.001343 -434.682281
v -72.896317 461.001343 -437.329895
v -72.896317 0.000007 -437.329895
v -72.896317 0.000007 -434.682281
v -69.103683 461.001343 -434.682281
v -69.103683 461.001343 -437.329895
v -69.103683 0.000007 -437.329895
v -69.103683 0.000007 -434.682281
v -138.465057 0.000008 -430.908844
v -138.465057 461.001343 -430.908844
v -7.534942 0.000007 -430.908844
v -7.534942 461.001343 -430.908844
v -74.896118 0.000007 -430.908844
v -72.896317 0.000007 -432.795380
v -74.896118 461.001343 -430.908844
v -72.896317 461.001343 -432.795380
v -67.103874 0.000007 -430.908844
v -69.103683 0.000007 -432.795380
v -67.103874 461.001343 -430.908844
v -69.103683 461.001343 -432.795380
vt 0.196477 0.026775
vt 0.326605 0.025715
vt 0.324727 0.968531
vt 0.767290 0.968119
vt 0.764988 0.968141
vt 0.328418 0.976287
vt 0.619948 0.969168
vt 0.754162 0.968243
vt 0.621869 0.026322
vt 0.755744 0.027705
vt 0.336083 0.025681
vt 0.196469 0.024480
vt 0.477360 0.025596
vt 0.488186 0.025616
vt 0.486383 0.969306
vt 0.473197 0.971574
vt 0.341958 0.968656
vt 0.612194 0.969079
vt 0.614116 0.026369
vt 0.349446 0.017914
vt 0.351435 0.968721
vt 0.353315 0.025628
vt 0.475059 0.025592
vt 0.473256 0.969278
vt 0.332226 0.025695
vt 0.330347 0.968573
vt 0.347694 0.025644
vt 0.345815 0.968683
vt 0.768868 0.027862
vt 0.194949 0.967048
vt 0.754170 0.979071
vt 0.194936 0.969344
vt 0.755776 0.016877
vt 0.766567 0.027834
vt 0.614130 0.020967
vt 0.622063 0.020916
vt 0.620144 0.974575
vt 0.486654 0.980138
vt 0.621806 0.020882
vt 0.619869 0.974601
vt 0.612189 0.974480
vt 0.488472 0.014785
vt 0.475557 0.969283
vt 0.347497 0.972562
vt 0.349394 0.021771
vt 0.328560 0.972433
vt 0.330441 0.021826
vt 0.347541 0.976418
vt 0.343837 0.025656
vt 0.334204 0.968601
vt 0.330297 0.017972
vt 0.475004 0.023295
vn 0.000000 0.000000 1.000000
vn 0.000000 0.000000 1.000000
vn 0.000000 0.000000 1.000000
vn 0.000000 0.000000 1.000000
vn 0.000000 1.000000 0.000000
vn 0.000000 1.000000 0.000000
vn 0.000000 1.000000 0.000000
vn 0.000000 1.000000 0.000000
vn 0.000000 0.000000 -1.000000
vn 0.000000 0.000000 -1.000000
vn 0.000000 0.000000 -1.000000
vn 0.000000 0.000000 -1.000000
vn -0.000000 -1.000000 0.000000
vn -0.000000 -1.000000 0.000000
vn -0.000000 -1.000000 0.000000
vn -0.000000 -1.000000 0.000000
vn 1.000000 0.000000 0.000000
vn 1.000000 0.000000 0.000000
vn 1.000000 0.000000 0.000000
vn 1.000000 0.000000 0.000000
vn -1.000000 0.000000 0.000000
vn -1.000000 0.000000 0.000000
vn -1.000000 0.000000 0.000000
vn -1.000000 0.000000 0.000000
vn 0.000000 1.000000 0.000000
vn 0.000000 1.000000 0.000000
vn 0.000000 0.000000 -1.000000
vn 0.000000 0.000000 -1.000000
vn 0.000000 -1.000000 0.000000
vn 0.000000 -1.000000 0.000000
vn 0.000000 0.000000 1.000000
vn 0.000000 0.000000 1.000000
vn 0.000000 0.000000 1.000000
vn 0.000000 0.000000 1.000000
vn 0.000000 1.000000 0.000000
vn 0.000000 1.000000 0.000000
vn 0.000000 0.000000 -1.000000
vn 0.000000 0.000000 -1.000000
vn 0.000000 -1.000000 0.000000
vn 0.000000 -1.000000 0.000000
vn 0.000000 0.000000 1.000000
vn 0.000000 0.000000 1.000000
vn 0.000000 0.000000 1.000000
vn 0.000000 0.000000 1.000000
vn -0.000000 -1.000000 -0.000000
vn -0.000000 -1.000000 -0.000000
vn -0.000000 -1.000000 -0.000000
vn -0.000000 -1.000000 -0.000000
vn -0.000000 -1.000000 -0.000000
vn 1.000000 0.000000 0.000000
vn 1.000000 0.000000 0.000000
vn 1.000000 0.000000 0.000000
vn 1.000000 0.000000 0.000000
vn 0.000000 1.000000 -0.000007
vn 0.000000 1.000000 -0.000007
vn 0.000000 1.000000 -0.000007
vn 0.000000 1.000000 -0.000007
vn 0.000000 1.000000 -0.000007
vn -1.000000 0.000000 0.000000
vn -1.000000 0.000000 0.000000
vn -1.000000 0.000000 0.000000
vn -1.000000 0.000000 0.000000
vn -1.000000 0.000000 0.000000
vn -1.000000 0.000000 0.000000
vn -1.000000 0.000000 0.000000
vn -1.000000 0.000000 0.000000
vn 0.000000 -1.000000 0.000000
vn 0.000000 -1.000000 0.000000
vn 0.000000 -1.000000 0.000000
vn 0.000000 -1.000000 0.000000
vn 0.000000 -1.000000 0.000000
vn 1.000000 0.000000 0.000000
vn 1.000000 0.000000 0.000000
vn 1.000000 0.000000 0.000000
vn 1.000000 0.000000 0.000000
vn 0.000000 1.000000 0.000000
vn 0.000000 1.000000 0.000000
vn 0.000000 1.000000 0.000000
vn 0.000000 1.000000 0.000000
vn 0.000000 1.000000 0.000000
vn 0.686204 0.000000 0.727409
vn 0.686204 0.000000 0.727409
vn 0.686204 0.000000 0.727409
vn 0.686204 0.000000 0.727409
vn -0.686202 0.000000 0.727411
vn -0.686202 0.000000 0.727411
vn -0.686202 0.000000 0.727411
vn -0.686202 0.000000 0.727411
s off
g Wall_Grooved
usemtl openPBRSurface7SG
f 17/1/1 21/2/2 23/3/3 18/30/4
s 1
f 3/31/5 9/37/6 10/7/7 5/8/8
s 2
f 5/8/9 10/7/10 11/9/11 7/10/12
s 3
f 7/10/13 11/9/14 12/36/15 1/33/16
s off
f 2/13/17 8/14/18 6/15/19 4/43/20
f 7/10/21 1/34/22 3/5/23 5/8/24
s 1
f 9/40/6 13/41/25 14/18/26 10/7/7
s 2
f 11/9/11 10/7/10 14/18/27 15/19/28
s 3
f 12/39/15 11/9/14 15/19/29 16/35/30
s off
f 9/50/31 12/11/32 16/49/33 13/17/34
s 1
f 13/41/25 4/38/35 6/15/36 14/18/26
s 2
f 15/19/28 14/18/27 6/15/37 8/14/38
s 3
f 16/35/30 15/19/29 8/14/39 2/42/40
s off
f 27/21/41 25/22/42 19/23/43 20/24/44
f 1/12/45 12/51/46 22/47/47 21/2/48 17/1/49
f 12/11/50 9/50/51 24/26/52 22/25/53
f 9/6/54 3/32/55 18/30/56 23/3/57 24/46/58
f 3/5/59 1/34/60 17/29/61 18/4/62
f 13/17/63 16/49/64 26/27/65 28/28/66
f 16/20/67 2/52/68 19/23/69 25/22/70 26/45/71
f 2/13/72 4/43/73 20/24/74 19/23/75
f 4/16/76 13/48/77 28/44/78 27/21/79 20/24/80
f 21/2/81 22/25/82 24/26/83 23/3/84
f 26/27/85 25/22/86 27/21/87 28/28/88
